<svg xmlns="http://www.w3.org/2000/svg" xmlns:xlink="http://www.w3.org/1999/xlink" width="190" height="148.703" viewBox="0 0 190 148.703">
  <defs>
    <clipPath id="clip-path">
      <rect id="Rectángulo_403855" data-name="Rectángulo 403855" width="175.504" height="138.049" fill="none"/>
    </clipPath>
    <clipPath id="clip-path-2">
      <rect id="Rectángulo_403984" data-name="Rectángulo 403984" width="142.736" height="98.727" fill="none"/>
    </clipPath>
  </defs>
  <g id="Grupo_1202860" data-name="Grupo 1202860" transform="translate(-1124.549 -6444.025)">
    <g id="Grupo_1102557" data-name="Grupo 1102557" transform="translate(734.217 4960.025)">
      <path id="Rectángulo_403736" data-name="Rectángulo 403736" d="M95,0h0a95,95,0,0,1,95,95v1a0,0,0,0,1,0,0H0a0,0,0,0,1,0,0V95A95,95,0,0,1,95,0Z" transform="translate(390.332 1536.703)" fill="#6fa150"/>
      <g id="Grupo_1102791" data-name="Grupo 1102791" transform="translate(398.912 1484)">
        <g id="Grupo_1102422" data-name="Grupo 1102422" clip-path="url(#clip-path)">
          <path id="Trazado_878427" data-name="Trazado 878427" d="M86.974,132.019l-.017,6.03,76.937-44.711.017-6.03Z" fill="#8c5a29"/>
          <path id="Trazado_878428" data-name="Trazado 878428" d="M9.517,93.339l77.44,44.71.017-6.03L9.534,87.309Z" fill="#60350e"/>
          <path id="Trazado_878429" data-name="Trazado 878429" d="M163.911,87.308,86.974,132.019,9.534,87.309,86.471,42.6Z" fill="#68940f"/>
          <path id="Trazado_878430" data-name="Trazado 878430" d="M163.911,82.017l-.017,6.03L86.957,132.758l.017-6.03Z" fill="#909923"/>
          <path id="Trazado_878431" data-name="Trazado 878431" d="M86.974,126.728l-.017,6.03L9.517,88.048l.017-6.03Z" fill="#646a18"/>
          <path id="Trazado_878432" data-name="Trazado 878432" d="M163.915,82.02l-6.023,3.5-.569.329-.429.25-10.112,5.874-29.031,16.874L86.975,126.728,16.349,85.949,9.537,82.02l7.2-4.189.8-.458,1.566-.908L36.473,66.373,54.564,55.852,81.48,40.214l1.157-.678,3.84-2.224L89.1,38.828,92.869,41,154.6,76.645l.548.319,3.221,1.855Z" fill="#bec43e"/>
        </g>
      </g>
      <g id="Grupo_1102737" data-name="Grupo 1102737" transform="translate(422.494 1501.797)">
        <path id="Trazado_880265" data-name="Trazado 880265" d="M149.459,25.739l-4.076-2.3-.016,5.842,7.009,3.991Z" transform="translate(-34.366 -2.316)" fill="#ecf0f1"/>
        <path id="Trazado_880266" data-name="Trazado 880266" d="M149.461,25.662l1.2-.7-4.076-2.3-1.2.7Z" transform="translate(-34.367 -2.24)" fill="#bdc3c7"/>
        <path id="Trazado_880267" data-name="Trazado 880267" d="M152.825,33.448l1.2-.7-2.917-7.534-1.2.7Z" transform="translate(-34.814 -2.492)" fill="#bdc3c7"/>
        <g id="Grupo_1102730" data-name="Grupo 1102730" transform="translate(-20)">
          <g id="Grupo_1102729" data-name="Grupo 1102729" clip-path="url(#clip-path-2)">
            <path id="Trazado_880268" data-name="Trazado 880268" d="M156.62,29.683a.673.673,0,0,0,.087-.191c.005-.017.01-.035.014-.052a1.032,1.032,0,0,0,.029-.236v-.015a1.548,1.548,0,0,0-.029-.279l0-.019a1.9,1.9,0,0,0-.094-.319l-1.774-4.576,1.2-.7,1.774,4.575h0q.018.046.032.092c.012.032.022.066.031.1s.02.076.028.113l0,.016,0,.018c.007.035.014.069.018.1a1.341,1.341,0,0,1,.011.178v.014a1.018,1.018,0,0,1-.029.235c0,.018-.009.035-.014.052a.644.644,0,0,1-.087.192l-2.671,3.752-1.2.7Z" transform="translate(-15.214 -2.302)" fill="#bdc3c7"/>
            <path id="Trazado_880269" data-name="Trazado 880269" d="M155.644,23.335l1.2-.7-5.421-5.018-1.2.7Z" transform="translate(-14.846 -1.741)" fill="#bdc3c7"/>
            <path id="Trazado_880270" data-name="Trazado 880270" d="M150.078,18.394l-1.312,5.6,1.161-.1,3.509,9.061,2.671-3.753a1.244,1.244,0,0,0,0-1.112l-1.774-4.576,1.163-.1Z" transform="translate(-14.702 -1.818)" fill="#ecf0f1"/>
          </g>
        </g>
        <path id="Trazado_880271" data-name="Trazado 880271" d="M137.939,19.029l1.2-.7-7.058-4.076-1.2.7Z" transform="translate(-32.934 -1.409)" fill="#bdc3c7"/>
        <path id="Trazado_880272" data-name="Trazado 880272" d="M142.836,24.613l1.2-.7-4.117-6.844-1.2.7Z" transform="translate(-33.709 -1.687)" fill="#bdc3c7"/>
        <g id="Grupo_1102732" data-name="Grupo 1102732" transform="translate(-20)">
          <g id="Grupo_1102731" data-name="Grupo 1102731" clip-path="url(#clip-path-2)">
            <path id="Trazado_880273" data-name="Trazado 880273" d="M137.943,17.569l0,1.537-7.059-4.075,2.64,6.818a2.115,2.115,0,0,0,.835,1.04l3.568,2.059,0,1.537,4.143-2.074Z" transform="translate(-12.934 -1.485)" fill="#ecf0f1"/>
            <path id="Trazado_880274" data-name="Trazado 880274" d="M137.352,17.446l1.2-.7,2.043-2.98-1.2.7Z" transform="translate(-13.574 -1.361)" fill="#bdc3c7"/>
            <path id="Trazado_880275" data-name="Trazado 880275" d="M139.137,13.868l1.2-.7-4.393-5.463-1.2.7Z" transform="translate(-13.316 -0.762)" fill="#bdc3c7"/>
            <path id="Trazado_880276" data-name="Trazado 880276" d="M134.357,8.481l-3.519,5.054,5.87,3.388,2.043-2.979Z" transform="translate(-12.93 -0.838)" fill="#ecf0f1"/>
          </g>
        </g>
        <path id="Trazado_880277" data-name="Trazado 880277" d="M137.953,3.926l1.2-.7L138,1.791l-1.2.7Z" transform="translate(-33.519 -0.177)" fill="#bdc3c7"/>
        <path id="Trazado_880278" data-name="Trazado 880278" d="M144.115,11.585l1.2-.7L144.159,9.45l-1.2.7Z" transform="translate(-34.128 -0.934)" fill="#bdc3c7"/>
        <path id="Trazado_880279" data-name="Trazado 880279" d="M142.959,9.6l1.2-.7,3.55-4.986-1.2.7Z" transform="translate(-34.128 -0.387)" fill="#bdc3c7"/>
        <g id="Grupo_1102734" data-name="Grupo 1102734" transform="translate(-20)">
          <g id="Grupo_1102733" data-name="Grupo 1102733" clip-path="url(#clip-path-2)">
            <path id="Trazado_880280" data-name="Trazado 880280" d="M140.717,1.1a.81.81,0,0,0-.157-.035h-.015a.564.564,0,0,0-.157.006l-.007,0a.468.468,0,0,0-.142.053l1.2-.7.005,0L141.492.4l.05-.018.04-.009h.006l.008,0a.416.416,0,0,1,.059-.007c.021,0,.042,0,.065,0l.026,0,.014,0,.032,0a.771.771,0,0,1,.086.019c.014,0,.027.009.04.014l.034.012.041.014a1.181,1.181,0,0,1,.135.068l5.312,3.067-1.2.7L140.926,1.2a1.044,1.044,0,0,0-.175-.081l-.034-.012" transform="translate(-13.859 -0.036)" fill="#bdc3c7"/>
            <path id="Trazado_880281" data-name="Trazado 880281" d="M140.587,1.273c-.345-.2-.667-.172-.839.073l-1.794,2.516L136.8,2.424l1.276,7.09,5.432,1.25L142.35,9.326,145.9,4.34Z" transform="translate(-13.519 -0.113)" fill="#ecf0f1"/>
            <path id="Trazado_880282" data-name="Trazado 880282" d="M151.226,14.33l1.2-.7-3.544-9.044-1.2.7Z" transform="translate(-14.594 -0.453)" fill="#bdc3c7"/>
            <path id="Trazado_880283" data-name="Trazado 880283" d="M147.358,5.362l-2.95,4.145,2.085,5.279,4.41-.38Z" transform="translate(-14.271 -0.53)" fill="#ecf0f1"/>
          </g>
        </g>
        <path id="Trazado_880284" data-name="Trazado 880284" d="M37.892,70.654h1.287l-.713-1.371Z" transform="translate(-5.721 -6.847)" fill="#3498db"/>
        <g id="Grupo_1102736" data-name="Grupo 1102736" transform="translate(6.259 2.047)">
          <g id="Grupo_1102792" data-name="Grupo 1102792">
            <path id="Trazado_880285" data-name="Trazado 880285" d="M38.57,50.66V67.4c0,.687.485.962,1.083.617L48.864,62.7a2.385,2.385,0,0,0,1.083-1.867V44.091Z" transform="translate(-12.047 -6.405)" fill="#50a6e0"/>
            <path id="Trazado_880286" data-name="Trazado 880286" d="M37.322,50.66V67.4c0,.687-.485.962-1.082.617L27.028,62.7a2.384,2.384,0,0,1-1.082-1.867V44.091Z" transform="translate(-10.8 -6.405)" fill="#3498db"/>
            <path id="Trazado_880287" data-name="Trazado 880287" d="M40.82,66.4c-.211.122-.381.024-.381-.217V52.4a.84.84,0,0,1,.381-.658c.211-.122.381-.024.381.217V65.744a.84.84,0,0,1-.381.658" transform="translate(-12.232 -7.156)" fill="#3a6f81"/>
            <path id="Trazado_880288" data-name="Trazado 880288" d="M44.84,64.08c-.211.122-.381.024-.381-.217V50.077a.84.84,0,0,1,.381-.658c.211-.122.381-.024.381.217V63.422a.84.84,0,0,1-.381.658" transform="translate(-12.629 -6.926)" fill="#3a6f81"/>
            <path id="Trazado_880289" data-name="Trazado 880289" d="M48.861,61.759c-.211.122-.381.024-.381-.217V47.756a.84.84,0,0,1,.381-.658c.211-.122.381-.024.381.217V61.1a.84.84,0,0,1-.381.658" transform="translate(-13.027 -6.697)" fill="#3a6f81"/>
            <path id="Trazado_880290" data-name="Trazado 880290" d="M37.421,35.839v.444a.876.876,0,0,1-.421.663L26,43.3l-.581.335c-.231.133-.417.053-.417-.181v-.444a.626.626,0,0,1,.065-.26L37.3,35.614a.132.132,0,0,1,.032.015.245.245,0,0,1,.089.21" transform="translate(-10.706 -5.567)" fill="#3a6f81"/>
            <path id="Trazado_880291" data-name="Trazado 880291" d="M49.387,42.59,37.223,49.535l-12.04-6.959,12.135-6.962,0,0,.03.017Z" transform="translate(-10.725 -5.567)" fill="#2980b9"/>
            <path id="Trazado_880292" data-name="Trazado 880292" d="M25.186,43.321l-.009.131-.1.059a1.07,1.07,0,0,1,.113-.189" transform="translate(-10.714 -6.329)" fill="#3a6f81"/>
            <path id="Trazado_880293" data-name="Trazado 880293" d="M37.319,35.613,25.3,42.619l-.113.068.009-.131a.933.933,0,0,1,.24-.215L37.02,35.657a.322.322,0,0,1,.3-.044" transform="translate(-10.725 -5.565)" fill="#2980b9"/>
            <path id="Trazado_880294" data-name="Trazado 880294" d="M37.141,51.386l-12.036-6.96.074-.974.009-.131.1.062L37.215,50.3Z" transform="translate(-10.717 -6.329)" fill="#3a6f81"/>
            <path id="Trazado_880295" data-name="Trazado 880295" d="M50.359,44.668,38.777,51.354c-.232.133-.419.053-.419-.18V50.73a.87.87,0,0,1,.419-.664l11.582-6.688c.232-.133.419-.052.419.181V44a.87.87,0,0,1-.419.664" transform="translate(-12.027 -6.328)" fill="#3a6f81"/>
            <path id="Trazado_880296" data-name="Trazado 880296" d="M33.744,66.759c0,1.522-1.075,2.136-2.4,1.37a5.3,5.3,0,0,1-2.4-4.144c0-1.523,1.076-2.136,2.4-1.37a5.292,5.292,0,0,1,2.4,4.144" transform="translate(-11.096 -8.203)" fill="#503b2c"/>
            <path id="Trazado_880297" data-name="Trazado 880297" d="M28.567,63.079l1.032-.615-.315.781Z" transform="translate(-11.059 -8.22)" fill="#503b2c"/>
            <path id="Trazado_880298" data-name="Trazado 880298" d="M32.393,69.4l1-.586-.67-1.267Z" transform="translate(-11.437 -8.723)" fill="#503b2c"/>
            <path id="Trazado_880299" data-name="Trazado 880299" d="M32.71,67.369c0,1.522-1.075,2.136-2.4,1.37a5.3,5.3,0,0,1-2.4-4.144c0-1.523,1.076-2.136,2.4-1.37a5.292,5.292,0,0,1,2.4,4.144" transform="translate(-10.994 -8.263)" fill="#5e4534"/>
            <path id="Trazado_880300" data-name="Trazado 880300" d="M31.347,66.7c0,.552-.39.775-.872.5a1.923,1.923,0,0,1-.871-1.5c0-.553.39-.776.871-.5a1.92,1.92,0,0,1,.872,1.5" transform="translate(-11.161 -8.479)" fill="#a5c63b"/>
            <path id="Trazado_880301" data-name="Trazado 880301" d="M40.718,41.621a.14.14,0,0,0-.059-.13l-.834-.485a.143.143,0,0,1,.059.13l0,.906.835.485Z" transform="translate(-12.171 -6.1)" fill="#503b2c"/>
            <path id="Trazado_880302" data-name="Trazado 880302" d="M40.28,40.618a.718.718,0,0,1,.135-.03h.013a.459.459,0,0,1,.132.007h.007a.439.439,0,0,1,.119.045l-.834-.485,0,0a.363.363,0,0,0-.042-.02.223.223,0,0,0-.043-.015.178.178,0,0,0-.03-.007l-.006,0-.011,0-.05-.005H39.61l-.018,0h-.012l-.032,0a.531.531,0,0,0-.073.016l-.031.011-.03.01c-.012,0-.024.007-.037.013a1.046,1.046,0,0,0-.115.057l-2.812,1.624a1.325,1.325,0,0,0-.155.107l-.048.042c-.024.021-.049.041-.072.064s-.021.023-.032.033l-.028.029-.031.033c-.023.027-.046.054-.068.082-.007.01-.014.021-.023.031l-.011.015-.022.029c-.016.023-.032.047-.048.071l-.043.07,0,.006,0,.005-.032.059q-.019.034-.035.07c-.011.021-.021.042-.03.064l0,0,0,0c-.011.025-.021.05-.031.075s-.019.052-.028.077-.007.026-.012.039l0,.017-.009.029c-.009.032-.017.063-.023.095s-.006.038-.01.057l-.005.03,0,.028a1.084,1.084,0,0,0-.01.161l0,.906.835.486,0-.907a1.234,1.234,0,0,1,.015-.188l.005-.031a1.431,1.431,0,0,1,.041-.179l.005-.017a1.584,1.584,0,0,1,.072-.195l0,0a2.033,2.033,0,0,1,.1-.193l0-.005a1.917,1.917,0,0,1,.115-.177l.012-.015a1.717,1.717,0,0,1,.121-.145l.028-.03a1.311,1.311,0,0,1,.1-.1c.015-.014.032-.03.048-.042a1.232,1.232,0,0,1,.155-.108L40.1,40.7a.909.909,0,0,1,.152-.07l.029-.01" transform="translate(-11.757 -6.01)" fill="#503b2c"/>
            <path id="Trazado_880303" data-name="Trazado 880303" d="M40.19,40.752c.456-.263.827-.051.829.472l0,.907-.625.36,0-.906c0-.128-.092-.18-.2-.115L37.38,43.092a.446.446,0,0,0-.2.35l0,.906-.624.36,0-.907a1.816,1.816,0,0,1,.824-1.427Z" transform="translate(-11.848 -6.064)" fill="#5e4534"/>
            <path id="Trazado_880304" data-name="Trazado 880304" d="M22.03,80.32h1.287L22.6,78.949Z" transform="translate(-10.413 -9.85)" fill="#3498db"/>
            <path id="Trazado_880305" data-name="Trazado 880305" d="M22.709,60.326V77.064c0,.687.485.963,1.083.617L33,72.364A2.384,2.384,0,0,0,34.085,70.5V53.757Z" transform="translate(-10.48 -7.36)" fill="#50a6e0"/>
            <path id="Trazado_880306" data-name="Trazado 880306" d="M21.461,60.326V77.064c0,.687-.485.963-1.082.617l-9.212-5.318A2.384,2.384,0,0,1,10.085,70.5V53.757Z" transform="translate(-9.232 -7.36)" fill="#3498db"/>
            <path id="Trazado_880373" data-name="Trazado 880373" d="M97.418,45.4V30.5H94.392V45.414a.706.706,0,0,0,.43.7,2.386,2.386,0,0,0,2.159,0,.715.715,0,0,0,.437-.707" transform="translate(-17.416 -1.772)" fill="#5e4534"/>
            <path id="Trazado_880307" data-name="Trazado 880307" d="M24.958,76.068c-.211.122-.381.024-.381-.217V62.065a.84.84,0,0,1,.381-.658c.211-.122.381-.024.381.217V75.41a.84.84,0,0,1-.381.658" transform="translate(-10.665 -8.111)" fill="#3a6f81"/>
            <path id="Trazado_880308" data-name="Trazado 880308" d="M28.979,73.747c-.211.122-.381.024-.381-.217V59.744a.84.84,0,0,1,.381-.658c.211-.122.381-.024.381.217V73.089a.84.84,0,0,1-.381.658" transform="translate(-11.062 -7.881)" fill="#3a6f81"/>
            <path id="Trazado_880309" data-name="Trazado 880309" d="M33,71.426c-.211.122-.381.024-.381-.217V57.423A.84.84,0,0,1,33,56.765c.211-.122.381-.024.381.217V70.768a.84.84,0,0,1-.381.658" transform="translate(-11.459 -7.652)" fill="#3a6f81"/>
            <path id="Trazado_880310" data-name="Trazado 880310" d="M21.56,45.506v.444a.876.876,0,0,1-.421.663l-11,6.352-.58.335c-.231.133-.417.053-.417-.181v-.444a.626.626,0,0,1,.065-.26l12.234-7.135a.176.176,0,0,1,.032.015.246.246,0,0,1,.089.21" transform="translate(-9.139 -6.522)" fill="#3a6f81"/>
            <path id="Trazado_880311" data-name="Trazado 880311" d="M33.525,52.256,21.361,59.2,9.322,52.243l12.135-6.962,0,0,.03.017Z" transform="translate(-9.157 -6.522)" fill="#2980b9"/>
            <path id="Trazado_880312" data-name="Trazado 880312" d="M9.324,52.987l-.009.131-.1.059a1.07,1.07,0,0,1,.113-.189" transform="translate(-9.146 -7.284)" fill="#3a6f81"/>
            <path id="Trazado_880313" data-name="Trazado 880313" d="M21.457,45.279,9.439,52.285l-.113.068.009-.131a.933.933,0,0,1,.24-.215l11.583-6.685a.322.322,0,0,1,.3-.044" transform="translate(-9.157 -6.52)" fill="#2980b9"/>
            <path id="Trazado_880314" data-name="Trazado 880314" d="M21.28,61.052,9.244,54.092l.074-.974.009-.131.1.062,11.923,6.914Z" transform="translate(-9.149 -7.284)" fill="#3a6f81"/>
            <path id="Trazado_880315" data-name="Trazado 880315" d="M34.5,54.335,22.915,61.021c-.232.133-.419.053-.419-.18V60.4a.87.87,0,0,1,.419-.664L34.5,53.045c.232-.133.419-.052.419.181v.444a.87.87,0,0,1-.419.664" transform="translate(-10.459 -7.283)" fill="#3a6f81"/>
            <path id="Trazado_880316" data-name="Trazado 880316" d="M17.883,76.425c0,1.522-1.075,2.136-2.4,1.37a5.3,5.3,0,0,1-2.4-4.144c0-1.523,1.076-2.136,2.4-1.37a5.292,5.292,0,0,1,2.4,4.144" transform="translate(-9.528 -9.158)" fill="#503b2c"/>
            <path id="Trazado_880317" data-name="Trazado 880317" d="M12.706,72.745l1.032-.615-.315.781Z" transform="translate(-9.491 -9.176)" fill="#503b2c"/>
            <path id="Trazado_880318" data-name="Trazado 880318" d="M16.532,79.068l1-.586-.67-1.267Z" transform="translate(-9.87 -9.678)" fill="#503b2c"/>
            <path id="Trazado_880319" data-name="Trazado 880319" d="M16.848,77.035c0,1.522-1.075,2.136-2.4,1.37a5.3,5.3,0,0,1-2.4-4.144c0-1.523,1.076-2.136,2.4-1.37a5.292,5.292,0,0,1,2.4,4.144" transform="translate(-9.426 -9.218)" fill="#5e4534"/>
            <path id="Trazado_880320" data-name="Trazado 880320" d="M15.486,76.368c0,.552-.39.775-.872.5a1.923,1.923,0,0,1-.871-1.5c0-.553.39-.776.871-.5a1.92,1.92,0,0,1,.872,1.5" transform="translate(-9.594 -9.434)" fill="#a5c63b"/>
            <path id="Trazado_880321" data-name="Trazado 880321" d="M24.857,51.287a.14.14,0,0,0-.059-.13l-.834-.485a.143.143,0,0,1,.059.13l0,.906.835.486Z" transform="translate(-10.604 -7.055)" fill="#503b2c"/>
            <path id="Trazado_880322" data-name="Trazado 880322" d="M24.418,50.284a.718.718,0,0,1,.135-.03h.013a.459.459,0,0,1,.132.007h.007a.439.439,0,0,1,.119.045l-.834-.485,0,0a.361.361,0,0,0-.042-.02.224.224,0,0,0-.043-.015.179.179,0,0,0-.03-.007l-.006,0-.011,0a.3.3,0,0,0-.05-.006h-.055l-.018,0h-.012l-.032,0a.706.706,0,0,0-.073.016l-.031.011-.03.01c-.012,0-.024.007-.037.013a1.046,1.046,0,0,0-.115.057L20.59,51.5a1.325,1.325,0,0,0-.155.107l-.048.042c-.024.021-.049.041-.072.064s-.021.023-.032.033l-.028.029-.031.033c-.023.027-.046.054-.068.082-.007.01-.014.021-.023.031l-.011.015-.022.029c-.016.023-.032.047-.048.071s-.029.047-.043.07l0,.006,0,.005-.032.059q-.019.034-.035.07c-.011.021-.021.042-.03.064l0,0,0,0c-.011.025-.021.05-.031.075s-.019.052-.028.078-.007.026-.012.039l-.005.017-.008.029c-.009.032-.017.063-.023.095s-.006.038-.01.057l-.005.03,0,.028a1.223,1.223,0,0,0-.011.161l0,.906.835.486,0-.907a1.234,1.234,0,0,1,.015-.188l.005-.031a1.431,1.431,0,0,1,.041-.179L20.669,53a1.74,1.74,0,0,1,.071-.195l0,0a1.841,1.841,0,0,1,.1-.193l0-.005a1.916,1.916,0,0,1,.115-.177l.012-.015a1.716,1.716,0,0,1,.121-.145l.027-.03c.033-.034.068-.066.1-.1.016-.014.032-.03.049-.042a1.232,1.232,0,0,1,.155-.108l2.812-1.623a.91.91,0,0,1,.152-.07l.029-.01" transform="translate(-10.189 -6.966)" fill="#503b2c"/>
            <path id="Trazado_880323" data-name="Trazado 880323" d="M24.328,50.418c.456-.263.827-.051.829.472l0,.907-.625.36,0-.906c0-.128-.092-.18-.2-.115l-2.812,1.623a.441.441,0,0,0-.2.35l0,.906-.624.36,0-.907a1.816,1.816,0,0,1,.824-1.427Z" transform="translate(-10.281 -7.019)" fill="#5e4534"/>
            <path id="Trazado_880357" data-name="Trazado 880357" d="M74.986,85.929v.382c0,.061-.01.119-.019.181v-.735c.009.058.014.115.019.172" transform="translate(-15.644 -10.522)" fill="#a5c63b"/>
            <path id="Trazado_880363" data-name="Trazado 880363" d="M25.6,6.638a4.045,4.045,0,0,1,.415-.281,3.216,3.216,0,0,1,.335-.167c.035-.015.069-.028.1-.041.064-.024.126-.047.188-.065.04-.012.079-.024.118-.033s.074-.017.11-.023.095-.016.141-.022L27.091,6a1.561,1.561,0,0,1,.171,0H27.3a1.553,1.553,0,0,1,.2.025c.016,0,.032.007.047.011a1.312,1.312,0,0,1,.147.042l.046.016a1.241,1.241,0,0,1,.175.083l-2.78-1.616-.014-.008a1.425,1.425,0,0,0-.134-.066l-.026-.009-.045-.016c-.023-.008-.046-.017-.07-.024s-.051-.012-.077-.018L24.719,4.4,24.693,4.4a1.547,1.547,0,0,0-.161-.019h-.05c-.041,0-.084,0-.127,0l-.044,0-.08.008c-.025,0-.049,0-.075.008s-.044.01-.066.014c-.037.007-.073.014-.11.023-.02.005-.039.007-.059.013s-.041.014-.059.021q-.093.028-.189.065c-.022.009-.043.014-.066.023s-.025.014-.038.02a3.228,3.228,0,0,0-.336.167,4.135,4.135,0,0,0-.415.28c-.033.026-.067.051-.1.078a5.064,5.064,0,0,0-.388.342l0,0c-.092.091-.181.187-.269.285l2.78,1.616q.131-.15.27-.287a5.067,5.067,0,0,1,.388-.342l.1-.078" transform="translate(-1.404 5.631)" fill="#bdc3c7"/>
            <path id="Trazado_880364" data-name="Trazado 880364" d="M17.562,1.9l.032-.01c.159-.053.314-.094.468-.131.088-.022.176-.04.262-.057.114-.021.227-.039.339-.051.064-.007.129-.015.192-.02.14-.009.277-.013.411-.008.031,0,.063,0,.094,0a3.516,3.516,0,0,1,.473.059c.038.007.075.017.112.026a3.251,3.251,0,0,1,.353.1c.035.013.072.023.107.038a3.087,3.087,0,0,1,.42.2l0,0,0,0L18.045.43,18.01.409a3.016,3.016,0,0,0-.321-.157L17.626.23C17.59.216,17.554.2,17.517.192c-.055-.02-.109-.042-.166-.059S17.228.1,17.166.09L17.053.064,16.992.05a3.569,3.569,0,0,0-.387-.045H16.58c-.031,0-.062,0-.093,0-.1,0-.2-.007-.306,0-.034,0-.07.008-.105.011-.064,0-.128.012-.193.019S15.765.041,15.7.05s-.107.024-.16.034c-.087.016-.173.034-.261.056-.048.012-.094.017-.141.031-.108.029-.217.063-.327.1l-.032.01c-.13.045-.261.094-.394.15-.052.022-.105.049-.158.072l-.152.069c-.193.091-.388.19-.586.3-.178.1-.353.214-.527.331-.057.038-.113.08-.169.12-.116.081-.233.164-.347.251-.066.05-.13.1-.195.155-.1.083-.206.168-.308.256-.067.057-.132.116-.2.176-.1.088-.195.179-.291.271-.036.035-.073.067-.109.1-.021.021-.04.044-.06.065-.207.207-.41.422-.606.646l-.03.032c-.033.038-.063.078-.1.116-.116.137-.231.276-.343.418-.024.031-.05.06-.076.091s-.058.08-.087.12c-.082.107-.161.215-.241.325-.032.045-.066.088-.1.133l-.069.1c-.066.1-.13.192-.194.289-.035.054-.073.106-.108.161-.022.033-.041.068-.062.1-.055.087-.108.176-.161.265-.035.059-.073.115-.107.175-.021.036-.041.074-.062.111-.049.085-.1.17-.142.257-.032.057-.065.114-.1.171-.023.042-.042.086-.065.127-.044.086-.087.171-.13.258-.027.053-.055.105-.081.16s-.044.1-.067.146c-.041.087-.081.175-.121.262-.022.049-.045.1-.067.146s-.042.106-.065.16c-.039.093-.078.185-.114.278-.018.045-.038.09-.055.135s-.038.106-.058.16c-.038.1-.075.206-.111.309-.015.046-.033.091-.049.137-.035.106-.069.213-.1.318C7.584,8.705,7.543,8.7,7.5,8.69s-.065-.007-.1-.011-.09-.013-.136-.016l-.057-.007c-.034,0-.071,0-.106,0-.051,0-.1,0-.157,0-.018,0-.036,0-.055,0s-.068.008-.1.01c-.064.005-.128.011-.194.02-.022,0-.042,0-.065.006s-.055.013-.081.017c-.086.015-.172.033-.26.055-.029.007-.057.011-.086.019s-.055.017-.082.025-.072.022-.109.033c-.08.025-.16.054-.242.085l-.1.036-.039.014c-.068.028-.136.062-.2.094-.041.018-.08.034-.12.054-.122.059-.243.124-.367.2-.157.09-.311.19-.464.295-.05.034-.1.071-.147.107-.1.074-.205.15-.305.23-.057.045-.112.092-.167.138-.093.078-.185.158-.275.24l-.165.154c-.033.032-.068.062-.1.1s-.068.075-.1.111q-.165.168-.324.345c-.033.038-.07.072-.1.111s-.054.067-.081.1c-.065.076-.127.153-.189.231-.041.05-.085.1-.124.15s-.063.087-.1.13l-.135.183c-.031.042-.063.084-.093.127-.051.072-.1.147-.148.22-.032.047-.064.094-.095.141-.013.021-.027.04-.04.059q-.13.2-.251.412l-.015.027c-.016.028-.031.057-.047.084-.056.1-.113.2-.166.3-.025.046-.047.093-.071.14l-.074.145c-.022.043-.044.086-.065.129-.055.113-.105.227-.157.342-.009.021-.019.041-.028.063l-.008.017q-.095.218-.178.437c-.011.026-.019.053-.029.079-.02.053-.039.106-.058.16-.026.073-.054.146-.078.219-.019.057-.034.113-.052.169s-.041.134-.061.2c-.012.041-.026.083-.038.124-.021.074-.036.148-.054.222S.217,15.919.2,16c-.006.029-.015.058-.022.087-.013.059-.019.119-.031.178-.024.13-.048.259-.067.388,0,.035-.014.072-.018.107-.011.081-.016.161-.023.242-.006.058-.013.115-.017.172-.014.181-.023.36-.022.537a3.4,3.4,0,0,0,1.418,3.119L4.2,22.448A3.4,3.4,0,0,1,2.78,19.329c0-.178.007-.357.021-.538,0-.057.012-.114.017-.171.012-.115.025-.233.042-.35s.041-.257.067-.386c.017-.089.032-.178.052-.268s.04-.165.06-.247c.029-.116.059-.233.093-.348.02-.068.041-.133.061-.2.041-.131.084-.26.131-.39.019-.053.037-.106.058-.16q.1-.269.214-.534c.009-.021.02-.041.029-.062.07-.159.144-.315.222-.47.024-.049.049-.1.074-.145.076-.149.155-.295.238-.44.015-.028.03-.055.046-.083.1-.169.2-.335.306-.5l.094-.141c.078-.117.16-.233.242-.348.044-.061.089-.122.134-.182.072-.1.146-.188.221-.281.062-.078.124-.155.188-.23s.123-.141.186-.21c.105-.119.214-.233.324-.345.068-.07.137-.14.207-.207l.164-.153c.091-.082.183-.162.276-.24.055-.047.11-.093.166-.138.1-.08.2-.156.306-.231.049-.035.1-.073.147-.106.152-.105.307-.2.464-.295q.185-.107.366-.2c.041-.02.08-.036.121-.055.081-.038.162-.075.242-.107.032-.014.064-.024.1-.036.082-.032.162-.06.242-.086l.109-.033c.056-.016.112-.03.167-.043.087-.022.174-.04.26-.055l.147-.024c.066-.008.13-.014.194-.019s.1-.008.156-.009.1,0,.157,0,.11,0,.163.008.091.01.135.015c.075.01.15.02.221.036.047-.152.1-.3.151-.455q.053-.154.111-.308c.036-.1.074-.2.113-.3s.075-.186.114-.278.087-.2.131-.3.08-.176.122-.264.1-.2.147-.3.087-.172.131-.259.105-.2.16-.3.095-.172.143-.257.112-.191.169-.287.107-.177.162-.264.113-.176.169-.263.129-.195.195-.29c.055-.079.111-.158.168-.236q.118-.165.24-.325c.054-.071.109-.141.164-.212q.168-.212.342-.417c.042-.05.084-.1.126-.149q.295-.337.606-.647l.169-.166c.1-.093.194-.183.293-.272q.1-.089.2-.176c.1-.087.205-.172.309-.256.065-.051.129-.1.194-.154.114-.088.231-.17.348-.252.056-.04.112-.081.169-.119.173-.117.349-.228.526-.331.2-.114.393-.213.587-.3.05-.023.1-.047.151-.068.187-.083.371-.16.552-.222" transform="translate(0.776 6.063)" fill="#bdc3c7"/>
            <path id="Trazado_880365" data-name="Trazado 880365" d="M24.138,6.1a4.792,4.792,0,0,0-1.172.987Q23,6.7,23,6.326c-.012-4.063-2.886-5.7-6.42-3.658a14.169,14.169,0,0,0-5.867,7.839,3.915,3.915,0,0,0-2.776.6,10.687,10.687,0,0,0-4.849,8.4c.008,2.932,1.979,4.2,4.481,2.993.131-.064.264-.132.4-.211s.264-.161.4-.249l15.8-9.12a6.254,6.254,0,0,0,2.659-5.292c-.005-1.7-1.2-2.376-2.678-1.526" transform="translate(0.471 5.886)" fill="#ecf0f1"/>
            <path id="Trazado_880374" data-name="Trazado 880374" d="M103.61,32.026a12.746,12.746,0,0,0-1.18-2.107L99.3,24.587l-3.373-5.75q-.4-.689-.809-1.38L87.06,31.14a3.342,3.342,0,0,0-.279,3.292,5.372,5.372,0,0,0,2.176,2.116,13.579,13.579,0,0,0,12.29-.023,5.143,5.143,0,0,0,2.405-2.816,2.655,2.655,0,0,0-.042-1.682" transform="translate(-16.78 -3.773)" fill="#a5c63b"/>
            <path id="Trazado_880375" data-name="Trazado 880375" d="M101.7,36.693a13.587,13.587,0,0,1-12.291.023A5.379,5.379,0,0,1,87.232,34.6a2.91,2.91,0,0,1-.287-1.718,3.248,3.248,0,0,0-.164,3.074,5.371,5.371,0,0,0,2.175,2.117,13.587,13.587,0,0,0,12.291-.023,5.143,5.143,0,0,0,2.405-2.816,2.8,2.8,0,0,0,.1-.543,5.593,5.593,0,0,1-2.053,2" transform="translate(-16.781 -5.297)" fill="#8eb021"/>
            <path id="Trazado_880376" data-name="Trazado 880376" d="M102.085,24.76a11.411,11.411,0,0,0-1.556-2.782L96.852,15.71q-.775-1.319-1.547-2.638l-2.1,3.561-3.447,5.85c-.511.867-1.426,2.009-1.438,3.023a3.537,3.537,0,0,0,2.039,2.876,10.893,10.893,0,0,0,9.857-.017,3.457,3.457,0,0,0,1.867-3.6" transform="translate(-16.964 -3.339)" fill="#a5c63b"/>
            <path id="Trazado_880377" data-name="Trazado 880377" d="M100.459,17.218a2.208,2.208,0,0,0-.427-.729L95.525,8.805l-4.679,7.942c-.726,1.233-.021,2.439,1.115,3.095a7.856,7.856,0,0,0,7.107-.013c1.231-.711,1.7-1.7,1.392-2.611" transform="translate(-17.184 -2.918)" fill="#a5c63b"/>
            <path id="Trazado_880378" data-name="Trazado 880378" d="M99.519,19.751a7.851,7.851,0,0,1-7.106.013,2.365,2.365,0,0,1-1.328-2.6l-.239.406c-.727,1.233-.022,2.439,1.115,3.095a7.851,7.851,0,0,0,7.106-.014,2.727,2.727,0,0,0,1.438-1.715,3.6,3.6,0,0,1-.986.811" transform="translate(-17.184 -3.744)" fill="#8eb021"/>
            <path id="Trazado_880379" data-name="Trazado 880379" d="M100.67,28.215a10.9,10.9,0,0,1-9.857.018,3.538,3.538,0,0,1-2.039-2.876c0-.024.007-.049.008-.073a3.226,3.226,0,0,0-.461,1.429,3.538,3.538,0,0,0,2.039,2.876,10.9,10.9,0,0,0,9.857-.018,3.756,3.756,0,0,0,1.934-2.8,4.219,4.219,0,0,1-1.482,1.443" transform="translate(-16.964 -4.546)" fill="#8eb021"/>
            <path id="Trazado_880380" data-name="Trazado 880380" d="M82.21,38.868v-14.9H79.184V38.882a.7.7,0,0,0,.431.7,2.384,2.384,0,0,0,2.158,0,.713.713,0,0,0,.437-.707" transform="translate(-16.061 -4.416)" fill="#5e4534"/>
            <path id="Trazado_880381" data-name="Trazado 880381" d="M88.4,25.493a12.746,12.746,0,0,0-1.18-2.107L84.1,18.054,80.723,12.3q-.4-.689-.809-1.38l-8.06,13.683a3.34,3.34,0,0,0-.28,3.292,5.372,5.372,0,0,0,2.176,2.116,13.579,13.579,0,0,0,12.29-.023,5.143,5.143,0,0,0,2.405-2.816,2.655,2.655,0,0,0-.042-1.682" transform="translate(-15.278 -3.127)" fill="#a5c63b"/>
            <path id="Trazado_880382" data-name="Trazado 880382" d="M86.492,30.16a13.587,13.587,0,0,1-12.291.023,5.379,5.379,0,0,1-2.176-2.117,2.91,2.91,0,0,1-.287-1.718,3.248,3.248,0,0,0-.164,3.074,5.371,5.371,0,0,0,2.175,2.117,13.587,13.587,0,0,0,12.291-.023A5.143,5.143,0,0,0,88.445,28.7a2.8,2.8,0,0,0,.1-.543,5.593,5.593,0,0,1-2.053,2" transform="translate(-15.278 -4.651)" fill="#8eb021"/>
            <path id="Trazado_880383" data-name="Trazado 880383" d="M86.878,18.227a11.428,11.428,0,0,0-1.556-2.782L81.645,9.177Q80.87,7.857,80.1,6.539L78,10.1l-3.447,5.85c-.511.867-1.426,2.009-1.438,3.023a3.537,3.537,0,0,0,2.039,2.876,10.893,10.893,0,0,0,9.857-.017,3.457,3.457,0,0,0,1.867-3.6" transform="translate(-15.461 -2.694)" fill="#a5c63b"/>
            <path id="Trazado_880384" data-name="Trazado 880384" d="M85.252,10.685a2.208,2.208,0,0,0-.427-.729L80.318,2.272l-4.679,7.942c-.726,1.233-.021,2.439,1.116,3.095A7.854,7.854,0,0,0,83.86,13.3c1.231-.711,1.7-1.7,1.392-2.611" transform="translate(-15.682 -2.272)" fill="#a5c63b"/>
            <path id="Trazado_880385" data-name="Trazado 880385" d="M84.311,13.219a7.854,7.854,0,0,1-7.106.013,2.365,2.365,0,0,1-1.328-2.6l-.239.406c-.727,1.233-.022,2.439,1.115,3.095a7.851,7.851,0,0,0,7.106-.014A2.727,2.727,0,0,0,85.3,12.408a3.6,3.6,0,0,1-.986.811" transform="translate(-15.682 -3.099)" fill="#8eb021"/>
            <path id="Trazado_880386" data-name="Trazado 880386" d="M85.462,21.682A10.9,10.9,0,0,1,75.6,21.7a3.538,3.538,0,0,1-2.039-2.876c0-.024.007-.049.008-.073a3.229,3.229,0,0,0-.461,1.429,3.537,3.537,0,0,0,2.039,2.876,10.893,10.893,0,0,0,9.857-.018,3.756,3.756,0,0,0,1.934-2.8,4.219,4.219,0,0,1-1.482,1.443" transform="translate(-15.461 -3.901)" fill="#8eb021"/>
            <path id="Trazado_880387" data-name="Trazado 880387" d="M65.515,39.584v-14.9H62.489V39.6a.7.7,0,0,0,.431.7,2.384,2.384,0,0,0,2.158,0,.714.714,0,0,0,.437-.707" transform="translate(-14.411 -4.486)" fill="#5e4534"/>
            <path id="Trazado_880388" data-name="Trazado 880388" d="M62.215,31.177A5.232,5.232,0,0,1,58.3,29.657a6.918,6.918,0,0,1-1.67-4.592l2.018.06-1.009-.031,1.009.026a4.909,4.909,0,0,0,1.108,3.139,3.258,3.258,0,0,0,2.463.9Z" transform="translate(-13.832 -4.524)" fill="#5e4534"/>
            <path id="Trazado_880389" data-name="Trazado 880389" d="M72.07,17.955A7.865,7.865,0,1,1,64.2,10.09a7.865,7.865,0,0,1,7.865,7.865" transform="translate(-13.804 -3.045)" fill="#a5c63b"/>
            <path id="Trazado_880390" data-name="Trazado 880390" d="M65.109,24.775a7.862,7.862,0,0,1-6.956-11.531A7.863,7.863,0,1,0,71.16,21.931a7.843,7.843,0,0,1-6.05,2.843" transform="translate(-13.804 -3.356)" fill="#8eb021"/>
            <path id="Trazado_880391" data-name="Trazado 880391" d="M61.046,23.525a4.5,4.5,0,1,1-4.5-4.5,4.5,4.5,0,0,1,4.5,4.5" transform="translate(-13.379 -3.927)" fill="#a5c63b"/>
            <path id="Trazado_880392" data-name="Trazado 880392" d="M57.061,27.429a4.5,4.5,0,0,1-3.981-6.6A4.5,4.5,0,1,0,60.525,25.8a4.493,4.493,0,0,1-3.464,1.628" transform="translate(-13.379 -4.106)" fill="#8eb021"/>
            <g id="Grupo_1102795" data-name="Grupo 1102795" transform="translate(94.217 24.662)">
              <path id="Trazado_880366" data-name="Trazado 880366" d="M129.641,77.234V62.33h-3.026V77.249a.7.7,0,0,0,.431.7,2.384,2.384,0,0,0,2.158,0,.714.714,0,0,0,.437-.707" transform="translate(-119.47 -42.782)" fill="#5e4534"/>
              <path id="Trazado_880367" data-name="Trazado 880367" d="M135.834,63.86a12.746,12.746,0,0,0-1.18-2.107l-3.127-5.332-3.373-5.75q-.4-.689-.809-1.38l-8.061,13.683A3.342,3.342,0,0,0,119,66.266a5.372,5.372,0,0,0,2.176,2.116,13.585,13.585,0,0,0,12.29-.023,5.142,5.142,0,0,0,2.405-2.816,2.655,2.655,0,0,0-.042-1.682" transform="translate(-118.687 -41.493)" fill="#a5c63b"/>
              <path id="Trazado_880368" data-name="Trazado 880368" d="M133.923,68.527a13.587,13.587,0,0,1-12.291.023,5.372,5.372,0,0,1-2.175-2.117,2.9,2.9,0,0,1-.288-1.718A3.251,3.251,0,0,0,119,67.789a5.371,5.371,0,0,0,2.175,2.117,13.587,13.587,0,0,0,12.291-.023,5.142,5.142,0,0,0,2.405-2.816,2.8,2.8,0,0,0,.1-.543,5.586,5.586,0,0,1-2.053,2" transform="translate(-118.688 -43.017)" fill="#8eb021"/>
              <path id="Trazado_880369" data-name="Trazado 880369" d="M134.309,56.593a11.427,11.427,0,0,0-1.556-2.782l-3.677-6.269q-.775-1.319-1.547-2.638l-2.1,3.561-3.447,5.85c-.511.867-1.426,2.009-1.438,3.023a3.537,3.537,0,0,0,2.039,2.876,10.893,10.893,0,0,0,9.857-.017,3.457,3.457,0,0,0,1.867-3.6" transform="translate(-118.871 -41.06)" fill="#a5c63b"/>
              <path id="Trazado_880370" data-name="Trazado 880370" d="M132.683,49.051a2.2,2.2,0,0,0-.427-.729l-4.508-7.684L123.07,48.58c-.726,1.233-.021,2.439,1.116,3.095a7.854,7.854,0,0,0,7.106-.013c1.231-.711,1.7-1.7,1.392-2.611" transform="translate(-119.091 -40.638)" fill="#a5c63b"/>
              <path id="Trazado_880371" data-name="Trazado 880371" d="M131.743,51.585a7.853,7.853,0,0,1-7.107.013,2.364,2.364,0,0,1-1.327-2.6c-.15.253-.238.4-.239.406-.727,1.233-.023,2.439,1.115,3.095a7.852,7.852,0,0,0,7.1-.014,2.729,2.729,0,0,0,1.438-1.715,3.606,3.606,0,0,1-.985.811" transform="translate(-119.091 -41.465)" fill="#8eb021"/>
              <path id="Trazado_880372" data-name="Trazado 880372" d="M132.894,60.049a10.9,10.9,0,0,1-9.857.018A3.538,3.538,0,0,1,121,57.191c0-.024.007-.049.008-.073a3.238,3.238,0,0,0-.461,1.429,3.537,3.537,0,0,0,2.039,2.876,10.9,10.9,0,0,0,9.857-.018,3.76,3.76,0,0,0,1.935-2.8,4.229,4.229,0,0,1-1.482,1.443" transform="translate(-118.871 -42.267)" fill="#8eb021"/>
              <path id="Trazado_880393" data-name="Trazado 880393" d="M142.231,79.433v-14.9h-3.026V79.448a.7.7,0,0,0,.431.7,2.384,2.384,0,0,0,2.158,0,.714.714,0,0,0,.437-.707" transform="translate(-120.714 -42.999)" fill="#5e4534"/>
              <path id="Trazado_880394" data-name="Trazado 880394" d="M138.932,71.026a5.232,5.232,0,0,1-3.919-1.519,6.927,6.927,0,0,1-1.671-4.592l2.019.059-1.009-.03,1.009.026a4.91,4.91,0,0,0,1.108,3.139,3.258,3.258,0,0,0,2.463.9Z" transform="translate(-120.136 -43.037)" fill="#5e4534"/>
              <path id="Trazado_880395" data-name="Trazado 880395" d="M148.786,57.8a7.865,7.865,0,1,1-7.865-7.865,7.864,7.864,0,0,1,7.865,7.865" transform="translate(-120.107 -41.557)" fill="#a5c63b"/>
              <path id="Trazado_880396" data-name="Trazado 880396" d="M141.825,64.624a7.861,7.861,0,0,1-6.955-11.531,7.863,7.863,0,1,0,13.007,8.687,7.847,7.847,0,0,1-6.051,2.843" transform="translate(-120.107 -41.869)" fill="#8eb021"/>
              <path id="Trazado_880397" data-name="Trazado 880397" d="M137.762,63.373a4.5,4.5,0,1,1-4.5-4.5,4.5,4.5,0,0,1,4.5,4.5" transform="translate(-119.683 -42.44)" fill="#a5c63b"/>
              <path id="Trazado_880398" data-name="Trazado 880398" d="M133.778,67.277a4.5,4.5,0,0,1-3.981-6.6,4.5,4.5,0,1,0,7.446,4.973,4.492,4.492,0,0,1-3.464,1.628" transform="translate(-119.683 -42.618)" fill="#8eb021"/>
            </g>
            <g id="Grupo_1102793" data-name="Grupo 1102793" transform="translate(40.721 37.417)">
              <path id="Trazado_880399" data-name="Trazado 880399" d="M82.879,72.564a11.481,11.481,0,0,1-5.65-1.365,4.643,4.643,0,0,1-2.671-3.923,4.69,4.69,0,0,1,2.7-3.956,11.6,11.6,0,0,1,5.709-1.383A11.477,11.477,0,0,1,88.62,63.3a4.643,4.643,0,0,1,2.672,3.922,4.692,4.692,0,0,1-2.7,3.956,11.6,11.6,0,0,1-5.709,1.384" transform="translate(-68.49 -27.577)" fill="#503b2c"/>
              <path id="Trazado_880400" data-name="Trazado 880400" d="M92.631,61.741l-.013,5.86-4.408-.219Z" transform="translate(-69.84 -27.558)" fill="#503b2c"/>
              <path id="Trazado_880401" data-name="Trazado 880401" d="M74.557,67.235V61.519l3.658,2.412Z" transform="translate(-68.49 -27.536)" fill="#503b2c"/>
              <path id="Trazado_880402" data-name="Trazado 880402" d="M91.028,69.465l-15.922.4,1.888,4.37H77a3.257,3.257,0,0,0,1.423,1.439,9.175,9.175,0,0,0,4.507,1.06A9.293,9.293,0,0,0,87.5,75.661a3.369,3.369,0,0,0,1.446-1.445h.008Z" transform="translate(-68.545 -28.321)" fill="#594537"/>
              <path id="Trazado_880403" data-name="Trazado 880403" d="M82.879,72.564a11.481,11.481,0,0,1-5.65-1.365,4.643,4.643,0,0,1-2.671-3.923,4.69,4.69,0,0,1,2.7-3.956,11.6,11.6,0,0,1,5.709-1.383A11.477,11.477,0,0,1,88.62,63.3a4.643,4.643,0,0,1,2.672,3.922,4.692,4.692,0,0,1-2.7,3.956,11.6,11.6,0,0,1-5.709,1.384" transform="translate(-68.49 -27.577)" fill="#503b2c"/>
              <path id="Trazado_880404" data-name="Trazado 880404" d="M82.879,66.221a11.481,11.481,0,0,1-5.65-1.365,4.231,4.231,0,0,1,.032-7.878,12.418,12.418,0,0,1,11.358-.019,4.643,4.643,0,0,1,2.672,3.922,4.692,4.692,0,0,1-2.7,3.956,11.59,11.59,0,0,1-5.709,1.384" transform="translate(-68.49 -26.95)" fill="#5e4534"/>
              <path id="Trazado_880405" data-name="Trazado 880405" d="M96.693,38.243a14.434,14.434,0,1,0-24.4,10.427l2.751,9a3.489,3.489,0,0,0,2.088,3.062A8.964,8.964,0,0,0,80,61.733a12.222,12.222,0,0,0,4.51-.017A9.07,9.07,0,0,0,87.35,60.7a3.63,3.63,0,0,0,2.131-2.938h0l2.765-9.119a14.38,14.38,0,0,0,4.446-10.4" transform="translate(-67.825 -23.809)" fill="#ecf0f1"/>
              <path id="Trazado_880406" data-name="Trazado 880406" d="M82.99,57.484a.416.416,0,0,1-.36-.625l4.743-8.214a.416.416,0,1,1,.721.416l-4.742,8.214a.417.417,0,0,1-.361.208" transform="translate(-69.283 -26.243)" fill="#503b2c"/>
              <path id="Trazado_880407" data-name="Trazado 880407" d="M84.243,57.484a.417.417,0,0,1-.361-.208L79.14,49.061a.417.417,0,1,1,.722-.416L84.6,56.859a.416.416,0,0,1-.36.625" transform="translate(-68.938 -26.243)" fill="#503b2c"/>
              <path id="Trazado_880408" data-name="Trazado 880408" d="M87.342,49.157a.419.419,0,0,1-.372-.225l-.962-1.838-.642,1.227a.781.781,0,0,1-1.383,0l-.642-1.227L82.7,48.321a.781.781,0,0,1-1.383,0l-.643-1.227-.962,1.838a.419.419,0,1,1-.743-.388l1.014-1.938a.78.78,0,0,1,1.382,0l.643,1.227.642-1.227a.781.781,0,0,1,1.383,0l.642,1.227.641-1.227a.781.781,0,0,1,1.383,0l1.014,1.938a.42.42,0,0,1-.371.614" transform="translate(-68.922 -26.021)" fill="#a5c63b"/>
              <path id="Trazado_880409" data-name="Trazado 880409" d="M85.85,57.582v7.282a12.184,12.184,0,0,1-4.51.017v-7.3a1.838,1.838,0,0,1,.114-.641,1.889,1.889,0,0,1,1.789-1.263h.709a1.9,1.9,0,0,1,1.612.908,1.587,1.587,0,0,1,.16.332,1.82,1.82,0,0,1,.126.663" transform="translate(-69.161 -26.959)" fill="#bdc3c7"/>
            </g>
            <g id="Grupo_1102794" data-name="Grupo 1102794" transform="translate(71.551 49.723)">
              <path id="Trazado_880341" data-name="Trazado 880341" d="M52.407,92.9h0V74.949l-10.891-.031V92.865a2.638,2.638,0,0,0,1.578,2.29,8.515,8.515,0,0,0,7.705-.013A2.719,2.719,0,0,0,52.407,92.9" transform="translate(-41.513 -71.803)" fill="#3498db"/>
              <path id="Trazado_880342" data-name="Trazado 880342" d="M50.825,71.43c2.121,1.225,2.11,3.216-.024,4.449a8.518,8.518,0,0,1-7.705.013c-2.121-1.225-2.11-3.216.024-4.448a8.515,8.515,0,0,1,7.705-.014" transform="translate(-41.512 -70.516)" fill="#50a6e0"/>
              <path id="Trazado_880343" data-name="Trazado 880343" d="M52.407,77.049V92.182A2.768,2.768,0,0,1,50.8,94.346a8.512,8.512,0,0,1-7.7.015,2.733,2.733,0,0,1-1.581-2.138V77.09A2.735,2.735,0,0,0,43.1,79.229a8.512,8.512,0,0,0,7.7-.016,2.766,2.766,0,0,0,1.607-2.164" transform="translate(-41.513 -72.427)" fill="#5e4534"/>
              <path id="Trazado_880344" data-name="Trazado 880344" d="M52.088,96.613v.9a2.528,2.528,0,0,1-1.439,1.878,7.671,7.671,0,0,1-6.938.01,2.419,2.419,0,0,1-1.426-1.989v-.9A2.42,2.42,0,0,0,43.711,98.5a7.671,7.671,0,0,0,6.938-.01,2.529,2.529,0,0,0,1.439-1.878" transform="translate(-41.738 -78.119)" fill="#8eb021"/>
              <path id="Trazado_880345" data-name="Trazado 880345" d="M52.088,95.191v.27a2.529,2.529,0,0,1-1.439,1.878,7.671,7.671,0,0,1-6.938.01,2.419,2.419,0,0,1-1.426-1.989,1.81,1.81,0,0,1,.287-.957,3.215,3.215,0,0,1,1.16-1.055,7.659,7.659,0,0,1,6.937-.013A3.154,3.154,0,0,1,51.8,94.365a1.792,1.792,0,0,1,.287.826" transform="translate(-41.738 -76.949)" fill="#a5c63b"/>
              <path id="Trazado_880346" data-name="Trazado 880346" d="M52.088,93.7v.9a2.528,2.528,0,0,1-1.439,1.878,7.671,7.671,0,0,1-6.938.01A2.419,2.419,0,0,1,42.285,94.5v-.9a2.42,2.42,0,0,0,1.426,1.989,7.671,7.671,0,0,0,6.938-.01A2.529,2.529,0,0,0,52.088,93.7" transform="translate(-41.738 -77.268)" fill="#8eb021"/>
              <path id="Trazado_880347" data-name="Trazado 880347" d="M52.088,92.28v.27a2.529,2.529,0,0,1-1.439,1.878,7.671,7.671,0,0,1-6.938.01,2.419,2.419,0,0,1-1.426-1.989,1.81,1.81,0,0,1,.287-.957,3.215,3.215,0,0,1,1.16-1.055,7.659,7.659,0,0,1,6.937-.013A3.154,3.154,0,0,1,51.8,91.454a1.792,1.792,0,0,1,.287.826" transform="translate(-41.738 -76.097)" fill="#a5c63b"/>
              <path id="Trazado_880348" data-name="Trazado 880348" d="M52.088,90.79v.9a2.528,2.528,0,0,1-1.439,1.878,7.669,7.669,0,0,1-6.938.01,2.419,2.419,0,0,1-1.426-1.989v-.9a2.42,2.42,0,0,0,1.426,1.989,7.671,7.671,0,0,0,6.938-.01,2.529,2.529,0,0,0,1.439-1.878" transform="translate(-41.738 -76.416)" fill="#8eb021"/>
              <path id="Trazado_880349" data-name="Trazado 880349" d="M52.088,89.369v.27a2.529,2.529,0,0,1-1.439,1.878,7.671,7.671,0,0,1-6.938.01,2.419,2.419,0,0,1-1.426-1.989,1.81,1.81,0,0,1,.287-.957,3.215,3.215,0,0,1,1.16-1.055,7.659,7.659,0,0,1,6.937-.013A3.154,3.154,0,0,1,51.8,88.543a1.792,1.792,0,0,1,.287.826" transform="translate(-41.738 -75.246)" fill="#a5c63b"/>
              <rect id="Rectángulo_403987" data-name="Rectángulo 403987" width="0.403" height="16.477" transform="translate(0 4.582)" fill="#3498db"/>
              <rect id="Rectángulo_403988" data-name="Rectángulo 403988" width="0.403" height="16.477" transform="translate(10.491 4.519)" fill="#3498db"/>
              <path id="Trazado_880350" data-name="Trazado 880350" d="M50.2,74.007a.589.589,0,0,1-.029.173.14.14,0,0,0,0,.018.751.751,0,0,1-.081.157l-.018.028a.95.95,0,0,1-.134.147,1.109,1.109,0,0,1-.118.087,1.245,1.245,0,0,1-.1.075,1.846,1.846,0,0,1-.331.146c-.042.014-.084.027-.127.039s-.111.03-.168.042-.136.026-.205.035l-.05.007c-.093.01-.188.015-.283.016H48.5c-.093,0-.187-.006-.279-.016l-.042,0a2.63,2.63,0,0,1-.27-.046l-.049-.012c-.08-.02-.158-.044-.233-.071l-.041-.014a1.823,1.823,0,0,1-.257-.121.844.844,0,0,1-.5-.695l0,.749a.843.843,0,0,0,.5.695,1.745,1.745,0,0,0,.243.116l.014,0,.041.014c.05.018.1.035.149.05.028.008.057.013.085.021l.048.012.043.011c.054.011.11.021.167.029l.06.007.042,0c.021,0,.04.006.062.007q.083.006.166.008h.1c.025,0,.05,0,.076,0,.062,0,.125-.006.187-.012l.021,0,.05-.007c.048-.006.1-.012.144-.021.021,0,.04-.011.061-.015.057-.012.113-.026.168-.042.03-.008.061-.013.09-.023.013,0,.024-.012.037-.016a1.9,1.9,0,0,0,.331-.146l.021-.012c.033-.02.056-.042.085-.063a1.176,1.176,0,0,0,.117-.087l.011-.008a1.024,1.024,0,0,0,.1-.112c.007-.009.012-.018.018-.027l.018-.028c.011-.016.023-.031.031-.046a.7.7,0,0,0,.045-.1.117.117,0,0,1,0-.015c0-.006,0-.013,0-.018s.013-.041.018-.062a.646.646,0,0,0,.011-.1v-.015Z" transform="translate(-43.068 -71.534)" fill="#bdc3c7"/>
              <path id="Trazado_880351" data-name="Trazado 880351" d="M49.706,72.911a.729.729,0,0,1,.008,1.38,2.625,2.625,0,0,1-2.383,0,.729.729,0,0,1-.008-1.38,2.629,2.629,0,0,1,2.383,0" transform="translate(-43.068 -71.133)" fill="#ecf0f1"/>
              <path id="Trazado_880352" data-name="Trazado 880352" d="M70.465,92.9h0V74.949l-10.891-.031V92.865a2.638,2.638,0,0,0,1.578,2.29,8.515,8.515,0,0,0,7.705-.013A2.719,2.719,0,0,0,70.465,92.9" transform="translate(-46.795 -71.803)" fill="#8eb021"/>
              <path id="Trazado_880353" data-name="Trazado 880353" d="M68.883,71.43c2.121,1.225,2.11,3.216-.024,4.449a8.518,8.518,0,0,1-7.705.013c-2.121-1.225-2.11-3.216.024-4.448a8.515,8.515,0,0,1,7.705-.014" transform="translate(-46.794 -70.516)" fill="#a5c63b"/>
              <path id="Trazado_880354" data-name="Trazado 880354" d="M70.465,77.049V92.182a2.767,2.767,0,0,1-1.607,2.164,8.512,8.512,0,0,1-7.7.015,2.733,2.733,0,0,1-1.581-2.138V77.09a2.735,2.735,0,0,0,1.581,2.139,8.512,8.512,0,0,0,7.7-.016,2.765,2.765,0,0,0,1.607-2.164" transform="translate(-46.795 -72.427)" fill="#8eb021"/>
              <path id="Trazado_880355" data-name="Trazado 880355" d="M70.464,86.554v8.4a2.768,2.768,0,0,1-1.607,2.164,8.512,8.512,0,0,1-7.7.015,2.733,2.733,0,0,1-1.581-2.138V86.509a2.828,2.828,0,0,0,1.573,2.007,8.544,8.544,0,0,0,7.73-.011,2.926,2.926,0,0,0,1.588-1.951" transform="translate(-46.795 -75.194)" fill="#3498db"/>
              <path id="Trazado_880356" data-name="Trazado 880356" d="M59.554,86.116a1.55,1.55,0,0,1,.015-.236v.445a1.222,1.222,0,0,1-.015-.209" transform="translate(-46.789 -75.01)" fill="#a5c63b"/>
              <path id="Trazado_880358" data-name="Trazado 880358" d="M70.473,85.174v1a2.816,2.816,0,0,1-1.6,2.091,8.541,8.541,0,0,1-7.726.011,2.694,2.694,0,0,1-1.588-2.215v-1a2.694,2.694,0,0,0,1.588,2.215,8.541,8.541,0,0,0,7.726-.011,2.814,2.814,0,0,0,1.6-2.091" transform="translate(-46.79 -74.77)" fill="#5e4534"/>
              <path id="Trazado_880359" data-name="Trazado 880359" d="M70.473,81.932v1a2.815,2.815,0,0,1-1.6,2.091,8.541,8.541,0,0,1-7.726.011,2.694,2.694,0,0,1-1.588-2.215v-1a2.694,2.694,0,0,0,1.588,2.215,8.539,8.539,0,0,0,7.726-.011,2.814,2.814,0,0,0,1.6-2.091" transform="translate(-46.79 -73.822)" fill="#5e4534"/>
              <path id="Trazado_880360" data-name="Trazado 880360" d="M68.261,74.007a.59.59,0,0,1-.029.173.138.138,0,0,0,0,.018.752.752,0,0,1-.081.157l-.018.028a.951.951,0,0,1-.134.147,1.11,1.11,0,0,1-.118.087,1.247,1.247,0,0,1-.1.075,1.846,1.846,0,0,1-.331.146c-.042.014-.084.027-.127.039s-.111.03-.168.042-.136.026-.205.035l-.05.007c-.093.01-.188.015-.284.016h-.045c-.093,0-.187-.006-.279-.016l-.042,0a2.631,2.631,0,0,1-.27-.046L65.92,74.9c-.08-.02-.158-.044-.233-.071l-.041-.014a1.823,1.823,0,0,1-.257-.121.844.844,0,0,1-.5-.695l0,.749a.843.843,0,0,0,.5.695,1.745,1.745,0,0,0,.243.116l.014,0,.041.014c.05.018.1.035.149.05.028.008.057.013.084.021l.049.012.043.011c.054.011.11.021.167.029l.06.007.042,0c.021,0,.04.006.062.007.054,0,.11.007.166.008h.1c.025,0,.051,0,.076,0,.062,0,.125-.006.187-.012l.021,0,.05-.007c.048-.006.1-.012.144-.021.021,0,.04-.011.061-.015.057-.012.113-.026.168-.042.03-.008.061-.013.09-.023.013,0,.024-.012.037-.016a1.9,1.9,0,0,0,.331-.146l.021-.012c.033-.02.055-.042.084-.063a1.109,1.109,0,0,0,.118-.087L68,75.272a1.024,1.024,0,0,0,.1-.112c.007-.009.012-.018.018-.027l.018-.028c.011-.016.023-.031.031-.046a.787.787,0,0,0,.045-.1.12.12,0,0,1,0-.015c0-.006,0-.013,0-.018s.013-.041.018-.062a.647.647,0,0,0,.011-.1v-.015Z" transform="translate(-48.349 -71.534)" fill="#bdc3c7"/>
              <path id="Trazado_880361" data-name="Trazado 880361" d="M67.764,72.911a.729.729,0,0,1,.008,1.38,2.625,2.625,0,0,1-2.383,0,.729.729,0,0,1-.008-1.38,2.629,2.629,0,0,1,2.383,0" transform="translate(-48.35 -71.133)" fill="#ecf0f1"/>
              <path id="Trazado_880362" data-name="Trazado 880362" d="M67.107,83.175v.71h-.37v-.71h-.666v-.34h.666v-.709h.37v.709h.662v.34Z" transform="translate(-48.695 -73.912)" fill="#f1f2f2"/>
              <rect id="Rectángulo_403989" data-name="Rectángulo 403989" width="1.48" height="0.357" transform="translate(17.485 20.639)" fill="#f1f2f2"/>
            </g>
          </g>
        </g>
      </g>
    </g>
  </g>
</svg>
