<svg xmlns="http://www.w3.org/2000/svg" xmlns:xlink="http://www.w3.org/1999/xlink" width="72" height="72" viewBox="0 0 72 72">
  <defs>
    <clipPath id="clip-path">
      <rect id="Rect치ngulo_403963" data-name="Rect치ngulo 403963" width="55.775" height="57.244" fill="none"/>
    </clipPath>
  </defs>
  <g id="Grupo_1202856" data-name="Grupo 1202856" transform="translate(-639.715 -547.264)">
    <g id="Grupo_1100484" data-name="Grupo 1100484" transform="translate(-64.953 -5607.736)">
      <rect id="Rect치ngulo_402033" data-name="Rect치ngulo 402033" width="72" height="72" rx="5" transform="translate(704.668 6155)" fill="#99dcff"/>
      <g id="Grupo_1102693" data-name="Grupo 1102693" transform="translate(712.038 6165)">
        <g id="Grupo_1102692" data-name="Grupo 1102692" clip-path="url(#clip-path)">
          <path id="Trazado_879430" data-name="Trazado 879430" d="M139.948,8.825,137.859,9,132,10.942l-7.314,6.6-1.109,10.525,1.677,7.659,2.124,3.745,7.291,5.833,2.041,3.755h5.146l.885-.456.5-1.385a12.044,12.044,0,0,1,4.508-5.849,17.909,17.909,0,0,0-7.8-32.544Z" transform="translate(-109.76 -7.838)" fill="#ffd737"/>
          <path id="Trazado_879431" data-name="Trazado 879431" d="M260.075,469.868l.908,1.593.112.057a3.065,3.065,0,0,0,.814-2.646l-.6-.444h-1.039Z" transform="translate(-230.997 -416.055)" fill="#8bcaff"/>
          <path id="Trazado_879432" data-name="Trazado 879432" d="M106.143,46.042a11.976,11.976,0,0,0-4.484-5.833,17.908,17.908,0,0,1,7.787-32.56A17.913,17.913,0,0,0,89.234,25.469,17.886,17.886,0,0,0,97.06,40.209a11.976,11.976,0,0,1,4.484,5.833l.5,1.384.337.456h4.6l-.337-.456Z" transform="translate(-79.257 -6.662)" fill="#ffd737"/>
          <path id="Trazado_879433" data-name="Trazado 879433" d="M225.833,90.957h-1.342l-3.444,5.9-.8,4.956,1.118,5.293.932,2.18,2.46,2.553.7.21a13.364,13.364,0,0,0,.377-21.1" transform="translate(-195.618 -80.788)" fill="#22a53c"/>
          <path id="Trazado_879434" data-name="Trazado 879434" d="M189.23,92.942a13.34,13.34,0,0,1,4.973-10.4c-.251-.2-.508-.4-.773-.582a2.679,2.679,0,0,0-3.052,0,13.368,13.368,0,0,0,0,21.966,2.679,2.679,0,0,0,3.052,0c.265-.184.523-.379.773-.582A13.34,13.34,0,0,1,189.23,92.942Z" transform="translate(-163.988 -72.372)" fill="#22a53c"/>
          <path id="Trazado_879435" data-name="Trazado 879435" d="M226.522,469.389a3.087,3.087,0,0,1,.044-.517l.5-.444h-4.6l-.5.444a3.071,3.071,0,0,0,5.328,2.553A3.06,3.06,0,0,1,226.522,469.389Z" transform="translate(-197.111 -416.055)" fill="#99dcff"/>
          <path id="Trazado_879436" data-name="Trazado 879436" d="M246.166,397.679H240.45v6.792l1,1.118.7.444h2.5a2.077,2.077,0,0,0,2.071-2.071v-5.633Z" transform="translate(-213.566 -353.217)" fill="#99dcff"/>
          <path id="Trazado_879437" data-name="Trazado 879437" d="M206.821,403.962v-5.633l.487-.649h-4.6l-.487.649v5.633a2.077,2.077,0,0,0,2.071,2.071h4.6A2.077,2.077,0,0,1,206.821,403.962Z" transform="translate(-179.613 -353.217)" fill="#99dcff"/>
          <path id="Trazado_879438" data-name="Trazado 879438" d="M236.913,364.6h-6.847l-.823.531v2.842l.168.568s.311.206.61.407h6.893a1.207,1.207,0,0,0,1.207-1.207V365.8a1.207,1.207,0,0,0-1.207-1.207" transform="translate(-203.612 -323.833)" fill="#99dcff"/>
          <path id="Trazado_879439" data-name="Trazado 879439" d="M194.757,367.739v-1.934a1.207,1.207,0,0,1,1.207-1.207h-4.6a1.207,1.207,0,0,0-1.207,1.207v1.934a1.207,1.207,0,0,0,1.207,1.207h4.6a1.207,1.207,0,0,1-1.207-1.207" transform="translate(-168.897 -323.834)" fill="#99dcff"/>
          <path id="Trazado_879440" data-name="Trazado 879440" d="M442.7,161.007a.838.838,0,0,0-.839-.839h-5.392a.839.839,0,0,0,0,1.677h5.392a.839.839,0,0,0,.839-.839" transform="translate(-386.924 -142.26)"/>
          <path id="Trazado_879441" data-name="Trazado 879441" d="M428.049,93.992l5.017-1.975a.839.839,0,0,0-.614-1.561l-5.017,1.975a.839.839,0,0,0,.614,1.561Z" transform="translate(-379.174 -80.291)"/>
          <path id="Trazado_879442" data-name="Trazado 879442" d="M427.436,213.89l5.017,1.975a.839.839,0,0,0,.614-1.561l-5.017-1.975a.839.839,0,0,0-.614,1.561" transform="translate(-379.174 -188.538)"/>
          <path id="Trazado_879443" data-name="Trazado 879443" d="M7.069,161.007a.838.838,0,0,0-.839-.839H.839a.839.839,0,0,0,0,1.677H6.231a.838.838,0,0,0,.838-.839" transform="translate(0 -142.26)"/>
          <path id="Trazado_879444" data-name="Trazado 879444" d="M18.238,92.431,13.22,90.456a.839.839,0,0,0-.614,1.561l5.017,1.975a.839.839,0,0,0,.614-1.561" transform="translate(-10.724 -80.291)"/>
          <path id="Trazado_879445" data-name="Trazado 879445" d="M13.22,215.866l5.017-1.975a.839.839,0,0,0-.614-1.561l-5.017,1.975a.839.839,0,0,0,.614,1.561" transform="translate(-10.724 -188.539)"/>
          <path id="Trazado_879446" data-name="Trazado 879446" d="M111.086,34.223a18.745,18.745,0,0,0,3.721-27.6.839.839,0,0,0-1.279,1.085,17.068,17.068,0,0,1-3.39,25.127,12.8,12.8,0,0,0-4.822,6.255l-.3.831h-3.67V32.773a3.487,3.487,0,0,0,1.2-.532,14.258,14.258,0,0,0,5.954-9.593.839.839,0,0,0-1.659-.243,12.574,12.574,0,0,1-5.252,8.46,1.81,1.81,0,0,1-.24.141v-6.08L104.08,23a.839.839,0,1,0-.966-1.371l-1.768,1.246V20.026L104.08,18.1a.839.839,0,1,0-.966-1.371l-1.768,1.246V15.253a.839.839,0,1,0-1.677,0v2.679l-1.706-1.2A.839.839,0,1,0,97,18.1l2.672,1.883V22.83l-1.706-1.2A.839.839,0,1,0,97,23l2.672,1.883v6.09a1.826,1.826,0,0,1-.178-.108,12.53,12.53,0,0,1,0-20.589,1.842,1.842,0,0,1,2.095,0,12.574,12.574,0,0,1,5.252,8.459.839.839,0,0,0,1.659-.243A14.258,14.258,0,0,0,102.543,8.9a3.526,3.526,0,0,0-4.01,0,14.207,14.207,0,0,0,0,23.342,3.481,3.481,0,0,0,1.135.515v7.169H96l-.3-.831a12.731,12.731,0,0,0-4.8-6.24A17.069,17.069,0,1,1,110.816,5.142a.839.839,0,0,0,1.014-1.336A18.56,18.56,0,0,0,100.368,0,18.746,18.746,0,0,0,89.953,34.239,11.192,11.192,0,0,1,94.277,40.1a2.048,2.048,0,0,0-1.232,1.876V43.9a2.047,2.047,0,0,0,1.349,1.921v4.92A2.914,2.914,0,0,0,96.6,53.57a3.91,3.91,0,0,0,7.806,0,2.915,2.915,0,0,0,2.21-2.824v-4.92a2.047,2.047,0,0,0,1.349-1.921V41.971a2.048,2.048,0,0,0-1.232-1.876A11.248,11.248,0,0,1,111.086,34.223ZM100.507,55.567A2.237,2.237,0,0,1,98.3,53.655h4.421a2.237,2.237,0,0,1-2.211,1.912m4.436-4.822a1.234,1.234,0,0,1-1.233,1.233H97.3a1.234,1.234,0,0,1-1.233-1.233V49.8h8.873Zm0-2.62H96.071V45.951h8.873Zm1.349-4.221a.369.369,0,0,1-.369.369H95.09a.369.369,0,0,1-.369-.369V41.971a.369.369,0,0,1,.369-.369h10.833a.369.369,0,0,1,.369.369Z" transform="translate(-72.62 0)"/>
        </g>
      </g>
    </g>
  </g>
</svg>
