<svg xmlns="http://www.w3.org/2000/svg" xmlns:xlink="http://www.w3.org/1999/xlink" width="295" height="246" viewBox="0 0 295 246">
  <defs>
    <clipPath id="clip-path">
      <rect id="Rectángulo_403972" data-name="Rectángulo 403972" width="295" height="246" transform="translate(810 1670.677)" fill="#e5f6ff"/>
    </clipPath>
    <clipPath id="clip-path-2">
      <rect id="Rectángulo_403971" data-name="Rectángulo 403971" width="399.251" height="345.667" transform="translate(0 0)" fill="none"/>
    </clipPath>
  </defs>
  <g id="Grupo_1202858" data-name="Grupo 1202858" transform="translate(-809.715 -1533)">
    <rect id="Rectángulo_35929" data-name="Rectángulo 35929" width="295" height="246" transform="translate(809.715 1533)" fill="#e5f6ff"/>
    <g id="Enmascarar_grupo_1098799" data-name="Enmascarar grupo 1098799" transform="translate(-0.285 -137.677)" clip-path="url(#clip-path)">
      <g id="Grupo_1102697" data-name="Grupo 1102697" transform="translate(768 1636.298)">
        <g id="Grupo_1102696" data-name="Grupo 1102696" transform="translate(0 0.002)" clip-path="url(#clip-path-2)">
          <path id="Trazado_879448" data-name="Trazado 879448" d="M1470.513,483.35a27.647,27.647,0,0,0-28.292,37.551,11.277,11.277,0,1,0-9.754,19.757,21.7,21.7,0,0,0-33.75,15.833,11.005,11.005,0,1,0-18.654,5,13.709,13.709,0,1,0-5.1,23.334l83.349,1.276c-4-8.733-7.644-15.93-4.213-21.16,10.484-15.981,17.118-25.662,19.881-44.572,2.3-15.753.6-27.719-3.47-37.019" transform="translate(-1075.767 -383.021)" fill="#fff" fill-rule="evenodd"/>
          <path id="Trazado_879449" data-name="Trazado 879449" d="M335.359,821.391q26.515,37.485,235.838-.417c6.134-17.586-.31-49.17-9.585-65.321-21.05-36.654-59.178-29.084-53.749,14.9q-37.148-33.079-40,4.167-15.915-1.889-14.584,7.083a18.4,18.4,0,0,0-35.833,7.5,19.422,19.422,0,1,0-37.5,5.418,17.522,17.522,0,0,0-30.418,15.833q-22.993,1.013-14.167,10.834" transform="translate(-263.873 -580.421)" fill="#fff" fill-rule="evenodd"/>
          <path id="Trazado_879450" data-name="Trazado 879450" d="M1462.3,703.686a15.923,15.923,0,0,0-17.664,23.772,10.617,10.617,0,1,0-19.375,7.084,6.849,6.849,0,1,0-12.918,4.166A9.162,9.162,0,1,0,1394.43,741a7.942,7.942,0,0,0-8.75,11.667,11.935,11.935,0,0,0-23.127.625,18.345,18.345,0,1,0,1.251,36.667l91.445-4.355c.376-20.358-17.391-36.71-11.059-46.363,8.68-13.231,14.723-22.145,18.113-35.556" transform="translate(-1065.855 -557.323)" fill="#e5ecf0" fill-rule="evenodd"/>
          <path id="Trazado_879451" data-name="Trazado 879451" d="M1146.108,937.111q81.655,28.374,122.492,24.62l.124-.093.287-.213.411-.306.146-.108.266-.2.411-.3.169-.125.242-.178.411-.3.19-.14.22-.161.41-.3.213-.156.2-.145.408-.3.235-.171.172-.126.406-.3.254-.186.15-.11.4-.294.274-.2.126-.092.4-.291.295-.216.1-.075.395-.289.311-.228.08-.058.391-.286.328-.242.058-.042.385-.283.345-.253.036-.027.378-.278.36-.266.015-.011.371-.276.367-.272.006,0,.681-.508.037-.026.023-.018.062-.046.621-.465.043-.033,0,0,.642-.484.062-.046.03-.023.579-.44.077-.059.026-.021c.4-.31.795-.611,1.174-.909l.106-.083.058-.045.539-.426.037-.03.446-.357.128-.1.055-.045.475-.389.069-.055.478-.4.044-.037c.163-.139.321-.274.475-.407l.015-.014c.154-.132.3-.263.446-.39l.043-.04c.135-.121.266-.239.393-.357l.047-.043c.132-.124.26-.243.381-.361l.014-.013q.19-.183.363-.358l.011-.011c.115-.118.226-.235.33-.347l0,0c.1-.113.2-.224.294-.329l0,0,.009-.009c.088-.106.173-.209.251-.308q.558-.717,1.073-1.428c.343-.475.674-.95.989-1.421s.62-.945.909-1.413.565-.938.829-1.4.514-.932.753-1.4.465-.925.679-1.385.415-.92.606-1.378.37-.912.538-1.368.323-.907.468-1.358.281-.9.406-1.349.238-.894.342-1.34.2-.888.281-1.329.158-.882.224-1.32h0q.1-.657.168-1.309h0q.07-.652.114-1.3t.064-1.289c.014-.428.018-.854.015-1.28s-.014-.847-.032-1.268-.043-.84-.075-1.257-.071-.832-.117-1.246-.1-.825-.156-1.235-.123-.818-.193-1.224-.147-.81-.228-1.213-.168-.8-.26-1.2-.189-.794-.29-1.189-.207-.786-.318-1.177-.224-.779-.342-1.165-.24-.771-.365-1.153h0q-.187-.573-.385-1.14h0q-.2-.567-.4-1.128t-.42-1.115c-.143-.371-.288-.738-.435-1.1h0q-.219-.547-.444-1.089t-.454-1.077h0q-.229-.533-.46-1.063h0c-.156-.351-.31-.7-.465-1.048v0l-.465-1.036h0l-.465-1.022h0l-.464-1.008h0l-.457-.994h0l-.45-.981h0l-.44-.967-.429-.953q-.211-.473-.414-.937h0c-.136-.31-.266-.618-.4-.922v0q-.194-.456-.378-.907v0c-.122-.3-.242-.6-.357-.893s-.225-.588-.333-.878h0c-.107-.29-.21-.578-.307-.862s-.19-.568-.278-.847-.171-.559-.247-.832v0c-.077-.274-.149-.546-.214-.816s-.125-.536-.178-.8h0c-.053-.264-.1-.525-.139-.783h0c-.042-.258-.074-.514-.1-.767h0c-.027-.253-.045-.5-.057-.751s-.017-.493-.013-.735h0c0-.242.014-.482.035-.718h0c.018-.236.047-.47.083-.7s.082-.46.136-.685.116-.449.19-.668.154-.436.246-.652.195-.425.305-.633.235-.414.367-.616q-.192,0-.384,0a19.4,19.4,0,0,0-19.375,18.43,14.554,14.554,0,1,0-27.5,8.75,29.631,29.631,0,0,0-49.584,15,23.747,23.747,0,0,0-43.354,17.71" transform="translate(-907.971 -695.305)" fill="#d2ecf8" fill-rule="evenodd"/>
          <path id="Trazado_879452" data-name="Trazado 879452" d="M11.709,1023.978c18.2-4.077,52.453-5.271,82.721-16.8,1.969-7.832-12.476-22.457-20.146-24.978a15.39,15.39,0,0,0-19.046,8.79,14.645,14.645,0,1,0-25.416-10,19.366,19.366,0,0,0-26-20.875c-4.381,13.54-8.164,32.544,7.68,63.466.068.132.14.261.211.392" transform="translate(0 -760.025)" fill="#fff" fill-rule="evenodd"/>
          <path id="Trazado_879453" data-name="Trazado 879453" d="M55.443,1166.8q64.17,1.264,134.787-10.089,133.795-20.962,241.735-16.307a40.285,40.285,0,0,1-7.072,13.309c-5.1,6.544-38.048,26-38.87,34.256-6.126,61.495-61.645,69.1-128.824,46.757-13.35-4.44-31.78.913-50.709,6.265-26.149,7.393-53.256,14.787-69.263-3.63-10.067-11.582-7-28.22-20.425-35.649-24.825-13.733-54.01-20.572-61.358-34.912" transform="translate(-43.945 -903.239)" fill="#79b02b" fill-rule="evenodd"/>
          <path id="Trazado_879454" data-name="Trazado 879454" d="M23.926,1193.8q106.8.669,150.165-12.426-90.762-5.888-158.411-7.752a117.608,117.608,0,0,0,8.246,20.178" transform="translate(-12.428 -930.238)" fill="#bbd322" fill-rule="evenodd"/>
          <path id="Trazado_879455" data-name="Trazado 879455" d="M824.387,1189.24c-19.3-7.64-53.347-7.529-71.04-3.834-23.494,4.905-52.585,7.7-76.691,11.119-24.277,3.441-90.006,16.805-113.919,9.75-3.447-1.017-3.773,2.353,10.357,3.5,23.147,1.879,338.075-19.965,82.68,11.774-15.591,1.936-29.993,1.285-46.5,1.285-15.3,0-42.41,2.581-7.513,4.06,31.863,1.35,64.116-1.572,95.633,3.334,30.367,4.724,45.309-10.727,86.549-10.727h3.8c5.728-8.7,30.017-23.647,36.645-30.262" transform="translate(-444.461 -937.636)" fill="#87c135" fill-rule="evenodd"/>
          <path id="Trazado_879456" data-name="Trazado 879456" d="M148.609,734.791c-2.52-3.44,2.457-10.1,8.432-5.417,0,0-9.012-16.807,10.3-18.695,17.314-1.692,10.389,19.591,10.389,19.591,1.553-2.2,8.022-2.63,8.6,3,0,0,1.327-9.21,7.995-9.21,9.193,0,8.807,12.234,8.807,12.234s5.1-6.029,8.236,1.367l15.671,2.05c-11.669,7.4-42.483,3.076-42.483,3.076a64.844,64.844,0,0,1-34.568-.858c-7.531,0-6.705-7.14-1.378-7.14" transform="translate(-114.513 -563.224)" fill="#f1f8fc" fill-rule="evenodd"/>
          <path id="Trazado_879457" data-name="Trazado 879457" d="M227.048,839.032c-26.818,6.374-41.282.706-41.282.706a4.353,4.353,0,0,0,1.878-3.852c-2.667,5.681-27.4,8.532-36.831,3.088,0,0-5.208,2.334-6.175-2.357-.671,2.057.835,4.632,5.358,4.632a64.842,64.842,0,0,0,34.568.859s30.815,4.328,42.483-3.076" transform="translate(-114.523 -662.542)" fill="#f1f8fc" fill-rule="evenodd"/>
          <path id="Trazado_879458" data-name="Trazado 879458" d="M167.69,800.176c7.38-.7,2.8-5.146,2.8-5.146-4.58-3.588-8.568-.514-9.049,2.666.825,1.592,2.948,2.792,6.252,2.481" transform="translate(-127.959 -628.88)" fill="#fff" fill-rule="evenodd"/>
          <path id="Trazado_879459" data-name="Trazado 879459" d="M365.1,786.091a7.408,7.408,0,0,0,6.581-4.266c-1.036-3.1-3.232-6.24-7.891-6.24a6.281,6.281,0,0,0-4.154,1.518c-3.5,3.6.285,9.038,5.464,8.988" transform="translate(-283.976 -614.746)" fill="#fff" fill-rule="evenodd"/>
          <path id="Trazado_879460" data-name="Trazado 879460" d="M212.218,718.637c4.87,2.46,1.739,14.261,1.739,14.261a7.766,7.766,0,0,0,3.781-2.627s6.924-21.282-10.389-19.591c-12.1,1.184-13.084,8.221-12.131,13.314,1.646,3.157,5.193,5.284,10.044,4.575,10.589-1.546,6.957-9.932,6.957-9.932" transform="translate(-154.517 -563.225)" fill="#fff" fill-rule="evenodd"/>
          <path id="Trazado_879461" data-name="Trazado 879461" d="M150.47,827.317a4.134,4.134,0,0,0-3.648,1.8c.012,1.663,1.791,3.171,5.045,1.767,5.075-2.189-1.4-3.568-1.4-3.568" transform="translate(-116.374 -655.75)" fill="#fff" fill-rule="evenodd"/>
          <path id="Trazado_879462" data-name="Trazado 879462" d="M219.87,809.76c1.545-3.866-5.875-3.917-8.143-1.341,0,0-2.421-1.751-3.3,1.341,0,0-4.431,2.164-2.318,3.813,2.551,1.991,6.905,0,6.905,0,5.258,2.107,9.945-.579,6.854-3.813" transform="translate(-162.915 -639.365)" fill="#fff" fill-rule="evenodd"/>
          <path id="Trazado_879463" data-name="Trazado 879463" d="M303.138,802.715c-.5-4.912-5.483-5.216-7.78-3.752-.256,2.249-3.515,5.578-3.515,5.578,1.778,2.783,11,1.487,11.295-1.826" transform="translate(-231.321 -632.666)" fill="#fff" fill-rule="evenodd"/>
          <path id="Trazado_879464" data-name="Trazado 879464" d="M435.931,828.239c3.13.889,4.177-1.146,4.177-1.146-2.171-5.123-5.284-3.8-6.994-2.51-.3,1.582.682,3.051,2.817,3.656" transform="translate(-343.255 -652.652)" fill="#fff" fill-rule="evenodd"/>
          <path id="Trazado_879465" data-name="Trazado 879465" d="M369.926,836.787c2.061-2.936,7.846-1.34,7.846-1.34.992-1.777,3.981-.438,3.981,1.121,0,0,.154,2.242-3.6,1.2-3.946.876-8.232-.98-8.232-.98" transform="translate(-293.211 -661.523)" fill="#fff" fill-rule="evenodd"/>
          <path id="Trazado_879466" data-name="Trazado 879466" d="M1424.258,476.183c-1.689-2.307,1.649-6.773,5.656-3.632,0,0-6.046-11.273,6.911-12.54,11.612-1.135,6.968,13.139,6.968,13.139,1.042-1.478,5.38-1.764,5.766,2.014,0,0,.889-6.177,5.362-6.177,6.165,0,5.906,8.205,5.906,8.205s3.422-4.044,5.523.917l10.511,1.375c-7.826,4.966-28.493,2.063-28.493,2.063a43.483,43.483,0,0,1-23.186-.577c-5.051,0-4.5-4.788-.925-4.788" transform="translate(-1126.699 -364.564)" fill="#f1f8fc" fill-rule="evenodd"/>
          <path id="Trazado_879467" data-name="Trazado 879467" d="M1476.872,546.1c-17.988,4.274-27.689.474-27.689.474a2.919,2.919,0,0,0,1.26-2.584c-1.788,3.811-18.378,5.722-24.7,2.071,0,0-3.493,1.565-4.141-1.582-.451,1.381.559,3.107,3.593,3.107a43.481,43.481,0,0,0,23.185.577s20.668,2.9,28.494-2.063" transform="translate(-1126.709 -431.176)" fill="#f1f8fc" fill-rule="evenodd"/>
          <path id="Trazado_879468" data-name="Trazado 879468" d="M1437.059,520.038c4.951-.467,1.877-3.45,1.877-3.45-3.072-2.408-5.747-.346-6.069,1.786.553,1.068,1.977,1.872,4.193,1.664" transform="translate(-1135.72 -408.601)" fill="#fff" fill-rule="evenodd"/>
          <path id="Trazado_879469" data-name="Trazado 879469" d="M1569.461,510.59a4.969,4.969,0,0,0,4.413-2.861c-.694-2.08-2.167-4.186-5.291-4.186a4.214,4.214,0,0,0-2.787,1.018c-2.349,2.418.19,6.062,3.664,6.029" transform="translate(-1240.362 -399.119)" fill="#fff" fill-rule="evenodd"/>
          <path id="Trazado_879470" data-name="Trazado 879470" d="M1466.924,465.349c3.266,1.65,1.167,9.564,1.167,9.564a5.207,5.207,0,0,0,2.536-1.762s4.644-14.275-6.968-13.14c-8.117.793-8.776,5.514-8.136,8.929,1.1,2.117,3.482,3.544,6.736,3.069,7.1-1.036,4.666-6.661,4.666-6.661" transform="translate(-1153.533 -364.564)" fill="#fff" fill-rule="evenodd"/>
          <path id="Trazado_879471" data-name="Trazado 879471" d="M1425.506,538.24a2.773,2.773,0,0,0-2.446,1.208c.008,1.115,1.2,2.126,3.384,1.184,3.4-1.468-.938-2.392-.938-2.392" transform="translate(-1127.948 -426.621)" fill="#fff" fill-rule="evenodd"/>
          <path id="Trazado_879472" data-name="Trazado 879472" d="M1472.053,526.467c1.038-2.592-3.939-2.627-5.461-.9a1.338,1.338,0,0,0-2.212.9s-2.973,1.451-1.556,2.557c1.712,1.335,4.631,0,4.631,0,3.527,1.414,6.671-.389,4.6-2.557" transform="translate(-1159.163 -415.634)" fill="#fff" fill-rule="evenodd"/>
          <path id="Trazado_879473" data-name="Trazado 879473" d="M1527.9,521.74c-.336-3.293-3.678-3.5-5.219-2.517-.171,1.509-2.357,3.743-2.357,3.743,1.193,1.865,7.376,1,7.576-1.226" transform="translate(-1205.045 -411.139)" fill="#fff" fill-rule="evenodd"/>
          <path id="Trazado_879474" data-name="Trazado 879474" d="M1616.966,538.859c2.1.6,2.8-.768,2.8-.768-1.456-3.435-3.544-2.552-4.691-1.684-.2,1.061.458,2.046,1.889,2.452" transform="translate(-1280.117 -424.545)" fill="#fff" fill-rule="evenodd"/>
          <path id="Trazado_879475" data-name="Trazado 879475" d="M1572.7,544.591c1.383-1.969,5.262-.9,5.262-.9.665-1.193,2.67-.294,2.668.752,0,0,.1,1.5-2.41.8a10.345,10.345,0,0,1-5.52-.656" transform="translate(-1246.558 -430.492)" fill="#fff" fill-rule="evenodd"/>
          <path id="Trazado_879476" data-name="Trazado 879476" d="M1240.226,62.683c-1.689-2.308,1.649-6.773,5.657-3.633,0,0-6.046-11.273,6.911-12.539,11.613-1.135,6.968,13.14,6.968,13.14,1.042-1.478,5.38-1.763,5.766,2.014,0,0,.889-6.178,5.362-6.178,6.165,0,5.907,8.205,5.907,8.205s3.422-4.043,5.523.917l10.511,1.376c-7.826,4.966-28.493,2.063-28.493,2.063a43.482,43.482,0,0,1-23.185-.576c-5.051,0-4.5-4.788-.926-4.788" transform="translate(-980.832 -36.815)" fill="#f1f8fc" fill-rule="evenodd"/>
          <path id="Trazado_879477" data-name="Trazado 879477" d="M1292.839,132.6c-17.987,4.274-27.689.473-27.689.473a2.917,2.917,0,0,0,1.26-2.584c-1.788,3.81-18.378,5.722-24.7,2.071,0,0-3.494,1.566-4.142-1.582-.45,1.381.56,3.107,3.593,3.107a43.486,43.486,0,0,0,23.186.576s20.667,2.9,28.493-2.063" transform="translate(-980.841 -103.428)" fill="#f1f8fc" fill-rule="evenodd"/>
          <path id="Trazado_879478" data-name="Trazado 879478" d="M1253.028,106.537c4.949-.467,1.875-3.45,1.875-3.45-3.071-2.407-5.746-.346-6.069,1.788.553,1.067,1.977,1.872,4.194,1.663" transform="translate(-989.853 -80.851)" fill="#fff" fill-rule="evenodd"/>
          <path id="Trazado_879479" data-name="Trazado 879479" d="M1385.429,97.088a4.969,4.969,0,0,0,4.413-2.861c-.694-2.079-2.167-4.186-5.291-4.186a4.215,4.215,0,0,0-2.787,1.018c-2.349,2.418.192,6.062,3.664,6.028" transform="translate(-1094.494 -71.369)" fill="#fff" fill-rule="evenodd"/>
          <path id="Trazado_879480" data-name="Trazado 879480" d="M1282.891,51.848c3.266,1.651,1.167,9.564,1.167,9.564a5.2,5.2,0,0,0,2.536-1.761s4.645-14.275-6.968-13.14c-8.117.793-8.776,5.513-8.136,8.929,1.1,2.118,3.483,3.543,6.736,3.069,7.1-1.036,4.666-6.661,4.666-6.661" transform="translate(-1007.664 -36.815)" fill="#fff" fill-rule="evenodd"/>
          <path id="Trazado_879481" data-name="Trazado 879481" d="M1241.474,124.74a2.775,2.775,0,0,0-2.446,1.207c.008,1.115,1.2,2.127,3.384,1.186,3.4-1.47-.938-2.393-.938-2.393" transform="translate(-982.08 -98.872)" fill="#fff" fill-rule="evenodd"/>
          <path id="Trazado_879482" data-name="Trazado 879482" d="M1288.024,112.966c1.037-2.592-3.939-2.627-5.461-.9a1.338,1.338,0,0,0-2.211.9s-2.973,1.451-1.555,2.558c1.71,1.335,4.63,0,4.63,0,3.527,1.414,6.67-.389,4.6-2.558" transform="translate(-1013.298 -87.885)" fill="#fff" fill-rule="evenodd"/>
          <path id="Trazado_879483" data-name="Trazado 879483" d="M1343.871,108.24c-.336-3.294-3.677-3.5-5.219-2.517-.171,1.508-2.357,3.742-2.357,3.742,1.193,1.866,7.376,1,7.576-1.225" transform="translate(-1059.176 -83.39)" fill="#fff" fill-rule="evenodd"/>
          <path id="Trazado_879484" data-name="Trazado 879484" d="M1432.935,125.358c2.1.6,2.8-.768,2.8-.768-1.456-3.435-3.544-2.552-4.691-1.683-.2,1.061.458,2.046,1.889,2.452" transform="translate(-1134.25 -96.795)" fill="#fff" fill-rule="evenodd"/>
          <path id="Trazado_879485" data-name="Trazado 879485" d="M1388.67,131.091c1.382-1.97,5.262-.9,5.262-.9.665-1.193,2.67-.294,2.67.751,0,0,.1,1.5-2.411.8a10.339,10.339,0,0,1-5.521-.655" transform="translate(-1100.69 -102.743)" fill="#fff" fill-rule="evenodd"/>
          <path id="Trazado_879486" data-name="Trazado 879486" d="M423.138,138.66c-2.715-3.708,2.649-10.885,9.09-5.839,0,0-9.715-18.116,11.106-20.152,18.663-1.824,11.2,21.117,11.2,21.117,1.674-2.377,8.647-2.833,9.267,3.237,0,0,1.429-9.928,8.618-9.928,9.909,0,9.492,13.188,9.492,13.188s5.5-6.5,8.878,1.474l16.893,2.21c-12.579,7.981-45.8,3.316-45.8,3.316a69.9,69.9,0,0,1-37.262-.927c-8.118,0-7.229-7.7-1.486-7.7" transform="translate(-331.856 -89.223)" fill="#f1f8fc" fill-rule="evenodd"/>
          <path id="Trazado_879487" data-name="Trazado 879487" d="M507.693,251.021c-28.909,6.87-44.5.76-44.5.76a4.692,4.692,0,0,0,2.025-4.152c-2.876,6.125-29.537,9.2-39.7,3.328,0,0-5.615,2.517-6.657-2.541-.724,2.217.9,4.994,5.775,4.994a69.9,69.9,0,0,0,37.262.927s33.216,4.664,45.8-3.316" transform="translate(-331.868 -196.276)" fill="#f1f8fc" fill-rule="evenodd"/>
          <path id="Trazado_879488" data-name="Trazado 879488" d="M443.706,209.138c7.957-.75,3.016-5.547,3.016-5.547-4.937-3.868-9.236-.556-9.755,2.873.89,1.717,3.178,3.009,6.74,2.674" transform="translate(-346.349 -159.993)" fill="#fff" fill-rule="evenodd"/>
          <path id="Trazado_879489" data-name="Trazado 879489" d="M656.5,193.954a7.985,7.985,0,0,0,7.094-4.6c-1.115-3.341-3.484-6.726-8.5-6.726a6.771,6.771,0,0,0-4.479,1.638c-3.775,3.885.307,9.742,5.888,9.688" transform="translate(-514.527 -144.755)" fill="#fff" fill-rule="evenodd"/>
          <path id="Trazado_879490" data-name="Trazado 879490" d="M491.707,121.246c5.249,2.653,1.875,15.372,1.875,15.372a8.373,8.373,0,0,0,4.074-2.831s7.464-22.941-11.2-21.117c-13.045,1.275-14.1,8.861-13.075,14.351,1.774,3.4,5.6,5.7,10.827,4.931,11.414-1.666,7.5-10.706,7.5-10.706" transform="translate(-374.979 -89.223)" fill="#fff" fill-rule="evenodd"/>
          <path id="Trazado_879491" data-name="Trazado 879491" d="M425.147,238.392a4.457,4.457,0,0,0-3.931,1.941c.013,1.793,1.93,3.418,5.437,1.906,5.472-2.362-1.506-3.845-1.506-3.846" transform="translate(-333.865 -188.955)" fill="#fff" fill-rule="evenodd"/>
          <path id="Trazado_879492" data-name="Trazado 879492" d="M499.954,219.467c1.667-4.166-6.331-4.222-8.776-1.445,0,0-2.61-1.888-3.555,1.445,0,0-4.777,2.334-2.5,4.11,2.749,2.146,7.443,0,7.443,0,5.667,2.273,10.72-.623,7.387-4.11" transform="translate(-384.032 -171.294)" fill="#fff" fill-rule="evenodd"/>
          <path id="Trazado_879493" data-name="Trazado 879493" d="M589.713,211.874c-.541-5.294-5.911-5.622-8.388-4.044-.275,2.424-3.788,6.013-3.788,6.013,1.917,3,11.853,1.6,12.176-1.969" transform="translate(-457.768 -164.074)" fill="#fff" fill-rule="evenodd"/>
          <path id="Trazado_879494" data-name="Trazado 879494" d="M732.856,239.389c3.374.957,4.5-1.235,4.5-1.235-2.339-5.523-5.7-4.1-7.539-2.706-.321,1.706.736,3.288,3.036,3.941" transform="translate(-578.426 -185.62)" fill="#fff" fill-rule="evenodd"/>
          <path id="Trazado_879495" data-name="Trazado 879495" d="M661.711,248.6c2.221-3.166,8.457-1.445,8.457-1.445,1.068-1.916,4.291-.472,4.289,1.208,0,0,.167,2.416-3.873,1.29-4.255.945-8.873-1.054-8.873-1.054" transform="translate(-524.486 -195.181)" fill="#fff" fill-rule="evenodd"/>
          <path id="Trazado_879496" data-name="Trazado 879496" d="M1317.968,796.187l13.018.528-1.407-116.807-9.763-.089Z" transform="translate(-1044.65 -538.839)" fill="#ece7c6" fill-rule="evenodd"/>
          <rect id="Rectángulo_403965" data-name="Rectángulo 403965" width="17.943" height="6.772" transform="translate(270.856 256.644)" fill="#a28b58"/>
          <rect id="Rectángulo_403966" data-name="Rectángulo 403966" width="8.005" height="3.253" transform="translate(276.22 139.133)" fill="#ece7c6"/>
          <path id="Trazado_879497" data-name="Trazado 879497" d="M1337.974,627.866h-12.64a5.388,5.388,0,0,1-1.3,9.894h13.936a4.947,4.947,0,1,0,0-9.894" transform="translate(-1049.461 -497.661)" fill="#cccb9c" fill-rule="evenodd"/>
          <path id="Trazado_879498" data-name="Trazado 879498" d="M1296.851,635.238a5.388,5.388,0,1,0-5.388-5.387,5.4,5.4,0,0,0,5.388,5.387" transform="translate(-1023.641 -494.963)" fill="#cccb9c" fill-rule="evenodd"/>
          <path id="Trazado_879499" data-name="Trazado 879499" d="M1301.56,638.717a4.156,4.156,0,1,0-4.156-4.156,4.164,4.164,0,0,0,4.156,4.156" transform="translate(-1028.35 -499.672)" fill="#ece7c6" fill-rule="evenodd"/>
          <path id="Trazado_879500" data-name="Trazado 879500" d="M1361.326,393.58l-32.369,46.354-2.286-3.255,10.114-20.055,27.356-29.465Z" transform="translate(-1051.547 -306.87)" fill="#a28b58" fill-rule="evenodd"/>
          <path id="Trazado_879501" data-name="Trazado 879501" d="M1344.7,714.682,1322.2,662.818l-2.888,2.735,5.928,21.666,20.95,34.316Z" transform="translate(-1045.711 -525.364)" fill="#a28b58" fill-rule="evenodd"/>
          <path id="Trazado_879502" data-name="Trazado 879502" d="M1361.979,437.148l-29.613,42.408-1.394-1.984L1345.4,457.4Z" transform="translate(-1054.957 -346.494)" fill="#cccb9c" fill-rule="evenodd"/>
          <path id="Trazado_879503" data-name="Trazado 879503" d="M1347.1,710.268l-20.592-47.449-1.76,1.668,10.125,22.636Z" transform="translate(-1050.023 -525.364)" fill="#cccb9c" fill-rule="evenodd"/>
          <path id="Trazado_879504" data-name="Trazado 879504" d="M1002.171,623.356l56.355,4.529-1.056-3.836-21.906-4.959-40.137,2.352Z" transform="translate(-788.997 -490.704)" fill="#a28b58" fill-rule="evenodd"/>
          <path id="Trazado_879505" data-name="Trazado 879505" d="M1051.077,641.524l51.558,4.142-.643-2.338-24.739-1.71Z" transform="translate(-833.106 -508.486)" fill="#cccb9c" fill-rule="evenodd"/>
          <path id="Trazado_879506" data-name="Trazado 879506" d="M905.165,749.869l18.432.746L921.6,585.228l-13.823-.125Z" transform="translate(-717.453 -463.765)" fill="#ece7c6" fill-rule="evenodd"/>
          <rect id="Rectángulo_403967" data-name="Rectángulo 403967" width="25.407" height="9.59" transform="translate(184.224 285.107)" fill="#a28b58"/>
          <rect id="Rectángulo_403968" data-name="Rectángulo 403968" width="11.334" height="4.608" transform="translate(191.821 118.72)" fill="#ece7c6"/>
          <path id="Trazado_879507" data-name="Trazado 879507" d="M933.491,511.533h-17.9a7.63,7.63,0,0,1-1.833,14.011h19.732a7.005,7.005,0,0,0,0-14.011" transform="translate(-724.265 -405.452)" fill="#cccb9c" fill-rule="evenodd"/>
          <path id="Trazado_879508" data-name="Trazado 879508" d="M875.262,521.981a7.628,7.628,0,1,0-7.629-7.628,7.641,7.641,0,0,0,7.629,7.628" transform="translate(-687.704 -401.641)" fill="#cccb9c" fill-rule="evenodd"/>
          <path id="Trazado_879509" data-name="Trazado 879509" d="M881.932,526.907a5.884,5.884,0,1,0-5.884-5.885,5.9,5.9,0,0,0,5.884,5.885" transform="translate(-694.374 -408.311)" fill="#ece7c6" fill-rule="evenodd"/>
          <path id="Trazado_879510" data-name="Trazado 879510" d="M966.553,179.817,920.722,245.45l-3.238-4.609,14.322-28.395,38.731-41.72Z" transform="translate(-727.217 -135.321)" fill="#a28b58" fill-rule="evenodd"/>
          <path id="Trazado_879511" data-name="Trazado 879511" d="M943.019,634.469,911.15,561.036l-4.089,3.871,8.392,30.675,29.666,48.588Z" transform="translate(-718.956 -444.69)" fill="#a28b58" fill-rule="evenodd"/>
          <path id="Trazado_879512" data-name="Trazado 879512" d="M967.481,241.506l-41.929,60.046-1.974-2.81L944,270.182Z" transform="translate(-732.048 -191.423)" fill="#cccb9c" fill-rule="evenodd"/>
          <path id="Trazado_879513" data-name="Trazado 879513" d="M946.412,628.218l-29.156-67.181-2.492,2.36,14.337,32.05Z" transform="translate(-725.061 -444.69)" fill="#cccb9c" fill-rule="evenodd"/>
          <path id="Trazado_879514" data-name="Trazado 879514" d="M458.027,505.162l79.793,6.411-1.495-5.43-31.018-7.021-56.83,3.328Z" transform="translate(-355.473 -395.615)" fill="#a28b58" fill-rule="evenodd"/>
          <path id="Trazado_879515" data-name="Trazado 879515" d="M527.279,530.879l73,5.865-.911-3.31-35.028-2.42Z" transform="translate(-417.933 -420.786)" fill="#cccb9c" fill-rule="evenodd"/>
          <path id="Trazado_879516" data-name="Trazado 879516" d="M1659.233,865.033l9.645.39-1.042-86.541-7.235-.065Z" transform="translate(-1315.144 -617.307)" fill="#ece7c6" fill-rule="evenodd"/>
          <rect id="Rectángulo_403969" data-name="Rectángulo 403969" width="13.294" height="5.019" transform="translate(342.265 247.202)" fill="#a28b58"/>
          <rect id="Rectángulo_403970" data-name="Rectángulo 403970" width="5.93" height="2.412" transform="translate(346.24 160.14)" fill="#ece7c6"/>
          <path id="Trazado_879517" data-name="Trazado 879517" d="M1674.058,740.319h-9.365a3.993,3.993,0,0,1-.959,7.332h10.324a3.666,3.666,0,1,0,0-7.332" transform="translate(-1318.711 -586.793)" fill="#cccb9c" fill-rule="evenodd"/>
          <path id="Trazado_879518" data-name="Trazado 879518" d="M1643.593,745.783a3.992,3.992,0,1,0-3.992-3.991,4,4,0,0,0,3.992,3.991" transform="translate(-1299.583 -584.796)" fill="#cccb9c" fill-rule="evenodd"/>
          <path id="Trazado_879519" data-name="Trazado 879519" d="M1647.081,748.358a3.079,3.079,0,1,0-3.08-3.078,3.083,3.083,0,0,0,3.08,3.078" transform="translate(-1303.07 -588.284)" fill="#ece7c6" fill-rule="evenodd"/>
          <path id="Trazado_879520" data-name="Trazado 879520" d="M1691.354,566.744l-23.982,34.343-1.695-2.411,7.494-14.858,20.267-21.831Z" transform="translate(-1320.251 -445.443)" fill="#a28b58" fill-rule="evenodd"/>
          <path id="Trazado_879521" data-name="Trazado 879521" d="M1679.042,804.646l-16.676-38.424-2.141,2.027,4.391,16.051,15.523,25.424Z" transform="translate(-1315.93 -607.324)" fill="#a28b58" fill-rule="evenodd"/>
          <path id="Trazado_879522" data-name="Trazado 879522" d="M1691.839,599.022l-21.94,31.42-1.033-1.47,10.686-14.945Z" transform="translate(-1322.778 -474.798)" fill="#cccb9c" fill-rule="evenodd"/>
          <path id="Trazado_879523" data-name="Trazado 879523" d="M1680.819,801.375l-15.257-35.155-1.3,1.235,7.5,16.771Z" transform="translate(-1319.126 -607.323)" fill="#cccb9c" fill-rule="evenodd"/>
          <path id="Trazado_879524" data-name="Trazado 879524" d="M1425.263,736.983l41.753,3.355-.782-2.842L1450,733.821l-29.737,1.742Z" transform="translate(-1125.734 -581.643)" fill="#a28b58" fill-rule="evenodd"/>
          <path id="Trazado_879525" data-name="Trazado 879525" d="M1461.5,750.44l38.2,3.07-.476-1.732-18.328-1.267Z" transform="translate(-1158.418 -594.815)" fill="#cccb9c" fill-rule="evenodd"/>
          <path id="Trazado_879526" data-name="Trazado 879526" d="M82.03,1209.536c-3.1-6.882-9.532-15.557-3.81-7.761,1.817,2.474,3.306,4.475,4.827,6.558a13.83,13.83,0,0,1,2.05-1.732c-.005-.716.128-.989.5-.339q.524-.338,1.122-.666c-3.093-5.616-6.466-10.154-1.817-3.821.914,1.243,1.746,2.37,2.539,3.445a24.5,24.5,0,0,1,3.512-1.392c-1.131.692-2.16,1.357-3.067,1.993l.329.448c.207-.4.552-.132,1.209,1.645l1.067,1.464c.047-.642.211-.95,1.1,1.525l.7.982c.043-.131.1-.282.167-.45-.6-2.762-1.451-9,.72-3.073a11.079,11.079,0,0,0,.44,1.063,11.435,11.435,0,0,1,.945-1.1c.163-1.6.286-3.424,1.26-1.142a20.223,20.223,0,0,1,6.64-3.353,32.192,32.192,0,0,0-6.183,4.557c.1.275.2.577.306.912.068.205.125.373.176.516a9.134,9.134,0,0,1,2.128-2.784,8.724,8.724,0,0,0-.813,3.334c.2.522.44,1.213.736,2.114.019.056.765-5.644,10.335-8.648-6.77,4.14-9.887,7.338-5.258,9.033.08.029-2.616-1.721,1.685-5.833-2.253,5.3.827,6.3,1.443,8.308-17.974,0-35.532-.211-53.574-.211.131-.032,2.863-.461,2.951-.844-.326-5.887-12.523-22.363-5.287-12.507,2.967,4.044,5.065,6.822,7.853,10.767-.444-.961-2.174-11.263.421-4.179,2.339,6.385.383-8.411,3.409.934,1.289,3.984-.446-4.948,2.228,3.179.014.039.4-2.889,4.166-5.656-3.225-6.13-7.459-11.834-2.477-5.045,1.21,1.647,2.275,3.087,3.3,4.478a21.981,21.981,0,0,1,5.343-2.425,45.022,45.022,0,0,0-4.74,3.247l.481.654c.207-.227.435-.459.686-.7-.163.382-.3.742-.407,1.082,1.02,1.391,2.046,2.814,3.188,4.431-.444-.961-2.174-11.263.422-4.179,2.338,6.385.383-8.411,3.409.934,1.289,3.984-.447-4.948,2.228,3.179a7.744,7.744,0,0,1,1.407-2.94m-10.22,3.547a17.324,17.324,0,0,0-.836-2.5,4.678,4.678,0,0,0,.836,2.5m-1.607-4.239q-.235-.494-.486-.992c-2.366,2.2-2.606,3.916.382,5.01.067.023-1.814-1.2.1-4.017m13.7.66,1.048,1.456a3.88,3.88,0,0,1,.465-1.469c-.083-.518-.158-1.043-.214-1.527a7.56,7.56,0,0,0-1.3,1.54m2.149-2.291c.1.247.216.536.34.867a13.662,13.662,0,0,1,.995-1.052,11.134,11.134,0,0,0-.647,1.959c.91,2.185,1.029.458,1.189-1.11-.253-.506-.518-1.013-.787-1.514-.392.291-.756.574-1.089.85" transform="translate(-38.696 -950.115)" fill="#79b02b" fill-rule="evenodd"/>
          <path id="Trazado_879527" data-name="Trazado 879527" d="M304.923,1202.839c-3.1-6.883-9.533-15.558-3.811-7.762,1.816,2.474,3.3,4.474,4.827,6.558a13.935,13.935,0,0,1,2.049-1.732c0-.715.129-.989.5-.339q.522-.338,1.121-.666c-3.092-5.616-6.465-10.154-1.816-3.821.913,1.245,1.747,2.37,2.539,3.445a24.364,24.364,0,0,1,3.512-1.392c-1.132.692-2.16,1.357-3.069,1.995l.331.447c.206-.4.55-.132,1.208,1.645l1.065,1.464c.049-.642.213-.95,1.1,1.525l.7.982c.045-.13.1-.282.168-.45-.6-2.763-1.453-9,.718-3.073a11,11,0,0,0,.44,1.063,11.4,11.4,0,0,1,.946-1.1c.162-1.594.285-3.424,1.258-1.142a20.218,20.218,0,0,1,6.64-3.353,32.2,32.2,0,0,0-6.181,4.558c.1.275.2.576.306.911.067.206.125.374.177.516a9.09,9.09,0,0,1,2.127-2.784,8.758,8.758,0,0,0-.812,3.334c.2.522.441,1.213.737,2.115.018.055.765-5.644,10.333-8.649-6.767,4.14-9.886,7.339-5.256,9.034.081.029-2.615-1.721,1.685-5.833-2.255,5.3.826,6.305,1.443,8.308-17.975,0-35.532-.211-53.575-.211.131-.032,2.863-.461,2.952-.843-.328-5.887-12.523-22.364-5.289-12.508,2.969,4.043,5.066,6.822,7.853,10.767-.445-.962-2.174-11.263.422-4.179,2.338,6.384.384-8.41,3.409.934,1.289,3.984-.447-4.948,2.226,3.18.014.039.4-2.89,4.166-5.657-3.226-6.13-7.459-11.834-2.476-5.045,1.21,1.648,2.275,3.086,3.3,4.479a22,22,0,0,1,5.344-2.426,45.068,45.068,0,0,0-4.74,3.246l.481.654c.206-.225.434-.458.687-.7-.163.384-.3.742-.407,1.082,1.018,1.392,2.045,2.814,3.188,4.431-.444-.962-2.174-11.263.421-4.179,2.339,6.384.384-8.41,3.409.934,1.29,3.984-.446-4.948,2.228,3.18a7.734,7.734,0,0,1,1.409-2.94m-10.22,3.547a17.477,17.477,0,0,0-.837-2.5,4.685,4.685,0,0,0,.837,2.5m-1.608-4.24c-.156-.329-.32-.659-.486-.992-2.366,2.195-2.606,3.916.382,5.009.068.023-1.813-1.2.1-4.018m13.7.66,1.049,1.456a3.869,3.869,0,0,1,.466-1.47c-.083-.518-.16-1.043-.215-1.527a7.649,7.649,0,0,0-1.3,1.541m2.15-2.291c.1.248.217.537.339.867a13.835,13.835,0,0,1,1-1.052,11.213,11.213,0,0,0-.648,1.959c.911,2.185,1.029.459,1.189-1.11-.253-.506-.516-1.012-.786-1.514q-.588.435-1.089.85" transform="translate(-215.365 -944.806)" fill="#79b02b" fill-rule="evenodd"/>
          <path id="Trazado_879528" data-name="Trazado 879528" d="M474.34,1189.913c-3.1-6.882-9.532-15.556-3.811-7.762,1.816,2.474,3.306,4.474,4.827,6.559a13.83,13.83,0,0,1,2.049-1.734c0-.714.129-.987.5-.337q.523-.34,1.121-.665c-3.092-5.616-6.465-10.156-1.816-3.823.913,1.245,1.746,2.37,2.539,3.445a24.32,24.32,0,0,1,3.512-1.391c-1.132.692-2.16,1.356-3.069,1.993l.331.448c.205-.4.551-.131,1.208,1.645l1.067,1.464c.047-.642.211-.95,1.1,1.526l.7.982c.043-.132.1-.283.167-.451-.6-2.763-1.452-9,.718-3.073a10.89,10.89,0,0,0,.44,1.062,11.4,11.4,0,0,1,.946-1.1c.163-1.594.285-3.422,1.259-1.141a20.161,20.161,0,0,1,6.641-3.353,32.048,32.048,0,0,0-6.183,4.558c.1.275.2.576.306.909.067.206.125.376.176.516a9.1,9.1,0,0,1,2.128-2.783,8.727,8.727,0,0,0-.812,3.334c.2.522.44,1.213.736,2.113.018.055.765-5.643,10.335-8.647-6.769,4.14-9.888,7.339-5.258,9.034.081.028-2.616-1.723,1.685-5.833-2.254,5.3.827,6.305,1.444,8.307-17.975,0-35.532-.211-53.575-.211.13-.032,2.863-.461,2.952-.842-.328-5.888-12.523-22.365-5.289-12.509,2.969,4.043,5.066,6.823,7.853,10.768-.445-.961-2.174-11.263.422-4.179,2.338,6.385.384-8.411,3.409.933,1.289,3.986-.447-4.946,2.228,3.18.013.04.4-2.888,4.164-5.655-3.225-6.132-7.458-11.833-2.475-5.047,1.21,1.649,2.275,3.086,3.3,4.48a22,22,0,0,1,5.344-2.426,45.039,45.039,0,0,0-4.74,3.245l.481.654c.206-.225.433-.457.686-.7-.162.382-.3.742-.407,1.082,1.019,1.392,2.045,2.814,3.188,4.431-.444-.961-2.174-11.263.421-4.179,2.339,6.385.384-8.411,3.409.933,1.291,3.986-.445-4.946,2.228,3.18a7.766,7.766,0,0,1,1.409-2.939m-10.22,3.547a17.541,17.541,0,0,0-.837-2.5,4.692,4.692,0,0,0,.837,2.5m-1.608-4.239c-.156-.329-.32-.661-.485-.993-2.367,2.2-2.607,3.916.381,5.011.068.023-1.813-1.2.1-4.018m13.7.66,1.049,1.456a3.883,3.883,0,0,1,.466-1.471c-.083-.518-.16-1.042-.215-1.526a7.65,7.65,0,0,0-1.3,1.542m2.15-2.292q.154.373.341.867a13.431,13.431,0,0,1,.994-1.05,11.077,11.077,0,0,0-.647,1.959c.91,2.185,1.028.457,1.188-1.111-.253-.5-.517-1.011-.786-1.514q-.588.435-1.089.85" transform="translate(-349.649 -934.562)" fill="#79b02b" fill-rule="evenodd"/>
          <path id="Trazado_879529" data-name="Trazado 879529" d="M491.874,1397.2c-12.276-27.233-37.724-61.561-15.082-30.716,7.187,9.791,13.083,17.708,19.1,25.953a55.206,55.206,0,0,1,8.11-6.857c-.018-2.827.508-3.912,1.993-1.339q2.071-1.337,4.438-2.632c-12.238-22.224-25.585-40.185-7.187-15.125,3.616,4.923,6.91,9.378,10.05,13.634a96.437,96.437,0,0,1,13.9-5.508c-4.477,2.74-8.547,5.369-12.141,7.891l1.306,1.771c.817-1.585,2.181-.52,4.783,6.51l4.22,5.794c.189-2.54.839-3.762,4.354,6.036l2.771,3.888c.174-.521.391-1.12.661-1.785-2.364-10.933-5.747-35.6,2.844-12.159a43.549,43.549,0,0,0,1.743,4.206,44.944,44.944,0,0,1,3.743-4.366c.643-6.312,1.128-13.547,4.981-4.515a71.488,71.488,0,0,1,16.38-9.614q-.684,1.9-1.46,3.687a85.776,85.776,0,0,0-13.109,10.693c.38,1.087.782,2.28,1.211,3.6.264.812.494,1.482.7,2.039,1.341-3.042,3.906-6.7,8.421-11.014-.16.377-.314.746-.459,1.111-17.855,30.558-58.764,34.1-107.373,20.373-.683-2.318-1.588-4.81-2.648-7.408a17.665,17.665,0,0,0,1.752,7.15q-5.683-1.627-11.491-3.555c-.172-.058-.346-.113-.52-.165.94-2.894,3.033-6.425,7.054-10.641-.445-.932-.9-1.871-1.371-2.81-1.884,1.474-3.573,2.9-5.046,4.284-2.39,3.285-3.169,6.223-2.024,8.772a40.455,40.455,0,0,0-11.649-1.045,45.077,45.077,0,0,1,6.17-7.283,50.877,50.877,0,0,1,10.053-9.608c-12.765-24.261-29.516-46.828-9.8-19.968,4.79,6.522,9,12.215,13.065,17.725a87.033,87.033,0,0,1,21.145-9.6c-4.124,2.523-7.907,4.956-11.288,7.294q3.223-1.261,6.858-2.41c-5.1,3.118-9.671,6.1-13.612,8.935l1.186,1.616c.817-.892,1.719-1.813,2.717-2.769-.643,1.513-1.175,2.935-1.611,4.281,4.033,5.51,8.093,11.136,12.616,17.536-1.759-3.8-8.6-44.571,1.668-16.537,9.256,25.266,1.515-33.285,13.489,3.695,5.1,15.768-1.764-19.579,8.818,12.581.035.1.731-4.99,5.573-11.632M289,1367.314c-5.87-9.493-7.955-12.352,1.727.843q-.863-.427-1.727-.843m20.145,19.964A91.079,91.079,0,0,1,327.3,1379.5a192.9,192.9,0,0,0-16.96,11.425c-.393-1.228-.783-2.448-1.193-3.646m2.187,6.706c.571-.591,1.178-1.2,1.828-1.818q-.745,1.755-1.3,3.354-.27-.767-.528-1.535m1.593,4.347c3.042,4.172,6.129,8.451,9.445,13.119a33.011,33.011,0,0,1-3.959-3.863,32.591,32.591,0,0,1-5.486-9.256m10.742,14.126c16.294,12.027,40.535,5.4,64.006-1.241,12.323-3.485,24.434-6.967,35.069-7.751-1.739-4.928-2.823-7.336-3.5-8.238q.521-1.466,1.2-3.061a52.285,52.285,0,0,0-4.459,4.782c-.073-.22-.15-.451-.228-.692-.353-1.092-.687-2.094-1.008-3.023a169.257,169.257,0,0,1,19.834-13.734,86.73,86.73,0,0,0-21.309,9.7c-4.194-10.623-4.809-3.92-5.449,2.49-3.106-6.665-3.776-1.57-4.334,3.951-.371-.847-.777-1.865-1.222-3.081-7.18-19.6-5.994-5.568-4.03,5.95q-.194-.5-.4-1.064c-6.182-16.872-6.163-8.825-4.785,1.088-3.663-5.071-7.161-9.839-10.79-14.762q3.206-2.09,6.777-4.273-4.211,1.323-7.858,2.806c-3.631-4.922-7.419-10.043-11.657-15.817-18.974-25.849-4.177-5.924,8.34,17.234q-1.4.634-2.72,1.285c-3.14-4.256-6.434-8.71-10.05-13.634-18.4-25.061-5.049-7.1,7.188,15.126q-2.369,1.294-4.438,2.631c-1.485-2.571-2.012-1.488-1.992,1.341a55.079,55.079,0,0,0-8.111,6.857c-6.021-8.248-11.916-16.163-19.1-25.954-22.644-30.845,2.805,3.484,15.08,30.716-4.841,6.643-5.538,11.737-5.573,11.632-10.583-32.159-3.713,3.188-8.817-12.581-11.973-36.979-4.234,21.571-13.49-3.694-9.464-25.836-4.394,6.761-2.164,15.011m61.7-13.507-2.389-3.279c-2.6-7.029-3.966-8.095-4.782-6.509l-1.3-1.771q1.041-.732,2.136-1.475c2.313,4.373,4.5,8.81,6.34,13.035m32.4,1.438a2.389,2.389,0,0,0,.148-.692c-.053.234-.1.464-.148.692M361.1,1401.96a30.14,30.14,0,0,1,5.138-6.1c.221,1.913.52,3.991.852,6.04a15.266,15.266,0,0,0-1.841,5.819Zm8.506-9.065q1.981-1.642,4.311-3.364c1.065,1.986,2.113,3.995,3.112,5.992-.631,6.206-1.1,13.043-4.7,4.4a44.165,44.165,0,0,1,2.563-7.751,53.892,53.892,0,0,0-3.937,4.157q-.733-1.959-1.346-3.43m129.659,4.181,4.148,5.763a15.276,15.276,0,0,1,1.84-5.819c-.331-2.049-.63-4.126-.85-6.04a30.086,30.086,0,0,0-5.139,6.1m8.5-9.066q.611,1.471,1.346,3.431a53.83,53.83,0,0,1,3.938-4.159,44.167,44.167,0,0,0-2.563,7.753c3.6,8.646,4.073,1.808,4.7-4.4-1-2-2.046-4.006-3.111-5.993q-2.328,1.721-4.313,3.363" transform="translate(-225.127 -1073.464)" fill="#3a854e" fill-rule="evenodd"/>
          <path id="Trazado_879530" data-name="Trazado 879530" d="M114.013,556.024c.071,2.663.316,7.712.863,8.736a11.584,11.584,0,0,0,3.406-2.247,11.37,11.37,0,0,0-2.256,3.434c.918.511,6.4.639,8.208.835-1.792.194-7.267.32-8.182.819.336,1.11,1.313,2.433,3.145,4.366a13.4,13.4,0,0,0-4.371-3.067c-.512,1.028-.745,6.437-.813,9.018-.118-2.611-.388-8.035-.924-9.065a10.762,10.762,0,0,0-3.345,2.2,10.338,10.338,0,0,0,2.217-3.42c-.911-.539-6.377-.663-8.171-.849,1.75-.182,7.2-.3,8.1-.812-.349-1.109-1.3-2.443-3.067-4.374a13.257,13.257,0,0,0,4.263,3.113c.535-1.031.8-6.073.922-8.685" transform="translate(-82.267 -440.717)" fill="#fff" fill-rule="evenodd"/>
          <path id="Trazado_879531" data-name="Trazado 879531" d="M1145.985,0c.071,2.661.317,7.711.863,8.735a11.543,11.543,0,0,0,3.406-2.247A11.355,11.355,0,0,0,1148,9.924c.917.51,6.4.638,8.207.834-1.792.194-7.265.32-8.182.819.338,1.11,1.314,2.434,3.146,4.366a13.433,13.433,0,0,0-4.371-3.067c-.513,1.028-.745,6.439-.814,9.02-.118-2.613-.387-8.036-.923-9.067a10.789,10.789,0,0,0-3.345,2.2,10.36,10.36,0,0,0,2.219-3.419c-.911-.54-6.379-.664-8.171-.85,1.749-.181,7.2-.3,8.1-.811a13.409,13.409,0,0,0-3.069-4.373,13.276,13.276,0,0,0,4.263,3.111c.537-1.031.8-6.073.923-8.683" transform="translate(-900.231 -0.002)" fill="#fff" fill-rule="evenodd"/>
          <path id="Trazado_879532" data-name="Trazado 879532" d="M1227.827,468.471c.071,2.661.317,7.711.863,8.735a11.58,11.58,0,0,0,3.406-2.248,11.356,11.356,0,0,0-2.254,3.435c.916.51,6.4.638,8.208.833-1.793.195-7.266.321-8.183.82.337,1.11,1.314,2.434,3.146,4.366a13.42,13.42,0,0,0-4.372-3.067c-.513,1.028-.744,6.439-.814,9.018-.118-2.612-.386-8.035-.924-9.065a10.8,10.8,0,0,0-3.345,2.2,10.321,10.321,0,0,0,2.219-3.419c-.911-.54-6.378-.664-8.17-.85,1.749-.18,7.2-.3,8.1-.811a13.424,13.424,0,0,0-3.068-4.375,13.264,13.264,0,0,0,4.263,3.113c.536-1.031.8-6.073.922-8.683" transform="translate(-965.101 -371.321)" fill="#fff" fill-rule="evenodd"/>
          <path id="Trazado_879533" data-name="Trazado 879533" d="M706.792,738.282a13.846,13.846,0,0,0,.3,3.035,4.014,4.014,0,0,0,1.184-.782,3.955,3.955,0,0,0-.784,1.195,19.625,19.625,0,0,0,2.852.289,20.264,20.264,0,0,0-2.842.285,4.4,4.4,0,0,0,1.092,1.517,4.654,4.654,0,0,0-1.518-1.065,16.089,16.089,0,0,0-.282,3.134,16.545,16.545,0,0,0-.321-3.151,3.734,3.734,0,0,0-1.163.764,3.612,3.612,0,0,0,.771-1.188,17.632,17.632,0,0,0-2.839-.3,18.644,18.644,0,0,0,2.816-.282,4.672,4.672,0,0,0-1.065-1.52,4.576,4.576,0,0,0,1.481,1.082,14.994,14.994,0,0,0,.321-3.017" transform="translate(-557.402 -585.179)" fill="#fff" fill-rule="evenodd"/>
          <path id="Trazado_879534" data-name="Trazado 879534" d="M521.5,321.505a13.953,13.953,0,0,0,.3,3.035,4,4,0,0,0,1.184-.781,3.969,3.969,0,0,0-.784,1.193,19.335,19.335,0,0,0,2.852.29,19.956,19.956,0,0,0-2.842.285,4.416,4.416,0,0,0,1.092,1.517,4.632,4.632,0,0,0-1.518-1.065,16.214,16.214,0,0,0-.283,3.134,16.431,16.431,0,0,0-.32-3.151,3.716,3.716,0,0,0-1.163.764,3.6,3.6,0,0,0,.771-1.189,17.584,17.584,0,0,0-2.839-.295,18.643,18.643,0,0,0,2.816-.282,4.671,4.671,0,0,0-1.065-1.52,4.584,4.584,0,0,0,1.481,1.08,14.89,14.89,0,0,0,.32-3.017" transform="translate(-410.536 -254.832)" fill="#fff" fill-rule="evenodd"/>
          <path id="Trazado_879535" data-name="Trazado 879535" d="M1540.734,277.859a13.808,13.808,0,0,0,.3,3.035,4.026,4.026,0,0,0,1.183-.781,3.944,3.944,0,0,0-.783,1.193,19.342,19.342,0,0,0,2.851.291,19.856,19.856,0,0,0-2.843.285,4.438,4.438,0,0,0,1.093,1.517,4.656,4.656,0,0,0-1.52-1.065,16.1,16.1,0,0,0-.282,3.132,16.523,16.523,0,0,0-.321-3.149,3.733,3.733,0,0,0-1.162.764,3.6,3.6,0,0,0,.771-1.189,17.467,17.467,0,0,0-2.839-.295,18.845,18.845,0,0,0,2.816-.282,4.662,4.662,0,0,0-1.066-1.52,4.6,4.6,0,0,0,1.48,1.081,14.988,14.988,0,0,0,.321-3.017" transform="translate(-1218.404 -220.237)" fill="#fff" fill-rule="evenodd"/>
          <path id="Trazado_879536" data-name="Trazado 879536" d="M411.667,920.646a13.866,13.866,0,0,0,.3,3.034,3.956,3.956,0,0,0,1.184-.781,3.976,3.976,0,0,0-.783,1.193,19.316,19.316,0,0,0,2.851.29,19.925,19.925,0,0,0-2.842.285,4.387,4.387,0,0,0,1.093,1.517,4.643,4.643,0,0,0-1.52-1.065,16.1,16.1,0,0,0-.282,3.134,16.524,16.524,0,0,0-.321-3.151,3.721,3.721,0,0,0-1.163.764,3.6,3.6,0,0,0,.771-1.189,17.572,17.572,0,0,0-2.839-.295,18.688,18.688,0,0,0,2.816-.282,4.665,4.665,0,0,0-1.066-1.52,4.626,4.626,0,0,0,1.481,1.082,15,15,0,0,0,.321-3.017" transform="translate(-323.481 -729.724)" fill="#fff" fill-rule="evenodd"/>
          <path id="Trazado_879537" data-name="Trazado 879537" d="M788.641,113.653a13.86,13.86,0,0,0,.3,3.035,4.015,4.015,0,0,0,1.183-.781,3.946,3.946,0,0,0-.783,1.193,19.345,19.345,0,0,0,2.852.29,20.07,20.07,0,0,0-2.843.285,4.413,4.413,0,0,0,1.093,1.517,4.649,4.649,0,0,0-1.519-1.065,16,16,0,0,0-.283,3.134,16.4,16.4,0,0,0-.321-3.15,3.747,3.747,0,0,0-1.162.764,3.6,3.6,0,0,0,.771-1.189,17.559,17.559,0,0,0-2.839-.295,18.626,18.626,0,0,0,2.816-.282,4.66,4.66,0,0,0-1.066-1.52,4.611,4.611,0,0,0,1.48,1.08,14.861,14.861,0,0,0,.321-3.017" transform="translate(-622.278 -90.084)" fill="#fff" fill-rule="evenodd"/>
          <path id="Trazado_879538" data-name="Trazado 879538" d="M350.194,769.106s.229-10.735,1.361-12.449,6.944-.314,9.189-1.47,4.274-2.973,6.92-.9,7.721,10.456,7.721,10.456Z" transform="translate(-277.571 -597.114)" fill="#875425" fill-rule="evenodd"/>
          <path id="Trazado_879539" data-name="Trazado 879539" d="M349.907,798.683c.706,3.951-9.038,9.113-21.769,11.532s-23.62,1.176-24.33-2.77,9.037-9.111,21.766-11.531,23.625-1.176,24.333,2.768" transform="translate(-240.776 -629.879)" fill="#5e3b1c" fill-rule="evenodd"/>
          <path id="Trazado_879540" data-name="Trazado 879540" d="M378.494,815.815c.378,2.112-4.062,4.729-10.867,6.022s-12.4.9-12.78-1.213,4.831-4.234,11.635-5.526a44.94,44.94,0,0,1,8.982-1.124c1.72.073,2.86.9,3.029,1.84" transform="translate(-281.244 -645.166)" fill="#030e04" fill-rule="evenodd"/>
          <path id="Trazado_879541" data-name="Trazado 879541" d="M625.515,1098.183a5.608,5.608,0,0,0,3.6.786,45.178,45.178,0,0,1,6.1.348,12.368,12.368,0,0,0,1.867.236c.727.212,2.85.843,3.36,1.061.618.264,1.074.16,2.228.5s2.585.839,2.879.539-.072-.982-.591-1.388-2.621-.909-3.751-1.532c-.674-.372-1.29-.763-1.678-1.017.906-1.018,1.829-2.093,1.829-2.093l.363-1.829-1.044-.1c-1.056-.062-.768.192-1.826-.593s-1.432-.793-1.306-1.636,1.353-1.928,1.952-3.327.816-2.73.2-2.947-.809-.23-1.635.885-2.013,3.413-2.806,4-1.747.381-2.8,1.462-1.725,1.794-1.725,1.794a1.672,1.672,0,0,1-1.573.252,17.948,17.948,0,0,0-2.057-.385,2.841,2.841,0,0,0-1.423,1.243c-.9,1.464-.943,3.274-.166,3.736" transform="translate(-495.361 -860.06)" fill="#f4ae7c" fill-rule="evenodd"/>
          <path id="Trazado_879542" data-name="Trazado 879542" d="M718.726,1107.144c.154-.388-.594-.448-1.032-.217-1.106.586-3.057,3.7-3.057,3.7-.772.559.517,2.1.517,2.1a44.612,44.612,0,0,0,3.573-5.576" transform="translate(-566.241 -877.267)" fill="#f4ae7c" fill-rule="evenodd"/>
          <path id="Trazado_879543" data-name="Trazado 879543" d="M705.833,1102.709a10.875,10.875,0,0,0,.947-3.4c.029-1.249-.024-2.683-.457-2.606a1.716,1.716,0,0,0-1.307,1.2,18.508,18.508,0,0,0-.353,3.1,11,11,0,0,1-2.076,2.056,6.647,6.647,0,0,0-.331,1.8c.107.33.26.353.8.308a3.907,3.907,0,0,0,2.777-2.453" transform="translate(-556.61 -869.269)" fill="#f4ae7c" fill-rule="evenodd"/>
          <path id="Trazado_879544" data-name="Trazado 879544" d="M702.268,1104.5a6.4,6.4,0,0,1,.6-1.308,9.493,9.493,0,0,0,2.111-1.969s-.3-.54.178-3.06a1.9,1.9,0,0,1,1.277-1.324c-.034-.088-.11-.253-.251-.229a1.713,1.713,0,0,0-1.307,1.2,18.623,18.623,0,0,0-.351,3.1,11.11,11.11,0,0,1-2.077,2.056,6.68,6.68,0,0,0-.332,1.8c.081.246.124-.04.151-.26" transform="translate(-556.5 -869.197)" fill="#f29e65" fill-rule="evenodd"/>
          <path id="Trazado_879545" data-name="Trazado 879545" d="M702.393,1115.232c.145-.347-.3-.72-.793-.559s-1.267,1.143-2.116,2.114-1.021,1.273-1.7,1.516a19.961,19.961,0,0,0-2.227.639,4.439,4.439,0,0,0-1.56,2.587c0,.3,3.281-.151,4.441-1.2a22.867,22.867,0,0,0,3.955-5.1" transform="translate(-550.077 -883.484)" fill="#f4ae7c" fill-rule="evenodd"/>
          <path id="Trazado_879546" data-name="Trazado 879546" d="M696.571,1119.152a8.31,8.31,0,0,1,2.035-.382c.4-.145.954-.939,1.8-1.909s1.544-1.891,2.036-2.052a1.1,1.1,0,0,1,.639-.027c-.024-.239-.329-.475-.774-.331-.495.161-1.267,1.142-2.117,2.113s-1.018,1.273-1.7,1.517a19.983,19.983,0,0,0-2.227.639,3.168,3.168,0,0,0-1.411,1.951c0,.064-.005.144.046.116a3.541,3.541,0,0,1,1.665-1.635" transform="translate(-550.761 -883.304)" fill="#f29e65" fill-rule="evenodd"/>
          <path id="Trazado_879547" data-name="Trazado 879547" d="M723.721,1107.7a3.129,3.129,0,0,1,1.14-.819,1.053,1.053,0,0,1,.474-.032l.021.014c.022-.217-.275-.3-.443-.29a3.084,3.084,0,0,0-1.979,1.385c-.02.208-.152,1.153-.188,1.36a9.1,9.1,0,0,1,.975-1.617" transform="translate(-572.864 -877.096)" fill="#f29e65" fill-rule="evenodd"/>
          <path id="Trazado_879548" data-name="Trazado 879548" d="M639.487,1145.645a44.929,44.929,0,0,1,6.1.346,11.954,11.954,0,0,0,1.867.235c.727.214,2.849.843,3.36,1.062a2.519,2.519,0,0,0,.467.147.188.188,0,0,0-.009-.047l-.115-.017a4.892,4.892,0,0,0-1.139-.546,7.7,7.7,0,0,1-1.331-.774,3.359,3.359,0,0,0-.5-.417,1.736,1.736,0,0,0-.584-.019c-.471-.017-.947-.1-1.421-.157-1.174-.149-2.37-.19-3.538-.418a4.278,4.278,0,0,1-2.342-1.057c-.4-.065.439,1.013.071,1.25-.314.2-1.017.02-1.383.085-.2.035-.9.053-.865.288a12.2,12.2,0,0,0,1.358.04" transform="translate(-505.793 -906.743)" fill="#f29e65" fill-rule="evenodd"/>
          <path id="Trazado_879549" data-name="Trazado 879549" d="M682.668,1131.089c.253-.361.19-.84.513-1.14.5-.465,1.178-.9,1.392-1.531l-.046.064c-.388.548-1.025.716-1.443,1.2a10.826,10.826,0,0,0-.622,1.021,5.542,5.542,0,0,1-.67.646c.273.292.7-.014.876-.261" transform="translate(-540.403 -894.409)" fill="#f29e65" fill-rule="evenodd"/>
          <path id="Trazado_879550" data-name="Trazado 879550" d="M660.142,1116.963c-.01.015-.021.03-.033.047l.038-.029c0-.011.021-.026,0-.018" transform="translate(-523.216 -885.327)" fill="#e9a773" fill-rule="evenodd"/>
          <path id="Trazado_879551" data-name="Trazado 879551" d="M648.757,1120.508c.064-.105.02-.27.068-.394a2.671,2.671,0,0,1,.227-.385,6.992,6.992,0,0,1,.739-.908c.209-.228.415-.455.614-.687a4.113,4.113,0,0,0,.435-.71,2.6,2.6,0,0,1,.155-.224,2.4,2.4,0,0,0-.516.585,4.076,4.076,0,0,1-.736.689c-.495.43-1.107.829-1.132,1.576-.006.139.012.381.146.458" transform="translate(-514.103 -885.516)" fill="#f29e65" fill-rule="evenodd"/>
          <path id="Trazado_879552" data-name="Trazado 879552" d="M660.3,1117.026a.043.043,0,0,0-.011.007.013.013,0,0,0,0,.007Z" transform="translate(-523.361 -885.379)" fill="#e9a773" fill-rule="evenodd"/>
          <path id="Trazado_879553" data-name="Trazado 879553" d="M621.734,1119.466a28.313,28.313,0,0,1,3.469.5s-1.921,7.183-1.495,8.508c.233.779-3.783-.054-3.783-.054Z" transform="translate(-491.366 -887.311)" fill="#030e04" fill-rule="evenodd"/>
          <path id="Trazado_879554" data-name="Trazado 879554" d="M471.128,971.937c1.621.146,4.01,4.135,4.9,9.667.666,4.142,7.252,16.872,7.252,16.872a130.682,130.682,0,0,0,17.124,3.836c-2.06,3.439-2.289,9.986-2.289,9.986s-16.7,2.32-20.163.014-11.527-12.436-13.14-21.222,6.318-19.153,6.318-19.153" transform="translate(-368.246 -770.379)" fill="#875425" fill-rule="evenodd"/>
          <path id="Trazado_879555" data-name="Trazado 879555" d="M414.994,1320.114c-.088,2.778-.2,8.2-.32,14.609a31.626,31.626,0,0,1-11.128-8.288c-4.349-5-6.247-10.952-8.082-16.693-1.756-19.022-6.862-43.1-1.933-56.163l23.036-1.642s-1.249,57.994-1.573,68.176" transform="translate(-310.265 -992.313)" fill="#030e04" fill-rule="evenodd"/>
          <path id="Trazado_879556" data-name="Trazado 879556" d="M305.784,1261.736c-1.63,6.68-4.049,17.3-6.519,27.594a20.008,20.008,0,0,0-7.15-6.627c-5.056-2.8-10.295-5.308-15.49-7.656,2.65-18.85,4.907-30.763,5.573-33.309,11.034,2.579,28.548,2.222,28.548,2.222Z" transform="translate(-219.259 -984.228)" fill="#030e04" fill-rule="evenodd"/>
          <path id="Trazado_879557" data-name="Trazado 879557" d="M346.2,904.108c-.678-.571,2.91-4.46,7.469-3.13,4.532,1.309,14.412,1.434,14.173,5.6-.168,2.905-.371,4.948-1.8,5.387-1.449.464-20.895-5.233-20.895-5.233Z" transform="translate(-273.573 -713.917)" fill="#030e04" fill-rule="evenodd"/>
          <path id="Trazado_879558" data-name="Trazado 879558" d="M372.134,866.125c-.117-2.727.3-9.418.683-9.492,1.463-.282-11.737-8.6-11.737-8.6-.179,5.4,1.286,10.1-3.78,14.164-2.427,4.155-2.017,4.491-2.017,4.491l1.155,7.261,7.019,7.319s15.614-7.729,15.36-9.468c-.17-1.15-6.609-4.262-6.683-5.67" transform="translate(-281.585 -672.166)" fill="#f4ae7c" fill-rule="evenodd"/>
          <path id="Trazado_879559" data-name="Trazado 879559" d="M367.263,955.8c2.2-.132,4.343-7.372,4.343-7.372s1.492.282,7.814,8.5c3.041,3.949-1.219,47.664,2.523,66.654.244,1.235-18.351.74-31.348.206.788-14.129,3.731-62.853,4.934-70.456.091-.561,3.628,4.28,11.734,2.466" transform="translate(-277.889 -751.747)" fill="#fff" fill-rule="evenodd"/>
          <path id="Trazado_879560" data-name="Trazado 879560" d="M457.1,944.6c-1.895-3.037-3.833-3.169-3.307-2.1,3.719,7.607,3.38,21.037,3.4,22.308.584,41.391.771,51.984,2.3,56.4,1.1,3.185,11.413.078,11.413.078l.864-.927s-4.687-2.527-7.069-37.618c-.611-8.976,2.932-28.739,1.347-29.992-2.311-1.827-8.944-8.15-8.944-8.15" transform="translate(-359.616 -746.563)" fill="#a28b58" fill-rule="evenodd"/>
          <path id="Trazado_879561" data-name="Trazado 879561" d="M451.708,920.8l6.444,5.915-4.477,3.7-1.924-3.881a15.627,15.627,0,0,0,.553-4.023,2.325,2.325,0,0,0-.6-1.707" transform="translate(-358.033 -729.846)" fill="#875425" fill-rule="evenodd"/>
          <path id="Trazado_879562" data-name="Trazado 879562" d="M567.143,839.82c-.3.893-2.866,4.186-3.609,5.289s-2.168,3.029-2.168,3.029,1.381-.536,1.71.3a3.127,3.127,0,0,1-.328,2.092s.606-.442,1.006.065.04,1.586.04,1.586.856.334.949.927a5.906,5.906,0,0,1-.888,3.3c-.588.922-5.6,4.15-6.517,4.956a8.971,8.971,0,0,1-2.169,1.588l-4.308,1.632s-2.311-1.006-2.458-4.664c-.081-2.016.634-2.361,1.557-2.541s1.8-.375,1.773-2.142c-.033-2.452,1.127-3.214,1.249-5.922a11.04,11.04,0,0,0-.7-3.985s-1.074-1.942-.852-2.407.774-.094,1.649.49a4.931,4.931,0,0,1,1.813,3.144c.292,1.413.28,2.324,1.21,2.1s2.256-2.208,3.262-2.91a31.615,31.615,0,0,0,3.178-3.107c1.283-1.261,3.089-3.93,3.924-4.211s.977.495.679,1.388" transform="translate(-434.671 -664.512)" fill="#f4ae7c" fill-rule="evenodd"/>
          <path id="Trazado_879563" data-name="Trazado 879563" d="M616.584,917.787c.108.294-.906.852-1.161,1.024.065-.48,1.18-2.142,1.21-1.021Z" transform="translate(-487.797 -727.158)" fill="#f29e65" fill-rule="evenodd"/>
          <path id="Trazado_879564" data-name="Trazado 879564" d="M612.074,905.194c.492-.281.6-1,.763-1.481-.982.091-.62,1.266-1.064,1.7Z" transform="translate(-484.904 -716.303)" fill="#f29e65" fill-rule="evenodd"/>
          <path id="Trazado_879565" data-name="Trazado 879565" d="M605.273,894.548l-.365.192c.435-.357-.028-1.546,1.028-1.636-.3.349-.278,1.283-.663,1.445" transform="translate(-479.463 -707.893)" fill="#f29e65" fill-rule="evenodd"/>
          <path id="Trazado_879566" data-name="Trazado 879566" d="M604.356,900.993a.426.426,0,0,1-.145.077Z" transform="translate(-478.911 -714.147)" fill="#e9a773" fill-rule="evenodd"/>
          <path id="Trazado_879567" data-name="Trazado 879567" d="M556.075,859.422c-.222.467.852,2.408.852,2.408a11.067,11.067,0,0,1,.7,3.984c-.123,2.709-1.282,3.471-1.249,5.922.025,1.768-.849,1.961-1.772,2.142s-1.554.285-.631.1,1.8-.375,1.772-2.142c-.033-2.453,1.125-3.214,1.249-5.923a11.022,11.022,0,0,0-.7-3.983s-1.075-1.942-.851-2.409c.118-.25.332-.258.64-.122a.1.1,0,0,0-.01.02" transform="translate(-438.735 -681.111)" fill="#f29e65" fill-rule="evenodd"/>
          <path id="Trazado_879568" data-name="Trazado 879568" d="M611.047,885.8c-.274-.278-.507-.344-.514-.764a1.38,1.38,0,0,1,.214-.692c.295-.094,1.351-.388,1.635.332a3.137,3.137,0,0,1-.329,2.091s.6-.442,1,.065.042,1.588.042,1.588.856.332.949.926a5.876,5.876,0,0,1-.888,3.3c.065-.761.288-1.96-.614-2.255a4.168,4.168,0,0,0-.015-1.386,3.772,3.772,0,0,0-.837-1.207c.428-.566-.233-1.578-.646-2" transform="translate(-483.921 -700.839)" fill="#f29e65" fill-rule="evenodd"/>
          <path id="Trazado_879569" data-name="Trazado 879569" d="M356.817,830.239c-5.794-.34-7.726-9.307-4.348-8.388-.139-.5-.256-.984-.354-1.462.971-2.7,13.171-5.347,19.122-5.728,2.048-.13,3.48.749,3.847,1.781a14.856,14.856,0,0,1,.439,3.617c-.1,1.724-.85,1.405-.386,2.789.968,2.88,1.134,3.587-.706,8.218-.571,1.436-.348,3.111-1.282,4.477-1.188,1.739-4.569,1.808-7.634,1.082-7.16-1.694-5.676-2.745-8.7-6.387" transform="translate(-278.058 -645.708)" fill="#f4ae7c" fill-rule="evenodd"/>
          <path id="Trazado_879570" data-name="Trazado 879570" d="M354.034,855.168a1.542,1.542,0,0,1,.676-1.811,2.326,2.326,0,0,1,2.269,1.021,5.455,5.455,0,0,1,1.078,2.831,1.6,1.6,0,0,0,1.45,1.332s.557.2.372.643-.723-.115-1.162.01a2.257,2.257,0,0,1-2.349-.115,5.207,5.207,0,0,1-2.22-3.373Z" transform="translate(-280.574 -676.342)" fill="#ef8f7a" fill-rule="evenodd"/>
          <path id="Trazado_879571" data-name="Trazado 879571" d="M357.592,858.382a2.443,2.443,0,0,1-.3-1.423c.036-.468.29-.777-.114-1.236a.464.464,0,0,0-.787.163,1.861,1.861,0,0,0-.036,1.158,6.322,6.322,0,0,0,.189.611c.032.091.146.292.124.386-.046.183-.174-.127-.215-.221a4.353,4.353,0,0,1-.3-1.059c-.085-.595.182-1,.03-1.591-.34-1.333-1.5-1.482-1.968-.719a4.5,4.5,0,0,0-.024,1.367c-.011-.038-.022-.076-.032-.113l-.115-.538a1.541,1.541,0,0,1,.676-1.811,2.326,2.326,0,0,1,2.268,1.021,5.453,5.453,0,0,1,1.078,2.831,1.7,1.7,0,0,0,.977,1.232.83.83,0,0,1-1.442-.058" transform="translate(-280.575 -676.341)" fill="#ee8570" fill-rule="evenodd"/>
          <path id="Trazado_879572" data-name="Trazado 879572" d="M357.363,869.552a4.961,4.961,0,0,1-2.127-3.041c1.424,2.956,3.481,3.3,3.983,3.337a2.164,2.164,0,0,1-1.856-.3" transform="translate(-281.568 -686.816)" fill="#ec725d" fill-rule="evenodd"/>
          <path id="Trazado_879573" data-name="Trazado 879573" d="M353.992,854.753a1.663,1.663,0,0,1,.594-1.86c.576-.33,1.4.067,2,.588a4.5,4.5,0,0,1,1.325,2.376,4.557,4.557,0,0,0,.476,1.592,1.471,1.471,0,0,0,1.083.631c.038,0,.048.09.011.093a1.515,1.515,0,0,1-1.375-.916,5.73,5.73,0,0,1-.319-1.286,4.861,4.861,0,0,0-.5-1.385,3.123,3.123,0,0,0-2-1.595c-.782-.145-1.486.546-1.281,1.761,0,0-.005,0-.005,0" transform="translate(-280.534 -675.926)" fill="#ec725d" fill-rule="evenodd"/>
          <path id="Trazado_879574" data-name="Trazado 879574" d="M357.376,830.535a5.654,5.654,0,0,1,4.11,3.6q1.136.784,1.336-.165-1.746-3.3-.423-5.69a3.566,3.566,0,0,0,1.114-2.187c-3.315.981-5.947,2.163-6.389,3.359.075.357.156.715.251,1.084" transform="translate(-283.065 -654.778)" fill="#f4ae7c" fill-rule="evenodd"/>
          <path id="Trazado_879575" data-name="Trazado 879575" d="M357.925,830.611c.07.021.138.043.2.066v-.016a.111.111,0,0,0-.117-.1.112.112,0,0,0-.088.051m.372.124.053.018h.018a.109.109,0,0,0-.014-.218.111.111,0,0,0-.1.116.116.116,0,0,0,.046.083m.364.143c.058.025.115.051.172.076a.112.112,0,0,0-.117-.1.119.119,0,0,0-.055.023m.675.336c.064.036.127.075.188.114a.1.1,0,0,0,.015-.065.107.107,0,0,0-.115-.1.115.115,0,0,0-.088.053m.426.272c.05.033.1.068.143.1v-.007a.109.109,0,0,0-.117-.1.242.242,0,0,0-.026,0m.408.316.1.086a.114.114,0,0,0-.1-.086m.342.322c.042.042.081.085.121.126a.135.135,0,0,0,0-.025.108.108,0,0,0-.115-.1Zm.313.35c.046.057.09.112.133.17a.109.109,0,0,0,.05-.1.111.111,0,0,0-.117-.1.114.114,0,0,0-.067.029m.449.637c.033.057.067.114.1.174a.1.1,0,0,0,.022-.074.11.11,0,0,0-.115-.1Zm.35.675c.029.067.057.133.085.2a.109.109,0,0,0-.042-.212.1.1,0,0,0-.043.011m.313.457c.042.025.08.049.12.07a.109.109,0,0,0-.025-.217.108.108,0,0,0-.1.117.115.115,0,0,0,.006.03m.4.195a.93.93,0,0,0,.165.042.111.111,0,0,0-.107-.063.119.119,0,0,0-.059.021m.3.049a.423.423,0,0,0,.191-.055.11.11,0,0,0-.191.055m.374-.254a.877.877,0,0,0,.076-.2.083.083,0,0,0-.032,0,.107.107,0,0,0-.1.116.11.11,0,0,0,.057.089m.055-.335-.1-.19a.111.111,0,0,0-.039.092.109.109,0,0,0,.117.1Zm-.335-.7-.076-.182h-.011a.109.109,0,0,0-.1.117.11.11,0,0,0,.117.1.108.108,0,0,0,.072-.038m-.128-.31-.065-.171a.112.112,0,0,0-.019.071.11.11,0,0,0,.084.1m-.255-.759-.022-.08a.106.106,0,0,0-.093-.042.109.109,0,1,0,.115.122m-.07-.266c-.017-.067-.03-.133-.045-.2a.069.069,0,0,0-.025,0,.11.11,0,0,0-.1.117.107.107,0,0,0,.116.1.126.126,0,0,0,.055-.018m-.07-.326c-.015-.072-.026-.145-.036-.215a.109.109,0,0,0,.027.215Zm-.055-.345c-.01-.069-.017-.14-.022-.21a.107.107,0,0,0-.071.108.111.111,0,0,0,.093.1m-.034-.351c0-.071-.007-.14-.01-.21a.108.108,0,0,0-.074.11.11.11,0,0,0,.083.1m-.013-.343c0-.073,0-.145.007-.217a.11.11,0,0,0-.1.117.107.107,0,0,0,.094.1m.014-.345c0-.07.011-.139.02-.208a.106.106,0,0,0-.051-.007.108.108,0,0,0-.1.115.109.109,0,0,0,.117.1Zm.045-.391.015-.089a.11.11,0,0,0-.216.035.111.111,0,0,0,.117.1.108.108,0,0,0,.084-.048m.16-.672c.022-.069.046-.137.072-.207a.151.151,0,0,0-.036,0,.109.109,0,0,0-.036.208m.3-.71.056-.1.069-.067a.113.113,0,0,0-.092-.04.11.11,0,0,0-.1.118.107.107,0,0,0,.068.093m.311-.371c.046-.053.09-.107.135-.164a.116.116,0,0,0-.1-.043.109.109,0,0,0-.1.117.1.1,0,0,0,.061.09m.293-.383c.039-.06.077-.121.114-.184a.122.122,0,0,0-.05-.007.109.109,0,0,0-.1.117.1.1,0,0,0,.037.074m.359-.692c.023-.064.048-.131.068-.2a.1.1,0,0,0-.068-.019.11.11,0,0,0-.1.117.107.107,0,0,0,.1.1m.2-.779.007-.066-.012.006a.176.176,0,0,0,0,.028.116.116,0,0,0,.007.032m-6.261,3.837.018.07a.107.107,0,0,0,.1.05.109.109,0,0,0-.015-.218.111.111,0,0,0-.1.1m.067.268.046.193a.061.061,0,0,0,.027,0,.109.109,0,1,0-.017-.218.106.106,0,0,0-.057.022m2.857.831a.108.108,0,1,0,.116.1.109.109,0,0,0-.116-.1m-.682.046a.109.109,0,1,0,.117.1.109.109,0,0,0-.117-.1m.342-.022a.109.109,0,1,0,.014.217.112.112,0,0,0,.1-.117.108.108,0,0,0-.117-.1m.023.344a.109.109,0,1,0,.117.1.11.11,0,0,0-.117-.1m.363.32a.109.109,0,0,0,.015.218.109.109,0,1,0-.015-.218m-.023-.343a.109.109,0,1,0,.015.217.109.109,0,1,0-.015-.217m.326-.366a.109.109,0,1,0,.016.218.111.111,0,0,0,.1-.118.109.109,0,0,0-.117-.1m.071,1.031a.112.112,0,0,0-.1.116.11.11,0,0,0,.117.1.109.109,0,0,0,.1-.117.11.11,0,0,0-.115-.1m-.024-.343a.109.109,0,1,0,.015.218.111.111,0,0,0,.1-.117.11.11,0,0,0-.117-.1m-.023-.343a.106.106,0,0,0-.1.115.108.108,0,0,0,.115.1.109.109,0,0,0,.1-.117.108.108,0,0,0-.116-.1m.318-.368a.109.109,0,1,0,.015.218.109.109,0,0,0,.1-.117.11.11,0,0,0-.117-.1m.118,1.719a.11.11,0,1,0,.115.1.11.11,0,0,0-.115-.1m-.024-.344a.11.11,0,1,0,.116.1.112.112,0,0,0-.116-.1m-.023-.343a.109.109,0,1,0,.115.1.11.11,0,0,0-.115-.1m-.024-.345a.109.109,0,0,0-.1.117.112.112,0,0,0,.117.1.114.114,0,0,0,.1-.118.11.11,0,0,0-.117-.1m-.023-.343a.108.108,0,0,0-.1.117.11.11,0,0,0,.117.1.112.112,0,0,0,.1-.117.109.109,0,0,0-.117-.1m.316-.369a.111.111,0,0,0-.1.117.107.107,0,0,0,.117.1.108.108,0,0,0,.1-.117.11.11,0,0,0-.117-.1m.166,2.409a.109.109,0,1,0,.014.218.109.109,0,0,0-.014-.218m-.024-.344a.11.11,0,0,0-.1.118.109.109,0,1,0,.218-.017.11.11,0,0,0-.116-.1m-.023-.343a.108.108,0,0,0-.1.117.111.111,0,0,0,.118.1.109.109,0,0,0-.015-.218m-.024-.344a.109.109,0,1,0,.015.218.109.109,0,0,0-.015-.218m-.023-.345a.11.11,0,1,0,.015.219.11.11,0,0,0-.015-.219m-.023-.343a.107.107,0,0,0-.1.117.108.108,0,0,0,.117.1.11.11,0,0,0,.1-.116.108.108,0,0,0-.117-.1m-.024-.344a.112.112,0,0,0-.1.117.11.11,0,1,0,.1-.117m.317-.368a.109.109,0,0,0-.1.117.108.108,0,0,0,.115.1.109.109,0,0,0,.1-.117.111.111,0,0,0-.117-.1m.189,2.753a.109.109,0,0,0,.014.218.111.111,0,0,0,.1-.117.11.11,0,0,0-.117-.1m-.024-.344a.109.109,0,0,0,.014.217.109.109,0,1,0-.014-.217m-.023-.344a.109.109,0,1,0,.117.1.109.109,0,0,0-.117-.1m-.024-.344a.109.109,0,0,0-.1.116.109.109,0,1,0,.1-.116m-.024-.344a.11.11,0,0,0,.016.219.11.11,0,0,0-.016-.219m-.022-.344a.112.112,0,0,0-.1.117.109.109,0,1,0,.1-.117m-.023-.343a.109.109,0,1,0,.115.1.109.109,0,0,0-.115-.1m-.024-.344a.11.11,0,0,0-.1.117.109.109,0,0,0,.117.1.107.107,0,0,0,.1-.117.108.108,0,0,0-.115-.1m.528,2.729a.109.109,0,1,0,.117.1.11.11,0,0,0-.117-.1m-.023-.344a.111.111,0,0,0-.1.118.109.109,0,0,0,.117.1.108.108,0,0,0,.1-.117.109.109,0,0,0-.117-.1m-.024-.343a.109.109,0,0,0-.1.117.111.111,0,0,0,.117.1.108.108,0,0,0,.1-.117.111.111,0,0,0-.117-.1m-.024-.344a.111.111,0,0,0-.1.117.109.109,0,0,0,.117.1.109.109,0,1,0-.016-.218m-.024-.345a.112.112,0,0,0-.1.117.11.11,0,1,0,.1-.117m-.023-.343a.106.106,0,0,0-.1.117.108.108,0,0,0,.115.1.109.109,0,1,0-.015-.218m.46,1.7a.111.111,0,0,0-.1.118.11.11,0,0,0,.22-.015.111.111,0,0,0-.117-.1m-.023-.343a.109.109,0,0,0-.1.117.11.11,0,0,0,.118.1.109.109,0,0,0-.015-.218m-.024-.344a.109.109,0,1,0,.015.218.109.109,0,1,0-.015-.218m-2.58-5.94a.112.112,0,0,0,.117.1.11.11,0,0,0,.1-.118.115.115,0,0,0-.029-.066ZM357.6,829.55a.11.11,0,0,0-.1.118.112.112,0,0,0,.117.1.11.11,0,0,0-.015-.219m-.023-.343a.113.113,0,0,0-.075.036l-.023.04a.245.245,0,0,0,0,.041.108.108,0,0,0,.117.1.109.109,0,0,0,.1-.116.111.111,0,0,0-.118-.1m.047-.145a.128.128,0,0,0,.04-.051Zm.365,1.153a.109.109,0,1,0,.117.1.111.111,0,0,0-.117-.1m-.024-.343a.109.109,0,1,0,.117.1.108.108,0,0,0-.117-.1m-.024-.344a.109.109,0,1,0,.117.1.109.109,0,0,0-.117-.1m-.023-.344a.109.109,0,1,0,.015.218.109.109,0,0,0-.015-.218m-.024-.343a.108.108,0,0,0-.1.115.11.11,0,0,0,.117.1.112.112,0,0,0,.1-.116.109.109,0,0,0-.118-.1m.436,1.351a.109.109,0,1,0,.115.1.108.108,0,0,0-.115-.1m-.023-.343a.109.109,0,1,0,.014.218.109.109,0,0,0-.014-.218m-.023-.344a.109.109,0,0,0,.014.218.109.109,0,0,0-.014-.218m-.024-.345a.109.109,0,1,0,.116.1.11.11,0,0,0-.116-.1m-.024-.343a.109.109,0,1,0,.115.1.109.109,0,0,0-.115-.1m-.125-.25v.021a.109.109,0,1,0,.119-.115c-.04.031-.081.063-.119.095m.582,1.947a.109.109,0,1,0,.118.1.109.109,0,0,0-.118-.1m-.022-.344a.109.109,0,0,0-.1.116.11.11,0,0,0,.219-.015.109.109,0,0,0-.117-.1m-.024-.345a.11.11,0,0,0-.1.117.111.111,0,0,0,.117.1.109.109,0,1,0-.014-.218m-.025-.344a.11.11,0,0,0-.1.117.107.107,0,0,0,.115.1.108.108,0,0,0,.1-.115.111.111,0,0,0-.118-.1m-.022-.344a.11.11,0,1,0,.117.1.111.111,0,0,0-.117-.1m-.023-.343a.109.109,0,1,0,.117.1.11.11,0,0,0-.117-.1m-.024-.344a.109.109,0,0,0,.016.218.109.109,0,1,0-.016-.218m-.083-.149a.1.1,0,0,0,.075.022.108.108,0,0,0,.1-.117l0-.021c-.06.039-.117.076-.174.116m.589,2.533a.109.109,0,1,0,.015.218.108.108,0,0,0,.1-.117.11.11,0,0,0-.117-.1m-.024-.343a.109.109,0,1,0,.015.217.108.108,0,0,0,.1-.117.11.11,0,0,0-.117-.1m-.022-.344a.108.108,0,0,0-.1.117.109.109,0,1,0,.1-.117m-.025-.344a.109.109,0,1,0,.117.1.11.11,0,0,0-.117-.1m-.023-.344a.11.11,0,1,0,.117.1.112.112,0,0,0-.117-.1m-.023-.344a.11.11,0,0,0-.1.118.107.107,0,0,0,.116.1.109.109,0,0,0,.1-.115.111.111,0,0,0-.117-.1m-.023-.342a.108.108,0,0,0-.1.116.11.11,0,0,0,.117.1.109.109,0,0,0,.1-.117.11.11,0,0,0-.117-.1m-.024-.346a.11.11,0,0,0-.1.117.113.113,0,0,0,.118.1.11.11,0,0,0-.015-.22m-.023-.344a.11.11,0,0,0-.1.118.109.109,0,0,0,.218-.016.11.11,0,0,0-.117-.1m.529,2.731a.109.109,0,1,0,.115.1.108.108,0,0,0-.115-.1m-.024-.344a.109.109,0,1,0,.014.217.107.107,0,0,0,.1-.117.109.109,0,0,0-.116-.1m-.023-.344a.109.109,0,1,0,.115.1.109.109,0,0,0-.115-.1m-.023-.344a.109.109,0,1,0,.015.218.109.109,0,0,0-.015-.218m-.024-.345a.11.11,0,1,0,.117.1.112.112,0,0,0-.117-.1m-.023-.344a.109.109,0,1,0,.117.1.109.109,0,0,0-.117-.1m-.024-.343a.108.108,0,1,0,.117.1.108.108,0,0,0-.117-.1m-.024-.346a.11.11,0,0,0,.015.22.109.109,0,0,0,.1-.118.11.11,0,0,0-.117-.1m-.023-.343a.109.109,0,1,0,.117.1.109.109,0,0,0-.117-.1m-.092-.157a.1.1,0,0,0,.083.03.107.107,0,0,0,.1-.115V827.8c-.061.032-.122.067-.183.1m.621,2.886a.109.109,0,1,0,.116.1.11.11,0,0,0-.116-.1m-.023-.343a.109.109,0,1,0,.116.1.11.11,0,0,0-.116-.1m-.024-.346a.109.109,0,0,0-.1.117.109.109,0,0,0,.218-.014.11.11,0,0,0-.117-.1m-.023-.343a.109.109,0,1,0,.015.218.111.111,0,0,0,.1-.117.109.109,0,0,0-.118-.1m-.024-.344a.11.11,0,0,0-.1.117.11.11,0,1,0,.22-.015.11.11,0,0,0-.118-.1m-.022-.345a.109.109,0,1,0,.014.218.107.107,0,0,0,.1-.115.109.109,0,0,0-.115-.1m-.024-.343a.109.109,0,0,0,.015.218.109.109,0,1,0-.015-.218m-.023-.344a.107.107,0,0,0-.1.117.109.109,0,0,0,.117.1.109.109,0,0,0-.015-.218m-.024-.344a.11.11,0,0,0-.1.117.108.108,0,0,0,.116.1.109.109,0,0,0,.1-.117.111.111,0,0,0-.117-.1m-.023-.343h-.014l-.051.025a.112.112,0,0,0-.036.089.109.109,0,1,0,.1-.115m.3-.153a.075.075,0,0,0,.032,0,.109.109,0,0,0,.089-.06Zm.25,3.226a.109.109,0,1,0,.017.218.109.109,0,0,0-.017-.218m-.022-.343a.108.108,0,0,0-.1.115.107.107,0,0,0,.115.1.108.108,0,1,0-.014-.216m-.024-.346a.109.109,0,0,0-.1.118.106.106,0,0,0,.117.1.107.107,0,0,0,.1-.115.11.11,0,0,0-.117-.1m-.023-.343a.11.11,0,0,0-.1.117.111.111,0,0,0,.118.1.109.109,0,0,0-.015-.218m-.024-.344a.11.11,0,1,0,.117.1.11.11,0,0,0-.117-.1m-.024-.343a.109.109,0,1,0,.117.1.108.108,0,0,0-.117-.1m-.024-.344a.109.109,0,1,0,.117.1.11.11,0,0,0-.117-.1m-.022-.344a.108.108,0,0,0-.1.116.11.11,0,0,0,.116.1.112.112,0,0,0,.1-.117.109.109,0,0,0-.117-.1m-.024-.345a.11.11,0,1,0,.117.1.11.11,0,0,0-.117-.1m-.023-.343a.109.109,0,1,0,.015.218.109.109,0,0,0-.015-.218m.55,3.073a.109.109,0,1,0,.118.1.11.11,0,0,0-.118-.1m-.022-.343a.107.107,0,0,0-.1.115.1.1,0,0,0,.114.1.109.109,0,1,0-.014-.217m-.023-.344a.109.109,0,1,0,.015.218.109.109,0,0,0-.015-.218m-.024-.343a.108.108,0,0,0-.1.115.109.109,0,1,0,.218-.015.107.107,0,0,0-.117-.1m-.024-.344a.109.109,0,1,0,.117.1.107.107,0,0,0-.117-.1m-.023-.345a.109.109,0,1,0,.117.1.109.109,0,0,0-.117-.1m-.024-.345a.109.109,0,0,0,.015.218.109.109,0,1,0-.015-.218m-.023-.344a.11.11,0,0,0,.015.22.113.113,0,0,0,.1-.118.111.111,0,0,0-.118-.1m-.023-.343a.108.108,0,0,0-.1.117.109.109,0,1,0,.1-.117m-.023-.344a.11.11,0,0,0-.1.116.109.109,0,1,0,.1-.116m.326-.367a.11.11,0,0,0-.1.117.109.109,0,0,0,.218-.014.11.11,0,0,0-.117-.1m.235,3.441a.109.109,0,0,0,.014.218.109.109,0,0,0-.014-.218m-.024-.344a.11.11,0,1,0,.117.1.109.109,0,0,0-.117-.1m-.023-.343a.109.109,0,1,0,.015.217.109.109,0,1,0-.015-.217m-.024-.345a.109.109,0,1,0,.117.1.109.109,0,0,0-.117-.1m-.024-.344a.109.109,0,0,0-.1.116.109.109,0,1,0,.218-.016.109.109,0,0,0-.117-.1m-.024-.344a.109.109,0,1,0,.117.1.109.109,0,0,0-.117-.1m-.022-.344a.109.109,0,0,0,.014.218.109.109,0,0,0,.1-.115.111.111,0,0,0-.117-.1m-.024-.343a.109.109,0,1,0,.117.1.109.109,0,0,0-.117-.1m-.023-.345a.109.109,0,1,0,.115.1.11.11,0,0,0-.115-.1m-.024-.344a.109.109,0,1,0,.016.218.108.108,0,0,0,.1-.115.111.111,0,0,0-.117-.1m.318-.367a.109.109,0,0,0-.1.117.107.107,0,0,0,.117.1.108.108,0,0,0,.1-.115.111.111,0,0,0-.117-.1m.235,3.441a.107.107,0,0,0-.1.116.108.108,0,0,0,.216-.014.107.107,0,0,0-.115-.1m-.024-.344a.11.11,0,1,0,.117.1.111.111,0,0,0-.117-.1m-.023-.343a.109.109,0,1,0,.015.217.105.105,0,0,0,.1-.115.107.107,0,0,0-.115-.1m-.024-.344a.109.109,0,0,0-.1.115.109.109,0,0,0,.218-.015.109.109,0,0,0-.117-.1m-.022-.344a.11.11,0,0,0-.1.117.109.109,0,0,0,.117.1.109.109,0,0,0-.014-.218m-.024-.344a.109.109,0,0,0,.014.218.109.109,0,0,0-.014-.218m-.023-.345a.11.11,0,1,0,.117.1.112.112,0,0,0-.117-.1m-.024-.343a.109.109,0,1,0,.015.218.108.108,0,0,0,.1-.115.11.11,0,0,0-.115-.1m-.023-.344a.109.109,0,0,0-.1.117.109.109,0,1,0,.216-.015.11.11,0,0,0-.115-.1m-.023-.343a.109.109,0,0,0-.1.116.109.109,0,0,0,.218-.015.11.11,0,0,0-.117-.1m.316-.368a.109.109,0,0,0,.015.218.109.109,0,1,0-.015-.218m.235,3.441a.109.109,0,0,0-.1.117.111.111,0,0,0,.118.1.109.109,0,0,0-.015-.218m-.022-.344a.11.11,0,1,0,.014.219.11.11,0,0,0-.014-.219m-.025-.343a.109.109,0,1,0,.117.1.108.108,0,0,0-.117-.1m-.024-.344a.109.109,0,1,0,.117.1.108.108,0,0,0-.117-.1m-.022-.345a.109.109,0,1,0,.014.218.109.109,0,0,0-.014-.218m-.023-.343a.109.109,0,0,0-.1.115.11.11,0,1,0,.22-.014.108.108,0,0,0-.117-.1m-.024-.344a.108.108,0,0,0-.1.115.11.11,0,0,0,.118.1.109.109,0,0,0-.015-.218m-.023-.344a.109.109,0,1,0,.015.218.109.109,0,1,0-.015-.218m-.024-.343a.109.109,0,0,0-.1.117.109.109,0,1,0,.1-.117m-.023-.345a.109.109,0,0,0-.1.117.11.11,0,0,0,.117.1.109.109,0,0,0-.015-.218m.318-.367a.11.11,0,0,0-.1.116.113.113,0,0,0,.118.1.11.11,0,0,0,.1-.118.106.106,0,0,0-.116-.1m.235,3.441a.108.108,0,1,0,.014.216.107.107,0,0,0,.1-.115.106.106,0,0,0-.116-.1m-.025-.344a.108.108,0,0,0-.1.116.109.109,0,1,0,.217-.015.107.107,0,0,0-.117-.1m-.022-.345a.109.109,0,0,0,.015.218.109.109,0,1,0-.015-.218m-.023-.343a.106.106,0,0,0-.1.115.108.108,0,0,0,.115.1.111.111,0,0,0,.1-.117.108.108,0,0,0-.117-.1m-.024-.344a.108.108,0,0,0-.1.115.11.11,0,0,0,.117.1.112.112,0,0,0,.1-.118.108.108,0,0,0-.117-.1m-.024-.344a.109.109,0,1,0,.117.1.108.108,0,0,0-.117-.1m-.024-.345a.109.109,0,1,0,.117.1.109.109,0,0,0-.117-.1m-.023-.344a.11.11,0,0,0-.1.118.109.109,0,1,0,.218-.016.11.11,0,0,0-.117-.1m-.022-.344a.108.108,0,0,0-.1.117.105.105,0,0,0,.115.1.11.11,0,0,0,.1-.116.109.109,0,0,0-.115-.1m-.024-.345a.109.109,0,1,0,.014.219.109.109,0,0,0-.014-.219m.317-.366a.109.109,0,0,0-.1.115.112.112,0,0,0,.117.1.109.109,0,0,0,.1-.117.11.11,0,0,0-.117-.1m.14,2.064a.109.109,0,0,0,.015.218.109.109,0,0,0-.015-.218m-.023-.344a.11.11,0,0,0-.1.117.108.108,0,0,0,.117.1.109.109,0,0,0,.1-.117.111.111,0,0,0-.118-.1m-.023-.344a.112.112,0,0,0-.1.118.11.11,0,0,0,.22-.016.112.112,0,0,0-.118-.1m-.024-.343a.108.108,0,0,0-.1.116.109.109,0,1,0,.1-.116m-.023-.345a.111.111,0,0,0-.1.117.109.109,0,1,0,.1-.117m-.023-.344a.111.111,0,0,0-.1.117.109.109,0,1,0,.1-.117m.318-.366a.109.109,0,1,0,.015.218.111.111,0,0,0,.1-.117.109.109,0,0,0-.117-.1m.093,1.376a.11.11,0,0,0-.1.117.11.11,0,0,0,.22-.015.11.11,0,0,0-.118-.1m-.023-.344a.11.11,0,0,0-.1.117.108.108,0,0,0,.117.1.109.109,0,1,0-.015-.218m-.023-.343a.109.109,0,1,0,.117.1.108.108,0,0,0-.117-.1m-.023-.344a.109.109,0,1,0,.117.1.11.11,0,0,0-.117-.1m.317-.368a.109.109,0,0,0,.015.218.109.109,0,0,0,.1-.117.11.11,0,0,0-.117-.1m.047.689a.109.109,0,1,0,.015.217.106.106,0,0,0,.1-.115.109.109,0,0,0-.117-.1m-.024-.344a.109.109,0,1,0,.015.218.109.109,0,0,0-.015-.218m.317-.368a.109.109,0,0,0-.1.117.109.109,0,0,0,.218-.014.112.112,0,0,0-.118-.1m.023.344a.109.109,0,1,0,.117.1.111.111,0,0,0-.117-.1m.318-.367a.111.111,0,0,0-.1.117.109.109,0,0,0,.118.1.108.108,0,0,0,.1-.115.111.111,0,0,0-.117-.1m-2.453.018a.105.105,0,0,0,.058.013.111.111,0,0,0,.095-.073ZM361.1,827a.109.109,0,1,0,.2-.074Zm.443-.14a.109.109,0,1,0,.117.1.11.11,0,0,0-.117-.1m.341-.022a.108.108,0,0,0-.1.115.109.109,0,0,0,.117.1.108.108,0,1,0-.015-.216m.005-.129a.083.083,0,0,0,.032-.011Zm.336.106a.109.109,0,0,0-.1.117.11.11,0,1,0,.1-.117m-.113-.184a.111.111,0,0,0,.1.057.11.11,0,0,0,.1-.116v-.012Zm.453.16a.109.109,0,1,0,.016.218.109.109,0,1,0-.016-.218m-.118-.274a.087.087,0,0,0-.005.047.109.109,0,1,0,.165-.1Zm.458.25a.109.109,0,0,0-.1.117.109.109,0,1,0,.1-.117m-.023-.343a.107.107,0,0,0-.1.117.109.109,0,1,0,.1-.117m.365.32a.11.11,0,1,0,.117.1.112.112,0,0,0-.117-.1m-.023-.342a.108.108,0,1,0,.014.217.11.11,0,0,0,.1-.117.107.107,0,0,0-.117-.1m-.022-.128h.014a.1.1,0,0,0,.061-.024Zm.364.1a.109.109,0,1,0,.116.1.107.107,0,0,0-.116-.1m-.111-.184a.1.1,0,0,0,.1.056.108.108,0,0,0,.1-.117Z" transform="translate(-283.342 -654.778)" fill="#030e04" fill-rule="evenodd"/>
          <path id="Trazado_879576" data-name="Trazado 879576" d="M396.935,837.015a19.823,19.823,0,0,1,2.69-2.535,32.177,32.177,0,0,1,6.326-.978l.151.17-.107.568-.217.192a27.107,27.107,0,0,0-5.813.839,24.579,24.579,0,0,0-3.031,1.743" transform="translate(-314.619 -660.652)" fill="#030e04" fill-rule="evenodd"/>
          <path id="Trazado_879577" data-name="Trazado 879577" d="M415.532,850.275a2.065,2.065,0,0,1-.629.456,8.46,8.46,0,0,1-2.636.778l-.7.1a2.44,2.44,0,0,1-2.039-1.136,6.618,6.618,0,0,1,2.013-2.1,4.963,4.963,0,0,1,1.253-.589,3.166,3.166,0,0,1,1.143.3c1.083.486,1.594,2.2,1.594,2.2" transform="translate(-324.601 -671.971)" fill="#fff" fill-rule="evenodd"/>
          <path id="Trazado_879578" data-name="Trazado 879578" d="M409.528,849.956a4.353,4.353,0,0,1,.544-.951,5.377,5.377,0,0,1,.742-.816l.211-.179.222-.167.233-.154.118-.073.121-.067.248-.13.259-.107.127-.051.133-.043.266-.078.01,0,.039,0,.344.064.331.109.31.144.29.179-.326-.095-.322-.073-.321-.046-.321-.014.046-.007-.242.1-.122.049-.117.058-.236.114-.225.13-.116.065-.107.073-.22.144-.213.153-.207.163a10.359,10.359,0,0,0-1.5,1.513" transform="translate(-324.601 -671.455)" fill="#030e04" fill-rule="evenodd"/>
          <path id="Trazado_879579" data-name="Trazado 879579" d="M457.613,832.884l-.011.573.223.181a11.819,11.819,0,0,1,2.7-.232c-.019-.5-1.075-.916-2.749-.7Z" transform="translate(-362.705 -659.976)" fill="#030e04" fill-rule="evenodd"/>
          <path id="Trazado_879580" data-name="Trazado 879580" d="M457.04,845.941l.106.483a6.641,6.641,0,0,1-2.027.356h-.413a7.345,7.345,0,0,1-.228-1.845s.011-.334.057-.777l.772-.147a2.959,2.959,0,0,1,1.877.294c-.053.366-.092.673-.122.9-.049.35-.073.533-.073.533l.007.016Z" transform="translate(-360.229 -668.962)" fill="#fff" fill-rule="evenodd"/>
          <path id="Trazado_879581" data-name="Trazado 879581" d="M454.754,843.33l.643-.3.706-.086a2.15,2.15,0,0,1,.7.129,1.364,1.364,0,0,1,.6.409l-.674-.071-.639-.03-.649-.01Z" transform="translate(-360.448 -668.133)" fill="#030e04" fill-rule="evenodd"/>
          <path id="Trazado_879582" data-name="Trazado 879582" d="M424.8,853.552l0,.136a8.455,8.455,0,0,1-2.636.778,2.861,2.861,0,0,1-.148-.9c0-1.13.618-2.046,1.387-2.049s1.395.91,1.4,2.039" transform="translate(-334.498 -674.928)" fill="#030e04" fill-rule="evenodd"/>
          <path id="Trazado_879583" data-name="Trazado 879583" d="M459.595,849.995a6.643,6.643,0,0,1-2.027.356c0-1.025.558-1.859,1.259-1.86a1.007,1.007,0,0,1,.685.291c-.049.35-.072.533-.072.533l.007.016.043.182Z" transform="translate(-362.678 -672.532)" fill="#030e04" fill-rule="evenodd"/>
          <path id="Trazado_879584" data-name="Trazado 879584" d="M430.932,834.624h0c.293-.023.542-.039.732-.05a6.668,6.668,0,0,0-.153-.907c-.418.029-.99.078-1.661.16h0a11.862,11.862,0,0,1,1.082.8" transform="translate(-340.708 -660.783)" fill="#030e04" fill-rule="evenodd"/>
          <path id="Trazado_879585" data-name="Trazado 879585" d="M423.442,854.7a.572.572,0,1,1-.444-.679.573.573,0,0,1,.444.679" transform="translate(-334.731 -676.906)" fill="#fff" fill-rule="evenodd"/>
          <path id="Trazado_879586" data-name="Trazado 879586" d="M459.681,850.523a.4.4,0,1,1-.314-.475.406.406,0,0,1,.314.475" transform="translate(-363.721 -673.76)" fill="#fff" fill-rule="evenodd"/>
          <path id="Trazado_879587" data-name="Trazado 879587" d="M451.92,866.9a3.854,3.854,0,0,1-1.485-1.758c.719.712,1.481,1.382,2.271,1.294.354.624-.7,1.4-1.922,1.717.756-.417,1.358-1.047,1.135-1.253" transform="translate(-357.024 -685.727)" fill="#ec725d" fill-rule="evenodd"/>
          <path id="Trazado_879588" data-name="Trazado 879588" d="M450.435,865.144h0c.719.713,1.481,1.381,2.271,1.293a.521.521,0,0,1,.068.3,2.518,2.518,0,0,1-1.971-.911,3.22,3.22,0,0,1-.368-.677" transform="translate(-357.024 -685.731)" fill="#ee8570" fill-rule="evenodd"/>
          <path id="Trazado_879589" data-name="Trazado 879589" d="M443.5,904.263a9.247,9.247,0,0,1-.931.012.662.662,0,0,0,.931-.012" transform="translate(-350.791 -716.739)" fill="#ef8f7a" fill-rule="evenodd"/>
          <path id="Trazado_879590" data-name="Trazado 879590" d="M432.145,890.279l-.127,1.189s-.943.278-1.167.294a12.481,12.481,0,0,1-1.521-.336l-.779-.37a9.1,9.1,0,0,1-.763-.568c-.049-.078-.31-.459-.379-.532s-.344-.313-.344-.313l.148-.09.738.242s1.739.307,1.827.3Z" transform="translate(-338.501 -705.08)" fill="#ec725d" fill-rule="evenodd"/>
          <path id="Trazado_879591" data-name="Trazado 879591" d="M427.868,889.469c.089.033,1.16.328,1.16.328s1.065.081,1.486.108,1.474.148,1.652.155a.973.973,0,0,1,.331.1c.057-.028.112-.047.142-.032a1.528,1.528,0,0,1,.178.8c-.054.147-.077.436-.14.461l-.363-.321.014-.472a5.771,5.771,0,0,0-1.617-.1s-1.349-.192-2.025-.2a7.829,7.829,0,0,0,1.543.986L428.9,891a5.605,5.605,0,0,1-.541-.586l-.047-.07c-.248.095-.444-.516-.444-.516l-.083-.35s0-.04.088-.007" transform="translate(-339.068 -705.002)" fill="#bf293f" fill-rule="evenodd"/>
          <path id="Trazado_879592" data-name="Trazado 879592" d="M432.934,891.83a4.572,4.572,0,0,0-.077.7,5.436,5.436,0,0,1-2.174.227,5.815,5.815,0,0,1-2.335-1.3c-.255-.279.246.484.293.539s.927.719,1,.775a4.822,4.822,0,0,0,1.308.558c.291,0,1.254-.012,1.5-.011a2.152,2.152,0,0,0,.792-.2c.107-.07.171-.384.186-.467s.065-.29.1-.456a3.069,3.069,0,0,0-.032-.626l-.005-.06Z" transform="translate(-339.461 -706.538)" fill="#ee8570" fill-rule="evenodd"/>
          <path id="Trazado_879593" data-name="Trazado 879593" d="M429.973,889.143a1.6,1.6,0,0,0,.012.934,11.949,11.949,0,0,1-2.019.235,3.918,3.918,0,0,1-3.1-1.761l-.118-.171-.468-.2-.156-.067a13.05,13.05,0,0,0,1.445,1.689,4.127,4.127,0,0,0,2.116,1.4,4.282,4.282,0,0,0,2.656-.323c.566-.484.217-.732.149-1.218a1.128,1.128,0,0,1,.079-.6c.058-.143.382-.719.577-.711l-.513-.021-.622.247Z" transform="translate(-336.174 -703.937)" fill="#ec725d" fill-rule="evenodd"/>
          <path id="Trazado_879594" data-name="Trazado 879594" d="M441.7,898.272s.085-.314-.621-.179a12.3,12.3,0,0,1-2.29.214c-.717-.007-.671.359-.117.606s2.884.3,3.028-.64" transform="translate(-347.37 -711.821)" fill="#ee8570" fill-rule="evenodd"/>
          <path id="Trazado_879595" data-name="Trazado 879595" d="M430.016,888.576l.622-.247.513.021c-.194-.008-.518.568-.577.711a1.164,1.164,0,0,0-.09.469.3.3,0,0,0-.348-.054.493.493,0,0,1-.05.028,1.981,1.981,0,0,0,.078.563l-.178.012a1.6,1.6,0,0,1-.012-.934Zm-5.73-.4h0l.468.2.118.171a4.336,4.336,0,0,0,2.259,1.653l0,.008a2.513,2.513,0,0,1-1.483-.731.885.885,0,0,0-.13.046,13.528,13.528,0,0,0,1.134,1.233,8.239,8.239,0,0,1-1.081-.96,13.042,13.042,0,0,1-1.445-1.689Z" transform="translate(-336.175 -703.937)" fill="#ec725d" fill-rule="evenodd"/>
          <path id="Trazado_879596" data-name="Trazado 879596" d="M432.559,889.515a2.852,2.852,0,0,1-.522.644,9.449,9.449,0,0,1-2.924.161,4.718,4.718,0,0,1-2.61-.961s1.816.26,2.167.232,1.827-.079,1.938-.088,1.3-.079,1.3-.079Z" transform="translate(-338.055 -704.926)" fill="#fff" fill-rule="evenodd"/>
          <path id="Trazado_879597" data-name="Trazado 879597" d="M426.5,889.36s1.816.26,2.167.232c.225-.017.912-.045,1.406-.065l.376.27a7.772,7.772,0,0,1-2.881.09,8.2,8.2,0,0,0,1.825.456c-.093-.006-.187-.013-.283-.021a4.718,4.718,0,0,1-2.61-.961" transform="translate(-338.055 -704.926)" fill="#eee5f1" fill-rule="evenodd"/>
          <path id="Trazado_879598" data-name="Trazado 879598" d="M423.03,885.147c.068.054.114.129.182.183a4.326,4.326,0,0,0,1.455.6,5.862,5.862,0,0,0,1.689.211c.816-.042,1.626-.164,2.442-.227a4.486,4.486,0,0,0,1.355-.244,1.724,1.724,0,0,0,.984-1.05,1.643,1.643,0,0,1-.841.661,12.962,12.962,0,0,0-1.414.307,6.13,6.13,0,0,0-1.853.042,9.869,9.869,0,0,1-2.752-.047,2.32,2.32,0,0,1-1.246-.439" transform="translate(-335.303 -701.172)" fill="#ec725d" fill-rule="evenodd"/>
          <path id="Trazado_879599" data-name="Trazado 879599" d="M430.911,884.62a1.863,1.863,0,0,1-1.249,1.169,5.352,5.352,0,0,1-1.152.172c-.474.037-.943.093-1.414.142a9.036,9.036,0,0,1-1.283.069,6.879,6.879,0,0,1-1.263-.194,7.676,7.676,0,0,1-.958-.3,3.614,3.614,0,0,1-.475-.232c-.132-.079-.233-.173-.354-.263-.061-.047.035-.13.091-.072a2.144,2.144,0,0,0,.29.3,2.26,2.26,0,0,0,.47.234,6.684,6.684,0,0,0,.946.294,5.826,5.826,0,0,0,1.2.173,9.262,9.262,0,0,0,1.268-.082c.407-.043.813-.091,1.221-.129.392-.037.787-.051,1.177-.118a1.97,1.97,0,0,0,.988-.422,2.123,2.123,0,0,0,.5-.74s0,0,0,0" transform="translate(-335.075 -701.168)" fill="#bf293f" fill-rule="evenodd"/>
          <path id="Trazado_879600" data-name="Trazado 879600" d="M289,919.3c-2.278,5.778,9.755,18.15,10.525,20.323,6.084,17.182,6.1,65.237,3.709,68.644,0,0-17.364,6.342-31.395-2.731-.372-2.479,4.173-25.348,6.987-39.1,3.357-16.405-13.8-23-5.872-38.6Z" transform="translate(-214.672 -728.653)" fill="#a28b58" fill-rule="evenodd"/>
          <path id="Trazado_879601" data-name="Trazado 879601" d="M332.655,913.214l4.724-4.416s13.241,13.516,14.841,16.8l-11.61.014Z" transform="translate(-263.669 -720.333)" fill="#875425" fill-rule="evenodd"/>
          <path id="Trazado_879602" data-name="Trazado 879602" d="M257.918,928.629c4.568,1.41,26.673,5.186,26.673,5.186l28.059-13c2.936,1.335,4.453,6.844,4.667,10.988,0,0-25.605,16.957-29.951,17.991-4.274,1.017-18.689.8-26.739.057-6.64-.615-10.688-6.787-10.327-11.167-.033-9.219,7.617-10.053,7.618-10.053" transform="translate(-198.375 -729.857)" fill="#5e3b1c" fill-rule="evenodd"/>
          <path id="Trazado_879603" data-name="Trazado 879603" d="M556.217,922.07a5.6,5.6,0,0,1,1.22-.579,12.8,12.8,0,0,1,3.146,9.547q-.456.24-.833.442c-.314-3.452-1.471-7.543-3.532-9.41" transform="translate(-440.87 -730.393)" fill="#030e04" fill-rule="evenodd"/>
          <path id="Trazado_879604" data-name="Trazado 879604" d="M383.587,898.025c-5.008-1.183-5.787-2.056-6.837-3.717a24.355,24.355,0,0,0-1.481-2.2,8.743,8.743,0,0,1-1.66,3.281q6.2,5.03,13.051,4.727c0-.5.005-1.071.024-1.665a15.891,15.891,0,0,1-3.1-.429" transform="translate(-296.131 -707.108)" fill="#f29e65" fill-rule="evenodd"/>
        </g>
      </g>
    </g>
  </g>
</svg>
