<svg xmlns="http://www.w3.org/2000/svg" xmlns:xlink="http://www.w3.org/1999/xlink" width="81.289" height="93" viewBox="0 0 81.289 93">
  <defs>
    <clipPath id="clip-path">
      <rect id="Rect치ngulo_403973" data-name="Rect치ngulo 403973" width="81.289" height="74.746" fill="none"/>
    </clipPath>
  </defs>
  <g id="Grupo_1202857" data-name="Grupo 1202857" transform="translate(-1126.715 -1554)">
    <g id="Grupo_1102647" data-name="Grupo 1102647" transform="translate(884.57 1191)">
      <path id="Rect치ngulo_403909" data-name="Rect치ngulo 403909" d="M26.5,0h0A26.5,26.5,0,0,1,53,26.5V86a0,0,0,0,1,0,0H0a0,0,0,0,1,0,0V26.5A26.5,26.5,0,0,1,26.5,0Z" transform="translate(256.664 363)" fill="#6fa150"/>
      <g id="Grupo_1102698" data-name="Grupo 1102698" transform="translate(242.145 381.254)">
        <g id="Grupo_1102698-2" data-name="Grupo 1102698" clip-path="url(#clip-path)">
          <path id="Trazado_879605" data-name="Trazado 879605" d="M196.867,101.9l-5.53,2.829a.473.473,0,0,0-.223.594,19.5,19.5,0,0,1,.679,2.113.478.478,0,0,0,.461.361h6.336a.478.478,0,0,0,.467-.572,26.591,26.591,0,0,0-1.535-5.087.475.475,0,0,0-.655-.238" transform="translate(-132.133 -70.43)" fill="#99dcff"/>
          <path id="Trazado_879606" data-name="Trazado 879606" d="M179.705,81.452l5.558-2.844a.478.478,0,0,0,.174-.7,26.9,26.9,0,0,0-3.315-3.973.475.475,0,0,0-.7.041L177.5,78.8a.478.478,0,0,0,.028.632,19.682,19.682,0,0,1,1.578,1.873A.478.478,0,0,0,179.705,81.452Z" transform="translate(-122.667 -51.035)" fill="#b2e5ff"/>
          <path id="Trazado_879607" data-name="Trazado 879607" d="M141.852,148.788a19.806,19.806,0,0,1,4.421-3.331,26.692,26.692,0,0,0,1.712-8.967.476.476,0,0,0-.477-.481h-6.18a.478.478,0,0,0-.476.47,19.645,19.645,0,0,1-19.867,19.173l-4.474,6.722a26.922,26.922,0,0,0,4.7.412,26.654,26.654,0,0,0,15.461-4.913,19.7,19.7,0,0,1,5.179-9.085" transform="translate(-80.568 -94.051)" fill="#dff8fd"/>
          <path id="Trazado_879608" data-name="Trazado 879608" d="M151.94,60.04a19.56,19.56,0,0,1,3.863,1.776.478.478,0,0,0,.618-.1l3.933-4.832a.477.477,0,0,0-.114-.7,26.652,26.652,0,0,0-6.585-3.082Z" transform="translate(-105.067 -36.715)" fill="#dff8fd"/>
          <path id="Trazado_879609" data-name="Trazado 879609" d="M44.952,75.794a26.721,26.721,0,0,0,1.714,9.639,19.822,19.822,0,0,1,9.607,12.421,26.675,26.675,0,0,0,7.693,3.766l1.686-6.956a19.642,19.642,0,0,1,6.076-38.322c.123,0,.245,0,.367.006l4.5-6.7A26.8,26.8,0,0,0,44.952,75.794" transform="translate(-31.084 -34.029)" fill="#dff8fd"/>
          <path id="Trazado_879610" data-name="Trazado 879610" d="M113.52,62.386h-10.6a.57.57,0,0,1-.553-.706l6.756-27.361a.57.57,0,0,0-1.017-.467L85.748,67.117a.57.57,0,0,0,.464.9h10.7a.57.57,0,0,1,.554.7L90.83,96.082a.57.57,0,0,0,1.02.462l22.136-33.261A.57.57,0,0,0,113.52,62.386Z" transform="translate(-59.221 -23.241)" fill="#ffd737"/>
          <path id="Trazado_879611" data-name="Trazado 879611" d="M91.081,67.118l15.711-23.382,2.325-9.417a.57.57,0,0,0-1.017-.467L85.748,67.118a.57.57,0,0,0,.464.9h5.334a.57.57,0,0,1-.464-.9" transform="translate(-59.221 -23.241)" fill="#ffd737"/>
          <path id="Trazado_879612" data-name="Trazado 879612" d="M114.388,145.849a.57.57,0,0,0-.554-.7H108.5a.57.57,0,0,1,.554.7l-6.633,27.361a.57.57,0,0,0,1.019.462l6.61-9.932Z" transform="translate(-70.813 -100.368)" fill="#ffd15b"/>
          <path id="Trazado_879613" data-name="Trazado 879613" d="M185.662,164.438a19.779,19.779,0,0,0-5.318,18.333,19.8,19.8,0,0,0,23.651-23.651A19.779,19.779,0,0,0,185.662,164.438Z" transform="translate(-124.378 -109.701)" fill="#22a53c"/>
          <path id="Trazado_879614" data-name="Trazado 879614" d="M185.662,164.438a19.779,19.779,0,0,0-5.318,18.333l23.651-23.651a19.779,19.779,0,0,0-18.333,5.318" transform="translate(-124.378 -109.701)" fill="#22a53c"/>
          <path id="Trazado_879615" data-name="Trazado 879615" d="M22.693,164.438a19.778,19.778,0,0,1,5.318,18.333A19.8,19.8,0,0,1,4.361,159.12,19.779,19.779,0,0,1,22.693,164.438Z" transform="translate(-2.685 -109.701)" fill="#22a53c"/>
          <path id="Trazado_879616" data-name="Trazado 879616" d="M23.766,164.438a19.778,19.778,0,0,1,5.318,18.333L5.433,159.12A19.779,19.779,0,0,1,23.766,164.438Z" transform="translate(-3.757 -109.701)" fill="#22a53c"/>
          <path id="Trazado_879617" data-name="Trazado 879617" d="M194.992,98.095a1.674,1.674,0,0,0-1.337.081L188.125,101a1.661,1.661,0,0,0-.792,2.082,18.343,18.343,0,0,1,.638,1.984,1.669,1.669,0,0,0,1.614,1.252h6.335a1.669,1.669,0,0,0,1.636-1.991,27.825,27.825,0,0,0-1.6-5.315,1.665,1.665,0,0,0-.961-.922m-4.861,5.846c-.107-.372-.225-.742-.353-1.107l4.263-2.18a25.5,25.5,0,0,1,1,3.288Z" transform="translate(-129.464 -67.762)"/>
          <path id="Trazado_879618" data-name="Trazado 879618" d="M174,77.586a18.687,18.687,0,0,1,1.483,1.76,1.662,1.662,0,0,0,2.1.5h0L183.141,77a1.669,1.669,0,0,0,.615-2.428,28.173,28.173,0,0,0-3.462-4.149,1.666,1.666,0,0,0-2.461.137l-3.925,4.822A1.673,1.673,0,0,0,174,77.586Zm5.177-4.905a25.8,25.8,0,0,1,2.147,2.572l-4.294,2.2q-.423-.537-.881-1.048Z" transform="translate(-120.001 -48.366)"/>
          <path id="Trazado_879619" data-name="Trazado 879619" d="M80.779,69.726a1.19,1.19,0,0,0-.9-.9,20.954,20.954,0,0,0-12.2.906,28.079,28.079,0,0,0,.93-6.7,1.649,1.649,0,0,0-.477-1.193,1.68,1.68,0,0,0-1.191-.5H60.76a1.66,1.66,0,0,0-1.666,1.633A18.452,18.452,0,0,1,42.717,80.862L55.749,61.281a1.761,1.761,0,0,0-1.45-2.759H44.487l.9-3.636a1.191,1.191,0,1,0-2.312-.571l-1.088,4.406A1.761,1.761,0,0,0,43.694,60.9h9.445L33.6,90.269l5.8-23.941a1.76,1.76,0,0,0-1.711-2.175H28.157L47.9,34.774,44.407,48.913a1.191,1.191,0,0,0,2.312.571l.989-4.007a18.278,18.278,0,0,1,2.416,1.213,1.678,1.678,0,0,0,2.154-.375l3.933-4.832a1.669,1.669,0,0,0-.391-2.454,27.833,27.833,0,0,0-5.813-2.86l1.046-4.238a1.761,1.761,0,0,0-3.144-1.443l-.018.026L44.951,34.89a28.094,28.094,0,0,0-4.279-.332h-.026A28.06,28.06,0,0,0,12.874,59.225a1.191,1.191,0,1,0,2.365.281A25.68,25.68,0,0,1,40.645,36.939h.024a25.577,25.577,0,0,1,2.8.158l-3.088,4.6A20.81,20.81,0,0,0,25.929,77.242a20.888,20.888,0,0,0,7.229,4.725l-1.128,4.655a25.478,25.478,0,0,1-5.791-2.953,20.943,20.943,0,0,0-5.387-9.206,21.11,21.11,0,0,0-4.3-3.316,25.488,25.488,0,0,1-1.389-6.329,1.191,1.191,0,1,0-2.372.21,27.873,27.873,0,0,0,.828,4.7,20.952,20.952,0,0,0-12.2-.907,1.19,1.19,0,0,0-.9.9,21,21,0,0,0,20.44,25.587,21.225,21.225,0,0,0,4.633-.514,1.191,1.191,0,0,0,.9-.9,21.1,21.1,0,0,0,.373-7.037,27.829,27.829,0,0,0,4.6,2.085l-1.014,4.183a1.741,1.741,0,0,0,.983,2.018,1.785,1.785,0,0,0,.739.162,1.741,1.741,0,0,0,1.428-.751l.018-.026,2.891-4.344A28.029,28.029,0,0,0,54.43,86.87,21.1,21.1,0,0,0,54.8,93.9a1.191,1.191,0,0,0,.9.9,21.132,21.132,0,0,0,4.611.51,20.907,20.907,0,0,0,12.631-4.24,1.191,1.191,0,1,0-1.437-1.9,18.543,18.543,0,0,1-13.058,3.664l20.361-20.36A18.553,18.553,0,0,1,75.2,85.467,1.191,1.191,0,1,0,77.1,86.9,20.953,20.953,0,0,0,80.779,69.726ZM49.433,38.493a25.445,25.445,0,0,1,4.42,2.115l-3.037,3.731a20.665,20.665,0,0,0-2.531-1.2ZM7.836,87.477a18.511,18.511,0,0,1-5.357-15l20.36,20.36a18.51,18.51,0,0,1-15-5.357M24.524,91.15,4.164,70.789a18.509,18.509,0,0,1,15,5.357,18.51,18.51,0,0,1,5.357,15m3.089-15.592a18.437,18.437,0,0,1,11.1-31.386l-13.169,19.6a1.761,1.761,0,0,0,1.446,2.764H36.9L33.725,79.627A18.513,18.513,0,0,1,27.613,75.558Zm27.441,8.118a25.582,25.582,0,0,1-17.069,4.3l3.072-4.616a20.836,20.836,0,0,0,20.39-19.64H66.2a25.538,25.538,0,0,1-1.459,7.429,21.1,21.1,0,0,0-9.692,12.53ZM56.77,91.15a18.6,18.6,0,0,1,20.36-20.36Z" transform="translate(0 -20.567)"/>
          <path id="Trazado_879620" data-name="Trazado 879620" d="M129.082,6.5a1.191,1.191,0,0,0,1.191-1.191V1.191a1.191,1.191,0,1,0-2.382,0V5.312A1.191,1.191,0,0,0,129.082,6.5" transform="translate(-88.437)"/>
          <path id="Trazado_879621" data-name="Trazado 879621" d="M8.86,122.6h4.121a1.191,1.191,0,0,0,0-2.382H8.86a1.191,1.191,0,0,0,0,2.382" transform="translate(-5.303 -83.133)"/>
          <path id="Trazado_879622" data-name="Trazado 879622" d="M234.754,121.412a1.191,1.191,0,0,0,1.191,1.191h4.121a1.191,1.191,0,0,0,0-2.382h-4.121a1.191,1.191,0,0,0-1.191,1.191" transform="translate(-162.333 -83.133)"/>
          <path id="Trazado_879623" data-name="Trazado 879623" d="M83.55,14.6a1.191,1.191,0,0,0,2.2-.912L84.173,9.886a1.191,1.191,0,1,0-2.2.911Z" transform="translate(-56.622 -6.327)"/>
          <path id="Trazado_879624" data-name="Trazado 879624" d="M227.81,78.173a1.189,1.189,0,0,0,.455-.091l3.807-1.577a1.191,1.191,0,1,0-.911-2.2l-3.807,1.577a1.191,1.191,0,0,0,.456,2.291" transform="translate(-156.707 -51.319)"/>
          <path id="Trazado_879625" data-name="Trazado 879625" d="M46.144,40.159a1.191,1.191,0,0,0,1.684-1.684l-2.914-2.914a1.191,1.191,0,0,0-1.684,1.684Z" transform="translate(-29.653 -24.349)"/>
          <path id="Trazado_879626" data-name="Trazado 879626" d="M204.646,40.508a1.187,1.187,0,0,0,.842-.349l2.914-2.914a1.191,1.191,0,0,0-1.684-1.684L203.8,38.476a1.191,1.191,0,0,0,.842,2.033" transform="translate(-140.69 -24.35)"/>
          <path id="Trazado_879627" data-name="Trazado 879627" d="M17.555,76.506l3.807,1.577a1.191,1.191,0,1,0,.911-2.2l-3.807-1.577a1.191,1.191,0,1,0-.911,2.2" transform="translate(-11.631 -51.32)"/>
          <path id="Trazado_879628" data-name="Trazado 879628" d="M169.519,15.25a1.19,1.19,0,0,0,1.556-.644l1.577-3.807a1.191,1.191,0,0,0-2.2-.911l-1.577,3.807a1.191,1.191,0,0,0,.644,1.556" transform="translate(-116.715 -6.328)"/>
        </g>
      </g>
    </g>
  </g>
</svg>
