<svg xmlns="http://www.w3.org/2000/svg" width="1086.014" height="390.824" viewBox="0 0 1086.014 390.824">
  <g id="Grupo_1202867" data-name="Grupo 1202867" transform="translate(-256.711 -5805.6)">
    <path id="Trazado_884245" data-name="Trazado 884245" d="M7.176-30.109,18.28-3.536,29.426-30.109h3.391V0H30.274V-13.111l.207-13.441L19.273,0H17.308L6.142-26.449l.207,13.255V0H3.8V-30.109ZM57.127,0a11.7,11.7,0,0,1-.476-3.123A8.629,8.629,0,0,1,53.333-.507a10.165,10.165,0,0,1-4.27.92,7.5,7.5,0,0,1-5.221-1.8,5.861,5.861,0,0,1-2-4.549,5.988,5.988,0,0,1,2.719-5.17q2.719-1.9,7.579-1.9h4.487v-2.544a4.9,4.9,0,0,0-1.479-3.774A6.112,6.112,0,0,0,50.841-20.7a6.748,6.748,0,0,0-4.281,1.323,3.932,3.932,0,0,0-1.7,3.185l-2.481-.021a5.754,5.754,0,0,1,2.481-4.622,9.555,9.555,0,0,1,6.1-1.954,8.716,8.716,0,0,1,5.9,1.871A6.715,6.715,0,0,1,59.092-15.7V-5.108a13.132,13.132,0,0,0,.682,4.86V0ZM49.352-1.778a8.308,8.308,0,0,0,4.436-1.2,7.058,7.058,0,0,0,2.843-3.205V-11.1H52.206a11.088,11.088,0,0,0-5.79,1.354,4.065,4.065,0,0,0-2.089,3.609,4,4,0,0,0,1.4,3.123A5.259,5.259,0,0,0,49.352-1.778ZM72.711-28.1v5.728h4.632v2.027H72.711v14.91a4.663,4.663,0,0,0,.672,2.771,2.606,2.606,0,0,0,2.244.91,15.4,15.4,0,0,0,2.006-.207l.1,2.027a8.02,8.02,0,0,1-2.647.352,4.413,4.413,0,0,1-3.7-1.479A6.96,6.96,0,0,1,70.23-5.418v-14.93H66.114v-2.027H70.23V-28.1Zm23.276,7.837a9.243,9.243,0,0,0-1.675-.145,6.043,6.043,0,0,0-3.919,1.292,7.079,7.079,0,0,0-2.285,3.753V0H85.648V-22.375h2.419l.041,3.557a6.58,6.58,0,0,1,6.307-3.97,4.07,4.07,0,0,1,1.634.269ZM105.8,0h-2.481V-22.375H105.8Zm-2.916-28.847a1.675,1.675,0,0,1,.455-1.189,1.617,1.617,0,0,1,1.241-.486,1.651,1.651,0,0,1,1.251.486,1.655,1.655,0,0,1,.465,1.189,1.619,1.619,0,0,1-.465,1.179,1.67,1.67,0,0,1-1.251.476,1.636,1.636,0,0,1-1.241-.476A1.639,1.639,0,0,1,102.885-28.847Zm14.4,26.759h14.537V0h-17.6V-1.82l13.566-18.425H114.642v-2.13h16.274v1.84Zm44.194,2.5a9.713,9.713,0,0,1-5.159-1.406,9.583,9.583,0,0,1-3.588-3.919,12.217,12.217,0,0,1-1.282-5.635v-.889a13.166,13.166,0,0,1,1.251-5.811,9.954,9.954,0,0,1,3.484-4.063,8.6,8.6,0,0,1,4.839-1.479,8.079,8.079,0,0,1,6.462,2.781,11.282,11.282,0,0,1,2.388,7.6v1.386H153.914v.476A9.369,9.369,0,0,0,156.1-4.208a6.94,6.94,0,0,0,5.49,2.533,8.063,8.063,0,0,0,3.505-.724,7.774,7.774,0,0,0,2.761-2.316L169.4-3.536A9.028,9.028,0,0,1,161.483.414Zm-.455-21.093a6.186,6.186,0,0,0-4.7,2.047,9.457,9.457,0,0,0-2.326,5.5h13.421V-13.4a8.211,8.211,0,0,0-1.84-5.253A5.7,5.7,0,0,0,161.028-20.679ZM180.644,0h-2.481V-31.763h2.481Zm18.519.414A9.713,9.713,0,0,1,194-.993a9.583,9.583,0,0,1-3.588-3.919,12.217,12.217,0,0,1-1.282-5.635v-.889a13.166,13.166,0,0,1,1.251-5.811,9.954,9.954,0,0,1,3.484-4.063,8.6,8.6,0,0,1,4.839-1.479,8.079,8.079,0,0,1,6.462,2.781,11.282,11.282,0,0,1,2.388,7.6v1.386H191.595v.476a9.369,9.369,0,0,0,2.182,6.338,6.94,6.94,0,0,0,5.49,2.533,8.063,8.063,0,0,0,3.505-.724,7.774,7.774,0,0,0,2.761-2.316l1.551,1.179A9.028,9.028,0,0,1,199.163.414Zm-.455-21.093a6.186,6.186,0,0,0-4.7,2.047,9.457,9.457,0,0,0-2.326,5.5H205.1V-13.4a8.211,8.211,0,0,0-1.84-5.253A5.7,5.7,0,0,0,198.708-20.679Zm2.75-11.084h3l-4.777,5.79h-2.171ZM223.825-1.675a6.534,6.534,0,0,0,4.332-1.458,5.131,5.131,0,0,0,1.892-3.774h2.378a7.006,7.006,0,0,1-1.282,3.733,8.032,8.032,0,0,1-3.133,2.637,9.442,9.442,0,0,1-4.188.951,8.644,8.644,0,0,1-6.979-3.061,12.373,12.373,0,0,1-2.575-8.23v-.744a13.987,13.987,0,0,1,1.158-5.852,8.924,8.924,0,0,1,3.319-3.929,9.162,9.162,0,0,1,5.056-1.386,8.628,8.628,0,0,1,6.069,2.192,7.993,7.993,0,0,1,2.554,5.769H230.05a6.085,6.085,0,0,0-1.892-4.239,6.127,6.127,0,0,0-4.353-1.613,6.17,6.17,0,0,0-5.2,2.419,10.947,10.947,0,0,0-1.851,6.783v.724A10.7,10.7,0,0,0,218.6-4.074,6.212,6.212,0,0,0,223.825-1.675ZM244.393-28.1v5.728h4.632v2.027h-4.632v14.91a4.663,4.663,0,0,0,.672,2.771,2.606,2.606,0,0,0,2.244.91,15.4,15.4,0,0,0,2.006-.207l.1,2.027a8.02,8.02,0,0,1-2.647.352,4.413,4.413,0,0,1-3.7-1.479,6.96,6.96,0,0,1-1.158-4.353v-14.93H237.8v-2.027h4.115V-28.1Zm23.276,7.837a9.243,9.243,0,0,0-1.675-.145,6.043,6.043,0,0,0-3.919,1.292,7.079,7.079,0,0,0-2.285,3.753V0H257.33V-22.375h2.419l.041,3.557a6.58,6.58,0,0,1,6.307-3.97,4.07,4.07,0,0,1,1.634.269ZM277.482,0H275V-22.375h2.482Zm-2.916-28.847a1.675,1.675,0,0,1,.455-1.189,1.617,1.617,0,0,1,1.241-.486,1.651,1.651,0,0,1,1.251.486,1.655,1.655,0,0,1,.465,1.189,1.619,1.619,0,0,1-.465,1.179,1.67,1.67,0,0,1-1.251.476,1.636,1.636,0,0,1-1.241-.476A1.639,1.639,0,0,1,274.567-28.847ZM295.609-1.675a6.534,6.534,0,0,0,4.332-1.458,5.131,5.131,0,0,0,1.892-3.774h2.378a7.006,7.006,0,0,1-1.282,3.733A8.032,8.032,0,0,1,299.8-.538a9.442,9.442,0,0,1-4.188.951,8.644,8.644,0,0,1-6.979-3.061,12.373,12.373,0,0,1-2.575-8.23v-.744a13.988,13.988,0,0,1,1.158-5.852,8.924,8.924,0,0,1,3.319-3.929,9.162,9.162,0,0,1,5.056-1.386,8.628,8.628,0,0,1,6.069,2.192,7.993,7.993,0,0,1,2.554,5.769h-2.378a6.085,6.085,0,0,0-1.892-4.239,6.127,6.127,0,0,0-4.353-1.613,6.17,6.17,0,0,0-5.2,2.419,10.947,10.947,0,0,0-1.851,6.783v.724a10.7,10.7,0,0,0,1.851,6.679A6.212,6.212,0,0,0,295.609-1.675ZM326.454,0a11.7,11.7,0,0,1-.476-3.123,8.629,8.629,0,0,1-3.319,2.616,10.165,10.165,0,0,1-4.27.92,7.5,7.5,0,0,1-5.221-1.8,5.861,5.861,0,0,1-2-4.549,5.988,5.988,0,0,1,2.719-5.17q2.719-1.9,7.579-1.9h4.487v-2.544a4.9,4.9,0,0,0-1.479-3.774,6.112,6.112,0,0,0-4.312-1.375,6.748,6.748,0,0,0-4.281,1.323,3.932,3.932,0,0,0-1.7,3.185l-2.482-.021a5.754,5.754,0,0,1,2.482-4.622,9.555,9.555,0,0,1,6.1-1.954,8.716,8.716,0,0,1,5.9,1.871,6.715,6.715,0,0,1,2.223,5.221V-5.108a13.132,13.132,0,0,0,.682,4.86V0Zm-7.775-1.778a8.308,8.308,0,0,0,4.436-1.2,7.058,7.058,0,0,0,2.843-3.205V-11.1h-4.425a11.088,11.088,0,0,0-5.79,1.354,4.065,4.065,0,0,0-2.089,3.609,4,4,0,0,0,1.4,3.123A5.259,5.259,0,0,0,318.678-1.778Z" transform="translate(591.554 5841.83)" fill="#003b59"/>
    <path id="Trazado_884246" data-name="Trazado 884246" d="M9.264-4.984H24.443V0H1.51V-3.64L16.4-25.084H1.53v-5.025H24.112v3.557ZM56.012,0h-6.2L37.731-19.811V0h-6.2V-30.109h6.2l12.1,19.852V-30.109h6.183ZM71.2,0H65V-30.109h6.2Z" transform="translate(941.161 5841.83)" fill="#003b59"/>
    <path id="Trazado_884247" data-name="Trazado 884247" d="M0,0H1086.014V390.823H0Z" transform="translate(256.711 5805.6)" fill="none"/>
    <path id="Trazado_884248" data-name="Trazado 884248" d="M5.815-12.729H8.145q2.769,0,2.769-2.71a2.343,2.343,0,0,0-.659-1.721,2.5,2.5,0,0,0-1.86-.667,2.676,2.676,0,0,0-1.707.571,1.743,1.743,0,0,0-.725,1.421H1.025a5.053,5.053,0,0,1,.938-3,6.191,6.191,0,0,1,2.6-2.058,8.89,8.89,0,0,1,3.655-.74,8.735,8.735,0,0,1,5.6,1.626,5.405,5.405,0,0,1,2.036,4.468,4.505,4.505,0,0,1-.842,2.6,6,6,0,0,1-2.454,1.985A5.734,5.734,0,0,1,15.22-9.089a4.919,4.919,0,0,1,.967,3.1,5.5,5.5,0,0,1-2.2,4.57A9.12,9.12,0,0,1,8.218.293a9.458,9.458,0,0,1-3.889-.8A6.093,6.093,0,0,1,1.611-2.717,5.751,5.751,0,0,1,.688-5.933H5.654a2.223,2.223,0,0,0,.791,1.7,2.793,2.793,0,0,0,1.948.718,2.925,2.925,0,0,0,2.08-.725,2.424,2.424,0,0,0,.776-1.853,2.833,2.833,0,0,0-.806-2.285,3.368,3.368,0,0,0-2.227-.674h-2.4ZM29.619,0H24.668V-15.762L19.8-14.341v-3.75l9.36-3.237h.454ZM46.992,0H42.041V-15.762l-4.863,1.421v-3.75l9.36-3.237h.454Zm9.565-4.79a2.81,2.81,0,0,1,1.948.7,2.283,2.283,0,0,1,.776,1.78,2.283,2.283,0,0,1-.776,1.78,2.81,2.81,0,0,1-1.948.7,2.786,2.786,0,0,1-1.956-.7,2.3,2.3,0,0,1-.769-1.772A2.3,2.3,0,0,1,54.6-4.087,2.786,2.786,0,0,1,56.558-4.79Zm18.97-3.545H77.7v3.809H75.527V0H70.591V-4.526H62.344l-.293-3.018,8.54-13.74v-.044h4.937Zm-8.774,0h3.838V-14.9l-.308.5Zm17.622-4.395H86.7q2.769,0,2.769-2.71a2.343,2.343,0,0,0-.659-1.721,2.5,2.5,0,0,0-1.86-.667,2.676,2.676,0,0,0-1.707.571,1.743,1.743,0,0,0-.725,1.421H79.585a5.053,5.053,0,0,1,.938-3,6.191,6.191,0,0,1,2.6-2.058,8.89,8.89,0,0,1,3.655-.74,8.735,8.735,0,0,1,5.6,1.626,5.405,5.405,0,0,1,2.036,4.468,4.505,4.505,0,0,1-.842,2.6,6,6,0,0,1-2.454,1.985,5.734,5.734,0,0,1,2.666,1.868,4.919,4.919,0,0,1,.967,3.1,5.5,5.5,0,0,1-2.2,4.57A9.12,9.12,0,0,1,86.777.293a9.458,9.458,0,0,1-3.889-.8,6.093,6.093,0,0,1-2.717-2.212,5.751,5.751,0,0,1-.923-3.215h4.966A2.223,2.223,0,0,0,85-4.233a2.793,2.793,0,0,0,1.948.718,2.925,2.925,0,0,0,2.08-.725,2.424,2.424,0,0,0,.776-1.853A2.833,2.833,0,0,0,89-8.379a3.368,3.368,0,0,0-2.227-.674h-2.4Zm22.588,4.482a5.214,5.214,0,0,1-3.574,1.436,5.771,5.771,0,0,1-4.6-1.963,7.733,7.733,0,0,1-1.7-5.244,7.87,7.87,0,0,1,.952-3.809,7.144,7.144,0,0,1,2.673-2.783,7.288,7.288,0,0,1,3.8-1.025,7.075,7.075,0,0,1,3.816,1.062,7.15,7.15,0,0,1,2.659,3,10.315,10.315,0,0,1,.981,4.475v1.89a12.821,12.821,0,0,1-1.384,6.123A9.556,9.556,0,0,1,106.641-1.1,12.336,12.336,0,0,1,100.664.293h-.308V-3.662l.938-.015Q106.392-3.926,106.963-8.247Zm-2.241-2.124a2.4,2.4,0,0,0,2.314-1.392v-2.051a5.332,5.332,0,0,0-.688-3.032,2.159,2.159,0,0,0-1.86-.981,2.041,2.041,0,0,0-1.743,1.113,4.946,4.946,0,0,0-.7,2.7,4.435,4.435,0,0,0,.718,2.659A2.3,2.3,0,0,0,104.722-10.371Z" transform="translate(409.141 5935.582)" fill="#1f9436"/>
    <path id="Trazado_884249" data-name="Trazado 884249" transform="translate(522.446 5935.582)" fill="#1f9436"/>
    <path id="Trazado_884250" data-name="Trazado 884250" d="M5.166-3.936l-.928.928V0H.947V-15.01H4.238v7.969L4.57-7.48l2.48-3.086H11l-3.7,4.346L11.24,0H7.471Zm15.82-.4,1.064-6.23h3.154L22.715,0H19.932L18.184-6.27,16.426,0H13.643l-2.49-10.566h3.154l1.045,6.377,1.68-6.377h2.295Z" transform="translate(527.925 5935.582)" fill="#003b59"/>
    <path id="Trazado_884251" data-name="Trazado 884251" d="M14.341-8.335h2.168v3.809H14.341V0H9.4V-4.526H1.157L.864-7.544,9.4-21.284v-.044h4.937Zm-8.774,0H9.4V-14.9l-.308.5ZM21.812-4.79a2.81,2.81,0,0,1,1.948.7,2.283,2.283,0,0,1,.776,1.78,2.283,2.283,0,0,1-.776,1.78,2.81,2.81,0,0,1-1.948.7,2.786,2.786,0,0,1-1.956-.7,2.3,2.3,0,0,1-.769-1.772,2.3,2.3,0,0,1,.769-1.772A2.786,2.786,0,0,1,21.812-4.79ZM39.668-21.636v3.882h-.22A7.411,7.411,0,0,0,34.9-16.428a5.6,5.6,0,0,0-2.19,3.684,5.773,5.773,0,0,1,4.219-1.641,5.385,5.385,0,0,1,4.409,2.021,8.153,8.153,0,0,1,1.641,5.3,7.466,7.466,0,0,1-.959,3.735A6.846,6.846,0,0,1,39.338-.667a7.7,7.7,0,0,1-3.816.959A7.961,7.961,0,0,1,31.465-.74a7.1,7.1,0,0,1-2.783-2.952,9.719,9.719,0,0,1-1.025-4.424v-1.978a12.312,12.312,0,0,1,1.414-5.925,10.248,10.248,0,0,1,4.036-4.124,11.538,11.538,0,0,1,5.815-1.494Zm-4.453,11.03a2.824,2.824,0,0,0-1.641.454,2.883,2.883,0,0,0-.981,1.113v1.479q0,4.043,2.8,4.043a2.27,2.27,0,0,0,1.882-1.011,4.119,4.119,0,0,0,.754-2.534,4.043,4.043,0,0,0-.769-2.556A2.46,2.46,0,0,0,35.215-10.605ZM58.154-8.335h2.168v3.809H58.154V0H53.218V-4.526H44.971l-.293-3.018,8.54-13.74v-.044h4.937Zm-8.774,0h3.838V-14.9l-.308.5ZM67-12.729h2.329q2.769,0,2.769-2.71a2.343,2.343,0,0,0-.659-1.721,2.5,2.5,0,0,0-1.86-.667,2.676,2.676,0,0,0-1.707.571,1.743,1.743,0,0,0-.725,1.421H62.212a5.053,5.053,0,0,1,.938-3,6.191,6.191,0,0,1,2.6-2.058,8.89,8.89,0,0,1,3.655-.74A8.735,8.735,0,0,1,75-20.01a5.405,5.405,0,0,1,2.036,4.468,4.505,4.505,0,0,1-.842,2.6,6,6,0,0,1-2.454,1.985,5.734,5.734,0,0,1,2.666,1.868,4.919,4.919,0,0,1,.967,3.1,5.5,5.5,0,0,1-2.2,4.57A9.12,9.12,0,0,1,69.4.293a9.458,9.458,0,0,1-3.889-.8A6.093,6.093,0,0,1,62.8-2.717a5.751,5.751,0,0,1-.923-3.215h4.966a2.223,2.223,0,0,0,.791,1.7,2.793,2.793,0,0,0,1.948.718,2.925,2.925,0,0,0,2.08-.725,2.424,2.424,0,0,0,.776-1.853,2.833,2.833,0,0,0-.806-2.285A3.368,3.368,0,0,0,69.4-9.053H67Z" transform="translate(1233.579 5986.788)" fill="#003b59"/>
    <path id="Trazado_884252" data-name="Trazado 884252" transform="translate(1312.139 5986.788)" fill="#003b59"/>
    <path id="Trazado_884253" data-name="Trazado 884253" d="M4.9-3.729l-.879.879V0H.9V-14.223H4.016v7.551l.315-.416,2.35-2.924H10.42L6.912-5.895,10.651,0H7.079Zm14.991-.379,1.009-5.9h2.989L21.524,0H18.887L17.23-5.941,15.564,0H12.927l-2.36-10.012h2.989l.99,6.043,1.592-6.043h2.175Z" transform="translate(1318.628 5986.788)" fill="#003b59"/>
    <path id="Trazado_884254" data-name="Trazado 884254" d="M0,0H1086.014V390.823H0Z" transform="translate(256.711 5805.6)" fill="none"/>
    <path id="Trazado_884255" data-name="Trazado 884255" d="M3.525-5.566V0H1.65V-14.219H6.895a5.269,5.269,0,0,1,3.657,1.191,4.039,4.039,0,0,1,1.323,3.154,3.986,3.986,0,0,1-1.294,3.188A5.5,5.5,0,0,1,6.875-5.566Zm0-1.533H6.895a3.372,3.372,0,0,0,2.3-.708A2.586,2.586,0,0,0,10-9.854a2.672,2.672,0,0,0-.8-2.031A3.159,3.159,0,0,0,7-12.676H3.525Zm21.2,2.588A5.231,5.231,0,0,1,23.062-1.03,5.457,5.457,0,0,1,19.336.2,5.01,5.01,0,0,1,15.3-1.611a7.268,7.268,0,0,1-1.519-4.834V-7.812a8.1,8.1,0,0,1,.708-3.486,5.288,5.288,0,0,1,2.007-2.31,5.588,5.588,0,0,1,3.008-.806,5.138,5.138,0,0,1,3.633,1.265,5.294,5.294,0,0,1,1.592,3.5H22.842a4.067,4.067,0,0,0-1.06-2.461,3.212,3.212,0,0,0-2.28-.762,3.356,3.356,0,0,0-2.817,1.328,6.093,6.093,0,0,0-1.021,3.779v1.377a6.263,6.263,0,0,0,.967,3.682,3.125,3.125,0,0,0,2.705,1.367,3.608,3.608,0,0,0,2.4-.708,3.929,3.929,0,0,0,1.108-2.466ZM38.213,0H36.328V-6.572H29.16V0H27.285V-14.219H29.16v6.113h7.168v-6.113h1.885Z" transform="translate(1233.579 6010.788)" fill="#003b59"/>
    <path id="Trazado_884256" data-name="Trazado 884256" d="M37.172,0A37.172,37.172,0,1,1,0,37.172,37.172,37.172,0,0,1,37.172,0Z" transform="translate(1134.526 5947.706)" fill="none" stroke="#e1e4e1" stroke-width="9.782"/>
    <path id="Trazado_883927" data-name="Trazado 883927" d="M914.987,142.1c13.829,1.086,25.47,7.946,31.9,17.556" transform="translate(256.711 5805.6)" fill="none" stroke="#003b59" stroke-miterlimit="10" stroke-width="9.782"/>
    <path id="Trazado_884257" data-name="Trazado 884257" d="M0,0H1086.014V390.823H0Z" transform="translate(256.711 5805.6)" fill="none"/>
    <path id="Trazado_884258" data-name="Trazado 884258" d="M8.749-6.676A4.173,4.173,0,0,1,5.624-5.262,4.173,4.173,0,0,1,2.269-6.737a5.79,5.79,0,0,1-1.25-3.875,6.354,6.354,0,0,1,.636-2.861,4.741,4.741,0,0,1,1.809-2,5.132,5.132,0,0,1,2.719-.713,4.611,4.611,0,0,1,3.826,1.8,7.573,7.573,0,0,1,1.414,4.813v.745q0,4.319-1.951,6.589A7.346,7.346,0,0,1,3.651.066H3.333v-2.2h.384A5.455,5.455,0,0,0,7.334-3.272,4.73,4.73,0,0,0,8.749-6.676ZM6.183-7.345a2.688,2.688,0,0,0,1.5-.46A3.034,3.034,0,0,0,8.77-9.077v-1.041a5,5,0,0,0-.724-2.839,2.18,2.18,0,0,0-1.875-1.074,2.154,2.154,0,0,0-1.836.948,3.986,3.986,0,0,0-.685,2.4,3.937,3.937,0,0,0,.691,2.423A2.188,2.188,0,0,0,6.183-7.345Zm7.663-5.547a3.2,3.2,0,0,1,.932-2.373,3.317,3.317,0,0,1,2.445-.926,3.327,3.327,0,0,1,2.461.926,3.284,3.284,0,0,1,.926,2.428v.789a3.181,3.181,0,0,1-.926,2.357,3.309,3.309,0,0,1-2.439.921,3.414,3.414,0,0,1-2.439-.9,3.193,3.193,0,0,1-.959-2.439Zm1.864.844a1.751,1.751,0,0,0,.422,1.222,1.43,1.43,0,0,0,1.113.466,1.4,1.4,0,0,0,1.1-.466,1.83,1.83,0,0,0,.417-1.266v-.8a1.771,1.771,0,0,0-.422-1.228,1.422,1.422,0,0,0-1.113-.471,1.381,1.381,0,0,0-1.1.477,1.855,1.855,0,0,0-.411,1.255Zm5.81,8.135a3.138,3.138,0,0,1,.954-2.379,3.383,3.383,0,0,1,2.434-.91,3.378,3.378,0,0,1,2.439.91A3.244,3.244,0,0,1,28.3-3.837v.778A3.207,3.207,0,0,1,27.38-.707a3.289,3.289,0,0,1-2.45.926A3.387,3.387,0,0,1,22.458-.7a3.226,3.226,0,0,1-.937-2.417Zm1.864.855a1.748,1.748,0,0,0,.433,1.222,1.435,1.435,0,0,0,1.113.477,1.391,1.391,0,0,0,1.1-.455,1.871,1.871,0,0,0,.4-1.277v-.822A1.733,1.733,0,0,0,26-5.142a1.429,1.429,0,0,0-1.1-.46,1.425,1.425,0,0,0-1.1.46,1.811,1.811,0,0,0-.422,1.272ZM17.793-1.195l-1.37-.789L24.217-14.46l1.37.789Z" transform="translate(1157.733 5994.44)" fill="#7d7e80"/>
    <path id="Trazado_884259" data-name="Trazado 884259" d="M12.246,0H7.295V-15.762L2.432-14.341v-3.75l9.36-3.237h.454Zm9.565-4.79a2.81,2.81,0,0,1,1.948.7,2.283,2.283,0,0,1,.776,1.78,2.283,2.283,0,0,1-.776,1.78,2.81,2.81,0,0,1-1.948.7,2.786,2.786,0,0,1-1.956-.7,2.3,2.3,0,0,1-.769-1.772,2.3,2.3,0,0,1,.769-1.772A2.786,2.786,0,0,1,21.812-4.79ZM42.554-8.716a10.184,10.184,0,0,1-1.941,6.665A6.707,6.707,0,0,1,35.142.293a6.743,6.743,0,0,1-5.508-2.358,10.168,10.168,0,0,1-1.948-6.65v-3.9a10.184,10.184,0,0,1,1.941-6.665,6.724,6.724,0,0,1,5.486-2.344,6.726,6.726,0,0,1,5.493,2.358A10.193,10.193,0,0,1,42.554-12.6Zm-4.937-4.526a7.607,7.607,0,0,0-.6-3.435,2.008,2.008,0,0,0-1.9-1.135,1.96,1.96,0,0,0-1.853,1.055,7.166,7.166,0,0,0-.623,3.193v5.449a7.664,7.664,0,0,0,.6,3.494,2.015,2.015,0,0,0,1.9,1.106A1.988,1.988,0,0,0,37-4.592a7.317,7.317,0,0,0,.615-3.376Zm22.31,4.526a10.184,10.184,0,0,1-1.941,6.665A6.707,6.707,0,0,1,52.515.293a6.743,6.743,0,0,1-5.508-2.358,10.168,10.168,0,0,1-1.948-6.65v-3.9A10.184,10.184,0,0,1,47-19.277a6.724,6.724,0,0,1,5.486-2.344,6.726,6.726,0,0,1,5.493,2.358A10.193,10.193,0,0,1,59.927-12.6ZM54.99-13.242a7.607,7.607,0,0,0-.6-3.435,2.008,2.008,0,0,0-1.9-1.135,1.96,1.96,0,0,0-1.853,1.055,7.166,7.166,0,0,0-.623,3.193v5.449a7.664,7.664,0,0,0,.6,3.494,2.015,2.015,0,0,0,1.9,1.106,1.988,1.988,0,0,0,1.86-1.077,7.317,7.317,0,0,0,.615-3.376ZM77.3-8.716a10.184,10.184,0,0,1-1.941,6.665A6.707,6.707,0,0,1,69.888.293,6.743,6.743,0,0,1,64.38-2.065a10.168,10.168,0,0,1-1.948-6.65v-3.9a10.184,10.184,0,0,1,1.941-6.665,6.724,6.724,0,0,1,5.486-2.344,6.726,6.726,0,0,1,5.493,2.358A10.193,10.193,0,0,1,77.3-12.6Zm-4.937-4.526a7.607,7.607,0,0,0-.6-3.435,2.008,2.008,0,0,0-1.9-1.135,1.96,1.96,0,0,0-1.853,1.055,7.166,7.166,0,0,0-.623,3.193v5.449a7.664,7.664,0,0,0,.6,3.494,2.015,2.015,0,0,0,1.9,1.106,1.988,1.988,0,0,0,1.86-1.077,7.317,7.317,0,0,0,.615-3.376Z" transform="translate(1233.579 6090.681)" fill="#003b59"/>
    <path id="Trazado_884260" data-name="Trazado 884260" transform="translate(1312.139 6090.681)" fill="#003b59"/>
    <path id="Trazado_884261" data-name="Trazado 884261" d="M4.9-3.729l-.879.879V0H.9V-14.223H4.016v7.551l.315-.416,2.35-2.924H10.42L6.912-5.895,10.651,0H7.079Zm14.991-.379,1.009-5.9h2.989L21.524,0H18.887L17.23-5.941,15.564,0H12.927l-2.36-10.012h2.989l.99,6.043,1.592-6.043h2.175Z" transform="translate(1318.628 6090.681)" fill="#003b59"/>
    <path id="Trazado_884262" data-name="Trazado 884262" d="M0,0H1086.014V390.823H0Z" transform="translate(256.711 5805.6)" fill="none"/>
    <path id="Trazado_884263" data-name="Trazado 884263" d="M6.865-5.752H3.525V0H1.641V-14.219H6.348a5.571,5.571,0,0,1,3.7,1.094,3.935,3.935,0,0,1,1.294,3.184,3.828,3.828,0,0,1-.718,2.314,4.285,4.285,0,0,1-2,1.475l3.34,6.035V0H9.951ZM3.525-7.285H6.406a3.253,3.253,0,0,0,2.222-.723,2.442,2.442,0,0,0,.825-1.934,2.571,2.571,0,0,0-.786-2.021A3.333,3.333,0,0,0,6.4-12.676H3.525Zm14.629.947a8.817,8.817,0,0,1-3.511-1.7,3.256,3.256,0,0,1-1.1-2.5,3.439,3.439,0,0,1,1.343-2.778,5.337,5.337,0,0,1,3.491-1.1,5.825,5.825,0,0,1,2.612.566,4.3,4.3,0,0,1,1.777,1.563,4,4,0,0,1,.63,2.178H21.514a2.586,2.586,0,0,0-.82-2.026,3.343,3.343,0,0,0-2.314-.737,3.42,3.42,0,0,0-2.163.61,2.035,2.035,0,0,0-.776,1.694,1.831,1.831,0,0,0,.737,1.47A7.238,7.238,0,0,0,18.687-8,11.622,11.622,0,0,1,21.46-6.9a4.209,4.209,0,0,1,1.484,1.4,3.577,3.577,0,0,1,.483,1.885A3.322,3.322,0,0,1,22.08-.845,5.746,5.746,0,0,1,18.477.2a6.683,6.683,0,0,1-2.734-.562A4.6,4.6,0,0,1,13.784-1.9,3.754,3.754,0,0,1,13.1-4.121H14.98a2.449,2.449,0,0,0,.952,2.036,4.009,4.009,0,0,0,2.544.747,3.685,3.685,0,0,0,2.275-.605,1.967,1.967,0,0,0,.791-1.65,1.931,1.931,0,0,0-.732-1.616A8.444,8.444,0,0,0,18.154-6.338ZM35.84-14.219v9.668A4.535,4.535,0,0,1,34.575-1.26a5.1,5.1,0,0,1-3.4,1.436l-.5.02a5.322,5.322,0,0,1-3.721-1.26,4.505,4.505,0,0,1-1.406-3.467v-9.687H27.4V-4.59a3.252,3.252,0,0,0,.85,2.4,3.265,3.265,0,0,0,2.422.854,3.287,3.287,0,0,0,2.437-.85,3.246,3.246,0,0,0,.845-2.393v-9.639Z" transform="translate(1233.579 6114.681)" fill="#003b59"/>
    <path id="Trazado_884264" data-name="Trazado 884264" d="M37.172,0A37.172,37.172,0,1,1,0,37.172,37.172,37.172,0,0,1,37.172,0Z" transform="translate(1129.052 6058.032) rotate(-9.217)" fill="none" stroke="#e1e4e1" stroke-width="9.782"/>
    <path id="Trazado_883928" data-name="Trazado 883928" d="M914.987,246a44.921,44.921,0,0,1,21.754,7.454" transform="translate(256.711 5805.6)" fill="none" stroke="#6fa150" stroke-miterlimit="10" stroke-width="9.782"/>
    <path id="Trazado_884265" data-name="Trazado 884265" d="M0,0H1086.014V390.823H0Z" transform="translate(256.711 5805.6)" fill="none"/>
    <path id="Trazado_884266" data-name="Trazado 884266" d="M11.928,0H1.195V-1.831l5.317-5.8A13.241,13.241,0,0,0,8.151-9.774,3.473,3.473,0,0,0,8.639-11.5,2.623,2.623,0,0,0,8-13.342a2.225,2.225,0,0,0-1.727-.7,2.564,2.564,0,0,0-2.006.789,3.1,3.1,0,0,0-.713,2.16H.888a5.221,5.221,0,0,1,.663-2.626,4.567,4.567,0,0,1,1.9-1.814,6.037,6.037,0,0,1,2.845-.647A5.4,5.4,0,0,1,9.96-15.014,4.053,4.053,0,0,1,11.3-11.785a5.479,5.479,0,0,1-.674,2.505A14.244,14.244,0,0,1,8.42-6.3l-3.9,4.177h7.411Zm1.919-12.893a3.2,3.2,0,0,1,.932-2.373,3.317,3.317,0,0,1,2.445-.926,3.327,3.327,0,0,1,2.461.926,3.284,3.284,0,0,1,.926,2.428v.789a3.181,3.181,0,0,1-.926,2.357,3.309,3.309,0,0,1-2.439.921,3.414,3.414,0,0,1-2.439-.9,3.193,3.193,0,0,1-.959-2.439Zm1.864.844a1.751,1.751,0,0,0,.422,1.222,1.43,1.43,0,0,0,1.113.466,1.4,1.4,0,0,0,1.1-.466,1.83,1.83,0,0,0,.417-1.266v-.8a1.771,1.771,0,0,0-.422-1.228,1.422,1.422,0,0,0-1.113-.471,1.381,1.381,0,0,0-1.1.477,1.855,1.855,0,0,0-.411,1.255Zm5.81,8.135a3.138,3.138,0,0,1,.954-2.379,3.383,3.383,0,0,1,2.434-.91,3.378,3.378,0,0,1,2.439.91A3.244,3.244,0,0,1,28.3-3.837v.778A3.207,3.207,0,0,1,27.38-.707a3.289,3.289,0,0,1-2.45.926A3.387,3.387,0,0,1,22.458-.7a3.226,3.226,0,0,1-.937-2.417Zm1.864.855a1.748,1.748,0,0,0,.433,1.222,1.435,1.435,0,0,0,1.113.477,1.391,1.391,0,0,0,1.1-.455,1.871,1.871,0,0,0,.4-1.277v-.822A1.733,1.733,0,0,0,26-5.142a1.429,1.429,0,0,0-1.1-.46,1.425,1.425,0,0,0-1.1.46,1.811,1.811,0,0,0-.422,1.272ZM17.793-1.195l-1.37-.789L24.217-14.46l1.37.789Z" transform="translate(1157.733 6095.331)" fill="#7d7e80"/>
    <path id="Trazado_884267" data-name="Trazado 884267" d="M5.815-12.729H8.145q2.769,0,2.769-2.71a2.343,2.343,0,0,0-.659-1.721,2.5,2.5,0,0,0-1.86-.667,2.676,2.676,0,0,0-1.707.571,1.743,1.743,0,0,0-.725,1.421H1.025a5.053,5.053,0,0,1,.938-3,6.191,6.191,0,0,1,2.6-2.058,8.89,8.89,0,0,1,3.655-.74,8.735,8.735,0,0,1,5.6,1.626,5.405,5.405,0,0,1,2.036,4.468,4.505,4.505,0,0,1-.842,2.6,6,6,0,0,1-2.454,1.985A5.734,5.734,0,0,1,15.22-9.089a4.919,4.919,0,0,1,.967,3.1,5.5,5.5,0,0,1-2.2,4.57A9.12,9.12,0,0,1,8.218.293a9.458,9.458,0,0,1-3.889-.8A6.093,6.093,0,0,1,1.611-2.717,5.751,5.751,0,0,1,.688-5.933H5.654a2.223,2.223,0,0,0,.791,1.7,2.793,2.793,0,0,0,1.948.718,2.925,2.925,0,0,0,2.08-.725,2.424,2.424,0,0,0,.776-1.853,2.833,2.833,0,0,0-.806-2.285,3.368,3.368,0,0,0-2.227-.674h-2.4Zm25.9,4.395h2.168v3.809H31.714V0H26.777V-4.526H18.53l-.293-3.018,8.54-13.74v-.044h4.937Zm-8.774,0h3.838V-14.9l-.308.5ZM39.185-4.79a2.81,2.81,0,0,1,1.948.7,2.283,2.283,0,0,1,.776,1.78,2.283,2.283,0,0,1-.776,1.78,2.81,2.81,0,0,1-1.948.7,2.786,2.786,0,0,1-1.956-.7,2.3,2.3,0,0,1-.769-1.772,2.3,2.3,0,0,1,.769-1.772A2.786,2.786,0,0,1,39.185-4.79ZM56.06,0H51.108V-15.762l-4.863,1.421v-3.75l9.36-3.237h.454ZM77.3-8.716a10.184,10.184,0,0,1-1.941,6.665A6.707,6.707,0,0,1,69.888.293,6.743,6.743,0,0,1,64.38-2.065a10.168,10.168,0,0,1-1.948-6.65v-3.9a10.184,10.184,0,0,1,1.941-6.665,6.724,6.724,0,0,1,5.486-2.344,6.726,6.726,0,0,1,5.493,2.358A10.193,10.193,0,0,1,77.3-12.6Zm-4.937-4.526a7.607,7.607,0,0,0-.6-3.435,2.008,2.008,0,0,0-1.9-1.135,1.96,1.96,0,0,0-1.853,1.055,7.166,7.166,0,0,0-.623,3.193v5.449a7.664,7.664,0,0,0,.6,3.494,2.015,2.015,0,0,0,1.9,1.106,1.988,1.988,0,0,0,1.86-1.077,7.317,7.317,0,0,0,.615-3.376Zm17.227,5a5.214,5.214,0,0,1-3.574,1.436,5.771,5.771,0,0,1-4.6-1.963,7.733,7.733,0,0,1-1.7-5.244,7.87,7.87,0,0,1,.952-3.809,7.144,7.144,0,0,1,2.673-2.783,7.288,7.288,0,0,1,3.8-1.025,7.075,7.075,0,0,1,3.816,1.062,7.15,7.15,0,0,1,2.659,3A10.315,10.315,0,0,1,94.6-13.1v1.89a12.821,12.821,0,0,1-1.384,6.123A9.556,9.556,0,0,1,89.268-1.1,12.336,12.336,0,0,1,83.291.293h-.308V-3.662l.938-.015Q89.019-3.926,89.59-8.247Zm-2.241-2.124a2.4,2.4,0,0,0,2.314-1.392v-2.051a5.332,5.332,0,0,0-.688-3.032,2.159,2.159,0,0,0-1.86-.981,2.041,2.041,0,0,0-1.743,1.113,4.946,4.946,0,0,0-.7,2.7,4.435,4.435,0,0,0,.718,2.659A2.3,2.3,0,0,0,87.349-10.371Z" transform="translate(913.613 5939.936)" fill="#003b59"/>
    <path id="Trazado_884268" data-name="Trazado 884268" transform="translate(1009.546 5939.936)" fill="#003b59"/>
    <path id="Trazado_884269" data-name="Trazado 884269" d="M4.9-3.729l-.879.879V0H.9V-14.223H4.016v7.551l.315-.416,2.35-2.924H10.42L6.912-5.895,10.651,0H7.079Zm14.991-.379,1.009-5.9h2.989L21.524,0H18.887L17.23-5.941,15.564,0H12.927l-2.36-10.012h2.989l.99,6.043,1.592-6.043h2.175Z" transform="translate(1016.035 5939.936)" fill="#003b59"/>
    <path id="Trazado_884270" data-name="Trazado 884270" d="M5.84-6.338a8.817,8.817,0,0,1-3.511-1.7,3.256,3.256,0,0,1-1.1-2.5,3.439,3.439,0,0,1,1.343-2.778,5.337,5.337,0,0,1,3.491-1.1,5.825,5.825,0,0,1,2.612.566,4.3,4.3,0,0,1,1.777,1.563,4,4,0,0,1,.63,2.178H9.2a2.586,2.586,0,0,0-.82-2.026,3.343,3.343,0,0,0-2.314-.737,3.42,3.42,0,0,0-2.163.61,2.035,2.035,0,0,0-.776,1.694A1.831,1.831,0,0,0,3.862-9.1,7.238,7.238,0,0,0,6.372-8,11.622,11.622,0,0,1,9.146-6.9,4.209,4.209,0,0,1,10.63-5.5a3.577,3.577,0,0,1,.483,1.885A3.322,3.322,0,0,1,9.766-.845,5.746,5.746,0,0,1,6.162.2,6.683,6.683,0,0,1,3.428-.366,4.6,4.6,0,0,1,1.47-1.9,3.754,3.754,0,0,1,.781-4.121H2.666a2.449,2.449,0,0,0,.952,2.036,4.009,4.009,0,0,0,2.544.747,3.685,3.685,0,0,0,2.275-.605,1.967,1.967,0,0,0,.791-1.65A1.931,1.931,0,0,0,8.5-5.21,8.444,8.444,0,0,0,5.84-6.338ZM15.527,0H13.652V-14.219h1.875Zm7.617-6.338a8.817,8.817,0,0,1-3.511-1.7,3.256,3.256,0,0,1-1.1-2.5,3.439,3.439,0,0,1,1.343-2.778,5.337,5.337,0,0,1,3.491-1.1,5.825,5.825,0,0,1,2.612.566,4.3,4.3,0,0,1,1.777,1.563,4,4,0,0,1,.63,2.178H26.5a2.586,2.586,0,0,0-.82-2.026,3.343,3.343,0,0,0-2.314-.737,3.42,3.42,0,0,0-2.163.61,2.035,2.035,0,0,0-.776,1.694,1.831,1.831,0,0,0,.737,1.47A7.238,7.238,0,0,0,23.677-8,11.622,11.622,0,0,1,26.45-6.9a4.209,4.209,0,0,1,1.484,1.4,3.577,3.577,0,0,1,.483,1.885A3.322,3.322,0,0,1,27.07-.845,5.746,5.746,0,0,1,23.467.2a6.683,6.683,0,0,1-2.734-.562A4.6,4.6,0,0,1,18.774-1.9a3.754,3.754,0,0,1-.688-2.217h1.885a2.449,2.449,0,0,0,.952,2.036,4.009,4.009,0,0,0,2.544.747,3.685,3.685,0,0,0,2.275-.605,1.967,1.967,0,0,0,.791-1.65A1.931,1.931,0,0,0,25.8-5.21,8.444,8.444,0,0,0,23.145-6.338Zm15.518.059H32.7V0H30.82V-14.219h8.809v1.543H32.7v4.863h5.967Zm7.92,3.789,4.063-11.729H52.7L47.422,0h-1.66L40.5-14.219h2.041Z" transform="translate(913.613 5963.936)" fill="#003b59"/>
    <path id="Trazado_884271" data-name="Trazado 884271" d="M14.341-8.335h2.168v3.809H14.341V0H9.4V-4.526H1.157L.864-7.544,9.4-21.284v-.044h4.937Zm-8.774,0H9.4V-14.9l-.308.5ZM21.812-4.79a2.81,2.81,0,0,1,1.948.7,2.283,2.283,0,0,1,.776,1.78,2.283,2.283,0,0,1-.776,1.78,2.81,2.81,0,0,1-1.948.7,2.786,2.786,0,0,1-1.956-.7,2.3,2.3,0,0,1-.769-1.772,2.3,2.3,0,0,1,.769-1.772A2.786,2.786,0,0,1,21.812-4.79Zm20.757-13.9L34.6,0H29.385l7.983-17.52H27.2v-3.809H42.568Zm7.061,5.962h2.329q2.769,0,2.769-2.71a2.343,2.343,0,0,0-.659-1.721,2.5,2.5,0,0,0-1.86-.667,2.676,2.676,0,0,0-1.707.571,1.743,1.743,0,0,0-.725,1.421H44.839a5.053,5.053,0,0,1,.938-3,6.191,6.191,0,0,1,2.6-2.058,8.89,8.89,0,0,1,3.655-.74,8.735,8.735,0,0,1,5.6,1.626,5.405,5.405,0,0,1,2.036,4.468,4.505,4.505,0,0,1-.842,2.6,6,6,0,0,1-2.454,1.985,5.734,5.734,0,0,1,2.666,1.868A4.919,4.919,0,0,1,60-5.991a5.5,5.5,0,0,1-2.2,4.57A9.12,9.12,0,0,1,52.031.293a9.458,9.458,0,0,1-3.889-.8,6.093,6.093,0,0,1-2.717-2.212A5.751,5.751,0,0,1,44.5-5.933h4.966a2.223,2.223,0,0,0,.791,1.7,2.793,2.793,0,0,0,1.948.718,2.925,2.925,0,0,0,2.08-.725,2.424,2.424,0,0,0,.776-1.853,2.833,2.833,0,0,0-.806-2.285,3.368,3.368,0,0,0-2.227-.674h-2.4Zm25.9,4.395H77.7v3.809H75.527V0H70.591V-4.526H62.344l-.293-3.018,8.54-13.74v-.044h4.937Zm-8.774,0h3.838V-14.9l-.308.5Z" transform="translate(913.613 6040.082)" fill="#003b59"/>
    <path id="Trazado_884272" data-name="Trazado 884272" transform="translate(992.173 6040.082)" fill="#003b59"/>
    <path id="Trazado_884273" data-name="Trazado 884273" d="M4.9-3.729l-.879.879V0H.9V-14.223H4.016v7.551l.315-.416,2.35-2.924H10.42L6.912-5.895,10.651,0H7.079Zm14.991-.379,1.009-5.9h2.989L21.524,0H18.887L17.23-5.941,15.564,0H12.927l-2.36-10.012h2.989l.99,6.043,1.592-6.043h2.175Z" transform="translate(998.662 6040.082)" fill="#003b59"/>
    <path id="Trazado_884274" data-name="Trazado 884274" d="M5.84-6.338a8.817,8.817,0,0,1-3.511-1.7,3.256,3.256,0,0,1-1.1-2.5,3.439,3.439,0,0,1,1.343-2.778,5.337,5.337,0,0,1,3.491-1.1,5.825,5.825,0,0,1,2.612.566,4.3,4.3,0,0,1,1.777,1.563,4,4,0,0,1,.63,2.178H9.2a2.586,2.586,0,0,0-.82-2.026,3.343,3.343,0,0,0-2.314-.737,3.42,3.42,0,0,0-2.163.61,2.035,2.035,0,0,0-.776,1.694A1.831,1.831,0,0,0,3.862-9.1,7.238,7.238,0,0,0,6.372-8,11.622,11.622,0,0,1,9.146-6.9,4.209,4.209,0,0,1,10.63-5.5a3.577,3.577,0,0,1,.483,1.885A3.322,3.322,0,0,1,9.766-.845,5.746,5.746,0,0,1,6.162.2,6.683,6.683,0,0,1,3.428-.366,4.6,4.6,0,0,1,1.47-1.9,3.754,3.754,0,0,1,.781-4.121H2.666a2.449,2.449,0,0,0,.952,2.036,4.009,4.009,0,0,0,2.544.747,3.685,3.685,0,0,0,2.275-.605,1.967,1.967,0,0,0,.791-1.65A1.931,1.931,0,0,0,8.5-5.21,8.444,8.444,0,0,0,5.84-6.338Zm6.914.957a6.241,6.241,0,0,1,.61-2.793,4.553,4.553,0,0,1,1.7-1.914,4.626,4.626,0,0,1,2.485-.674A4.456,4.456,0,0,1,21.04-9.268a5.748,5.748,0,0,1,1.333,3.975v.127A6.3,6.3,0,0,1,21.782-2.4,4.486,4.486,0,0,1,20.093-.488,4.679,4.679,0,0,1,17.568.2,4.445,4.445,0,0,1,14.087-1.3a5.719,5.719,0,0,1-1.333-3.955Zm1.816.215a4.52,4.52,0,0,0,.815,2.822,2.61,2.61,0,0,0,2.183,1.064,2.594,2.594,0,0,0,2.188-1.079,4.943,4.943,0,0,0,.811-3.022A4.513,4.513,0,0,0,19.741-8.2a2.623,2.623,0,0,0-2.192-1.079,2.594,2.594,0,0,0-2.158,1.064A4.906,4.906,0,0,0,14.57-5.166ZM26.6,0H24.795V-15H26.6Zm9.414,0a3.8,3.8,0,0,1-.254-1.113A4.031,4.031,0,0,1,32.754.2,3.73,3.73,0,0,1,30.19-.688a2.859,2.859,0,0,1-1-2.241,2.987,2.987,0,0,1,1.255-2.563,5.916,5.916,0,0,1,3.53-.913h1.758v-.83a2.029,2.029,0,0,0-.566-1.509,2.276,2.276,0,0,0-1.67-.562,2.634,2.634,0,0,0-1.621.488,1.439,1.439,0,0,0-.654,1.182H29.4a2.493,2.493,0,0,1,.562-1.528,3.832,3.832,0,0,1,1.523-1.167,5.125,5.125,0,0,1,2.114-.43,4.177,4.177,0,0,1,2.861.913,3.294,3.294,0,0,1,1.074,2.515v4.863A5.946,5.946,0,0,0,37.91-.156V0Zm-3-1.377a3.175,3.175,0,0,0,1.611-.439,2.658,2.658,0,0,0,1.1-1.143V-5.127H34.316Q31-5.127,31-3.184a1.645,1.645,0,0,0,.566,1.328A2.177,2.177,0,0,0,33.018-1.377ZM45.479-8.945a5.414,5.414,0,0,0-.889-.068A2.381,2.381,0,0,0,42.178-7.5V0H40.371V-10.566h1.758l.029,1.221a2.813,2.813,0,0,1,2.52-1.416,1.846,1.846,0,0,1,.8.137ZM62.832-4.512A5.231,5.231,0,0,1,61.167-1.03,5.457,5.457,0,0,1,57.441.2,5.01,5.01,0,0,1,53.4-1.611a7.268,7.268,0,0,1-1.519-4.834V-7.812a8.1,8.1,0,0,1,.708-3.486,5.288,5.288,0,0,1,2.007-2.31,5.588,5.588,0,0,1,3.008-.806,5.138,5.138,0,0,1,3.633,1.265,5.294,5.294,0,0,1,1.592,3.5H60.947a4.067,4.067,0,0,0-1.06-2.461,3.212,3.212,0,0,0-2.28-.762,3.356,3.356,0,0,0-2.817,1.328A6.093,6.093,0,0,0,53.77-7.764v1.377a6.263,6.263,0,0,0,.967,3.682,3.125,3.125,0,0,0,2.705,1.367,3.608,3.608,0,0,0,2.4-.708,3.929,3.929,0,0,0,1.108-2.466ZM69.492.2A4.617,4.617,0,0,1,66-1.216,5.237,5.237,0,0,1,64.648-4.99v-.332a6.341,6.341,0,0,1,.6-2.808,4.685,4.685,0,0,1,1.68-1.934,4.223,4.223,0,0,1,2.339-.7,3.957,3.957,0,0,1,3.2,1.357,5.877,5.877,0,0,1,1.143,3.887v.752H66.455a3.756,3.756,0,0,0,.913,2.524,2.87,2.87,0,0,0,2.222.962,3.147,3.147,0,0,0,1.621-.391,4.073,4.073,0,0,0,1.162-1.035l1.1.859A4.437,4.437,0,0,1,69.492.2Zm-.225-9.473a2.41,2.41,0,0,0-1.836.8,3.869,3.869,0,0,0-.918,2.231h5.293v-.137a3.441,3.441,0,0,0-.742-2.134A2.269,2.269,0,0,0,69.268-9.277Zm8.145-1.289.059,1.328a3.85,3.85,0,0,1,3.164-1.523q3.35,0,3.379,3.779V0H82.207V-6.992a2.432,2.432,0,0,0-.522-1.689,2.094,2.094,0,0,0-1.6-.547,2.607,2.607,0,0,0-1.543.469,3.183,3.183,0,0,0-1.035,1.23V0H75.7V-10.566Zm11.777-2.559v2.559h1.973v1.4H89.189v6.553a1.464,1.464,0,0,0,.264.952,1.11,1.11,0,0,0,.9.317,4.374,4.374,0,0,0,.859-.117V0a5.238,5.238,0,0,1-1.387.2A2.25,2.25,0,0,1,88-.537a3.147,3.147,0,0,1-.615-2.08V-9.17H85.459v-1.4h1.924v-2.559Zm9.189,4.18a5.414,5.414,0,0,0-.889-.068A2.381,2.381,0,0,0,95.078-7.5V0H93.271V-10.566h1.758l.029,1.221a2.813,2.813,0,0,1,2.52-1.416,1.846,1.846,0,0,1,.8.137ZM106.172,0a3.8,3.8,0,0,1-.254-1.113A4.031,4.031,0,0,1,102.91.2a3.73,3.73,0,0,1-2.563-.884,2.859,2.859,0,0,1-1-2.241A2.987,2.987,0,0,1,100.6-5.493a5.916,5.916,0,0,1,3.53-.913h1.758v-.83a2.029,2.029,0,0,0-.566-1.509,2.276,2.276,0,0,0-1.67-.562,2.634,2.634,0,0,0-1.621.488,1.439,1.439,0,0,0-.654,1.182H99.561a2.493,2.493,0,0,1,.562-1.528,3.832,3.832,0,0,1,1.523-1.167,5.125,5.125,0,0,1,2.114-.43,4.177,4.177,0,0,1,2.861.913A3.294,3.294,0,0,1,107.7-7.334v4.863a5.946,5.946,0,0,0,.371,2.314V0Zm-3-1.377a3.175,3.175,0,0,0,1.611-.439,2.658,2.658,0,0,0,1.1-1.143V-5.127h-1.416q-3.32,0-3.32,1.943a1.645,1.645,0,0,0,.566,1.328A2.177,2.177,0,0,0,103.174-1.377ZM112.49,0h-1.807V-15h1.807Zm4.854,0h-1.807V-10.566h1.807Zm-1.953-13.369a1.078,1.078,0,0,1,.269-.742,1.008,1.008,0,0,1,.8-.3,1.024,1.024,0,0,1,.8.3,1.067,1.067,0,0,1,.273.742,1.032,1.032,0,0,1-.273.732,1.043,1.043,0,0,1-.8.293,1.026,1.026,0,0,1-.8-.293A1.043,1.043,0,0,1,115.391-13.369Zm6.543,11.895h6.182V0h-8.389V-1.328l5.83-7.744h-5.742v-1.494h8.008v1.279ZM136.67,0a3.8,3.8,0,0,1-.254-1.113A4.031,4.031,0,0,1,133.408.2a3.73,3.73,0,0,1-2.563-.884,2.859,2.859,0,0,1-1-2.241A2.987,2.987,0,0,1,131.1-5.493a5.916,5.916,0,0,1,3.53-.913h1.758v-.83a2.029,2.029,0,0,0-.566-1.509,2.276,2.276,0,0,0-1.67-.562,2.634,2.634,0,0,0-1.621.488,1.439,1.439,0,0,0-.654,1.182h-1.816a2.493,2.493,0,0,1,.562-1.528,3.832,3.832,0,0,1,1.523-1.167,5.125,5.125,0,0,1,2.114-.43,4.177,4.177,0,0,1,2.861.913,3.294,3.294,0,0,1,1.074,2.515v4.863a5.946,5.946,0,0,0,.371,2.314V0Zm-3-1.377a3.175,3.175,0,0,0,1.611-.439,2.658,2.658,0,0,0,1.1-1.143V-5.127h-1.416q-3.32,0-3.32,1.943a1.645,1.645,0,0,0,.566,1.328A2.177,2.177,0,0,0,133.672-1.377Zm6.914-3.994a6.19,6.19,0,0,1,1.152-3.911,3.644,3.644,0,0,1,3.018-1.479,3.665,3.665,0,0,1,2.939,1.27V-15H149.5V0h-1.66l-.088-1.133A3.679,3.679,0,0,1,144.736.2a3.609,3.609,0,0,1-2.993-1.5,6.26,6.26,0,0,1-1.157-3.926Zm1.807.205a4.687,4.687,0,0,0,.742,2.813,2.4,2.4,0,0,0,2.051,1.016,2.636,2.636,0,0,0,2.51-1.543V-7.734a2.656,2.656,0,0,0-2.49-1.494,2.411,2.411,0,0,0-2.07,1.025A5.16,5.16,0,0,0,142.393-5.166ZM158.828,0a3.8,3.8,0,0,1-.254-1.113A4.031,4.031,0,0,1,155.566.2,3.73,3.73,0,0,1,153-.688a2.859,2.859,0,0,1-1-2.241,2.987,2.987,0,0,1,1.255-2.563,5.916,5.916,0,0,1,3.53-.913h1.758v-.83a2.029,2.029,0,0,0-.566-1.509,2.276,2.276,0,0,0-1.67-.562,2.634,2.634,0,0,0-1.621.488,1.439,1.439,0,0,0-.654,1.182h-1.816a2.493,2.493,0,0,1,.562-1.528,3.832,3.832,0,0,1,1.523-1.167,5.125,5.125,0,0,1,2.114-.43,4.177,4.177,0,0,1,2.861.913,3.294,3.294,0,0,1,1.074,2.515v4.863a5.946,5.946,0,0,0,.371,2.314V0Zm-3-1.377a3.175,3.175,0,0,0,1.611-.439,2.658,2.658,0,0,0,1.1-1.143V-5.127h-1.416q-3.32,0-3.32,1.943a1.645,1.645,0,0,0,.566,1.328A2.177,2.177,0,0,0,155.83-1.377Z" transform="translate(913.613 6064.082)" fill="#003b59"/>
    <path id="Trazado_884275" data-name="Trazado 884275" d="M37.172,0A37.172,37.172,0,1,1,0,37.172,37.172,37.172,0,0,1,37.172,0Z" transform="matrix(0.995, -0.099, 0.099, 0.995, 811.078, 6004.842)" fill="none" stroke="#e1e4e1" stroke-width="9.782"/>
    <path id="Trazado_883929" data-name="Trazado 883929" d="M595.021,195.4a37.172,37.172,0,0,1,37.172,37.172" transform="translate(256.711 5805.6)" fill="none" stroke="#ffd737" stroke-miterlimit="10" stroke-width="9.782"/>
    <path id="Trazado_884276" data-name="Trazado 884276" d="M0,0H1086.014V390.823H0Z" transform="translate(256.711 5805.6)" fill="none"/>
    <path id="Trazado_884277" data-name="Trazado 884277" d="M8.409,0H5.756V-12.816L1.842-11.478v-2.247l6.227-2.291h.34ZM24.36-6.72a8.705,8.705,0,0,1-1.288,5.191A4.55,4.55,0,0,1,19.152.219a4.61,4.61,0,0,1-3.9-1.7,8.336,8.336,0,0,1-1.343-5.048V-9.3A8.574,8.574,0,0,1,15.2-14.46a4.592,4.592,0,0,1,3.93-1.721A4.617,4.617,0,0,1,23.039-14.5,8.312,8.312,0,0,1,24.36-9.483ZM21.7-9.7A6.754,6.754,0,0,0,21.082-13a2.1,2.1,0,0,0-1.951-1.047,2.094,2.094,0,0,0-1.919.992,6.242,6.242,0,0,0-.647,3.1v3.618A6.929,6.929,0,0,0,17.19-3a2.1,2.1,0,0,0,1.962,1.1,2.062,2.062,0,0,0,1.9-1.014A6.519,6.519,0,0,0,21.7-6.1Zm4.911-3.19a3.2,3.2,0,0,1,.932-2.373,3.317,3.317,0,0,1,2.445-.926,3.327,3.327,0,0,1,2.461.926,3.284,3.284,0,0,1,.926,2.428v.789a3.181,3.181,0,0,1-.926,2.357,3.309,3.309,0,0,1-2.439.921,3.414,3.414,0,0,1-2.439-.9,3.193,3.193,0,0,1-.959-2.439Zm1.864.844a1.751,1.751,0,0,0,.422,1.222,1.43,1.43,0,0,0,1.113.466,1.4,1.4,0,0,0,1.1-.466,1.83,1.83,0,0,0,.417-1.266v-.8A1.771,1.771,0,0,0,31.1-14.12a1.422,1.422,0,0,0-1.113-.471,1.381,1.381,0,0,0-1.1.477,1.855,1.855,0,0,0-.411,1.255Zm5.81,8.135a3.138,3.138,0,0,1,.954-2.379,3.383,3.383,0,0,1,2.434-.91,3.378,3.378,0,0,1,2.439.91,3.244,3.244,0,0,1,.948,2.456v.778a3.207,3.207,0,0,1-.915,2.352,3.289,3.289,0,0,1-2.45.926A3.387,3.387,0,0,1,35.219-.7a3.226,3.226,0,0,1-.937-2.417Zm1.864.855a1.748,1.748,0,0,0,.433,1.222,1.435,1.435,0,0,0,1.113.477,1.391,1.391,0,0,0,1.1-.455,1.871,1.871,0,0,0,.4-1.277v-.822a1.733,1.733,0,0,0-.428-1.228,1.429,1.429,0,0,0-1.1-.46,1.425,1.425,0,0,0-1.1.46,1.811,1.811,0,0,0-.422,1.272ZM30.554-1.195l-1.37-.789L36.978-14.46l1.37.789Z" transform="translate(830.727 6046.732)" fill="#7d7e80"/>
    <path id="Trazado_884278" data-name="Trazado 884278" d="M14.341-8.335h2.168v3.809H14.341V0H9.4V-4.526H1.157L.864-7.544,9.4-21.284v-.044h4.937Zm-8.774,0H9.4V-14.9l-.308.5ZM21.812-4.79a2.81,2.81,0,0,1,1.948.7,2.283,2.283,0,0,1,.776,1.78,2.283,2.283,0,0,1-.776,1.78,2.81,2.81,0,0,1-1.948.7,2.786,2.786,0,0,1-1.956-.7,2.3,2.3,0,0,1-.769-1.772,2.3,2.3,0,0,1,.769-1.772A2.786,2.786,0,0,1,21.812-4.79Zm6.226-5.64,1.3-10.9H41.807v3.838H33.354l-.483,4.233a5.838,5.838,0,0,1,1.384-.542,6.342,6.342,0,0,1,1.677-.234,6.257,6.257,0,0,1,4.885,1.882A7.582,7.582,0,0,1,42.524-6.87a7.569,7.569,0,0,1-.916,3.713A6.293,6.293,0,0,1,39.038-.6a8.116,8.116,0,0,1-3.911.894,8.727,8.727,0,0,1-3.765-.828,6.755,6.755,0,0,1-2.754-2.271,5.52,5.52,0,0,1-.981-3.259h4.951a2.809,2.809,0,0,0,.747,1.86,2.369,2.369,0,0,0,1.772.688q2.49,0,2.49-3.691,0-3.413-3.047-3.413a3.038,3.038,0,0,0-2.578,1.113ZM60,0H45.117V-3.223l6.855-7.207q2.534-2.886,2.534-4.585a3.189,3.189,0,0,0-.6-2.095,2.144,2.144,0,0,0-1.743-.718,2.171,2.171,0,0,0-1.831.959,3.943,3.943,0,0,0-.7,2.4H44.678a7,7,0,0,1,.981-3.625,6.882,6.882,0,0,1,2.725-2.6,8.094,8.094,0,0,1,3.9-.937,7.962,7.962,0,0,1,5.325,1.6,5.7,5.7,0,0,1,1.868,4.585A6.658,6.658,0,0,1,59-13a10.76,10.76,0,0,1-1.458,2.5A36.715,36.715,0,0,1,54.36-6.987L51.606-3.809H60ZM77.3-8.716a10.184,10.184,0,0,1-1.941,6.665A6.707,6.707,0,0,1,69.888.293,6.743,6.743,0,0,1,64.38-2.065a10.168,10.168,0,0,1-1.948-6.65v-3.9a10.184,10.184,0,0,1,1.941-6.665,6.724,6.724,0,0,1,5.486-2.344,6.726,6.726,0,0,1,5.493,2.358A10.193,10.193,0,0,1,77.3-12.6Zm-4.937-4.526a7.607,7.607,0,0,0-.6-3.435,2.008,2.008,0,0,0-1.9-1.135,1.96,1.96,0,0,0-1.853,1.055,7.166,7.166,0,0,0-.623,3.193v5.449a7.664,7.664,0,0,0,.6,3.494,2.015,2.015,0,0,0,1.9,1.106,1.988,1.988,0,0,0,1.86-1.077,7.317,7.317,0,0,0,.615-3.376Z" transform="translate(913.613 6136.314)" fill="#003b59"/>
    <path id="Trazado_884279" data-name="Trazado 884279" transform="translate(992.173 6136.314)" fill="#003b59"/>
    <path id="Trazado_884280" data-name="Trazado 884280" d="M4.9-3.729l-.879.879V0H.9V-14.223H4.016v7.551l.315-.416,2.35-2.924H10.42L6.912-5.895,10.651,0H7.079Zm14.991-.379,1.009-5.9h2.989L21.524,0H18.887L17.23-5.941,15.564,0H12.927l-2.36-10.012h2.989l.99,6.043,1.592-6.043h2.175Z" transform="translate(998.662 6136.314)" fill="#003b59"/>
    <path id="Trazado_884281" data-name="Trazado 884281" d="M1.65,0V-14.219H6.3a5.4,5.4,0,0,1,3.481.957,3.449,3.449,0,0,1,1.167,2.832,2.888,2.888,0,0,1-.566,1.763A3.672,3.672,0,0,1,8.838-7.48a3.3,3.3,0,0,1,1.821,1.226A3.517,3.517,0,0,1,11.328-4.1a3.8,3.8,0,0,1-1.24,3.008A5.129,5.129,0,0,1,6.582,0ZM3.525-6.65v5.117h3.1a2.981,2.981,0,0,0,2.065-.679,2.384,2.384,0,0,0,.757-1.87q0-2.568-2.793-2.568Zm0-1.5H6.357A2.973,2.973,0,0,0,8.325-8.77a2.061,2.061,0,0,0,.737-1.67,2.026,2.026,0,0,0-.684-1.7,3.362,3.362,0,0,0-2.08-.532H3.525ZM15.781,0H13.975V-10.566h1.807ZM13.828-13.369a1.078,1.078,0,0,1,.269-.742,1.008,1.008,0,0,1,.8-.3,1.024,1.024,0,0,1,.8.3,1.067,1.067,0,0,1,.273.742,1.032,1.032,0,0,1-.273.732,1.043,1.043,0,0,1-.8.293,1.026,1.026,0,0,1-.8-.293A1.043,1.043,0,0,1,13.828-13.369Zm4.365,7.988a6.241,6.241,0,0,1,.61-2.793,4.553,4.553,0,0,1,1.7-1.914,4.626,4.626,0,0,1,2.485-.674,4.456,4.456,0,0,1,3.491,1.494,5.748,5.748,0,0,1,1.333,3.975v.127A6.3,6.3,0,0,1,27.222-2.4,4.486,4.486,0,0,1,25.532-.488,4.679,4.679,0,0,1,23.008.2,4.445,4.445,0,0,1,19.526-1.3a5.719,5.719,0,0,1-1.333-3.955Zm1.816.215a4.52,4.52,0,0,0,.815,2.822,2.61,2.61,0,0,0,2.183,1.064A2.594,2.594,0,0,0,25.2-2.358a4.943,4.943,0,0,0,.811-3.022A4.513,4.513,0,0,0,25.181-8.2a2.623,2.623,0,0,0-2.192-1.079A2.594,2.594,0,0,0,20.83-8.213,4.906,4.906,0,0,0,20.01-5.166Zm11.768-5.4.049,1.172a3.9,3.9,0,0,1,3.135-1.367,3.021,3.021,0,0,1,3.018,1.7,4,4,0,0,1,1.372-1.23,4.052,4.052,0,0,1,2-.469q3.477,0,3.535,3.682V0H43.076V-6.973a2.426,2.426,0,0,0-.518-1.694,2.279,2.279,0,0,0-1.738-.562,2.4,2.4,0,0,0-1.67.6,2.436,2.436,0,0,0-.771,1.616V0H36.563V-6.924a2.016,2.016,0,0,0-2.256-2.3,2.417,2.417,0,0,0-2.432,1.514V0H30.068V-10.566ZM54.131,0a3.8,3.8,0,0,1-.254-1.113A4.031,4.031,0,0,1,50.869.2a3.73,3.73,0,0,1-2.563-.884,2.859,2.859,0,0,1-1-2.241A2.987,2.987,0,0,1,48.56-5.493a5.916,5.916,0,0,1,3.53-.913h1.758v-.83a2.029,2.029,0,0,0-.566-1.509,2.276,2.276,0,0,0-1.67-.562,2.634,2.634,0,0,0-1.621.488,1.439,1.439,0,0,0-.654,1.182H47.52a2.493,2.493,0,0,1,.562-1.528A3.832,3.832,0,0,1,49.6-10.332a5.125,5.125,0,0,1,2.114-.43,4.177,4.177,0,0,1,2.861.913,3.294,3.294,0,0,1,1.074,2.515v4.863a5.946,5.946,0,0,0,.371,2.314V0Zm-3-1.377a3.175,3.175,0,0,0,1.611-.439,2.658,2.658,0,0,0,1.1-1.143V-5.127H52.432q-3.32,0-3.32,1.943a1.645,1.645,0,0,0,.566,1.328A2.177,2.177,0,0,0,51.133-1.377ZM64.639-2.8a1.33,1.33,0,0,0-.552-1.138,5.311,5.311,0,0,0-1.924-.7,9.1,9.1,0,0,1-2.178-.7,3.1,3.1,0,0,1-1.191-.977,2.336,2.336,0,0,1-.386-1.348,2.741,2.741,0,0,1,1.1-2.2,4.291,4.291,0,0,1,2.808-.9,4.415,4.415,0,0,1,2.915.928,2.947,2.947,0,0,1,1.118,2.373H64.531A1.631,1.631,0,0,0,63.9-8.74a2.36,2.36,0,0,0-1.587-.537,2.47,2.47,0,0,0-1.543.43,1.353,1.353,0,0,0-.557,1.123,1.1,1.1,0,0,0,.518.986A6.368,6.368,0,0,0,62.6-6.1a9.744,9.744,0,0,1,2.192.723A3.2,3.2,0,0,1,66.04-4.37a2.485,2.485,0,0,1,.405,1.44A2.7,2.7,0,0,1,65.313-.659,4.752,4.752,0,0,1,62.373.2a5.321,5.321,0,0,1-2.246-.449A3.653,3.653,0,0,1,58.6-1.509a3.025,3.025,0,0,1-.552-1.743h1.807a1.87,1.87,0,0,0,.728,1.44,2.822,2.822,0,0,0,1.792.532,2.913,2.913,0,0,0,1.646-.415A1.275,1.275,0,0,0,64.639-2.8ZM75.322,0a3.8,3.8,0,0,1-.254-1.113A4.031,4.031,0,0,1,72.061.2,3.73,3.73,0,0,1,69.5-.688a2.859,2.859,0,0,1-1-2.241,2.987,2.987,0,0,1,1.255-2.563,5.916,5.916,0,0,1,3.53-.913h1.758v-.83a2.029,2.029,0,0,0-.566-1.509,2.276,2.276,0,0,0-1.67-.562,2.634,2.634,0,0,0-1.621.488,1.439,1.439,0,0,0-.654,1.182H68.711a2.493,2.493,0,0,1,.562-1.528A3.832,3.832,0,0,1,70.8-10.332a5.125,5.125,0,0,1,2.114-.43,4.177,4.177,0,0,1,2.861.913,3.294,3.294,0,0,1,1.074,2.515v4.863a5.946,5.946,0,0,0,.371,2.314V0Zm-3-1.377a3.175,3.175,0,0,0,1.611-.439,2.658,2.658,0,0,0,1.1-1.143V-5.127H73.623q-3.32,0-3.32,1.943a1.645,1.645,0,0,0,.566,1.328A2.177,2.177,0,0,0,72.324-1.377Z" transform="translate(913.613 6160.314)" fill="#003b59"/>
    <path id="Trazado_884282" data-name="Trazado 884282" d="M37.172,0A37.172,37.172,0,1,1,0,37.172,37.172,37.172,0,0,1,37.172,0Z" transform="translate(814.561 6097.232)" fill="none" stroke="#e1e4e1" stroke-width="9.782"/>
    <path id="Trazado_883930" data-name="Trazado 883930" d="M595.021,291.632c13.829,1.085,25.47,7.945,31.9,17.555" transform="translate(256.711 5805.6)" fill="none" stroke="#00a8ff" stroke-miterlimit="10" stroke-width="9.782"/>
    <path id="Trazado_884283" data-name="Trazado 884283" d="M0,0H1086.014V390.823H0Z" transform="translate(256.711 5805.6)" fill="none"/>
    <path id="Trazado_884284" data-name="Trazado 884284" d="M8.749-6.676A4.173,4.173,0,0,1,5.624-5.262,4.173,4.173,0,0,1,2.269-6.737a5.79,5.79,0,0,1-1.25-3.875,6.354,6.354,0,0,1,.636-2.861,4.741,4.741,0,0,1,1.809-2,5.132,5.132,0,0,1,2.719-.713,4.611,4.611,0,0,1,3.826,1.8,7.573,7.573,0,0,1,1.414,4.813v.745q0,4.319-1.951,6.589A7.346,7.346,0,0,1,3.651.066H3.333v-2.2h.384A5.455,5.455,0,0,0,7.334-3.272,4.73,4.73,0,0,0,8.749-6.676ZM6.183-7.345a2.688,2.688,0,0,0,1.5-.46A3.034,3.034,0,0,0,8.77-9.077v-1.041a5,5,0,0,0-.724-2.839,2.18,2.18,0,0,0-1.875-1.074,2.154,2.154,0,0,0-1.836.948,3.986,3.986,0,0,0-.685,2.4,3.937,3.937,0,0,0,.691,2.423A2.188,2.188,0,0,0,6.183-7.345Zm7.663-5.547a3.2,3.2,0,0,1,.932-2.373,3.317,3.317,0,0,1,2.445-.926,3.327,3.327,0,0,1,2.461.926,3.284,3.284,0,0,1,.926,2.428v.789a3.181,3.181,0,0,1-.926,2.357,3.309,3.309,0,0,1-2.439.921,3.414,3.414,0,0,1-2.439-.9,3.193,3.193,0,0,1-.959-2.439Zm1.864.844a1.751,1.751,0,0,0,.422,1.222,1.43,1.43,0,0,0,1.113.466,1.4,1.4,0,0,0,1.1-.466,1.83,1.83,0,0,0,.417-1.266v-.8a1.771,1.771,0,0,0-.422-1.228,1.422,1.422,0,0,0-1.113-.471,1.381,1.381,0,0,0-1.1.477,1.855,1.855,0,0,0-.411,1.255Zm5.81,8.135a3.138,3.138,0,0,1,.954-2.379,3.383,3.383,0,0,1,2.434-.91,3.378,3.378,0,0,1,2.439.91A3.244,3.244,0,0,1,28.3-3.837v.778A3.207,3.207,0,0,1,27.38-.707a3.289,3.289,0,0,1-2.45.926A3.387,3.387,0,0,1,22.458-.7a3.226,3.226,0,0,1-.937-2.417Zm1.864.855a1.748,1.748,0,0,0,.433,1.222,1.435,1.435,0,0,0,1.113.477,1.391,1.391,0,0,0,1.1-.455,1.871,1.871,0,0,0,.4-1.277v-.822A1.733,1.733,0,0,0,26-5.142a1.429,1.429,0,0,0-1.1-.46,1.425,1.425,0,0,0-1.1.46,1.811,1.811,0,0,0-.422,1.272ZM17.793-1.195l-1.37-.789L24.217-14.46l1.37.789Z" transform="translate(837.768 6140.966)" fill="#7d7e80"/>
    <path id="Trazado_884285" data-name="Trazado 884285" d="M37.172,0A37.172,37.172,0,1,1,0,37.172,37.172,37.172,0,0,1,37.172,0Z" transform="translate(814.561 5902.072)" fill="none" stroke="#e1e4e1" stroke-width="9.782"/>
    <path id="Trazado_883931" data-name="Trazado 883931" d="M557.849,133.644A37.143,37.143,0,1,1,579.9,167.612" transform="translate(256.711 5805.6)" fill="none" stroke="#22a53c" stroke-miterlimit="10" stroke-width="9.782"/>
    <path id="Trazado_884286" data-name="Trazado 884286" d="M0,0H1086.014V390.823H0Z" transform="translate(256.711 5805.6)" fill="none"/>
    <path id="Trazado_884287" data-name="Trazado 884287" d="M11.818-14.482,5.438,0h-2.8l6.37-13.824H.756v-2.138H11.818ZM24.36-6.72a8.705,8.705,0,0,1-1.288,5.191A4.55,4.55,0,0,1,19.152.219a4.61,4.61,0,0,1-3.9-1.7,8.336,8.336,0,0,1-1.343-5.048V-9.3A8.574,8.574,0,0,1,15.2-14.46a4.592,4.592,0,0,1,3.93-1.721A4.617,4.617,0,0,1,23.039-14.5,8.312,8.312,0,0,1,24.36-9.483ZM21.7-9.7A6.754,6.754,0,0,0,21.082-13a2.1,2.1,0,0,0-1.951-1.047,2.094,2.094,0,0,0-1.919.992,6.242,6.242,0,0,0-.647,3.1v3.618A6.929,6.929,0,0,0,17.19-3a2.1,2.1,0,0,0,1.962,1.1,2.062,2.062,0,0,0,1.9-1.014A6.519,6.519,0,0,0,21.7-6.1Zm4.911-3.19a3.2,3.2,0,0,1,.932-2.373,3.317,3.317,0,0,1,2.445-.926,3.327,3.327,0,0,1,2.461.926,3.284,3.284,0,0,1,.926,2.428v.789a3.181,3.181,0,0,1-.926,2.357,3.309,3.309,0,0,1-2.439.921,3.414,3.414,0,0,1-2.439-.9,3.193,3.193,0,0,1-.959-2.439Zm1.864.844a1.751,1.751,0,0,0,.422,1.222,1.43,1.43,0,0,0,1.113.466,1.4,1.4,0,0,0,1.1-.466,1.83,1.83,0,0,0,.417-1.266v-.8A1.771,1.771,0,0,0,31.1-14.12a1.422,1.422,0,0,0-1.113-.471,1.381,1.381,0,0,0-1.1.477,1.855,1.855,0,0,0-.411,1.255Zm5.81,8.135a3.138,3.138,0,0,1,.954-2.379,3.383,3.383,0,0,1,2.434-.91,3.378,3.378,0,0,1,2.439.91,3.244,3.244,0,0,1,.948,2.456v.778a3.207,3.207,0,0,1-.915,2.352,3.289,3.289,0,0,1-2.45.926A3.387,3.387,0,0,1,35.219-.7a3.226,3.226,0,0,1-.937-2.417Zm1.864.855a1.748,1.748,0,0,0,.433,1.222,1.435,1.435,0,0,0,1.113.477,1.391,1.391,0,0,0,1.1-.455,1.871,1.871,0,0,0,.4-1.277v-.822a1.733,1.733,0,0,0-.428-1.228,1.429,1.429,0,0,0-1.1-.46,1.425,1.425,0,0,0-1.1.46,1.811,1.811,0,0,0-.422,1.272ZM30.554-1.195l-1.37-.789L36.978-14.46l1.37.789Z" transform="translate(830.726 5945.806)" fill="#7d7e80"/>
    <path id="Trazado_884288" data-name="Trazado 884288" d="M14.307-16.492H8.215V0h-1.5V-16.492H.635v-1.282H14.307ZM13.619-6.8a7.772,7.772,0,0,1,.739-3.43A5.629,5.629,0,0,1,16.445-12.6a5.623,5.623,0,0,1,3.058-.848A5.433,5.433,0,0,1,23.776-11.6a7.126,7.126,0,0,1,1.636,4.9V-6.4a7.84,7.84,0,0,1-.739,3.448A5.514,5.514,0,0,1,22.592-.586a5.707,5.707,0,0,1-3.064.83,5.438,5.438,0,0,1-4.266-1.849,7.11,7.11,0,0,1-1.642-4.9Zm1.465.4a5.993,5.993,0,0,0,1.227,3.888,3.935,3.935,0,0,0,3.217,1.52,3.922,3.922,0,0,0,3.2-1.52,6.191,6.191,0,0,0,1.227-4.01V-6.8A6.719,6.719,0,0,0,23.4-9.57a4.512,4.512,0,0,0-1.575-1.947,4.024,4.024,0,0,0-2.319-.69,3.9,3.9,0,0,0-3.186,1.532,6.2,6.2,0,0,0-1.233,4.01ZM30.7-16.589v3.381h2.734v1.2H30.7v8.8a2.753,2.753,0,0,0,.4,1.636,1.539,1.539,0,0,0,1.324.537A9.088,9.088,0,0,0,33.6-1.16l.061,1.2A4.734,4.734,0,0,1,32.1.244a2.605,2.605,0,0,1-2.185-.873,4.109,4.109,0,0,1-.684-2.57v-8.813H26.8v-1.2h2.429v-3.381ZM44.8,0a6.908,6.908,0,0,1-.281-1.843A5.094,5.094,0,0,1,42.556-.3a6,6,0,0,1-2.521.543A4.427,4.427,0,0,1,36.953-.818,3.46,3.46,0,0,1,35.775-3.5,3.535,3.535,0,0,1,37.38-6.555a7.713,7.713,0,0,1,4.474-1.123H44.5v-1.5a2.893,2.893,0,0,0-.873-2.228,3.608,3.608,0,0,0-2.545-.812,3.983,3.983,0,0,0-2.527.781,2.321,2.321,0,0,0-1,1.88L36.092-9.57A3.4,3.4,0,0,1,37.557-12.3a5.641,5.641,0,0,1,3.6-1.154,5.145,5.145,0,0,1,3.485,1.1,3.964,3.964,0,0,1,1.312,3.082v6.25a7.752,7.752,0,0,0,.4,2.869V0Zm-4.59-1.05a4.9,4.9,0,0,0,2.618-.708A4.166,4.166,0,0,0,44.5-3.65V-6.555H41.891a6.546,6.546,0,0,0-3.418.8,2.4,2.4,0,0,0-1.233,2.13,2.361,2.361,0,0,0,.824,1.843A3.1,3.1,0,0,0,40.206-1.05ZM51.486,0H50.021V-18.75h1.465ZM66.415-.989a3.857,3.857,0,0,0,2.557-.861,3.029,3.029,0,0,0,1.117-2.228h1.4a4.136,4.136,0,0,1-.757,2.2A4.742,4.742,0,0,1,68.887-.317a5.573,5.573,0,0,1-2.472.562,5.1,5.1,0,0,1-4.12-1.807,7.3,7.3,0,0,1-1.52-4.858V-6.86a8.257,8.257,0,0,1,.684-3.455,5.268,5.268,0,0,1,1.959-2.319,5.408,5.408,0,0,1,2.985-.818,5.093,5.093,0,0,1,3.583,1.294,4.718,4.718,0,0,1,1.508,3.406h-1.4a3.592,3.592,0,0,0-1.117-2.5,3.617,3.617,0,0,0-2.57-.952,3.642,3.642,0,0,0-3.07,1.428,6.462,6.462,0,0,0-1.093,4v.427A6.318,6.318,0,0,0,63.332-2.4,3.667,3.667,0,0,0,66.415-.989ZM82.748,0a6.908,6.908,0,0,1-.281-1.843A5.094,5.094,0,0,1,80.508-.3a6,6,0,0,1-2.521.543A4.427,4.427,0,0,1,74.9-.818,3.46,3.46,0,0,1,73.727-3.5a3.535,3.535,0,0,1,1.605-3.052,7.713,7.713,0,0,1,4.474-1.123h2.649v-1.5a2.893,2.893,0,0,0-.873-2.228,3.608,3.608,0,0,0-2.545-.812,3.983,3.983,0,0,0-2.527.781,2.321,2.321,0,0,0-1,1.88L74.044-9.57A3.4,3.4,0,0,1,75.509-12.3a5.641,5.641,0,0,1,3.6-1.154,5.145,5.145,0,0,1,3.485,1.1,3.964,3.964,0,0,1,1.312,3.082v6.25a7.752,7.752,0,0,0,.4,2.869V0Zm-4.59-1.05a4.9,4.9,0,0,0,2.618-.708A4.166,4.166,0,0,0,82.455-3.65V-6.555H79.842a6.546,6.546,0,0,0-3.418.8,2.4,2.4,0,0,0-1.233,2.13,2.361,2.361,0,0,0,.824,1.843A3.1,3.1,0,0,0,78.158-1.05ZM98.422-6.47a7.954,7.954,0,0,1-1.367,4.9A4.355,4.355,0,0,1,93.392.244a4.889,4.889,0,0,1-4.15-1.9V5.078H87.789V-13.208h1.355l.073,1.868a4.687,4.687,0,0,1,4.138-2.112,4.393,4.393,0,0,1,3.717,1.794,8.13,8.13,0,0,1,1.349,4.98Zm-1.465-.256a6.793,6.793,0,0,0-1.038-3.992,3.346,3.346,0,0,0-2.893-1.465,4.044,4.044,0,0,0-2.307.647,4.069,4.069,0,0,0-1.477,1.88V-3.32a3.879,3.879,0,0,0,1.5,1.733,4.33,4.33,0,0,0,2.307.6A3.315,3.315,0,0,0,95.925-2.46,7.4,7.4,0,0,0,96.957-6.726ZM109.994,0a6.908,6.908,0,0,1-.281-1.843A5.094,5.094,0,0,1,107.754-.3a6,6,0,0,1-2.521.543,4.427,4.427,0,0,1-3.082-1.062A3.46,3.46,0,0,1,100.973-3.5a3.535,3.535,0,0,1,1.605-3.052,7.713,7.713,0,0,1,4.474-1.123H109.7v-1.5a2.893,2.893,0,0,0-.873-2.228,3.608,3.608,0,0,0-2.545-.812,3.983,3.983,0,0,0-2.527.781,2.321,2.321,0,0,0-1,1.88L101.29-9.57a3.4,3.4,0,0,1,1.465-2.728,5.641,5.641,0,0,1,3.6-1.154,5.145,5.145,0,0,1,3.485,1.1,3.964,3.964,0,0,1,1.312,3.082v6.25a7.752,7.752,0,0,0,.4,2.869V0ZM105.4-1.05a4.9,4.9,0,0,0,2.618-.708A4.166,4.166,0,0,0,109.7-3.65V-6.555h-2.612a6.546,6.546,0,0,0-3.418.8,2.4,2.4,0,0,0-1.233,2.13,2.361,2.361,0,0,0,.824,1.843A3.1,3.1,0,0,0,105.4-1.05Zm14.526.061a3.857,3.857,0,0,0,2.557-.861A3.029,3.029,0,0,0,123.6-4.077h1.4a4.136,4.136,0,0,1-.757,2.2A4.742,4.742,0,0,1,122.4-.317a5.573,5.573,0,0,1-2.472.562,5.1,5.1,0,0,1-4.12-1.807,7.3,7.3,0,0,1-1.52-4.858V-6.86a8.257,8.257,0,0,1,.684-3.455,5.268,5.268,0,0,1,1.959-2.319,5.408,5.408,0,0,1,2.985-.818,5.093,5.093,0,0,1,3.583,1.294,4.718,4.718,0,0,1,1.508,3.406h-1.4a3.592,3.592,0,0,0-1.117-2.5,3.617,3.617,0,0,0-2.57-.952,3.642,3.642,0,0,0-3.07,1.428,6.462,6.462,0,0,0-1.093,4v.427A6.318,6.318,0,0,0,116.848-2.4,3.667,3.667,0,0,0,119.93-.989ZM129.562,0H128.1V-13.208h1.465Zm-1.721-17.029a.989.989,0,0,1,.269-.7.955.955,0,0,1,.732-.287.975.975,0,0,1,.739.287.977.977,0,0,1,.275.7.956.956,0,0,1-.275.7.986.986,0,0,1-.739.281.966.966,0,0,1-.732-.281A.968.968,0,0,1,127.841-17.029Zm5.1,10.3a7.961,7.961,0,0,1,1.373-4.9,4.42,4.42,0,0,1,3.729-1.825,4.593,4.593,0,0,1,4.077,2.112v-7.41h1.453V0h-1.367l-.061-1.758a4.717,4.717,0,0,1-4.126,2,4.4,4.4,0,0,1-3.68-1.837,8,8,0,0,1-1.4-4.962Zm1.477.256a6.888,6.888,0,0,0,1.013,3.986,3.277,3.277,0,0,0,2.856,1.459,3.932,3.932,0,0,0,3.833-2.38v-6.2a3.9,3.9,0,0,0-3.809-2.576,3.316,3.316,0,0,0-2.869,1.447A7.36,7.36,0,0,0,134.42-6.47ZM155.758,0a6.908,6.908,0,0,1-.281-1.843A5.094,5.094,0,0,1,153.518-.3,6,6,0,0,1,151,.244a4.427,4.427,0,0,1-3.082-1.062A3.46,3.46,0,0,1,146.737-3.5a3.535,3.535,0,0,1,1.605-3.052,7.713,7.713,0,0,1,4.474-1.123h2.649v-1.5a2.893,2.893,0,0,0-.873-2.228,3.608,3.608,0,0,0-2.545-.812,3.983,3.983,0,0,0-2.527.781,2.321,2.321,0,0,0-1,1.88l-1.465-.012a3.4,3.4,0,0,1,1.465-2.728,5.641,5.641,0,0,1,3.6-1.154,5.145,5.145,0,0,1,3.485,1.1,3.964,3.964,0,0,1,1.312,3.082v6.25a7.752,7.752,0,0,0,.4,2.869V0Zm-4.59-1.05a4.9,4.9,0,0,0,2.618-.708,4.166,4.166,0,0,0,1.678-1.892V-6.555h-2.612a6.546,6.546,0,0,0-3.418.8,2.4,2.4,0,0,0-1.233,2.13,2.361,2.361,0,0,0,.824,1.843A3.1,3.1,0,0,0,151.168-1.05Zm9.058-5.676a7.961,7.961,0,0,1,1.373-4.9,4.42,4.42,0,0,1,3.729-1.825,4.593,4.593,0,0,1,4.077,2.112v-7.41h1.453V0h-1.367l-.061-1.758a4.717,4.717,0,0,1-4.126,2,4.4,4.4,0,0,1-3.68-1.837,8,8,0,0,1-1.4-4.962Zm1.477.256a6.888,6.888,0,0,0,1.013,3.986,3.277,3.277,0,0,0,2.856,1.459,3.932,3.932,0,0,0,3.833-2.38v-6.2a3.9,3.9,0,0,0-3.809-2.576,3.316,3.316,0,0,0-2.869,1.447A7.36,7.36,0,0,0,161.7-6.47ZM182.418,0h-1.465V-13.208h1.465ZM180.7-17.029a.989.989,0,0,1,.269-.7.955.955,0,0,1,.732-.287.975.975,0,0,1,.739.287.977.977,0,0,1,.275.7.956.956,0,0,1-.275.7.986.986,0,0,1-.739.281.966.966,0,0,1-.732-.281A.968.968,0,0,1,180.7-17.029Zm7.08,3.821.049,2.258a5.245,5.245,0,0,1,1.855-1.862,4.822,4.822,0,0,1,2.454-.641,3.962,3.962,0,0,1,3.162,1.2,5.4,5.4,0,0,1,1.05,3.589V0h-1.453V-8.679a4.035,4.035,0,0,0-.751-2.637,2.941,2.941,0,0,0-2.362-.867,3.7,3.7,0,0,0-2.4.848,4.97,4.97,0,0,0-1.544,2.289V0h-1.453V-13.208Zm20.251,9.851a2.081,2.081,0,0,0-.873-1.746,6.731,6.731,0,0,0-2.631-1.031,11.868,11.868,0,0,1-2.728-.854,3.635,3.635,0,0,1-1.44-1.178,2.939,2.939,0,0,1-.47-1.685,3.143,3.143,0,0,1,1.306-2.582,5.276,5.276,0,0,1,3.345-1.019,5.43,5.43,0,0,1,3.546,1.093,3.506,3.506,0,0,1,1.337,2.85h-1.465a2.365,2.365,0,0,0-.97-1.929,3.818,3.818,0,0,0-2.448-.769,3.82,3.82,0,0,0-2.313.641,1.978,1.978,0,0,0-.873,1.666,1.8,1.8,0,0,0,.726,1.532,7.683,7.683,0,0,0,2.649.995,12.45,12.45,0,0,1,2.881.964,3.731,3.731,0,0,1,1.422,1.233,3.156,3.156,0,0,1,.464,1.746,3.164,3.164,0,0,1-1.349,2.673,5.763,5.763,0,0,1-3.522,1,5.916,5.916,0,0,1-3.741-1.117A3.438,3.438,0,0,1,199.447-3.7h1.465a2.54,2.54,0,0,0,1.08,2,4.416,4.416,0,0,0,2.631.714,4.151,4.151,0,0,0,2.466-.671A2.015,2.015,0,0,0,208.029-3.357Zm7.019-13.232v3.381h2.734v1.2h-2.734v8.8a2.753,2.753,0,0,0,.4,1.636,1.539,1.539,0,0,0,1.324.537,9.088,9.088,0,0,0,1.184-.122l.061,1.2a4.734,4.734,0,0,1-1.562.208,2.605,2.605,0,0,1-2.185-.873,4.109,4.109,0,0,1-.684-2.57v-8.813h-2.429v-1.2h2.429v-3.381ZM229.147,0a6.908,6.908,0,0,1-.281-1.843A5.094,5.094,0,0,1,226.907-.3a6,6,0,0,1-2.521.543A4.427,4.427,0,0,1,221.3-.818,3.46,3.46,0,0,1,220.126-3.5a3.535,3.535,0,0,1,1.605-3.052A7.713,7.713,0,0,1,226.2-7.678h2.649v-1.5a2.893,2.893,0,0,0-.873-2.228,3.608,3.608,0,0,0-2.545-.812,3.983,3.983,0,0,0-2.527.781,2.321,2.321,0,0,0-1,1.88l-1.465-.012a3.4,3.4,0,0,1,1.465-2.728,5.641,5.641,0,0,1,3.6-1.154,5.145,5.145,0,0,1,3.485,1.1,3.964,3.964,0,0,1,1.312,3.082v6.25a7.752,7.752,0,0,0,.4,2.869V0Zm-4.59-1.05a4.9,4.9,0,0,0,2.618-.708,4.166,4.166,0,0,0,1.678-1.892V-6.555h-2.612a6.546,6.546,0,0,0-3.418.8,2.4,2.4,0,0,0-1.233,2.13,2.361,2.361,0,0,0,.824,1.843A3.1,3.1,0,0,0,224.557-1.05ZM235.836,0h-1.465V-18.75h1.465Zm12.3,0a6.908,6.908,0,0,1-.281-1.843A5.094,5.094,0,0,1,245.9-.3a6,6,0,0,1-2.521.543A4.427,4.427,0,0,1,240.3-.818,3.46,3.46,0,0,1,239.12-3.5a3.535,3.535,0,0,1,1.605-3.052A7.713,7.713,0,0,1,245.2-7.678h2.649v-1.5a2.893,2.893,0,0,0-.873-2.228,3.608,3.608,0,0,0-2.545-.812,3.983,3.983,0,0,0-2.527.781,2.321,2.321,0,0,0-1,1.88l-1.465-.012A3.4,3.4,0,0,1,240.9-12.3a5.641,5.641,0,0,1,3.6-1.154,5.145,5.145,0,0,1,3.485,1.1A3.964,3.964,0,0,1,249.3-9.265v6.25a7.752,7.752,0,0,0,.4,2.869V0Zm-4.59-1.05a4.9,4.9,0,0,0,2.618-.708,4.166,4.166,0,0,0,1.678-1.892V-6.555h-2.612a6.546,6.546,0,0,0-3.418.8,2.4,2.4,0,0,0-1.233,2.13,2.361,2.361,0,0,0,.824,1.843A3.1,3.1,0,0,0,243.551-1.05Zm9.058-5.676a7.961,7.961,0,0,1,1.373-4.9,4.42,4.42,0,0,1,3.729-1.825,4.593,4.593,0,0,1,4.077,2.112v-7.41h1.453V0h-1.367l-.061-1.758a4.717,4.717,0,0,1-4.126,2,4.4,4.4,0,0,1-3.68-1.837,8,8,0,0,1-1.4-4.962Zm1.477.256A6.888,6.888,0,0,0,255.1-2.484a3.277,3.277,0,0,0,2.856,1.459,3.932,3.932,0,0,0,3.833-2.38v-6.2a3.9,3.9,0,0,0-3.809-2.576,3.316,3.316,0,0,0-2.869,1.447A7.36,7.36,0,0,0,254.086-6.47ZM275.424,0a6.908,6.908,0,0,1-.281-1.843A5.094,5.094,0,0,1,273.184-.3a6,6,0,0,1-2.521.543,4.427,4.427,0,0,1-3.082-1.062A3.46,3.46,0,0,1,266.4-3.5a3.535,3.535,0,0,1,1.605-3.052,7.713,7.713,0,0,1,4.474-1.123h2.649v-1.5a2.893,2.893,0,0,0-.873-2.228,3.608,3.608,0,0,0-2.545-.812,3.983,3.983,0,0,0-2.527.781,2.321,2.321,0,0,0-1,1.88L266.72-9.57a3.4,3.4,0,0,1,1.465-2.728,5.641,5.641,0,0,1,3.6-1.154,5.145,5.145,0,0,1,3.485,1.1,3.964,3.964,0,0,1,1.312,3.082v6.25a7.752,7.752,0,0,0,.4,2.869V0Zm-4.59-1.05a4.9,4.9,0,0,0,2.618-.708,4.166,4.166,0,0,0,1.678-1.892V-6.555h-2.612a6.546,6.546,0,0,0-3.418.8,2.4,2.4,0,0,0-1.233,2.13,2.361,2.361,0,0,0,.824,1.843A3.1,3.1,0,0,0,270.834-1.05Z" transform="translate(340.885 5962.349)" fill="#003b59"/>
    <path id="Trazado_884289" data-name="Trazado 884289" d="M16.187,0H1.3V-3.223L8.159-10.43q2.534-2.886,2.534-4.585a3.189,3.189,0,0,0-.6-2.095,2.144,2.144,0,0,0-1.743-.718,2.171,2.171,0,0,0-1.831.959,3.943,3.943,0,0,0-.7,2.4H.864A7,7,0,0,1,1.846-18.1,6.882,6.882,0,0,1,4.57-20.7a8.094,8.094,0,0,1,3.9-.937,7.962,7.962,0,0,1,5.325,1.6,5.7,5.7,0,0,1,1.868,4.585A6.658,6.658,0,0,1,15.19-13a10.76,10.76,0,0,1-1.458,2.5,36.715,36.715,0,0,1-3.186,3.508L7.793-3.809h8.394ZM30.6-21.636v3.882h-.22a7.411,7.411,0,0,0-4.548,1.326,5.6,5.6,0,0,0-2.19,3.684,5.773,5.773,0,0,1,4.219-1.641,5.385,5.385,0,0,1,4.409,2.021,8.153,8.153,0,0,1,1.641,5.3,7.466,7.466,0,0,1-.959,3.735A6.846,6.846,0,0,1,30.271-.667a7.7,7.7,0,0,1-3.816.959A7.961,7.961,0,0,1,22.4-.74a7.1,7.1,0,0,1-2.783-2.952,9.719,9.719,0,0,1-1.025-4.424v-1.978A12.312,12.312,0,0,1,20-16.018a10.248,10.248,0,0,1,4.036-4.124,11.538,11.538,0,0,1,5.815-1.494Zm-4.453,11.03a2.824,2.824,0,0,0-1.641.454,2.883,2.883,0,0,0-.981,1.113v1.479q0,4.043,2.8,4.043a2.27,2.27,0,0,0,1.882-1.011,4.119,4.119,0,0,0,.754-2.534,4.043,4.043,0,0,0-.769-2.556A2.46,2.46,0,0,0,26.147-10.605ZM50.933,0H36.05V-3.223l6.855-7.207q2.534-2.886,2.534-4.585a3.189,3.189,0,0,0-.6-2.095,2.144,2.144,0,0,0-1.743-.718,2.171,2.171,0,0,0-1.831.959,3.943,3.943,0,0,0-.7,2.4H35.61a7,7,0,0,1,.981-3.625,6.882,6.882,0,0,1,2.725-2.6,8.094,8.094,0,0,1,3.9-.937,7.962,7.962,0,0,1,5.325,1.6,5.7,5.7,0,0,1,1.868,4.585A6.658,6.658,0,0,1,49.937-13a10.76,10.76,0,0,1-1.458,2.5,36.715,36.715,0,0,1-3.186,3.508L42.539-3.809h8.394Zm5.625-4.79a2.81,2.81,0,0,1,1.948.7,2.283,2.283,0,0,1,.776,1.78,2.283,2.283,0,0,1-.776,1.78,2.81,2.81,0,0,1-1.948.7,2.786,2.786,0,0,1-1.956-.7,2.3,2.3,0,0,1-.769-1.772A2.3,2.3,0,0,1,54.6-4.087,2.786,2.786,0,0,1,56.558-4.79Zm18.97-3.545H77.7v3.809H75.527V0H70.591V-4.526H62.344l-.293-3.018,8.54-13.74v-.044h4.937Zm-8.774,0h3.838V-14.9l-.308.5Zm17.622-4.395H86.7q2.769,0,2.769-2.71a2.343,2.343,0,0,0-.659-1.721,2.5,2.5,0,0,0-1.86-.667,2.676,2.676,0,0,0-1.707.571,1.743,1.743,0,0,0-.725,1.421H79.585a5.053,5.053,0,0,1,.938-3,6.191,6.191,0,0,1,2.6-2.058,8.89,8.89,0,0,1,3.655-.74,8.735,8.735,0,0,1,5.6,1.626,5.405,5.405,0,0,1,2.036,4.468,4.505,4.505,0,0,1-.842,2.6,6,6,0,0,1-2.454,1.985,5.734,5.734,0,0,1,2.666,1.868,4.919,4.919,0,0,1,.967,3.1,5.5,5.5,0,0,1-2.2,4.57A9.12,9.12,0,0,1,86.777.293a9.458,9.458,0,0,1-3.889-.8,6.093,6.093,0,0,1-2.717-2.212,5.751,5.751,0,0,1-.923-3.215h4.966A2.223,2.223,0,0,0,85-4.233a2.793,2.793,0,0,0,1.948.718,2.925,2.925,0,0,0,2.08-.725,2.424,2.424,0,0,0,.776-1.853A2.833,2.833,0,0,0,89-8.379a3.368,3.368,0,0,0-2.227-.674h-2.4Zm17.373,0h2.329q2.769,0,2.769-2.71a2.343,2.343,0,0,0-.659-1.721,2.5,2.5,0,0,0-1.86-.667,2.676,2.676,0,0,0-1.707.571,1.743,1.743,0,0,0-.725,1.421H96.958a5.053,5.053,0,0,1,.938-3,6.191,6.191,0,0,1,2.6-2.058,8.89,8.89,0,0,1,3.655-.74,8.735,8.735,0,0,1,5.6,1.626,5.405,5.405,0,0,1,2.036,4.468,4.505,4.505,0,0,1-.842,2.6,6,6,0,0,1-2.454,1.985,5.734,5.734,0,0,1,2.666,1.868,4.919,4.919,0,0,1,.967,3.1,5.5,5.5,0,0,1-2.2,4.57A9.12,9.12,0,0,1,104.15.293a9.458,9.458,0,0,1-3.889-.8,6.093,6.093,0,0,1-2.717-2.212,5.751,5.751,0,0,1-.923-3.215h4.966a2.223,2.223,0,0,0,.791,1.7,2.793,2.793,0,0,0,1.948.718,2.925,2.925,0,0,0,2.08-.725,2.424,2.424,0,0,0,.776-1.853,2.833,2.833,0,0,0-.806-2.285,3.368,3.368,0,0,0-2.227-.674h-2.4Z" transform="translate(280.028 6122.807)" fill="#1f9436"/>
    <path id="Trazado_884290" data-name="Trazado 884290" transform="translate(393.334 6122.807)" fill="#003b59"/>
    <path id="Trazado_884291" data-name="Trazado 884291" d="M5.166-3.936l-.928.928V0H.947V-15.01H4.238v7.969L4.57-7.48l2.48-3.086H11l-3.7,4.346L11.24,0H7.471Zm15.82-.4,1.064-6.23h3.154L22.715,0H19.932L18.184-6.27,16.426,0H13.643l-2.49-10.566h3.154l1.045,6.377,1.68-6.377h2.295Z" transform="translate(397.318 6122.807)" fill="#003b59"/>
    <path id="Trazado_883932" data-name="Trazado 883932" d="M137.675,232.657a43,43,0,1,1-43-43A43,43,0,0,1,137.675,232.657Z" transform="translate(256.711 5805.6)" fill="none" stroke="#e1e4e1" stroke-miterlimit="10" stroke-width="20"/>
    <path id="Trazado_883933" data-name="Trazado 883933" d="M51.68,232.657a42.964,42.964,0,1,1,25.508,39.292" transform="translate(256.711 5805.6)" fill="none" stroke="#00b2f1" stroke-miterlimit="10" stroke-width="20"/>
    <path id="Trazado_884292" data-name="Trazado 884292" d="M0,0H1086.014V390.823H0Z" transform="translate(256.711 5805.6)" fill="none"/>
    <path id="Trazado_884293" data-name="Trazado 884293" d="M13.011-13.594a4.292,4.292,0,0,1-.7,2.416,4.838,4.838,0,0,1-1.9,1.668,5.269,5.269,0,0,1,2.226,1.839,4.638,4.638,0,0,1,.78,2.638,4.844,4.844,0,0,1-1.649,3.861A6.471,6.471,0,0,1,7.38.254,6.5,6.5,0,0,1,2.974-1.179,4.84,4.84,0,0,1,1.319-5.034,4.692,4.692,0,0,1,2.105-7.7,5.051,5.051,0,0,1,4.312-9.511a4.811,4.811,0,0,1-1.883-1.668,4.321,4.321,0,0,1-.691-2.416,4.8,4.8,0,0,1,1.522-3.741,5.879,5.879,0,0,1,4.109-1.382,5.9,5.9,0,0,1,4.121,1.382A4.8,4.8,0,0,1,13.011-13.594ZM10.335-5.187A3.044,3.044,0,0,0,9.517-7.4a2.875,2.875,0,0,0-2.162-.843,2.845,2.845,0,0,0-2.149.837A3.066,3.066,0,0,0,4.4-5.187a2.97,2.97,0,0,0,.793,2.168,2.917,2.917,0,0,0,2.188.812,2.926,2.926,0,0,0,2.175-.786A2.98,2.98,0,0,0,10.335-5.187ZM9.942-13.48a2.865,2.865,0,0,0-.7-1.985,2.392,2.392,0,0,0-1.877-.78A2.412,2.412,0,0,0,5.5-15.5a2.866,2.866,0,0,0-.685,2.023,2.855,2.855,0,0,0,.691,2.016,2.422,2.422,0,0,0,1.87.748,2.422,2.422,0,0,0,1.87-.748A2.855,2.855,0,0,0,9.942-13.48Zm16.625,6.9h2.3v2.473h-2.3V0H23.486V-4.109H15.509L15.42-5.986l7.964-12.478h3.183Zm-7.913,0h4.832v-7.71l-.228.406Zm12.123-8.332a3.706,3.706,0,0,1,1.078-2.745,3.836,3.836,0,0,1,2.828-1.072,3.848,3.848,0,0,1,2.847,1.072A3.8,3.8,0,0,1,38.6-14.85v.913A3.68,3.68,0,0,1,37.53-11.21a3.827,3.827,0,0,1-2.822,1.065,3.949,3.949,0,0,1-2.822-1.046,3.693,3.693,0,0,1-1.11-2.822Zm2.156.976a2.025,2.025,0,0,0,.488,1.414,1.654,1.654,0,0,0,1.287.539,1.619,1.619,0,0,0,1.268-.539,2.117,2.117,0,0,0,.482-1.465v-.926a2.049,2.049,0,0,0-.488-1.42,1.644,1.644,0,0,0-1.287-.545,1.6,1.6,0,0,0-1.274.552,2.146,2.146,0,0,0-.476,1.452Zm6.721,9.409a3.63,3.63,0,0,1,1.1-2.752,3.913,3.913,0,0,1,2.815-1.053,3.907,3.907,0,0,1,2.822,1.053,3.752,3.752,0,0,1,1.1,2.841v.9a3.709,3.709,0,0,1-1.059,2.72A3.805,3.805,0,0,1,43.6.254a3.918,3.918,0,0,1-2.86-1.059,3.732,3.732,0,0,1-1.084-2.8Zm2.156.989a2.022,2.022,0,0,0,.5,1.414,1.66,1.66,0,0,0,1.287.552A1.609,1.609,0,0,0,44.872-2.1a2.164,2.164,0,0,0,.463-1.477v-.951a2,2,0,0,0-.495-1.42,1.653,1.653,0,0,0-1.268-.533,1.648,1.648,0,0,0-1.274.533,2.1,2.1,0,0,0-.488,1.471ZM35.343-1.382,33.757-2.3l9.016-14.431,1.585.913Z" transform="translate(327.091 6046.847)" fill="#7d7e80"/>
    <path id="Trazado_884294" data-name="Trazado 884294" d="M14.341-8.335h2.168v3.809H14.341V0H9.4V-4.526H1.157L.864-7.544,9.4-21.284v-.044h4.937Zm-8.774,0H9.4V-14.9l-.308.5ZM28.4-8.247a5.214,5.214,0,0,1-3.574,1.436,5.771,5.771,0,0,1-4.6-1.963,7.733,7.733,0,0,1-1.7-5.244,7.87,7.87,0,0,1,.952-3.809,7.144,7.144,0,0,1,2.673-2.783,7.288,7.288,0,0,1,3.8-1.025,7.075,7.075,0,0,1,3.816,1.062,7.15,7.15,0,0,1,2.659,3,10.315,10.315,0,0,1,.981,4.475v1.89a12.821,12.821,0,0,1-1.384,6.123A9.556,9.556,0,0,1,28.081-1.1,12.336,12.336,0,0,1,22.1.293H21.8V-3.662l.938-.015Q27.832-3.926,28.4-8.247Zm-2.241-2.124a2.4,2.4,0,0,0,2.314-1.392v-2.051a5.332,5.332,0,0,0-.688-3.032,2.159,2.159,0,0,0-1.86-.981,2.041,2.041,0,0,0-1.743,1.113,4.946,4.946,0,0,0-.7,2.7A4.435,4.435,0,0,0,24.2-11.36,2.3,2.3,0,0,0,26.162-10.371ZM39.185-4.79a2.81,2.81,0,0,1,1.948.7,2.283,2.283,0,0,1,.776,1.78,2.283,2.283,0,0,1-.776,1.78,2.81,2.81,0,0,1-1.948.7,2.786,2.786,0,0,1-1.956-.7,2.3,2.3,0,0,1-.769-1.772,2.3,2.3,0,0,1,.769-1.772A2.786,2.786,0,0,1,39.185-4.79ZM59.927-8.716a10.184,10.184,0,0,1-1.941,6.665A6.707,6.707,0,0,1,52.515.293a6.743,6.743,0,0,1-5.508-2.358,10.168,10.168,0,0,1-1.948-6.65v-3.9A10.184,10.184,0,0,1,47-19.277a6.724,6.724,0,0,1,5.486-2.344,6.726,6.726,0,0,1,5.493,2.358A10.193,10.193,0,0,1,59.927-12.6ZM54.99-13.242a7.607,7.607,0,0,0-.6-3.435,2.008,2.008,0,0,0-1.9-1.135,1.96,1.96,0,0,0-1.853,1.055,7.166,7.166,0,0,0-.623,3.193v5.449a7.664,7.664,0,0,0,.6,3.494,2.015,2.015,0,0,0,1.9,1.106,1.988,1.988,0,0,0,1.86-1.077,7.317,7.317,0,0,0,.615-3.376ZM77.3-8.716a10.184,10.184,0,0,1-1.941,6.665A6.707,6.707,0,0,1,69.888.293,6.743,6.743,0,0,1,64.38-2.065a10.168,10.168,0,0,1-1.948-6.65v-3.9a10.184,10.184,0,0,1,1.941-6.665,6.724,6.724,0,0,1,5.486-2.344,6.726,6.726,0,0,1,5.493,2.358A10.193,10.193,0,0,1,77.3-12.6Zm-4.937-4.526a7.607,7.607,0,0,0-.6-3.435,2.008,2.008,0,0,0-1.9-1.135,1.96,1.96,0,0,0-1.853,1.055,7.166,7.166,0,0,0-.623,3.193v5.449a7.664,7.664,0,0,0,.6,3.494,2.015,2.015,0,0,0,1.9,1.106,1.988,1.988,0,0,0,1.86-1.077,7.317,7.317,0,0,0,.615-3.376Zm19.424-8.394v3.882h-.22a7.411,7.411,0,0,0-4.548,1.326,5.6,5.6,0,0,0-2.19,3.684,5.773,5.773,0,0,1,4.219-1.641,5.385,5.385,0,0,1,4.409,2.021,8.153,8.153,0,0,1,1.641,5.3,7.466,7.466,0,0,1-.959,3.735A6.846,6.846,0,0,1,91.458-.667a7.7,7.7,0,0,1-3.816.959A7.961,7.961,0,0,1,83.584-.74,7.1,7.1,0,0,1,80.8-3.691a9.719,9.719,0,0,1-1.025-4.424v-1.978a12.312,12.312,0,0,1,1.414-5.925,10.248,10.248,0,0,1,4.036-4.124,11.538,11.538,0,0,1,5.815-1.494Zm-4.453,11.03a2.824,2.824,0,0,0-1.641.454,2.883,2.883,0,0,0-.981,1.113v1.479q0,4.043,2.8,4.043a2.27,2.27,0,0,0,1.882-1.011,4.119,4.119,0,0,0,.754-2.534,4.043,4.043,0,0,0-.769-2.556A2.46,2.46,0,0,0,87.334-10.605Z" transform="translate(542.989 6122.513)" fill="#1f9436"/>
    <path id="Trazado_884295" data-name="Trazado 884295" transform="translate(638.922 6122.513)" fill="#003b59"/>
    <path id="Trazado_884296" data-name="Trazado 884296" d="M5.166-3.936l-.928.928V0H.947V-15.01H4.238v7.969L4.57-7.48l2.48-3.086H11l-3.7,4.346L11.24,0H7.471Zm15.82-.4,1.064-6.23h3.154L22.715,0H19.932L18.184-6.27,16.426,0H13.643l-2.49-10.566h3.154l1.045,6.377,1.68-6.377h2.295Z" transform="translate(642.906 6122.513)" fill="#003b59"/>
    <path id="Trazado_883934" data-name="Trazado 883934" d="M391.949,232.657a43,43,0,1,1-43-43A43,43,0,0,1,391.949,232.657Z" transform="translate(256.711 5805.6)" fill="none" stroke="#e1e4e1" stroke-miterlimit="10" stroke-width="20"/>
    <path id="Trazado_883935" data-name="Trazado 883935" d="M348.952,189.659a42.9,42.9,0,0,1,32.42,14.753" transform="translate(256.711 5805.6)" fill="none" stroke="#00b2f1" stroke-miterlimit="10" stroke-width="20"/>
    <path id="Trazado_884297" data-name="Trazado 884297" d="M0,0H1086.014V390.823H0Z" transform="translate(256.711 5805.6)" fill="none"/>
    <path id="Trazado_884298" data-name="Trazado 884298" d="M9.726,0H6.658V-14.824L2.13-13.277v-2.6l7.2-2.65h.393Zm16-18.553V-16h-.38a6.117,6.117,0,0,0-4.134,1.42,5.943,5.943,0,0,0-1.839,3.918,5,5,0,0,1,3.792-1.56A4.726,4.726,0,0,1,27.03-10.5a6.793,6.793,0,0,1,1.414,4.451A6.35,6.35,0,0,1,26.789-1.49,5.712,5.712,0,0,1,22.446.254a5.58,5.58,0,0,1-4.483-2.042A8.031,8.031,0,0,1,16.245-7.14V-8.192q0-4.857,2.365-7.609a8.48,8.48,0,0,1,6.8-2.752ZM22.42-9.739a3.244,3.244,0,0,0-1.858.571,3.336,3.336,0,0,0-1.236,1.522v.938a5.527,5.527,0,0,0,.862,3.265A2.63,2.63,0,0,0,22.42-2.232a2.6,2.6,0,0,0,2.168-1.027,4.277,4.277,0,0,0,.8-2.7,4.339,4.339,0,0,0-.812-2.726A2.587,2.587,0,0,0,22.42-9.739Zm8.357-5.174a3.706,3.706,0,0,1,1.078-2.745,3.836,3.836,0,0,1,2.828-1.072,3.848,3.848,0,0,1,2.847,1.072A3.8,3.8,0,0,1,38.6-14.85v.913A3.68,3.68,0,0,1,37.53-11.21a3.827,3.827,0,0,1-2.822,1.065,3.949,3.949,0,0,1-2.822-1.046,3.693,3.693,0,0,1-1.11-2.822Zm2.156.976a2.025,2.025,0,0,0,.488,1.414,1.654,1.654,0,0,0,1.287.539,1.619,1.619,0,0,0,1.268-.539,2.117,2.117,0,0,0,.482-1.465v-.926a2.049,2.049,0,0,0-.488-1.42,1.644,1.644,0,0,0-1.287-.545,1.6,1.6,0,0,0-1.274.552,2.146,2.146,0,0,0-.476,1.452Zm6.721,9.409a3.63,3.63,0,0,1,1.1-2.752,3.913,3.913,0,0,1,2.815-1.053,3.907,3.907,0,0,1,2.822,1.053,3.752,3.752,0,0,1,1.1,2.841v.9a3.709,3.709,0,0,1-1.059,2.72A3.805,3.805,0,0,1,43.6.254a3.918,3.918,0,0,1-2.86-1.059,3.732,3.732,0,0,1-1.084-2.8Zm2.156.989a2.022,2.022,0,0,0,.5,1.414,1.66,1.66,0,0,0,1.287.552A1.609,1.609,0,0,0,44.872-2.1a2.164,2.164,0,0,0,.463-1.477v-.951a2,2,0,0,0-.495-1.42,1.653,1.653,0,0,0-1.268-.533,1.648,1.648,0,0,0-1.274.533,2.1,2.1,0,0,0-.488,1.471ZM35.343-1.382,33.757-2.3l9.016-14.431,1.585.913Z" transform="translate(582.365 6046.847)" fill="#7d7e80"/>
    <path id="Trazado_884299" data-name="Trazado 884299" d="M14.832-5.542a6.37,6.37,0,0,1-2.008,4.3A6.643,6.643,0,0,1,8.289.244a6.269,6.269,0,0,1-3.5-.989,6.447,6.447,0,0,1-2.35-2.8A9.98,9.98,0,0,1,1.6-7.69V-10a10.071,10.071,0,0,1,.83-4.2,6.384,6.384,0,0,1,2.386-2.826A6.507,6.507,0,0,1,8.4-18.018a6.348,6.348,0,0,1,4.51,1.544,6.468,6.468,0,0,1,1.923,4.266H13.318q-.562-4.529-4.919-4.529a4.663,4.663,0,0,0-3.851,1.807A7.83,7.83,0,0,0,3.113-9.937v2.173a7.888,7.888,0,0,0,1.4,4.907A4.5,4.5,0,0,0,8.289-1.025a5,5,0,0,0,3.552-1.129,5.412,5.412,0,0,0,1.477-3.387ZM26.477,0A6.908,6.908,0,0,1,26.2-1.843,5.094,5.094,0,0,1,24.237-.3a6,6,0,0,1-2.521.543A4.427,4.427,0,0,1,18.634-.818,3.46,3.46,0,0,1,17.456-3.5a3.535,3.535,0,0,1,1.605-3.052,7.713,7.713,0,0,1,4.474-1.123h2.649v-1.5a2.893,2.893,0,0,0-.873-2.228,3.608,3.608,0,0,0-2.545-.812,3.983,3.983,0,0,0-2.527.781,2.321,2.321,0,0,0-1,1.88L17.773-9.57A3.4,3.4,0,0,1,19.238-12.3a5.641,5.641,0,0,1,3.6-1.154,5.145,5.145,0,0,1,3.485,1.1,3.964,3.964,0,0,1,1.312,3.082v6.25a7.752,7.752,0,0,0,.4,2.869V0Zm-4.59-1.05a4.9,4.9,0,0,0,2.618-.708A4.166,4.166,0,0,0,26.184-3.65V-6.555H23.572a6.546,6.546,0,0,0-3.418.8,2.4,2.4,0,0,0-1.233,2.13,2.361,2.361,0,0,0,.824,1.843A3.1,3.1,0,0,0,21.887-1.05ZM42.151-6.47a7.954,7.954,0,0,1-1.367,4.9A4.355,4.355,0,0,1,37.122.244a4.889,4.889,0,0,1-4.15-1.9V5.078H31.519V-13.208h1.355l.073,1.868a4.687,4.687,0,0,1,4.138-2.112A4.393,4.393,0,0,1,40.8-11.658a8.13,8.13,0,0,1,1.349,4.98Zm-1.465-.256a6.793,6.793,0,0,0-1.038-3.992,3.346,3.346,0,0,0-2.893-1.465,4.044,4.044,0,0,0-2.307.647,4.069,4.069,0,0,0-1.477,1.88V-3.32a3.879,3.879,0,0,0,1.5,1.733,4.33,4.33,0,0,0,2.307.6A3.315,3.315,0,0,0,39.655-2.46,7.4,7.4,0,0,0,40.686-6.726ZM53.723,0a6.908,6.908,0,0,1-.281-1.843A5.094,5.094,0,0,1,51.483-.3a6,6,0,0,1-2.521.543A4.427,4.427,0,0,1,45.88-.818,3.46,3.46,0,0,1,44.7-3.5a3.535,3.535,0,0,1,1.605-3.052,7.713,7.713,0,0,1,4.474-1.123H53.43v-1.5a2.893,2.893,0,0,0-.873-2.228,3.608,3.608,0,0,0-2.545-.812,3.983,3.983,0,0,0-2.527.781,2.321,2.321,0,0,0-1,1.88L45.02-9.57A3.4,3.4,0,0,1,46.484-12.3a5.641,5.641,0,0,1,3.6-1.154,5.145,5.145,0,0,1,3.485,1.1,3.964,3.964,0,0,1,1.312,3.082v6.25a7.752,7.752,0,0,0,.4,2.869V0Zm-4.59-1.05a4.9,4.9,0,0,0,2.618-.708A4.166,4.166,0,0,0,53.43-3.65V-6.555H50.818a6.546,6.546,0,0,0-3.418.8,2.4,2.4,0,0,0-1.233,2.13,2.361,2.361,0,0,0,.824,1.843A3.1,3.1,0,0,0,49.133-1.05ZM63.66-.989a3.857,3.857,0,0,0,2.557-.861,3.029,3.029,0,0,0,1.117-2.228h1.4a4.136,4.136,0,0,1-.757,2.2A4.742,4.742,0,0,1,66.132-.317,5.573,5.573,0,0,1,63.66.244a5.1,5.1,0,0,1-4.12-1.807,7.3,7.3,0,0,1-1.52-4.858V-6.86a8.257,8.257,0,0,1,.684-3.455,5.268,5.268,0,0,1,1.959-2.319,5.408,5.408,0,0,1,2.985-.818,5.093,5.093,0,0,1,3.583,1.294,4.718,4.718,0,0,1,1.508,3.406h-1.4a3.592,3.592,0,0,0-1.117-2.5,3.617,3.617,0,0,0-2.57-.952,3.642,3.642,0,0,0-3.07,1.428,6.462,6.462,0,0,0-1.093,4v.427A6.318,6.318,0,0,0,60.577-2.4,3.667,3.667,0,0,0,63.66-.989ZM73.291,0H71.826V-13.208h1.465ZM71.57-17.029a.989.989,0,0,1,.269-.7.955.955,0,0,1,.732-.287.975.975,0,0,1,.739.287.977.977,0,0,1,.275.7.956.956,0,0,1-.275.7.986.986,0,0,1-.739.281.966.966,0,0,1-.732-.281A.968.968,0,0,1,71.57-17.029Zm5.1,10.3a7.961,7.961,0,0,1,1.373-4.9,4.42,4.42,0,0,1,3.729-1.825,4.593,4.593,0,0,1,4.077,2.112v-7.41H87.3V0H85.938l-.061-1.758a4.717,4.717,0,0,1-4.126,2,4.4,4.4,0,0,1-3.68-1.837,8,8,0,0,1-1.4-4.962Zm1.477.256a6.888,6.888,0,0,0,1.013,3.986,3.277,3.277,0,0,0,2.856,1.459,3.932,3.932,0,0,0,3.833-2.38v-6.2a3.9,3.9,0,0,0-3.809-2.576,3.316,3.316,0,0,0-2.869,1.447A7.36,7.36,0,0,0,78.149-6.47ZM99.487,0a6.908,6.908,0,0,1-.281-1.843A5.094,5.094,0,0,1,97.247-.3a6,6,0,0,1-2.521.543A4.427,4.427,0,0,1,91.644-.818,3.46,3.46,0,0,1,90.466-3.5a3.535,3.535,0,0,1,1.605-3.052,7.713,7.713,0,0,1,4.474-1.123h2.649v-1.5a2.893,2.893,0,0,0-.873-2.228,3.608,3.608,0,0,0-2.545-.812,3.983,3.983,0,0,0-2.527.781,2.321,2.321,0,0,0-1,1.88L90.784-9.57A3.4,3.4,0,0,1,92.249-12.3a5.641,5.641,0,0,1,3.6-1.154,5.145,5.145,0,0,1,3.485,1.1,3.964,3.964,0,0,1,1.312,3.082v6.25a7.752,7.752,0,0,0,.4,2.869V0ZM94.9-1.05a4.9,4.9,0,0,0,2.618-.708A4.166,4.166,0,0,0,99.194-3.65V-6.555H96.582a6.546,6.546,0,0,0-3.418.8,2.4,2.4,0,0,0-1.233,2.13,2.361,2.361,0,0,0,.824,1.843A3.1,3.1,0,0,0,94.9-1.05Zm9.058-5.676a7.961,7.961,0,0,1,1.373-4.9,4.42,4.42,0,0,1,3.729-1.825,4.593,4.593,0,0,1,4.077,2.112v-7.41h1.453V0H113.22l-.061-1.758a4.717,4.717,0,0,1-4.126,2,4.4,4.4,0,0,1-3.68-1.837,8,8,0,0,1-1.4-4.962Zm1.477.256a6.888,6.888,0,0,0,1.013,3.986A3.277,3.277,0,0,0,109.3-1.025a3.932,3.932,0,0,0,3.833-2.38v-6.2a3.9,3.9,0,0,0-3.809-2.576,3.316,3.316,0,0,0-2.869,1.447A7.36,7.36,0,0,0,105.432-6.47ZM124.854,0V-17.773h4.968a7.729,7.729,0,0,1,3.918.995,6.878,6.878,0,0,1,2.7,2.85,8.977,8.977,0,0,1,.97,4.224v1.636a8.977,8.977,0,0,1-.964,4.224A6.862,6.862,0,0,1,133.734-1a7.963,7.963,0,0,1-4.022,1Zm1.5-16.492V-1.27h3.369a5.8,5.8,0,0,0,4.5-1.862,7.19,7.19,0,0,0,1.7-5.035V-9.729a7.023,7.023,0,0,0-1.672-4.907,5.7,5.7,0,0,0-4.407-1.855ZM142.517,0h-1.465V-13.208h1.465ZM140.8-17.029a.989.989,0,0,1,.269-.7.955.955,0,0,1,.732-.287.975.975,0,0,1,.739.287.977.977,0,0,1,.275.7.956.956,0,0,1-.275.7.986.986,0,0,1-.739.281.966.966,0,0,1-.732-.281A.968.968,0,0,1,140.8-17.029ZM151.6.244a5.734,5.734,0,0,1-3.046-.83A5.657,5.657,0,0,1,146.436-2.9a7.212,7.212,0,0,1-.757-3.326V-6.75a7.772,7.772,0,0,1,.739-3.43,5.876,5.876,0,0,1,2.057-2.4,5.074,5.074,0,0,1,2.856-.873,4.769,4.769,0,0,1,3.815,1.642,6.66,6.66,0,0,1,1.41,4.486v.818h-9.424v.281a5.53,5.53,0,0,0,1.288,3.741,4.1,4.1,0,0,0,3.241,1.5,4.76,4.76,0,0,0,2.069-.427,4.589,4.589,0,0,0,1.63-1.367l.916.7A5.329,5.329,0,0,1,151.6.244Zm-.269-12.451A3.652,3.652,0,0,0,148.553-11a5.583,5.583,0,0,0-1.373,3.247H155.1V-7.91a4.847,4.847,0,0,0-1.086-3.1A3.367,3.367,0,0,0,151.331-12.207Zm15.979,8.85a2.081,2.081,0,0,0-.873-1.746,6.731,6.731,0,0,0-2.631-1.031,11.868,11.868,0,0,1-2.728-.854,3.635,3.635,0,0,1-1.44-1.178,2.939,2.939,0,0,1-.47-1.685,3.143,3.143,0,0,1,1.306-2.582,5.276,5.276,0,0,1,3.345-1.019,5.43,5.43,0,0,1,3.546,1.093,3.506,3.506,0,0,1,1.337,2.85h-1.465a2.365,2.365,0,0,0-.97-1.929,3.818,3.818,0,0,0-2.448-.769,3.82,3.82,0,0,0-2.313.641,1.978,1.978,0,0,0-.873,1.666,1.8,1.8,0,0,0,.726,1.532,7.683,7.683,0,0,0,2.649.995,12.45,12.45,0,0,1,2.881.964,3.731,3.731,0,0,1,1.422,1.233,3.156,3.156,0,0,1,.464,1.746,3.164,3.164,0,0,1-1.349,2.673,5.763,5.763,0,0,1-3.522,1,5.916,5.916,0,0,1-3.741-1.117A3.438,3.438,0,0,1,158.728-3.7h1.465a2.54,2.54,0,0,0,1.08,2,4.416,4.416,0,0,0,2.631.714,4.151,4.151,0,0,0,2.466-.671A2.015,2.015,0,0,0,167.31-3.357Zm9.863,3.6a5.734,5.734,0,0,1-3.046-.83A5.657,5.657,0,0,1,172.009-2.9a7.212,7.212,0,0,1-.757-3.326V-6.75a7.772,7.772,0,0,1,.739-3.43,5.876,5.876,0,0,1,2.057-2.4,5.074,5.074,0,0,1,2.856-.873,4.769,4.769,0,0,1,3.815,1.642,6.66,6.66,0,0,1,1.41,4.486v.818h-9.424v.281a5.53,5.53,0,0,0,1.288,3.741,4.1,4.1,0,0,0,3.241,1.5,4.76,4.76,0,0,0,2.069-.427,4.589,4.589,0,0,0,1.63-1.367l.916.7A5.329,5.329,0,0,1,177.173.244ZM176.9-12.207A3.652,3.652,0,0,0,174.127-11a5.583,5.583,0,0,0-1.373,3.247h7.922V-7.91a4.847,4.847,0,0,0-1.086-3.1A3.367,3.367,0,0,0,176.9-12.207ZM186.609,0h-1.465V-18.75h1.465Z" transform="translate(256.711 6152.586)" fill="#003b59"/>
    <path id="Trazado_884300" data-name="Trazado 884300" d="M0,0H1086.014V390.823H0Z" transform="translate(256.711 5805.6)" fill="none"/>
    <path id="Trazado_884301" data-name="Trazado 884301" d="M14.832-5.542a6.37,6.37,0,0,1-2.008,4.3A6.643,6.643,0,0,1,8.289.244a6.269,6.269,0,0,1-3.5-.989,6.447,6.447,0,0,1-2.35-2.8A9.98,9.98,0,0,1,1.6-7.69V-10a10.071,10.071,0,0,1,.83-4.2,6.384,6.384,0,0,1,2.386-2.826A6.507,6.507,0,0,1,8.4-18.018a6.348,6.348,0,0,1,4.51,1.544,6.468,6.468,0,0,1,1.923,4.266H13.318q-.562-4.529-4.919-4.529a4.663,4.663,0,0,0-3.851,1.807A7.83,7.83,0,0,0,3.113-9.937v2.173a7.888,7.888,0,0,0,1.4,4.907A4.5,4.5,0,0,0,8.289-1.025a5,5,0,0,0,3.552-1.129,5.412,5.412,0,0,0,1.477-3.387ZM26.477,0A6.908,6.908,0,0,1,26.2-1.843,5.094,5.094,0,0,1,24.237-.3a6,6,0,0,1-2.521.543A4.427,4.427,0,0,1,18.634-.818,3.46,3.46,0,0,1,17.456-3.5a3.535,3.535,0,0,1,1.605-3.052,7.713,7.713,0,0,1,4.474-1.123h2.649v-1.5a2.893,2.893,0,0,0-.873-2.228,3.608,3.608,0,0,0-2.545-.812,3.983,3.983,0,0,0-2.527.781,2.321,2.321,0,0,0-1,1.88L17.773-9.57A3.4,3.4,0,0,1,19.238-12.3a5.641,5.641,0,0,1,3.6-1.154,5.145,5.145,0,0,1,3.485,1.1,3.964,3.964,0,0,1,1.312,3.082v6.25a7.752,7.752,0,0,0,.4,2.869V0Zm-4.59-1.05a4.9,4.9,0,0,0,2.618-.708A4.166,4.166,0,0,0,26.184-3.65V-6.555H23.572a6.546,6.546,0,0,0-3.418.8,2.4,2.4,0,0,0-1.233,2.13,2.361,2.361,0,0,0,.824,1.843A3.1,3.1,0,0,0,21.887-1.05ZM42.151-6.47a7.954,7.954,0,0,1-1.367,4.9A4.355,4.355,0,0,1,37.122.244a4.889,4.889,0,0,1-4.15-1.9V5.078H31.519V-13.208h1.355l.073,1.868a4.687,4.687,0,0,1,4.138-2.112A4.393,4.393,0,0,1,40.8-11.658a8.13,8.13,0,0,1,1.349,4.98Zm-1.465-.256a6.793,6.793,0,0,0-1.038-3.992,3.346,3.346,0,0,0-2.893-1.465,4.044,4.044,0,0,0-2.307.647,4.069,4.069,0,0,0-1.477,1.88V-3.32a3.879,3.879,0,0,0,1.5,1.733,4.33,4.33,0,0,0,2.307.6A3.315,3.315,0,0,0,39.655-2.46,7.4,7.4,0,0,0,40.686-6.726ZM53.723,0a6.908,6.908,0,0,1-.281-1.843A5.094,5.094,0,0,1,51.483-.3a6,6,0,0,1-2.521.543A4.427,4.427,0,0,1,45.88-.818,3.46,3.46,0,0,1,44.7-3.5a3.535,3.535,0,0,1,1.605-3.052,7.713,7.713,0,0,1,4.474-1.123H53.43v-1.5a2.893,2.893,0,0,0-.873-2.228,3.608,3.608,0,0,0-2.545-.812,3.983,3.983,0,0,0-2.527.781,2.321,2.321,0,0,0-1,1.88L45.02-9.57A3.4,3.4,0,0,1,46.484-12.3a5.641,5.641,0,0,1,3.6-1.154,5.145,5.145,0,0,1,3.485,1.1,3.964,3.964,0,0,1,1.312,3.082v6.25a7.752,7.752,0,0,0,.4,2.869V0Zm-4.59-1.05a4.9,4.9,0,0,0,2.618-.708A4.166,4.166,0,0,0,53.43-3.65V-6.555H50.818a6.546,6.546,0,0,0-3.418.8,2.4,2.4,0,0,0-1.233,2.13,2.361,2.361,0,0,0,.824,1.843A3.1,3.1,0,0,0,49.133-1.05ZM63.66-.989a3.857,3.857,0,0,0,2.557-.861,3.029,3.029,0,0,0,1.117-2.228h1.4a4.136,4.136,0,0,1-.757,2.2A4.742,4.742,0,0,1,66.132-.317,5.573,5.573,0,0,1,63.66.244a5.1,5.1,0,0,1-4.12-1.807,7.3,7.3,0,0,1-1.52-4.858V-6.86a8.257,8.257,0,0,1,.684-3.455,5.268,5.268,0,0,1,1.959-2.319,5.408,5.408,0,0,1,2.985-.818,5.093,5.093,0,0,1,3.583,1.294,4.718,4.718,0,0,1,1.508,3.406h-1.4a3.592,3.592,0,0,0-1.117-2.5,3.617,3.617,0,0,0-2.57-.952,3.642,3.642,0,0,0-3.07,1.428,6.462,6.462,0,0,0-1.093,4v.427A6.318,6.318,0,0,0,60.577-2.4,3.667,3.667,0,0,0,63.66-.989ZM73.291,0H71.826V-13.208h1.465ZM71.57-17.029a.989.989,0,0,1,.269-.7.955.955,0,0,1,.732-.287.975.975,0,0,1,.739.287.977.977,0,0,1,.275.7.956.956,0,0,1-.275.7.986.986,0,0,1-.739.281.966.966,0,0,1-.732-.281A.968.968,0,0,1,71.57-17.029Zm5.1,10.3a7.961,7.961,0,0,1,1.373-4.9,4.42,4.42,0,0,1,3.729-1.825,4.593,4.593,0,0,1,4.077,2.112v-7.41H87.3V0H85.938l-.061-1.758a4.717,4.717,0,0,1-4.126,2,4.4,4.4,0,0,1-3.68-1.837,8,8,0,0,1-1.4-4.962Zm1.477.256a6.888,6.888,0,0,0,1.013,3.986,3.277,3.277,0,0,0,2.856,1.459,3.932,3.932,0,0,0,3.833-2.38v-6.2a3.9,3.9,0,0,0-3.809-2.576,3.316,3.316,0,0,0-2.869,1.447A7.36,7.36,0,0,0,78.149-6.47ZM99.487,0a6.908,6.908,0,0,1-.281-1.843A5.094,5.094,0,0,1,97.247-.3a6,6,0,0,1-2.521.543A4.427,4.427,0,0,1,91.644-.818,3.46,3.46,0,0,1,90.466-3.5a3.535,3.535,0,0,1,1.605-3.052,7.713,7.713,0,0,1,4.474-1.123h2.649v-1.5a2.893,2.893,0,0,0-.873-2.228,3.608,3.608,0,0,0-2.545-.812,3.983,3.983,0,0,0-2.527.781,2.321,2.321,0,0,0-1,1.88L90.784-9.57A3.4,3.4,0,0,1,92.249-12.3a5.641,5.641,0,0,1,3.6-1.154,5.145,5.145,0,0,1,3.485,1.1,3.964,3.964,0,0,1,1.312,3.082v6.25a7.752,7.752,0,0,0,.4,2.869V0ZM94.9-1.05a4.9,4.9,0,0,0,2.618-.708A4.166,4.166,0,0,0,99.194-3.65V-6.555H96.582a6.546,6.546,0,0,0-3.418.8,2.4,2.4,0,0,0-1.233,2.13,2.361,2.361,0,0,0,.824,1.843A3.1,3.1,0,0,0,94.9-1.05Zm9.058-5.676a7.961,7.961,0,0,1,1.373-4.9,4.42,4.42,0,0,1,3.729-1.825,4.593,4.593,0,0,1,4.077,2.112v-7.41h1.453V0H113.22l-.061-1.758a4.717,4.717,0,0,1-4.126,2,4.4,4.4,0,0,1-3.68-1.837,8,8,0,0,1-1.4-4.962Zm1.477.256a6.888,6.888,0,0,0,1.013,3.986A3.277,3.277,0,0,0,109.3-1.025a3.932,3.932,0,0,0,3.833-2.38v-6.2a3.9,3.9,0,0,0-3.809-2.576,3.316,3.316,0,0,0-2.869,1.447A7.36,7.36,0,0,0,105.432-6.47ZM134.644-8.3h-8.289V0h-1.5V-17.773h11.011v1.282h-9.509v6.909h8.289Zm17.5,8.3h-1.5L140.43-15.21V0h-1.514V-17.773h1.514L150.659-2.551V-17.773h1.489Zm17.1-5.542a6.37,6.37,0,0,1-2.008,4.3A6.643,6.643,0,0,1,162.708.244a6.269,6.269,0,0,1-3.5-.989,6.447,6.447,0,0,1-2.35-2.8,9.98,9.98,0,0,1-.842-4.144V-10a10.071,10.071,0,0,1,.83-4.2,6.384,6.384,0,0,1,2.386-2.826,6.507,6.507,0,0,1,3.583-.995,6.348,6.348,0,0,1,4.51,1.544,6.468,6.468,0,0,1,1.923,4.266h-1.514q-.562-4.529-4.919-4.529a4.663,4.663,0,0,0-3.851,1.807,7.83,7.83,0,0,0-1.434,4.993v2.173a7.888,7.888,0,0,0,1.4,4.907,4.5,4.5,0,0,0,3.778,1.831,5,5,0,0,0,3.552-1.129,5.412,5.412,0,0,0,1.477-3.387Zm13.464-2.979H174.4V-1.27h9.558V0H172.9V-17.773h11v1.282h-9.5v6.7h8.313ZM193.762-7.4H188.6V0h-1.514V-17.773h5.774a6.586,6.586,0,0,1,4.443,1.379,4.821,4.821,0,0,1,1.6,3.857,4.82,4.82,0,0,1-1,3.015,5.118,5.118,0,0,1-2.686,1.807l4.443,7.556V0h-1.6ZM188.6-8.679h4.6a4.268,4.268,0,0,0,3.04-1.074,3.639,3.639,0,0,0,1.147-2.783,3.655,3.655,0,0,0-1.2-2.917,4.962,4.962,0,0,0-3.357-1.038H188.6Z" transform="translate(505.54 6152.585)" fill="#003b59"/>
    <path id="Trazado_884302" data-name="Trazado 884302" d="M0,0V316.553" transform="translate(759.144 5879.871)" fill="none" stroke="#c6c6c6" stroke-width="1.119"/>
    <path id="Trazado_884303" data-name="Trazado 884303" d="M0,0H1086.014V390.823H0Z" transform="translate(256.711 5805.6)" fill="none"/>
  </g>
</svg>
