<svg xmlns="http://www.w3.org/2000/svg" xmlns:xlink="http://www.w3.org/1999/xlink" width="72" height="72" viewBox="0 0 72 72">
  <defs>
    <clipPath id="clip-path">
      <rect id="Rectángulo_404233" data-name="Rectángulo 404233" width="57.224" height="58.001" fill="none"/>
    </clipPath>
  </defs>
  <g id="Grupo_1202869" data-name="Grupo 1202869" transform="translate(-704.668 -6494.154)">
    <rect id="Rectángulo_402033" data-name="Rectángulo 402033" width="72" height="72" rx="5" transform="translate(704.668 6494.154)" fill="#99dcff"/>
    <g id="Grupo_1103150" data-name="Grupo 1103150" transform="translate(711.711 6501.646)">
      <rect id="Rectángulo_404230" data-name="Rectángulo 404230" width="15.121" height="9.241" transform="translate(8.022 5.085)" fill="#fdef8e"/>
      <path id="Trazado_884148" data-name="Trazado 884148" d="M98.254,44.848v5.616H93.214v3.625h15.122V50.464h-5.041V44.848Z" transform="translate(-75.111 -36.138)" fill="#c5d9b9" fill-rule="evenodd"/>
      <rect id="Rectángulo_404231" data-name="Rectángulo 404231" width="15.121" height="9.241" transform="translate(28.762 5.085)" fill="#0097e5"/>
      <path id="Trazado_884149" data-name="Trazado 884149" d="M197.029,49.367v3.36H212.15V43.486H202.069v5.881Z" transform="translate(-158.763 -35.04)" fill="#a7dbb1" fill-rule="evenodd"/>
      <path id="Trazado_884150" data-name="Trazado 884150" d="M211.844,52.421H196.528V48.867h5.041V42.986h10.275Zm-15.122-.194h14.927V43.18h-9.887v5.881h-5.041Z" transform="translate(-158.36 -34.638)"/>
      <g id="Grupo_1103149" data-name="Grupo 1103149">
        <g id="Grupo_1103148" data-name="Grupo 1103148" clip-path="url(#clip-path)">
          <path id="Trazado_884151" data-name="Trazado 884151" d="M39.082,155.564a2.528,2.528,0,0,0-2.52,2.52v8.1a4.2,4.2,0,1,1-8.4,0V161.32a2.528,2.528,0,0,0-2.52-2.52H23.43a2.528,2.528,0,0,0-2.52,2.52V166.1a27.853,27.853,0,0,0,37.84,10.33,2.527,2.527,0,0,0-2.516-2.384,2.52,2.52,0,1,1,0-5.041h1.638a2.52,2.52,0,0,0,0-5.041h-2.34a4.2,4.2,0,1,1,0-8.4h6.416a2.528,2.528,0,0,0,2.52-2.52v-.84H44.081c0,2.226-1.232,3.36-2.688,3.36h-2.31Z" transform="translate(-16.849 -122.644)" fill="#b2e5ff" fill-rule="evenodd"/>
          <path id="Trazado_884152" data-name="Trazado 884152" d="M40.131,155.563a4.2,4.2,0,0,0,0,8.4h2.34a2.52,2.52,0,1,1,0,5.04H40.833a2.52,2.52,0,1,0,0,5.041,2.528,2.528,0,0,1,2.517,2.384A27.826,27.826,0,0,0,57.468,152.2h-8.4v.84a2.528,2.528,0,0,1-2.52,2.52H40.131ZM1.8,152.2A27.707,27.707,0,0,0,5.51,166.1v-4.781a2.528,2.528,0,0,1,2.52-2.52h2.211a2.528,2.528,0,0,1,2.52,2.52v4.861a4.2,4.2,0,1,0,8.4,0v-8.1a2.528,2.528,0,0,1,2.52-2.52h2.31c1.456,0,2.688-1.134,2.688-3.36H1.8Z" transform="translate(-1.449 -122.643)" fill="#a7dbb1" fill-rule="evenodd"/>
          <path id="Trazado_884153" data-name="Trazado 884153" d="M34.335,12.241a1.68,1.68,0,1,0-1.68-1.68,1.68,1.68,0,0,0,1.68,1.68m18.482-1.68a1.68,1.68,0,1,0,1.68-1.68,1.68,1.68,0,0,0-1.68,1.68" transform="translate(-26.313 -7.156)" fill="#fdef8e" fill-rule="evenodd"/>
          <path id="Trazado_884154" data-name="Trazado 884154" d="M36.016,136.582a1.68,1.68,0,0,0-3.36,0v1.68h3.36Zm26.883,0v1.68h3.36v-1.68a1.68,1.68,0,0,0-3.36,0m-10.081,0v1.68h3.36v-1.68a1.68,1.68,0,0,0-3.36,0m-10.081,0v1.68H46.1v-1.68a1.68,1.68,0,0,0-3.36,0" transform="translate(-26.314 -108.702)" fill="#fee026" fill-rule="evenodd"/>
          <path id="Trazado_884155" data-name="Trazado 884155" d="M21.013,195.475a2.5,2.5,0,0,0-.1.712v4.781a27.824,27.824,0,0,0,24.123,13.938q.642,0,1.277-.029a27.837,27.837,0,0,1-25.3-19.4" transform="translate(-16.849 -157.512)" fill="#5ceaee" fill-rule="evenodd"/>
          <rect id="Rectángulo_404232" data-name="Rectángulo 404232" width="2.52" height="9.241" transform="translate(8.022 5.085)" fill="#fee026"/>
          <path id="Trazado_884156" data-name="Trazado 884156" d="M187.412,43.486h1.68m-5.041,0h1.68" transform="translate(-148.307 -35.041)" fill="none" stroke="#fff" stroke-miterlimit="22.926" stroke-width="8.651"/>
          <path id="Trazado_884157" data-name="Trazado 884157" d="M41.15,28.612v-.9a2.46,2.46,0,0,0-1.68-2.329V18.292H54.591V7.5H44.51V4.137h-12.8a3.233,3.233,0,1,0-3.88,2.232V7.762H24.348V4.137h-12.8A3.233,3.233,0,1,0,7.673,6.37V8.694H9.227V6.37a3.224,3.224,0,0,0,1.32-.679H22.795v7.687H9.227v-3H7.673v15a2.46,2.46,0,0,0-1.68,2.329v.9H0v.777A28.61,28.61,0,0,0,48.2,50.24l-1.064-1.132a27.164,27.164,0,0,1-4.313,3.308,3.3,3.3,0,0,0-3.013-1.962,1.743,1.743,0,1,1,0-3.487H41.45a3.3,3.3,0,1,0,0-6.594H39.11a3.424,3.424,0,0,1,0-6.847h6.416a3.3,3.3,0,0,0,3.3-3.3v-.063h6.836a26.944,26.944,0,0,1-7.328,17.749l1.132,1.064a28.5,28.5,0,0,0,7.761-19.59v-.777ZM6.77,3.234a1.68,1.68,0,1,1,3.1.9H8.45v.777a1.68,1.68,0,0,1-1.68-1.68M39.6,28.612H37.789v-.9a.9.9,0,0,1,1.807,0ZM18.531,26.805a.9.9,0,0,1,.9.9v.9H17.628v-.9a.9.9,0,0,1,.9-.9m.777-1.426V18.557h8.527V25.38a2.46,2.46,0,0,0-1.68,2.329v.9H20.988v-.9a2.46,2.46,0,0,0-1.68-2.329m8.4,3.232v-.9a.9.9,0,0,1,1.807,0v.9Zm1.68-3.232V18.557h5.041V14.932h3.487V25.38a2.46,2.46,0,0,0-1.68,2.329v.9H31.069v-.9a2.46,2.46,0,0,0-1.68-2.329m0-10.448h3.487V17H29.389ZM53.038,9.051v7.687H39.47V14.932H44.51V9.051ZM42.957,13.378H29.389V6.37a3.225,3.225,0,0,0,1.32-.679H42.957ZM26.932,3.234a1.68,1.68,0,1,1,3.1.9H28.612v.777h0a1.68,1.68,0,0,1-1.68-1.68m-2.583,11.7V9.316h3.487V17H19.308V14.932Zm-6.594,0V25.38a2.46,2.46,0,0,0-1.68,2.329v.9H10.907v-.9a2.46,2.46,0,0,0-1.68-2.329V14.932ZM7.547,27.709a.9.9,0,0,1,1.807,0v.9H7.547Zm19.269,2.457c-.2,1.131-.872,1.807-1.845,1.807h-2.31a3.3,3.3,0,0,0-3.3,3.3v8.1a3.423,3.423,0,1,1-6.847,0V38.5a3.3,3.3,0,0,0-3.3-3.3H7.009a3.3,3.3,0,0,0-3.3,3.3v1.47a26.88,26.88,0,0,1-2.147-9.809Zm20.453.063a1.746,1.746,0,0,1-1.743,1.743H39.11a4.977,4.977,0,0,0,0,9.955h2.34a1.744,1.744,0,1,1,0,3.487H39.812a3.3,3.3,0,1,0,0,6.594,1.743,1.743,0,0,1,1.654,1.2,27.061,27.061,0,0,1-36.2-10.152V38.5a1.745,1.745,0,0,1,1.743-1.743H9.22A1.745,1.745,0,0,1,10.963,38.5v4.861a4.977,4.977,0,1,0,9.954,0v-8.1a1.746,1.746,0,0,1,1.744-1.743h2.31a3.462,3.462,0,0,0,3.414-3.36H47.269Z"/>
        </g>
      </g>
    </g>
  </g>
</svg>
