<svg id="Grupo_1102687" data-name="Grupo 1102687" xmlns="http://www.w3.org/2000/svg" xmlns:xlink="http://www.w3.org/1999/xlink" width="76.894" height="95.066" viewBox="0 0 76.894 95.066">
  <defs>
    <clipPath id="clip-path">
      <rect id="Rectángulo_403962" data-name="Rectángulo 403962" width="76.894" height="95.066" fill="none"/>
    </clipPath>
    <clipPath id="clip-path-3">
      <rect id="Rectángulo_403953" data-name="Rectángulo 403953" width="14.882" height="4.961" fill="none"/>
    </clipPath>
    <clipPath id="clip-path-4">
      <rect id="Rectángulo_403954" data-name="Rectángulo 403954" width="20.994" height="4.961" fill="none"/>
    </clipPath>
    <clipPath id="clip-path-5">
      <rect id="Rectángulo_403955" data-name="Rectángulo 403955" width="19.844" height="4.961" fill="none"/>
    </clipPath>
    <clipPath id="clip-path-8">
      <rect id="Rectángulo_403958" data-name="Rectángulo 403958" width="9.922" height="14.883" fill="none"/>
    </clipPath>
    <clipPath id="clip-path-10">
      <rect id="Rectángulo_403960" data-name="Rectángulo 403960" width="9.922" height="13.642" fill="none"/>
    </clipPath>
  </defs>
  <g id="Grupo_1102686" data-name="Grupo 1102686" clip-path="url(#clip-path)">
    <g id="Grupo_1102685" data-name="Grupo 1102685">
      <g id="Grupo_1102684" data-name="Grupo 1102684" clip-path="url(#clip-path)">
        <path id="Trazado_879407" data-name="Trazado 879407" d="M60.544,0h0a26.05,26.05,0,0,1,26.05,26.05V84.54h-52.1V26.05A26.05,26.05,0,0,1,60.544,0" transform="translate(-22.068)" fill="#6fa150"/>
        <g id="Grupo_1102662" data-name="Grupo 1102662" transform="translate(31.005 88.865)" opacity="0.3" style="isolation: isolate">
          <g id="Grupo_1102661" data-name="Grupo 1102661">
            <g id="Grupo_1102660" data-name="Grupo 1102660" clip-path="url(#clip-path-3)">
              <path id="Trazado_879408" data-name="Trazado 879408" d="M86.066,246.676h14.883a6.548,6.548,0,0,1-6.353,4.961H92.419A6.548,6.548,0,0,1,86.066,246.676Z" transform="translate(-86.066 -246.676)" fill="#00a8ff"/>
            </g>
          </g>
        </g>
        <g id="Grupo_1102665" data-name="Grupo 1102665" transform="translate(27.95 69.021)" opacity="0.3" style="isolation: isolate">
          <g id="Grupo_1102664" data-name="Grupo 1102664">
            <g id="Grupo_1102663" data-name="Grupo 1102663" clip-path="url(#clip-path-4)">
              <path id="Trazado_879409" data-name="Trazado 879409" d="M98,191.593h.575a5.622,5.622,0,0,0-.575,2.48,2.477,2.477,0,0,1-2.48,2.481H80.641a2.48,2.48,0,0,1-2.481-2.481,5.639,5.639,0,0,0-.477-2.271c-.031-.07-.063-.141-.1-.209H98Z" transform="translate(-77.585 -191.593)" fill="#00a8ff"/>
            </g>
          </g>
        </g>
        <g id="Grupo_1102668" data-name="Grupo 1102668" transform="translate(28.525 73.982)" opacity="0.3" style="isolation: isolate">
          <g id="Grupo_1102667" data-name="Grupo 1102667">
            <g id="Grupo_1102666" data-name="Grupo 1102666" clip-path="url(#clip-path-5)">
              <path id="Trazado_879410" data-name="Trazado 879410" d="M96.544,205.364a2.48,2.48,0,1,1,0,4.961H81.661a2.48,2.48,0,1,1,0-4.961Z" transform="translate(-79.181 -205.364)" fill="#00a8ff"/>
            </g>
          </g>
        </g>
        <g id="Grupo_1102671" data-name="Grupo 1102671" transform="translate(28.525 78.943)" opacity="0.3" style="isolation: isolate">
          <g id="Grupo_1102670" data-name="Grupo 1102670">
            <g id="Grupo_1102669" data-name="Grupo 1102669" clip-path="url(#clip-path-5)">
              <path id="Trazado_879411" data-name="Trazado 879411" d="M96.544,219.134a2.48,2.48,0,1,1,0,4.961H81.661a2.48,2.48,0,1,1,0-4.961Z" transform="translate(-79.181 -219.134)" fill="#00a8ff"/>
            </g>
          </g>
        </g>
        <g id="Grupo_1102674" data-name="Grupo 1102674" transform="translate(28.525 83.904)" opacity="0.3" style="isolation: isolate">
          <g id="Grupo_1102673" data-name="Grupo 1102673">
            <g id="Grupo_1102672" data-name="Grupo 1102672" clip-path="url(#clip-path-5)">
              <path id="Trazado_879412" data-name="Trazado 879412" d="M96.544,232.9a2.48,2.48,0,1,1,0,4.961H81.661a2.48,2.48,0,1,1,0-4.961Z" transform="translate(-79.181 -232.905)" fill="#00a8ff"/>
            </g>
          </g>
        </g>
        <path id="Trazado_879413" data-name="Trazado 879413" d="M67.634,85.247v7.086l-4.961-2.481-4.961,2.481V85.247l-4.961-2.836-4.961,2.836v13.7L46.1,97.4a25.373,25.373,0,0,1-8.229-18.7,24.8,24.8,0,1,1,49.609,0,25.383,25.383,0,0,1-8.229,18.7l-1.693,1.552v-13.7L72.6,82.412Z" transform="translate(-24.227 -34.474)" fill="#9ccfe5"/>
        <path id="Trazado_879414" data-name="Trazado 879414" d="M162.361,225.336v1.24h-1.24a6.2,6.2,0,0,1-6.2-6.2v-1.24h1.24c.124,0,.248,0,.37.011a6.2,6.2,0,0,1,5.831,6.19" transform="translate(-99.11 -140.192)" fill="#6fa150"/>
        <path id="Trazado_879415" data-name="Trazado 879415" d="M179.666,180.237a5.191,5.191,0,0,1-.648,6.547l-.961.961-.961-.961a5.195,5.195,0,0,1-.648-6.547l1.609-2.414Z" transform="translate(-112.325 -113.762)" fill="#6fa150"/>
        <path id="Trazado_879416" data-name="Trazado 879416" d="M189.9,211.565v1.24h-1.24a6.2,6.2,0,0,1-6.2-6.2v-1.24h1.24a6.2,6.2,0,0,1,6.2,6.2" transform="translate(-116.729 -131.382)" fill="#6fa150"/>
        <path id="Trazado_879417" data-name="Trazado 879417" d="M152.125,194.007a5.191,5.191,0,0,1-.648,6.547l-.961.961-.961-.961a5.195,5.195,0,0,1-.648-6.547l1.609-2.414Z" transform="translate(-94.705 -122.572)" fill="#6fa150"/>
        <path id="Trazado_879418" data-name="Trazado 879418" d="M28.837,181.612a5.183,5.183,0,0,1-1.3,5.172l-.961.961-.961-.961a5.189,5.189,0,0,1-.648-6.547l1.609-2.414,1.609,2.414A5.164,5.164,0,0,1,28.837,181.612Z" transform="translate(-15.417 -113.762)" fill="#6fa150"/>
        <path id="Trazado_879419" data-name="Trazado 879419" d="M17.769,205.691v.913a6.2,6.2,0,0,1-6.2,6.2h-1.24v-1.24a6.2,6.2,0,0,1,6.2-6.2h1.24Z" transform="translate(-6.607 -131.382)" fill="#6fa150"/>
        <path id="Trazado_879420" data-name="Trazado 879420" d="M56.378,195.383a5.183,5.183,0,0,1-1.3,5.172l-.961.961-.961-.961a5.189,5.189,0,0,1-.648-6.547l1.609-2.414,1.609,2.414A5.153,5.153,0,0,1,56.378,195.383Z" transform="translate(-33.037 -122.572)" fill="#6fa150"/>
        <path id="Trazado_879421" data-name="Trazado 879421" d="M45.31,220.26v.115a6.2,6.2,0,0,1-6.2,6.2h-1.24v-1.24a6.2,6.2,0,0,1,5.831-6.19c.122-.008.246-.011.37-.011h1.24Z" transform="translate(-24.227 -140.192)" fill="#6fa150"/>
        <path id="Trazado_879422" data-name="Trazado 879422" d="M197.75,153.172v3.589L196.236,156a6.231,6.231,0,0,1-3.447-5.575v-3.589l1.515.758a6.231,6.231,0,0,1,3.446,5.575" transform="translate(-123.337 -93.94)" fill="#6fa150"/>
        <path id="Trazado_879423" data-name="Trazado 879423" d="M11.846,146.839v3.589A6.231,6.231,0,0,1,8.4,156l-1.515.758v-3.589a6.231,6.231,0,0,1,3.447-5.575Z" transform="translate(-4.405 -93.94)" fill="#6fa150"/>
        <g id="Grupo_1102677" data-name="Grupo 1102677" transform="translate(43.051 54.139)" opacity="0.3" style="isolation: isolate">
          <g id="Grupo_1102676" data-name="Grupo 1102676">
            <g id="Grupo_1102675" data-name="Grupo 1102675" clip-path="url(#clip-path-8)">
              <path id="Trazado_879424" data-name="Trazado 879424" d="M119.5,154v-3.721h9.922v10.334h0l-3.133,2.871a5.68,5.68,0,0,0-1.253,1.676H119.5Z" transform="translate(-119.502 -150.281)" fill="#00a8ff"/>
            </g>
          </g>
        </g>
        <g id="Grupo_1102680" data-name="Grupo 1102680" transform="translate(23.564 54.139)" opacity="0.3" style="isolation: isolate">
          <g id="Grupo_1102679" data-name="Grupo 1102679">
            <g id="Grupo_1102678" data-name="Grupo 1102678" clip-path="url(#clip-path-8)">
              <path id="Trazado_879425" data-name="Trazado 879425" d="M75.333,154v11.162H69.8a5.68,5.68,0,0,0-1.253-1.676l-3.133-2.871h0V150.281h9.922Z" transform="translate(-65.411 -150.281)" fill="#00a8ff"/>
            </g>
          </g>
        </g>
        <g id="Grupo_1102683" data-name="Grupo 1102683" transform="translate(33.486 55.379)" opacity="0.3" style="isolation: isolate">
          <g id="Grupo_1102682" data-name="Grupo 1102682">
            <g id="Grupo_1102681" data-name="Grupo 1102681" clip-path="url(#clip-path-10)">
              <path id="Trazado_879426" data-name="Trazado 879426" d="M97.913,167.366H92.951V156.2l4.961-2.48,4.961,2.48v11.162Z" transform="translate(-92.952 -153.724)" fill="#00a8ff"/>
            </g>
          </g>
        </g>
        <path id="Trazado_879427" data-name="Trazado 879427" d="M131.406,135.9v3.366h-9.922V135.9l4.961-2.836Z" transform="translate(-77.72 -85.13)" fill="#ffd737"/>
        <path id="Trazado_879428" data-name="Trazado 879428" d="M76.323,135.9v3.366H66.4V135.9l4.961-2.836Z" transform="translate(-42.48 -85.13)" fill="#ffd737"/>
        <path id="Trazado_879429" data-name="Trazado 879429" d="M76.894,98.855a6.7,6.7,0,0,0-.7-2.984L75.654,94.8V91.5a7.434,7.434,0,0,0-4.131-6.684l-3.31-1.655v5.6a7.432,7.432,0,0,0,4.131,6.684l1.146.573.482.964a4.192,4.192,0,0,1-2.193,5.768l-2.714,1.086a6.445,6.445,0,0,0-.691-5.776L65.732,94.1l-2.641,3.961a6.426,6.426,0,0,0,.745,8.052q-2.37,1.16-4.639,2.525a6.441,6.441,0,0,0-.746-5.616L55.81,99.057l-2.641,3.961a6.429,6.429,0,0,0,.8,8.113l.588.588a61.389,61.389,0,0,0-5.684,4.723q-.1-.138-.218-.266a3.711,3.711,0,0,0,0-4.961,3.711,3.711,0,0,0,0-4.961,3.7,3.7,0,0,0,.951-2.48,4.409,4.409,0,0,1,1.426-3.242l4.826-4.424a26.679,26.679,0,0,0,8.631-19.619,26.045,26.045,0,0,0-52.089,0,26.68,26.68,0,0,0,8.63,19.619l4.826,4.424a4.409,4.409,0,0,1,1.426,3.242,3.705,3.705,0,0,0,.95,2.48,3.712,3.712,0,0,0,0,4.961,3.712,3.712,0,0,0,0,4.961c-.076.085-.15.174-.218.266a61.293,61.293,0,0,0-5.684-4.723l.588-.588a6.429,6.429,0,0,0,.8-8.113l-2.64-3.961-2.641,3.961a6.441,6.441,0,0,0-.746,5.616q-2.264-1.361-4.639-2.525a6.427,6.427,0,0,0,.745-8.052L11.162,94.1,8.521,98.058a6.443,6.443,0,0,0-.691,5.776l-2.714-1.086A4.193,4.193,0,0,1,2.923,96.98l.482-.964,1.146-.573a7.432,7.432,0,0,0,4.131-6.684v-5.6l-3.31,1.655A7.433,7.433,0,0,0,1.24,91.5v3.3L.7,95.87a6.673,6.673,0,0,0,3.49,9.18l2.172.869a7.448,7.448,0,0,0-3.886,6.536v2.48h2.48a7.451,7.451,0,0,0,7.369-6.419q2.111,1.051,4.136,2.271a7.447,7.447,0,0,0-4.064,6.628V119.9h2.48a7.453,7.453,0,0,0,7.13-5.315,58.841,58.841,0,0,1,5.314,4.638,3.731,3.731,0,0,0,2.729,3.034,7.776,7.776,0,0,0,7.3,5.085h2.175a7.776,7.776,0,0,0,7.3-5.084,3.731,3.731,0,0,0,2.728-3.035,58.844,58.844,0,0,1,5.315-4.638,7.453,7.453,0,0,0,7.13,5.315h2.481v-2.481a7.448,7.448,0,0,0-4.064-6.628q2.021-1.218,4.136-2.271a7.451,7.451,0,0,0,7.369,6.419h2.48v-2.48a7.447,7.447,0,0,0-3.886-6.536l2.172-.869A6.641,6.641,0,0,0,76.894,98.855Zm-3.721-5.781a4.963,4.963,0,0,1-2.48-4.315V87.188a4.963,4.963,0,0,1,2.48,4.315ZM3.721,91.5A4.962,4.962,0,0,1,6.2,87.188v1.571a4.963,4.963,0,0,1-2.481,4.315Zm61.434,7.931.577-.866.577.866a3.949,3.949,0,0,1-.493,4.983l-.084.084-.084-.084a3.949,3.949,0,0,1-.493-4.983m-9.922,4.961.577-.866.577.866a3.948,3.948,0,0,1-.494,4.983l-.084.084-.084-.084a3.948,3.948,0,0,1-.494-4.983m-25.468,9.3a1.242,1.242,0,0,1,1.24-1.24H45.888a1.24,1.24,0,0,1,0,2.48H31.006A1.242,1.242,0,0,1,29.765,113.695Zm0-4.961a1.242,1.242,0,0,1,1.24-1.24H45.888a1.24,1.24,0,0,1,0,2.48H31.006A1.242,1.242,0,0,1,29.765,108.734Zm0-4.961a6.849,6.849,0,0,0-.116-1.24H47.244a6.849,6.849,0,0,0-.116,1.24,1.242,1.242,0,0,1-1.24,1.24H31.005A1.242,1.242,0,0,1,29.765,103.773Zm9.922-3.721V95.092h-2.48v4.961h-2.48V90.9l3.721-1.86,3.721,1.86v9.155Zm9.922-1.579V92.611H47.128v7.441h-2.48V92.138l.686.343,1.109-2.218-1.795-.9V87.65h7.441V96.2Zm-1.24-16.836,3.721,2.126V85.17H44.648V83.764ZM60.04,67.059l-2.425.661a72.845,72.845,0,0,1-8,1.7A43.378,43.378,0,0,0,46.966,62.1a49.018,49.018,0,0,0,8.207-2.2,23.645,23.645,0,0,1,4.867,7.152M38.447,53.553a40.128,40.128,0,0,1,4.7,6.573,46.409,46.409,0,0,1-9.4,0,40.107,40.107,0,0,1,4.7-6.573M31.1,59.785a46.448,46.448,0,0,1-7.262-1.769A23.454,23.454,0,0,1,35.578,53.1,42.846,42.846,0,0,0,31.1,59.785M41.316,53.1a23.453,23.453,0,0,1,11.743,4.916A46.451,46.451,0,0,1,45.8,59.785,42.776,42.776,0,0,0,41.316,53.1m-2.869,9.747a49.248,49.248,0,0,0,5.953-.363,40.894,40.894,0,0,1,2.742,7.282,72.844,72.844,0,0,1-8.695.522,72.839,72.839,0,0,1-8.695-.522,40.866,40.866,0,0,1,2.742-7.282,49.243,49.243,0,0,0,5.953.363M21.721,59.907a49.018,49.018,0,0,0,8.207,2.2,43.377,43.377,0,0,0-2.651,7.322,72.935,72.935,0,0,1-8-1.7l-2.425-.661A23.645,23.645,0,0,1,21.721,59.907ZM14.883,76.488a23.471,23.471,0,0,1,1.093-7.1l2.651.723a75.329,75.329,0,0,0,8.087,1.732,42.238,42.238,0,0,0-.664,4.531l2.47.224a39.817,39.817,0,0,1,.655-4.408,75.342,75.342,0,0,0,9.272.576,75.331,75.331,0,0,0,9.272-.576,39.731,39.731,0,0,1,.655,4.408l2.47-.224a42.238,42.238,0,0,0-.664-4.531,75.242,75.242,0,0,0,8.087-1.732l2.651-.723a23.483,23.483,0,0,1,1.093,7.1A24.194,24.194,0,0,1,54.57,93.916V85.181l1.865,1.066,1.231-2.154-9.3-5.313-9.3,5.313L40.3,86.247l1.865-1.066v2.943l-3.721-1.86-3.721,1.86V85.181l1.865,1.066,1.231-2.154-9.3-5.313-9.3,5.313,1.231,2.154,1.865-1.066v8.735a24.194,24.194,0,0,1-7.441-17.428M24.8,83.764l3.721-2.126,3.72,2.126V85.17H24.8Zm0,12.436V87.65h7.441v1.714l-1.795.9,1.11,2.219.685-.343v7.915h-2.48V92.611h-2.48v5.862Zm-4.3,8.195.577-.866.577.866a3.949,3.949,0,0,1-.493,4.983l-.084.084L21,109.377a3.948,3.948,0,0,1-.494-4.983m-9.922-4.961.577-.866.577.866a3.949,3.949,0,0,1-.493,4.983l-.084.084-.084-.084a3.949,3.949,0,0,1-.493-4.983M4.961,112.455a4.966,4.966,0,0,1,4.961-4.961,4.967,4.967,0,0,1-4.961,4.961m9.922,4.961a4.966,4.966,0,0,1,4.961-4.961,4.966,4.966,0,0,1-4.961,4.961m24.652,7.441H37.359a5.3,5.3,0,0,1-4.493-2.48H44.028a5.3,5.3,0,0,1-4.493,2.48m6.354-4.961H31.006a1.24,1.24,0,0,1,0-2.481H45.888a1.24,1.24,0,0,1,0,2.481m16.123-2.481a4.966,4.966,0,0,1-4.961-4.961,4.966,4.966,0,0,1,4.961,4.961m4.961-9.922a4.967,4.967,0,0,1,4.961,4.961,4.967,4.967,0,0,1-4.961-4.961" transform="translate(0 -32.272)"/>
      </g>
    </g>
  </g>
</svg>
