<svg xmlns="http://www.w3.org/2000/svg" xmlns:xlink="http://www.w3.org/1999/xlink" width="85" height="139" viewBox="0 0 85 139">
  <defs>
    <clipPath id="clip-path">
      <rect id="Rect치ngulo_403970" data-name="Rect치ngulo 403970" width="85" height="139" transform="translate(599.711 1039)" fill="#fff" stroke="#707070" stroke-width="1"/>
    </clipPath>
    <clipPath id="clip-path-2">
      <rect id="Rect치ngulo_403969" data-name="Rect치ngulo 403969" width="79.411" height="102.134" fill="none"/>
    </clipPath>
  </defs>
  <g id="Grupo_1202857" data-name="Grupo 1202857" transform="translate(-599.711 -1039)">
    <g id="Enmascarar_grupo_1098799" data-name="Enmascarar grupo 1098799" clip-path="url(#clip-path)">
      <g id="Grupo_1102695" data-name="Grupo 1102695" transform="translate(602.711 1057)">
        <g id="Grupo_1102694" data-name="Grupo 1102694" clip-path="url(#clip-path-2)">
          <path id="Trazado_879431" data-name="Trazado 879431" d="M54.056,0h0A31.471,31.471,0,0,1,85.528,31.471v70.662H22.585V31.471A31.471,31.471,0,0,1,54.056,0" transform="translate(-14.351)" fill="#6fa150"/>
          <path id="Trazado_879432" data-name="Trazado 879432" d="M90.929,72.916a24.062,24.062,0,0,1-9.2,20.864,11.186,11.186,0,0,0-3.907,5.947L75.4,108.811H58.385l-2.423-9.085a11.346,11.346,0,0,0-3.97-5.993A24.105,24.105,0,1,1,90.925,72.916Z" transform="translate(-27.186 -32.2)" fill="#ffeb3a"/>
          <path id="Trazado_879433" data-name="Trazado 879433" d="M129.307,72.931a23.9,23.9,0,0,0-26.123-22.123A24.09,24.09,0,0,1,115.855,93.8a11.185,11.185,0,0,0-3.907,5.947l-2.423,9.084h4.254L116.2,99.74a11.182,11.182,0,0,1,3.907-5.945A24.062,24.062,0,0,0,129.307,72.931Z" transform="translate(-65.564 -32.215)" fill="#fdd834"/>
          <path id="Trazado_879434" data-name="Trazado 879434" d="M80.632,210.128H97.648a2.836,2.836,0,0,1,2.836,2.836v11.344a2.836,2.836,0,0,1-2.836,2.836H80.632a2.836,2.836,0,0,1-2.836-2.836V212.964a2.836,2.836,0,0,1,2.836-2.836" transform="translate(-49.432 -133.518)" fill="#00bcd4"/>
          <path id="Trazado_879435" data-name="Trazado 879435" d="M124.83,210.128h-4.254a2.836,2.836,0,0,1,2.836,2.836v11.344a2.836,2.836,0,0,1-2.836,2.836h4.254a2.836,2.836,0,0,0,2.836-2.836V212.964a2.836,2.836,0,0,0-2.836-2.836" transform="translate(-76.615 -133.518)" fill="#00838f"/>
          <path id="Trazado_879436" data-name="Trazado 879436" d="M85.574,256.8c0,3.915,3.809,7.09,8.508,7.09s8.508-3.175,8.508-7.09Z" transform="translate(-54.375 -163.173)" fill="#02a9f4"/>
          <path id="Trazado_879437" data-name="Trazado 879437" d="M109.457,256.8c0,3.3-2.714,6.069-6.381,6.857a10.123,10.123,0,0,0,2.127.233c4.7,0,8.508-3.175,8.508-7.09Z" transform="translate(-65.496 -163.173)" fill="#0377bc"/>
          <path id="Trazado_879438" data-name="Trazado 879438" d="M79.254,70.116A17.016,17.016,0,1,1,62.238,87.132,17.016,17.016,0,0,1,79.254,70.116" transform="translate(-39.547 -44.552)" fill="#ffdf00"/>
          <path id="Trazado_879439" data-name="Trazado 879439" d="M105.2,70.115a16.939,16.939,0,0,0-2.127.142,17,17,0,0,1,0,33.736A17.015,17.015,0,1,0,105.2,70.115" transform="translate(-65.495 -44.551)" fill="#fec108"/>
          <path id="Trazado_879440" data-name="Trazado 879440" d="M80.136,92.417a25.524,25.524,0,1,0-41.19-21.593q-.043.737-.043,1.476a25.362,25.362,0,0,0,9.75,20.066,10.013,10.013,0,0,1,3.473,5.247l2.048,7.684a4.253,4.253,0,0,0-2.509,3.871v1.418a1.418,1.418,0,1,0,0,2.836v2.836a1.418,1.418,0,1,0,0,2.836v1.418a4.253,4.253,0,0,0,2.944,4.027c.679,4.128,4.815,7.317,9.817,7.317s9.137-3.189,9.817-7.317a4.254,4.254,0,0,0,2.945-4.027v-1.418a1.418,1.418,0,0,0,0-2.836v-2.836a1.418,1.418,0,0,0,0-2.836v-1.418a4.255,4.255,0,0,0-2.509-3.871l2.049-7.684A9.83,9.83,0,0,1,80.136,92.417Zm-29.73-2.28a22.688,22.688,0,1,1,27.985.044,12.684,12.684,0,0,0-4.4,6.7l-2.15,8.033H70.1V96.406a1.418,1.418,0,1,0-2.835,0v8.508H61.591V96.406a1.418,1.418,0,1,0-2.836,0v8.508H57.008l-2.142-8.033A12.851,12.851,0,0,0,50.406,90.137Zm14.021,38.882a6.977,6.977,0,0,1-6.839-4.254H71.265A6.976,6.976,0,0,1,64.427,129.019Zm9.925-8.508a1.418,1.418,0,0,1-1.418,1.418H55.919a1.418,1.418,0,0,1-1.418-1.418v-1.418H74.352Zm0-4.254H54.5v-2.836H74.352ZM54.5,110.586v-1.418a1.418,1.418,0,0,1,1.418-1.418H72.935a1.418,1.418,0,0,1,1.418,1.418v1.418Z" transform="translate(-24.72 -29.721)"/>
          <path id="Trazado_879441" data-name="Trazado 879441" d="M95.217,84.661a18.433,18.433,0,1,0-18.434,18.434A18.434,18.434,0,0,0,95.217,84.661m-34.031,0a15.6,15.6,0,1,1,15.6,15.6,15.6,15.6,0,0,1-15.6-15.6" transform="translate(-37.076 -42.081)"/>
          <path id="Trazado_879442" data-name="Trazado 879442" d="M97.956,104.836v-.142a7.09,7.09,0,0,0-1.418-14.038A4.244,4.244,0,0,1,95.12,82.41v2.575a1.418,1.418,0,0,0,2.836,0V82.41a4.253,4.253,0,0,1,2.836,3.993,1.418,1.418,0,0,0,2.836,0,7.1,7.1,0,0,0-5.672-6.948v-.142a1.418,1.418,0,0,0-2.836,0v.142a7.09,7.09,0,0,0,1.418,14.038,4.244,4.244,0,0,1,1.418,8.247V99.164a1.418,1.418,0,0,0-2.836,0v2.575a4.254,4.254,0,0,1-2.836-3.993,1.418,1.418,0,0,0-2.836,0,7.1,7.1,0,0,0,5.672,6.948v.142a1.418,1.418,0,0,0,2.836,0" transform="translate(-56.831 -49.495)"/>
          <path id="Trazado_879443" data-name="Trazado 879443" d="M1.429,115.734H9.937a1.418,1.418,0,1,0,0-2.836H1.429a1.418,1.418,0,1,0,0,2.836" transform="translate(-0.007 -71.737)"/>
          <path id="Trazado_879444" data-name="Trazado 879444" d="M.153,86.465a1.418,1.418,0,0,0,.626,1.905l.009,0L9.3,92.629a1.418,1.418,0,1,0,1.268-2.538L2.055,85.837a1.418,1.418,0,0,0-1.9.628" transform="translate(0 -54.446)"/>
          <path id="Trazado_879445" data-name="Trazado 879445" d="M9.3,128.6.793,132.856a1.418,1.418,0,1,0,1.268,2.538l8.508-4.254A1.419,1.419,0,0,0,9.3,128.6" transform="translate(-0.005 -81.62)"/>
          <path id="Trazado_879446" data-name="Trazado 879446" d="M196.619,112.9h-8.508a1.418,1.418,0,1,0,0,2.836h8.508a1.418,1.418,0,1,0,0-2.836" transform="translate(-118.627 -71.737)"/>
          <path id="Trazado_879447" data-name="Trazado 879447" d="M195.984,85.82l-8.508,4.254a1.419,1.419,0,1,0,1.268,2.538l8.507-4.254a1.419,1.419,0,0,0-1.267-2.538" transform="translate(-118.625 -54.436)"/>
          <path id="Trazado_879448" data-name="Trazado 879448" d="M188.744,128.6a1.419,1.419,0,0,0-1.268,2.538l8.508,4.254a1.418,1.418,0,1,0,1.268-2.538Z" transform="translate(-118.626 -81.62)"/>
        </g>
      </g>
    </g>
  </g>
</svg>
