<svg xmlns="http://www.w3.org/2000/svg" xmlns:xlink="http://www.w3.org/1999/xlink" width="72" height="72" viewBox="0 0 72 72">
  <defs>
    <clipPath id="clip-path">
      <rect id="Rect치ngulo_403982" data-name="Rect치ngulo 403982" width="53" height="53" transform="translate(0 0.2)" fill="none"/>
    </clipPath>
  </defs>
  <g id="Grupo_1202861" data-name="Grupo 1202861" transform="translate(-220.195 -3561)">
    <g id="Grupo_1103705" data-name="Grupo 1103705" transform="translate(0 34.658)">
      <g id="Grupo_1100484" data-name="Grupo 1100484" transform="translate(-484.473 -2628.658)">
        <rect id="Rect치ngulo_402033" data-name="Rect치ngulo 402033" width="72" height="72" rx="5" transform="translate(704.668 6155)" fill="#99dcff"/>
      </g>
      <g id="Grupo_1102717" data-name="Grupo 1102717" transform="translate(229.711 3536.8)">
        <g id="Grupo_1102716" data-name="Grupo 1102716" clip-path="url(#clip-path)">
          <path id="Trazado_879633" data-name="Trazado 879633" d="M36.4,118.886v2.574a6.006,6.006,0,0,1-12.012,0v-2.574Z" transform="translate(-17.522 -85.423)" fill="#cef"/>
          <path id="Trazado_879634" data-name="Trazado 879634" d="M32.017,106.693a1.721,1.721,0,0,1,1.716,1.716,1.729,1.729,0,0,1-1.716,1.716H20.005a1.721,1.721,0,0,1-1.716-1.716,1.728,1.728,0,0,1,1.716-1.716H32.017Z" transform="translate(-13.141 -76.662)" fill="#cef"/>
          <path id="Trazado_879635" data-name="Trazado 879635" d="M58.3,82.673v6.761H54.869V84.011A12.158,12.158,0,0,0,58.3,82.673" transform="translate(-39.425 -59.403)" fill="#cef"/>
          <path id="Trazado_879636" data-name="Trazado 879636" d="M27.818,84.011v5.422H24.386V82.673A12.158,12.158,0,0,0,27.818,84.011Z" transform="translate(-17.522 -59.403)" fill="#cef"/>
          <path id="Trazado_879637" data-name="Trazado 879637" d="M140.04,119.654l-6.5,13a1.31,1.31,0,0,1-2.428-.961l2.068-6.889h-5.148l3.432-12.012h6.006l-1.716,6.864Z" transform="translate(-91.992 -81.043)" fill="#ffd737"/>
          <path id="Trazado_879638" data-name="Trazado 879638" d="M127.463,81.358h-3.432a5.152,5.152,0,0,1-5.148-5.148h3.432a5.152,5.152,0,0,1,5.148,5.148" transform="translate(-85.421 -54.759)" fill="#22a53c"/>
          <path id="Trazado_879639" data-name="Trazado 879639" d="M156.23,76.21h3.432a6.855,6.855,0,0,1-6.864,6.864h-3.432a6.855,6.855,0,0,1,6.864-6.864" transform="translate(-107.324 -54.759)" fill="#22a53c"/>
          <path id="Trazado_879640" data-name="Trazado 879640" d="M156.23,33.534h3.432A6.855,6.855,0,0,1,152.8,40.4h-3.432a6.855,6.855,0,0,1,6.864-6.864" transform="translate(-107.324 -24.095)" fill="#22a53c"/>
          <path id="Trazado_879641" data-name="Trazado 879641" d="M122.315,39.631a5.152,5.152,0,0,1,5.148,5.148h-3.432a5.152,5.152,0,0,1-5.148-5.148Z" transform="translate(-85.421 -28.476)" fill="#22a53c"/>
          <path id="Trazado_879642" data-name="Trazado 879642" d="M15.06,3.052A12.012,12.012,0,1,1,3.048,15.064,12.012,12.012,0,0,1,15.06,3.052" transform="translate(-2.19 -2.193)" fill="#99dcff"/>
          <path id="Trazado_879643" data-name="Trazado 879643" d="M55.426,22.109H50.4a1.729,1.729,0,0,1-1.716-1.716,1.721,1.721,0,0,0-1.716-1.716H44.392a1.729,1.729,0,0,1-1.716-1.716,1.721,1.721,0,0,1,1.716-1.716h7.541a11.967,11.967,0,0,1,3.492,6.864" transform="translate(-30.664 -10.954)" fill="#22a53c"/>
          <path id="Trazado_879644" data-name="Trazado 879644" d="M17.986,47a1.677,1.677,0,0,1,.506,1.21,1.721,1.721,0,0,1-1.716,1.716H6.66a11.952,11.952,0,0,1-3.612-8.58,1.909,1.909,0,0,1,.009-.223,1.716,1.716,0,0,1,1.707-1.493h6.864a1.729,1.729,0,0,1,1.716,1.716,1.721,1.721,0,0,1-1.716,1.716H9.912A1.729,1.729,0,0,0,8.2,44.779,1.721,1.721,0,0,0,9.912,46.5h6.864a1.677,1.677,0,0,1,1.21.506" transform="translate(-2.19 -28.476)" fill="#22a53c"/>
          <path id="Trazado_879645" data-name="Trazado 879645" d="M45.474,17.162A7.73,7.73,0,0,0,53.2,9.44V8.582h-4.29A7.71,7.71,0,0,0,42.9,11.46V7.724a7.722,7.722,0,0,0-15.444,0V45.476a6.014,6.014,0,0,1-6.006,6.006H19.734a6.014,6.014,0,0,1-6.006-6.006V42.842a6.87,6.87,0,0,0,6.006-6.8V34.164a2.559,2.559,0,0,0,0-4.832V23.739a12.869,12.869,0,1,0-13.728,0v5.592a2.558,2.558,0,0,0,0,4.831v1.874a6.87,6.87,0,0,0,6.006,6.8v2.633A7.73,7.73,0,0,0,19.734,53.2H21.45a7.73,7.73,0,0,0,7.722-7.722V7.724a6.006,6.006,0,0,1,12.012,0v4.385a5.982,5.982,0,0,0-4.29-1.811H32.6v.858a6.013,6.013,0,0,0,6.006,6.006h2.574V22.4a5.983,5.983,0,0,0-4.29-1.811H32.6v.858a6.014,6.014,0,0,0,6.006,6.006h2.574V30.89H38.821L34.9,44.617h5.133L38.295,50.4a2.171,2.171,0,0,0,4.02,1.6l7.121-14.245H44.857l1.716-6.864H42.9V29.174h2.574A7.73,7.73,0,0,0,53.2,21.452v-.858h-4.29A7.71,7.71,0,0,0,42.9,23.472V17.162ZM18.018,29.174H16.3V25.263a12.834,12.834,0,0,0,1.716-.6ZM12.87,25.742a12.875,12.875,0,0,0,1.716-.128v3.56H11.154v-3.56a12.875,12.875,0,0,0,1.716.128M23.712,10.3H19.734a.858.858,0,0,1-.858-.858A2.577,2.577,0,0,0,16.3,6.866H13.728a.858.858,0,0,1,0-1.716H20.9A11.148,11.148,0,0,1,23.712,10.3M12.87,1.718a11.069,11.069,0,0,1,5.917,1.716H13.728a2.574,2.574,0,1,0,0,5.148H16.3a.858.858,0,0,1,.858.858,2.577,2.577,0,0,0,2.574,2.574H23.98c.023.284.044.568.044.858A11.132,11.132,0,0,1,6.953,22.31h7.633a2.574,2.574,0,0,0,0-5.148H7.722a.858.858,0,0,1,0-1.716H9.438a2.574,2.574,0,0,0,0-5.148H2.575a2.585,2.585,0,0,0-.564.066A11.165,11.165,0,0,1,12.87,1.718M1.716,12.872c0-.021,0-.04,0-.061a.838.838,0,0,1,.856-.8H9.438a.858.858,0,0,1,0,1.716H7.722a2.574,2.574,0,0,0,0,5.148h6.864a.858.858,0,1,1,0,1.716H4.84a11.108,11.108,0,0,1-3.124-7.722M9.438,25.263v3.911H7.722V24.66A12.834,12.834,0,0,0,9.438,25.263ZM6.864,30.89H18.876a.858.858,0,1,1,0,1.716H6.864a.858.858,0,1,1,0-1.716m.858,5.148V34.322h10.3v1.716a5.148,5.148,0,0,1-10.3,0M38.61,15.446a4.3,4.3,0,0,1-4.2-3.432h2.487a4.3,4.3,0,0,1,4.2,3.432Zm0,10.3a4.3,4.3,0,0,1-4.2-3.432h2.487a4.3,4.3,0,0,1,4.2,3.432ZM46.66,39.47,40.779,51.231a.457.457,0,0,1-.406.251.454.454,0,0,1-.434-.585l2.4-7.995H37.174l2.941-10.3h4.26L42.659,39.47Zm2.246-17.16h2.513a6.014,6.014,0,0,1-5.945,5.148H42.961a6.015,6.015,0,0,1,5.945-5.148m0-12.012h2.513a6.014,6.014,0,0,1-5.945,5.148H42.961A6.015,6.015,0,0,1,48.906,10.3" transform="translate(0 -0.001)"/>
        </g>
      </g>
    </g>
  </g>
</svg>
