<svg xmlns="http://www.w3.org/2000/svg" xmlns:xlink="http://www.w3.org/1999/xlink" width="420" height="318.233" viewBox="0 0 420 318.233">
  <defs>
    <clipPath id="clip-path">
      <rect id="Rect치ngulo_404351" data-name="Rect치ngulo 404351" width="270.97" height="284.045" fill="none"/>
    </clipPath>
    <clipPath id="clip-path-2">
      <path id="Trazado_884206" data-name="Trazado 884206" d="M245.739,123.444a3.956,3.956,0,0,0-.078.775l4.4-3.48a3.905,3.905,0,0,1,.078-.774l-4.4,3.479" transform="translate(-245.661 -119.965)" fill="none"/>
    </clipPath>
    <clipPath id="clip-path-4">
      <path id="Trazado_884213" data-name="Trazado 884213" d="M252.476,116.228a3.948,3.948,0,0,0-.376.263l-4.4,3.479a4.073,4.073,0,0,1,.376-.262,3.844,3.844,0,0,1,2.045-.563l4.4-3.479h-.034a3.838,3.838,0,0,0-2.011.563" transform="translate(-247.702 -115.665)" fill="none"/>
    </clipPath>
  </defs>
  <g id="Grupo_1202856" data-name="Grupo 1202856" transform="translate(-180 -4674.689)">
    <path id="Rect치ngulo_404350" data-name="Rect치ngulo 404350" d="M170,0H420a0,0,0,0,1,0,0V318.233a0,0,0,0,1,0,0H0a0,0,0,0,1,0,0V170A170,170,0,0,1,170,0Z" transform="translate(180 4674.689)" fill="#e5f6ff"/>
    <g id="Grupo_1103738" data-name="Grupo 1103738" transform="translate(253.086 4686.75)">
      <g id="Grupo_1103729" data-name="Grupo 1103729">
        <g id="Grupo_1103728" data-name="Grupo 1103728" clip-path="url(#clip-path)">
          <path id="Trazado_884190" data-name="Trazado 884190" d="M129.756,126.934a14.057,14.057,0,0,1,13.894,14.049,14.234,14.234,0,0,1-.212,2.417,5.959,5.959,0,0,1,2.468-.513,6.081,6.081,0,0,1,6.006,6.077,5.952,5.952,0,0,1-6.013,5.968l-32.684-.3a8.359,8.359,0,0,1-8.262-8.351,8.181,8.181,0,0,1,11.061-7.685,13.763,13.763,0,0,1,13.742-11.663" transform="translate(-30.199 -36.524)" fill="#fff"/>
          <path id="Trazado_884191" data-name="Trazado 884191" d="M189.275,286.55a21.205,21.205,0,0,0-5.506-8.912.454.454,0,0,0,.264-.375,27.5,27.5,0,0,0-1.04-12.541c-.23-.711-1.357-.407-1.125.311a26.229,26.229,0,0,1,1.058,11.764c-1.979-1.92-4.172-3.687-6.314-5.532A37.591,37.591,0,0,1,168.218,261a41.748,41.748,0,0,0-5.271-8.053c-.489-.529-1-1.019-1.525-1.488a.468.468,0,0,0,.373-.532,57.7,57.7,0,0,0-3.932-16.321c-.276-.688-1.4-.387-1.124.31a56.673,56.673,0,0,1,3.871,15.846c-10.851-8.857-28.076-6.8-36.864-18.841-.438-.6-1.45-.02-1.007.588a24.385,24.385,0,0,0,8.525,7.207,34.064,34.064,0,0,1-8.035.652c-.75-.029-.749,1.137,0,1.166a35.187,35.187,0,0,0,9.118-.841.509.509,0,0,0,.356-.26c8.019,3.793,17.6,4.865,25.185,9.81,3.368,2.2,5.524,5.207,7.472,8.388a.565.565,0,0,0-.155,0c-4.228.819-8.014,1.189-12.258.11-3.063-.778-6.106-1.642-9.157-2.464a.584.584,0,0,0-.311,1.125,117.932,117.932,0,0,0,11.862,3.064c3.437.548,6.8-.057,10.173-.712a.491.491,0,0,0,.367-.261,53.144,53.144,0,0,0,6.019,8.92c5.609,6.143,13.762,9.918,16.251,18.443a.583.583,0,0,0,1.124-.309" transform="translate(-35.286 -66.661)" fill="#8adaf9"/>
          <path id="Trazado_884192" data-name="Trazado 884192" d="M157.628,373.38h-32.4a31.491,31.491,0,0,1-31.456-31.456,25.706,25.706,0,0,0-25.676-25.678H21.374v-5.779H68.095a31.491,31.491,0,0,1,31.455,31.456A25.706,25.706,0,0,0,125.227,367.6h32.4A25.706,25.706,0,0,0,183.3,341.924v-5.742h5.779v5.742a31.492,31.492,0,0,1-31.456,31.456" transform="translate(-6.15 -89.335)" fill="#514736"/>
          <path id="Trazado_884193" data-name="Trazado 884193" d="M31.6,297.9H14.593v3.6H2.554a2.553,2.553,0,1,0,0,5.106H14.593v5.472H2.554a2.554,2.554,0,1,0,0,5.108H14.593v3.6H31.6c2.483,0,4.515-1.688,4.515-3.75V301.646c0-2.063-2.032-3.75-4.515-3.75" transform="translate(0 -85.717)" fill="#514736"/>
          <path id="Trazado_884194" data-name="Trazado 884194" d="M273.488,347.766v3.463c0,2.652-15.555,5.732-34.735,5.557s-34.725-3.54-34.724-6.192v-3.464c0,2.652,15.545,4.941,34.725,5.116s34.733-1.829,34.734-4.481" transform="translate(-58.707 -99.884)" fill="#514736"/>
          <path id="Trazado_884195" data-name="Trazado 884195" d="M238.76,340.835c19.18.175,34.73,2.464,34.729,5.117s-15.554,4.656-34.734,4.481-34.726-2.464-34.725-5.116,15.549-4.657,34.73-4.482" transform="translate(-58.708 -98.069)" fill="#685945"/>
          <path id="Trazado_884196" data-name="Trazado 884196" d="M275.671,59.179l-8.8,6.76,5,9.9L261.011,78.1l.207,11.094-10.77-2.662L245.82,96.619l-8.542-7.087-8.542,7.087-4.629-10.084L213.336,89.2l.208-11.094L202.68,75.843l5-9.9-8.8-6.76,8.8-6.759-5-9.905,10.865-2.259-.207-11.094,10.77,2.662,4.628-10.084,8.542,7.087,8.542-7.087,4.628,10.085,10.771-2.662-.207,11.094,10.864,2.259-5,9.9Z" transform="translate(-57.227 -6.256)" fill="#ffe088"/>
          <path id="Trazado_884197" data-name="Trazado 884197" d="M268.233,63.835A25.915,25.915,0,1,1,242.318,37.92a25.914,25.914,0,0,1,25.915,25.915" transform="translate(-62.268 -10.911)" fill="#ffd737"/>
          <path id="Trazado_884198" data-name="Trazado 884198" d="M278.221,331.194v4.061c0,3-19.11,6.882-42.676,6.667s-42.666-4.452-42.664-7.447l0-4.061c0,3,19.1,5.595,42.665,5.81s42.673-2.035,42.674-5.03" transform="translate(-55.5 -95.074)" fill="#594a32"/>
          <path id="Trazado_884199" data-name="Trazado 884199" d="M235.553,323.339c23.566.216,42.669,2.82,42.668,5.815s-19.108,5.245-42.674,5.031-42.666-2.816-42.665-5.811,19.1-5.25,42.671-5.035" transform="translate(-55.5 -93.034)" fill="#7a6b4f"/>
          <path id="Trazado_884200" data-name="Trazado 884200" d="M288.642,309.406l0,7.645c0,4.219-26.935,8.549-60.158,8.247s-60.152-5.126-60.149-9.346l0-7.645Z" transform="translate(-48.436 -88.713)" fill="#729720"/>
          <path id="Trazado_884201" data-name="Trazado 884201" d="M228.487,298.3c33.224.3,60.152,3.971,60.149,8.2s-26.933,7.4-60.157,7.1-60.152-3.971-60.149-8.2,26.933-7.4,60.157-7.1" transform="translate(-48.436 -85.827)" fill="#6f716c"/>
          <path id="Trazado_884202" data-name="Trazado 884202" d="M213.963,122.349l12.262,1.781a3.961,3.961,0,0,0-.078.775,3.915,3.915,0,0,0,2.266,3.556l-4.57,11.145-46,14.743Z" transform="translate(-51.172 -35.205)" fill="#25689c"/>
        </g>
      </g>
      <g id="Grupo_1103731" data-name="Grupo 1103731" transform="translate(174.974 85.446)">
        <g id="Grupo_1103730" data-name="Grupo 1103730" clip-path="url(#clip-path-2)">
          <path id="Trazado_884203" data-name="Trazado 884203" d="M245.764,123.444l4.4-3.479c-.007.033-.014.066-.019.1l-4.4,3.48c0-.033.011-.067.019-.1" transform="translate(-245.685 -119.965)" fill="#1a496e"/>
          <path id="Trazado_884204" data-name="Trazado 884204" d="M245.725,123.584l4.4-3.479a3.8,3.8,0,0,0-.049.4l-4.4,3.48a3.65,3.65,0,0,1,.048-.4" transform="translate(-245.666 -120.005)" fill="#1b4c71"/>
          <path id="Trazado_884205" data-name="Trazado 884205" d="M245.672,124.142l4.4-3.479q-.011.138-.011.278,0,.066,0,.132l-4.4,3.48c0-.044,0-.089,0-.133,0-.093,0-.186.011-.278" transform="translate(-245.661 -120.166)" fill="#1c4e75"/>
        </g>
      </g>
      <g id="Grupo_1103733" data-name="Grupo 1103733">
        <g id="Grupo_1103732" data-name="Grupo 1103732" clip-path="url(#clip-path)">
          <path id="Trazado_884207" data-name="Trazado 884207" d="M247.662,131.1a3.921,3.921,0,0,0,1.318.241,3.859,3.859,0,0,0,1.224-.187l.434,1.864,3.355,126.444-10.253-.093,3.481-126.382Z" transform="translate(-70.134 -37.722)" fill="#d3d3d3"/>
        </g>
      </g>
      <g id="Grupo_1103735" data-name="Grupo 1103735" transform="translate(176.428 82.383)">
        <g id="Grupo_1103734" data-name="Grupo 1103734" clip-path="url(#clip-path-4)">
          <path id="Trazado_884208" data-name="Trazado 884208" d="M247.7,120.074l4.4-3.479a3.806,3.806,0,0,1,.375-.262,3.883,3.883,0,0,1,.62-.306l-4.4,3.479a3.823,3.823,0,0,0-.62.306,3.938,3.938,0,0,0-.375.263" transform="translate(-247.702 -115.769)" fill="#858585"/>
          <path id="Trazado_884209" data-name="Trazado 884209" d="M249.1,119.44l4.4-3.479a3.676,3.676,0,0,1,.53-.161l-4.4,3.479a3.77,3.77,0,0,0-.53.162" transform="translate(-248.104 -115.704)" fill="#8a8a8a"/>
          <path id="Trazado_884210" data-name="Trazado 884210" d="M249.844,119.248l4.4-3.479a3.766,3.766,0,0,1,.451-.074l-4.4,3.479a3.757,3.757,0,0,0-.452.074" transform="translate(-248.318 -115.674)" fill="#8f8f8f"/>
          <path id="Trazado_884211" data-name="Trazado 884211" d="M250.478,119.166l4.4-3.479a3.938,3.938,0,0,1,.422-.021l-4.4,3.479a3.925,3.925,0,0,0-.422.021" transform="translate(-248.501 -115.665)" fill="#949494"/>
          <path id="Trazado_884212" data-name="Trazado 884212" d="M251.07,119.145l4.4-3.479h.022l-4.4,3.479Z" transform="translate(-248.671 -115.665)" fill="#999"/>
        </g>
      </g>
      <g id="Grupo_1103737" data-name="Grupo 1103737">
        <g id="Grupo_1103736" data-name="Grupo 1103736" clip-path="url(#clip-path)">
          <path id="Trazado_884214" data-name="Trazado 884214" d="M249.536,120.55a3.913,3.913,0,0,1,3.87,3.822c0,.028,0,.057,0,.085A3.835,3.835,0,0,1,250.8,128.1l-.038.013a3.84,3.84,0,0,1-1.224.187,3.886,3.886,0,0,1-1.318-.241c-.1-.036-.192-.076-.286-.118a3.919,3.919,0,0,1-2.189-4.33,3.826,3.826,0,0,1,3.8-3.063" transform="translate(-70.687 -34.687)" fill="#d3d3d3"/>
          <path id="Trazado_884215" data-name="Trazado 884215" d="M267.567,123.761l36.092,32.66-45.989-15.584-4.8-11.811a3.834,3.834,0,0,0,2.611-3.645Z" transform="translate(-72.761 -35.611)" fill="#25689c"/>
          <path id="Trazado_884216" data-name="Trazado 884216" d="M247.934,41.47,257.8,89.053l-7.715,9.911a3.89,3.89,0,0,0-2.746-1.168,3.837,3.837,0,0,0-2.045.562l-7.271-9.485Z" transform="translate(-68.489 -11.933)" fill="#25689c"/>
          <path id="Trazado_884217" data-name="Trazado 884217" d="M283.716,227.5l-1.637,59.292,6.378.058-1.575-59.4a7.653,7.653,0,0,1-3.165.052" transform="translate(-81.166 -65.445)" fill="#d3d3d3"/>
          <path id="Trazado_884218" data-name="Trazado 884218" d="M285.156,215.642c.038.014.076.026.115.038l-.352.974Z" transform="translate(-81.983 -62.049)" fill="#d3d3d3"/>
          <path id="Trazado_884219" data-name="Trazado 884219" d="M246.667,239.622l20.9-18.953,5.484,4.083a2.1,2.1,0,0,0,.393,1.925,2.121,2.121,0,0,0,.863.632l-2.666,5.619Z" transform="translate(-70.976 -63.496)" fill="#25689c"/>
          <path id="Trazado_884220" data-name="Trazado 884220" d="M284.377,224.743a2.1,2.1,0,0,1,.493-.3,2.151,2.151,0,0,1,2.5.618c.013.015.023.03.036.046a2.093,2.093,0,0,1-.343,2.918,2.128,2.128,0,0,1-.529.312c-.037.015-.075.03-.113.043a2.149,2.149,0,0,1-1.49-.035,2.117,2.117,0,0,1-1.256-2.557,2.092,2.092,0,0,1,.7-1.048" transform="translate(-81.601 -64.534)" fill="#d3d3d3"/>
          <path id="Trazado_884221" data-name="Trazado 884221" d="M289.036,227.1l6.681-.537L314.126,244.7l-16.341-6.319-4.6-1.777-3.222-1.246-1.9-5.383-.345-.977a2.109,2.109,0,0,0,1.312-1.9" transform="translate(-82.79 -65.192)" fill="#25689c"/>
          <path id="Trazado_884222" data-name="Trazado 884222" d="M286.853,181.466l4.009,26.164-4.479,5.162a2.168,2.168,0,0,0-2.536-.663l-3.814-5.517Z" transform="translate(-80.577 -52.215)" fill="#25689c"/>
          <path id="Trazado_884223" data-name="Trazado 884223" d="M216.526,213.156l4.4-3.48,2.745,4.838-4.4,3.48Z" transform="translate(-62.304 -60.332)" fill="#b7b7b7"/>
          <path id="Trazado_884224" data-name="Trazado 884224" d="M218.782,219.4l2.442,63.739-9.144-.058,2.735-68.519Z" transform="translate(-61.024 -61.738)" fill="#d3d3d3"/>
          <path id="Trazado_884225" data-name="Trazado 884225" d="M217.164,199.686c.043.016.086.03.13.043l-.4,1.1Z" transform="translate(-62.41 -57.458)" fill="#d3d3d3"/>
          <path id="Trazado_884226" data-name="Trazado 884226" d="M169.216,184.858l31.809-1.62,1.872,7.487a2.391,2.391,0,0,0-.729,3.133l-6.346,3Z" transform="translate(-48.691 -52.725)" fill="#25689c"/>
          <path id="Trazado_884227" data-name="Trazado 884227" d="M217.449,193.169a2.361,2.361,0,0,1,.642.095,2.427,2.427,0,0,1,1.744,2.326c0,.021,0,.043,0,.065a2.363,2.363,0,0,1-2.387,2.3,2.442,2.442,0,0,1-.684-.1c-.043-.014-.086-.028-.13-.044a2.425,2.425,0,0,1-1.276-1.095,2.392,2.392,0,0,1,.73-3.133,2.359,2.359,0,0,1,1.363-.414" transform="translate(-61.88 -55.583)" fill="#d3d3d3"/>
          <path id="Trazado_884228" data-name="Trazado 884228" d="M218.91,198.738l6.221,4.306,3.123,29-9.761-17.2-2.745-4.838-1.925-3.392,2.189-6.061.4-1.1a2.416,2.416,0,0,0,.684.1,2.356,2.356,0,0,0,1.817-.823" transform="translate(-61.526 -57.185)" fill="#25689c"/>
          <path id="Trazado_884229" data-name="Trazado 884229" d="M243.864,158.7l-15.2,25.725-7.6,1.308a2.444,2.444,0,0,0-1.742-2.39l.61-7.548Z" transform="translate(-63.107 -45.665)" fill="#25689c"/>
          <path id="Trazado_884230" data-name="Trazado 884230" d="M180.943,257.739c-1.555-1.192-3.343-2.078-4.776-3.414-3.187-2.972-4.076-7.572-5.437-11.71a29.446,29.446,0,0,0-6.367-11.232A17.947,17.947,0,0,0,153,225.657c-3.887-.3-7.705.939-11.546,1.609s-8.142.662-11.22-1.73c-2.437-1.892-3.782-5.048-6.485-6.534-3.808-2.093-8.757.108-11.462,3.509a15.007,15.007,0,0,0-2.526,14.024,13.32,13.32,0,0,0,11.01,8.769c2.826.255,5.968-.4,8.3,1.226,2.218,1.548,2.78,4.6,2.639,7.3s-.788,5.434-.232,8.081a10.9,10.9,0,0,0,6.828,7.569,16.891,16.891,0,0,0,10.446.244c3.861-1.042,8.278-2.99,11.528-.66,3.773,2.705,2.682,9.024,5.971,12.3,3.433,3.42,17.179,4.719,20.618.5,5.056-6.207-.428-19.917-5.917-24.125" transform="translate(-31.362 -62.781)" fill="#a7dbb1"/>
          <path id="Trazado_884231" data-name="Trazado 884231" d="M191.548,289.267h10.461a90.829,90.829,0,0,0-10.844-27.822,65.455,65.455,0,0,0-23.148-23.271,18.459,18.459,0,0,0-7.559-2.761,7.965,7.965,0,0,0-7.172,2.947c-2.183,3.123-1,7.434.656,10.865,8,16.581,28.918,20.176,37.607,40.042" transform="translate(-43.764 -67.73)" fill="#22a53c"/>
          <path id="Trazado_884232" data-name="Trazado 884232" d="M198.211,291.85h1.558a116.39,116.39,0,0,0-14.4-26.734c-6.372-8.776-13.522-17.061-23.988-20.711-.876-.306-1.463,1.021-.58,1.329,10.868,3.79,18.232,12.794,24.651,21.995a114.627,114.627,0,0,1,12.759,24.121" transform="translate(-46.143 -70.312)" fill="#22a53c"/>
          <path id="Trazado_884233" data-name="Trazado 884233" d="M351.85,220.388c-3.642-2.912-9.088-.1-12.179,3.39s-5.8,7.96-10.344,9.019c-4.281,1-8.826-1.467-13.086-.382-5.128,1.306-7.637,7.029-8.965,12.152s-2.556,10.893-6.935,13.864c-2.343,1.589-5.3,2.123-7.557,3.831-6.328,4.782-5.039,17.389,1.177,22.18H311.5a12.03,12.03,0,0,0,4.18-2.429c3.722-3.583,1.01-10.577,4.145-14.883,2.062-2.828,7.32-3.913,10.389-5.071,3.639-1.372,7.443-3.5,8.692-7.186,1.035-3.056.043-6.465.779-9.606.783-3.348,3.4-5.929,6.038-8.128s5.51-4.308,7.161-7.323,1.647-7.281-1.038-9.427" transform="translate(-83.049 -63.066)" fill="#c5d9b9"/>
          <path id="Trazado_884234" data-name="Trazado 884234" d="M352.255,227.278c-6.023,2.663-11.095,6.657-15.952,11.041-5.6,5.051-11.242,10.142-16.558,15.484a63.266,63.266,0,0,0-17.391,32.954h1.136a62.884,62.884,0,0,1,18.2-33.3c9.3-9.039,19.113-19.905,31.133-25.22.656-.291.088-1.252-.563-.964" transform="translate(-87 -65.382)" fill="#c5d9b9"/>
          <path id="Trazado_884235" data-name="Trazado 884235" d="M327.592,246.422l-1.474,12.906c-.082.713,1.036.707,1.116,0q.737-6.453,1.474-12.906c.083-.713-1.035-.707-1.116,0" transform="translate(-93.836 -70.753)" fill="#c5d9b9"/>
          <path id="Trazado_884236" data-name="Trazado 884236" d="M344.032,265.279c-5.469.2-10.7-1.7-16.158-1.729a.559.559,0,0,0,0,1.117c5.459.032,10.683,1.924,16.158,1.728.716-.026.719-1.142,0-1.116" transform="translate(-94.188 -75.834)" fill="#c5d9b9"/>
          <path id="Trazado_884237" data-name="Trazado 884237" d="M299.189,285.881a125.828,125.828,0,0,1,2.7,14.956c.083.7,1.2.713,1.116,0a128.163,128.163,0,0,0-2.736-15.253c-.17-.7-1.246-.4-1.076.3" transform="translate(-86.084 -82.06)" fill="#c5d9b9"/>
          <path id="Trazado_884238" data-name="Trazado 884238" d="M316.986,298.654l-12.864,4.25c-.68.224-.388,1.3.3,1.077l12.864-4.251c.68-.224.388-1.3-.3-1.076" transform="translate(-87.397 -85.926)" fill="#c5d9b9"/>
          <path id="Trazado_884239" data-name="Trazado 884239" d="M323.284,250.1a6.145,6.145,0,0,0-5.608-2.082,14.235,14.235,0,0,0-5.755,2.33A50.492,50.492,0,0,0,294.688,268.9a70.37,70.37,0,0,0-7.992,23.955h7.561c5.369-17.728,22.783-20.7,28.809-34.365,1.187-2.69,1.984-6.046.218-8.4" transform="translate(-82.494 -71.351)" fill="#146324"/>
          <path id="Trazado_884240" data-name="Trazado 884240" d="M320.246,254.9c-7.974,3.092-13.268,9.67-17.947,16.606a90.463,90.463,0,0,0-11.158,23.334h1.17a89.3,89.3,0,0,1,9.993-21.317c4.705-7.264,10.145-14.4,18.425-17.613.672-.26.184-1.268-.483-1.009" transform="translate(-83.773 -73.334)" fill="#146324"/>
          <path id="Trazado_884241" data-name="Trazado 884241" d="M183.406,91.12a6.7,6.7,0,0,0-6.367,2.228l-1.115,1.286-1.114-1.286a6.7,6.7,0,0,0-6.368-2.228c-4.788.976-4.3,6.459-4.3,6.459a6.075,6.075,0,0,1,11.786-.021,6.075,6.075,0,0,1,11.786.021s.484-5.484-4.3-6.459" transform="translate(-47.226 -26.182)" fill="#006599"/>
          <path id="Trazado_884242" data-name="Trazado 884242" d="M342.023,121.8a10.306,10.306,0,0,0-9.8,3.427l-1.714,1.978-1.714-1.978a10.306,10.306,0,0,0-9.795-3.427c-7.367,1.5-6.622,9.937-6.622,9.937a9.344,9.344,0,0,1,18.131-.031,9.345,9.345,0,0,1,18.131.031s.745-8.436-6.622-9.937" transform="translate(-89.88 -34.99)" fill="#006599"/>
          <path id="Trazado_884243" data-name="Trazado 884243" d="M106.36,196.571a7.191,7.191,0,0,0-6.835,2.39l-1.2,1.38-1.2-1.38a7.19,7.19,0,0,0-6.834-2.39c-5.14,1.047-4.62,6.932-4.62,6.932a6.52,6.52,0,0,1,12.65-.022,6.52,6.52,0,0,1,12.65.022s.52-5.885-4.62-6.932" transform="translate(-24.65 -56.522)" fill="#006599"/>
          <path id="Trazado_884244" data-name="Trazado 884244" d="M319.267.138a7.19,7.19,0,0,0-6.835,2.391l-1.2,1.38-1.2-1.38A7.189,7.189,0,0,0,303.207.138c-5.14,1.047-4.62,6.932-4.62,6.932a6.52,6.52,0,0,1,12.65-.021,6.52,6.52,0,0,1,12.65.021s.52-5.885-4.62-6.932" transform="translate(-85.912 0)" fill="#006599"/>
        </g>
      </g>
    </g>
  </g>
</svg>
