<svg xmlns="http://www.w3.org/2000/svg" xmlns:xlink="http://www.w3.org/1999/xlink" width="456" height="367.602" viewBox="0 0 456 367.602">
  <defs>
    <clipPath id="clip-path">
      <rect id="Rect치ngulo_404229" data-name="Rect치ngulo 404229" width="362" height="349.082" fill="none"/>
    </clipPath>
  </defs>
  <g id="Grupo_1202868" data-name="Grupo 1202868" transform="translate(-963.711 -7028)">
    <path id="Rect치ngulo_404224" data-name="Rect치ngulo 404224" d="M0,0H286A170,170,0,0,1,456,170V367.4a0,0,0,0,1,0,0H0a0,0,0,0,1,0,0V0A0,0,0,0,1,0,0Z" transform="translate(963.711 7028)" fill="#c5d9b9"/>
    <g id="Grupo_1103147" data-name="Grupo 1103147" transform="translate(963.711 7046.52)">
      <g id="Grupo_1103146" data-name="Grupo 1103146" clip-path="url(#clip-path)">
        <path id="Trazado_883937" data-name="Trazado 883937" d="M249.692,9.443c-.9,0-1.788.018-2.68.035a147.72,147.72,0,0,1,114.259,237.96h5.355a147.722,147.722,0,0,0-116.933-238" transform="translate(-55.652 -2.128)" fill="#b2e5ff" fill-rule="evenodd"/>
        <path id="Trazado_883938" data-name="Trazado 883938" d="M206.575,5.292A150.938,150.938,0,0,0,85.6,246.5h4.244A150.94,150.94,0,0,1,211.153,5.74c4.214,0,8.384.181,12.509.521a152.337,152.337,0,0,0-17.087-.968" transform="translate(-12.534 -1.192)" fill="#99dcff" fill-rule="evenodd"/>
        <path id="Trazado_883939" data-name="Trazado 883939" d="M209.981,298.87c76.685,0,139.231-62.545,139.231-139.232S286.665,20.408,209.981,20.408,70.749,82.953,70.749,159.638,133.294,298.87,209.981,298.87" transform="translate(-15.94 -4.598)" fill="#cef" fill-rule="evenodd"/>
        <path id="Trazado_883940" data-name="Trazado 883940" d="M329.225,210.873,224.066,79.634c-3.9-4.859-10.295-4.825-14.223.078L104.81,210.794a14.691,14.691,0,0,0-2.867,10.7H332.022a14.5,14.5,0,0,0-2.8-10.621" transform="translate(-22.946 -17.125)" fill="#bee2e4" fill-rule="evenodd"/>
        <path id="Trazado_883941" data-name="Trazado 883941" d="M252.257,156a6.34,6.34,0,0,0-2.211.4,1.7,1.7,0,0,0-1.917-.427,2.838,2.838,0,0,0-4.554-2.036,1.681,1.681,0,0,0-1.363-.694,1.712,1.712,0,0,0-.275.022,3.666,3.666,0,0,0-4.451-4.941,1.662,1.662,0,0,0-1.507-.958h-.049c.009-.132.012-.264.012-.4a6.582,6.582,0,1,0-13.164,0c0,.052,0,.1,0,.152a4.048,4.048,0,0,0-2.879.344,5.274,5.274,0,0,0-9.268,4.754c-.052,0-.106-.005-.16-.005a2.6,2.6,0,0,0-2.6,2.6,2.518,2.518,0,0,0,.047.493l-.054,0a1.5,1.5,0,0,0-1.5,1.446,3.793,3.793,0,0,0-.694-.065,3.532,3.532,0,0,0-2.442.923c-1.687,1.6.153,2.01,1.928,2.01h49.04c1.848,0,4.491.3,2.655-1.632A6.329,6.329,0,0,0,252.257,156" transform="translate(-45.639 -31.629)" fill="#fff" fill-rule="evenodd"/>
        <path id="Trazado_883942" data-name="Trazado 883942" d="M197.507,67.858v13.8c0,5.447,4,9.078,6.263,11.438s3.632,5.72,3.632,16.249-.3,29-.3,37.9c0,23.988-45.706,23.988-45.706,0,0-8.9-.294-27.369-.294-37.9s1.361-13.889,3.631-16.249S171,87.1,171,81.655v-13.8c0-18.4,26.506-18.4,26.506,0" transform="translate(-36.297 -12.18)" fill="#32573b" fill-rule="evenodd"/>
        <path id="Trazado_883943" data-name="Trazado 883943" d="M188.021,73.057a.858.858,0,1,0-1.715,0V92.666l-4.038-2.331a.512.512,0,0,0-.51.889l4.548,2.626V121.9l-11.958-6.9a.513.513,0,0,0-.51.889l12.468,7.2v26.9l-11.958-6.9a.513.513,0,1,0-.51.889l12.468,7.2v30.921a.858.858,0,0,0,1.715,0V158.32l10.241-5.913a.512.512,0,1,0-.51-.888l-9.731,5.617V134.654l10.241-5.913a.513.513,0,1,0-.51-.889l-9.731,5.618V110.988l10.241-5.913a.512.512,0,1,0-.51-.889l-9.731,5.618V87.32l6.673-3.85a.513.513,0,0,0-.511-.889l-6.161,3.557Z" transform="translate(-39.107 -16.266)" fill="#003b30" fill-rule="evenodd"/>
        <path id="Trazado_883944" data-name="Trazado 883944" d="M148.725,91.962v12.6c0,4.974,3.647,8.289,5.72,10.445s3.316,5.222,3.316,14.839-.27,26.485-.27,34.609c0,21.906-41.739,21.906-41.739,0,0-8.124-.27-24.993-.27-34.609s1.243-12.683,3.316-14.839,5.719-5.47,5.719-10.445v-12.6c0-16.8,24.206-16.8,24.206,0" transform="translate(-26.018 -17.88)" fill="#70853b" fill-rule="evenodd"/>
        <path id="Trazado_883945" data-name="Trazado 883945" d="M140.063,96.707a.783.783,0,0,0-1.566,0v17.909l-3.688-2.13a.468.468,0,0,0-.466.813l4.155,2.4V141.31l-10.922-6.3a.468.468,0,1,0-.466.811l11.387,6.574v24.561l-10.922-6.3a.468.468,0,0,0-.466.811l11.387,6.575V196.27a.783.783,0,1,0,1.566,0v-21.7l9.351-5.4a.469.469,0,0,0-.466-.813l-8.885,5.131V152.957l9.351-5.4a.468.468,0,0,0-.466-.813l-8.885,5.131v-20.53l9.351-5.4a.467.467,0,1,0-.466-.81l-8.885,5.129v-20.53l6.091-3.519a.468.468,0,1,0-.466-.811l-5.625,3.247Z" transform="translate(-28.585 -21.612)" fill="#003b30" fill-rule="evenodd"/>
        <path id="Trazado_883946" data-name="Trazado 883946" d="M259.892,182.432a10.636,10.636,0,0,1,10.636,10.637c0,.245-.008.489-.025.731a9.43,9.43,0,0,1,7.676,6.875,5.259,5.259,0,0,1,2.728,1.067,6.654,6.654,0,0,1,10.933,7.28H234.308A9.447,9.447,0,0,1,244.5,196.9a5.948,5.948,0,0,1,4.757-3.619c0-.071,0-.144,0-.216a10.636,10.636,0,0,1,10.636-10.637" transform="translate(-52.698 -41.102)" fill="#70853b" fill-rule="evenodd"/>
        <path id="Trazado_883947" data-name="Trazado 883947" d="M275.815,206.8a4.519,4.519,0,0,0-1.8.371,3.174,3.174,0,0,0-3.409-1.768,5.059,5.059,0,0,0-6.668-3.935,7.308,7.308,0,0,0-13.256,5.6,3.1,3.1,0,0,0-.49-.038,3.145,3.145,0,0,0-2.4,1.1,4.069,4.069,0,0,0-5.91,1.554,2.747,2.747,0,0,0-3.158,2.725c0,.047,0,.095,0,.14H280.2a4.552,4.552,0,0,0-4.388-5.755" transform="translate(-53.785 -44.639)" fill="#4b683b" fill-rule="evenodd"/>
        <path id="Trazado_883948" data-name="Trazado 883948" d="M232.573,212.108a1.386,1.386,0,1,0-1.387-1.385,1.39,1.39,0,0,0,1.387,1.385" transform="translate(-52.086 -47.163)" fill="#4b683b" fill-rule="evenodd"/>
        <path id="Trazado_883949" data-name="Trazado 883949" d="M247.457,208.188a.963.963,0,1,0-.964-.963.966.966,0,0,0,.964.963" transform="translate(-55.535 -46.47)" fill="#4b683b" fill-rule="evenodd"/>
        <path id="Trazado_883950" data-name="Trazado 883950" d="M264.167,190.671a1.386,1.386,0,1,0-1.386-1.385,1.389,1.389,0,0,0,1.386,1.385" transform="translate(-59.204 -42.333)" fill="#4b683b" fill-rule="evenodd"/>
        <path id="Trazado_883951" data-name="Trazado 883951" d="M271.34,194.6a1.386,1.386,0,1,0-1.387-1.386,1.388,1.388,0,0,0,1.387,1.386" transform="translate(-60.82 -43.218)" fill="#4b683b" fill-rule="evenodd"/>
        <path id="Trazado_883952" data-name="Trazado 883952" d="M298.37,211.114a1.149,1.149,0,1,0-1.149-1.149,1.152,1.152,0,0,0,1.149,1.149" transform="translate(-66.964 -47.046)" fill="#4b683b" fill-rule="evenodd"/>
        <path id="Trazado_883953" data-name="Trazado 883953" d="M262.329,195.552a.862.862,0,1,0-.861-.862.862.862,0,0,0,.861.862" transform="translate(-58.908 -43.669)" fill="#4b683b" fill-rule="evenodd"/>
        <path id="Trazado_883954" data-name="Trazado 883954" d="M266.339,194.57a.432.432,0,1,0-.431-.432.433.433,0,0,0,.431.432" transform="translate(-59.909 -43.642)" fill="#4b683b" fill-rule="evenodd"/>
        <path id="Trazado_883955" data-name="Trazado 883955" d="M273.592,197.333a.432.432,0,1,0-.432-.432.432.432,0,0,0,.432.432" transform="translate(-61.543 -44.264)" fill="#4b683b" fill-rule="evenodd"/>
        <path id="Trazado_883956" data-name="Trazado 883956" d="M286.167,206.66a.432.432,0,1,0-.432-.432.432.432,0,0,0,.432.432" transform="translate(-64.376 -46.366)" fill="#4b683b" fill-rule="evenodd"/>
        <path id="Trazado_883957" data-name="Trazado 883957" d="M256.736,195.261a.431.431,0,1,0-.432-.432.431.431,0,0,0,.432.432" transform="translate(-57.745 -43.798)" fill="#4b683b" fill-rule="evenodd"/>
        <path id="Trazado_883958" data-name="Trazado 883958" d="M251.484,204.1a.43.43,0,1,0-.432-.43.432.432,0,0,0,.432.43" transform="translate(-56.562 -45.79)" fill="#4b683b" fill-rule="evenodd"/>
        <path id="Trazado_883959" data-name="Trazado 883959" d="M253.447,201.239a.671.671,0,1,0-.67-.672.673.673,0,0,0,.67.672" transform="translate(-56.95 -45.037)" fill="#4b683b" fill-rule="evenodd"/>
        <path id="Trazado_883960" data-name="Trazado 883960" d="M275.245,200.51a.671.671,0,1,0-.669-.672.672.672,0,0,0,.669.672" transform="translate(-61.862 -44.872)" fill="#4b683b" fill-rule="evenodd"/>
        <path id="Trazado_883961" data-name="Trazado 883961" d="M281.406,205.387a.67.67,0,1,0-.669-.67.672.672,0,0,0,.669.67" transform="translate(-63.25 -45.971)" fill="#4b683b" fill-rule="evenodd"/>
        <path id="Trazado_883962" data-name="Trazado 883962" d="M178.108,162.775A16.727,16.727,0,0,0,161.382,179.5q0,.579.039,1.149a14.837,14.837,0,0,0-12.074,10.813,8.25,8.25,0,0,0-4.289,1.679,10.464,10.464,0,0,0-17.194,11.448h90.481a14.858,14.858,0,0,0-14.209-19.167,15.216,15.216,0,0,0-1.823.111,9.356,9.356,0,0,0-7.481-5.692c0-.113,0-.226,0-.34a16.728,16.728,0,0,0-16.728-16.728" transform="translate(-28.597 -36.673)" fill="#bfd867" fill-rule="evenodd"/>
        <path id="Trazado_883963" data-name="Trazado 883963" d="M206.076,201.495a6.962,6.962,0,0,0-2.759.566,4.841,4.841,0,0,0-4.382-2.782,4.979,4.979,0,0,0-.845.073,7.763,7.763,0,0,0-10.225-6.036,11.207,11.207,0,0,0-20.33,8.591,4.909,4.909,0,0,0-.751-.058,4.829,4.829,0,0,0-3.678,1.693,6.24,6.24,0,0,0-9.063,2.384A4.224,4.224,0,0,0,149.2,210.1c0,.072,0,.143,0,.215h63.6a6.978,6.978,0,0,0-6.728-8.825" transform="translate(-33.614 -42.401)" fill="#96bb55" fill-rule="evenodd"/>
        <path id="Trazado_883964" data-name="Trazado 883964" d="M139.761,209.631a2.126,2.126,0,1,0-2.127-2.127,2.129,2.129,0,0,0,2.127,2.127" transform="translate(-31.009 -46.272)" fill="#96bb55" fill-rule="evenodd"/>
        <path id="Trazado_883965" data-name="Trazado 883965" d="M162.585,203.618a1.478,1.478,0,1,0-1.477-1.477,1.481,1.481,0,0,0,1.477,1.477" transform="translate(-36.297 -45.209)" fill="#96bb55" fill-rule="evenodd"/>
        <path id="Trazado_883966" data-name="Trazado 883966" d="M188.211,176.756a2.126,2.126,0,1,0-2.125-2.126,2.129,2.129,0,0,0,2.125,2.126" transform="translate(-41.925 -38.865)" fill="#96bb55" fill-rule="evenodd"/>
        <path id="Trazado_883967" data-name="Trazado 883967" d="M199.212,182.779a2.126,2.126,0,1,0-2.125-2.127,2.13,2.13,0,0,0,2.125,2.127" transform="translate(-44.403 -40.222)" fill="#96bb55" fill-rule="evenodd"/>
        <path id="Trazado_883968" data-name="Trazado 883968" d="M240.665,208.1a1.761,1.761,0,1,0-1.761-1.761,1.764,1.764,0,0,0,1.761,1.761" transform="translate(-53.825 -46.092)" fill="#96bb55" fill-rule="evenodd"/>
        <path id="Trazado_883969" data-name="Trazado 883969" d="M185.395,184.241a1.322,1.322,0,1,0-1.322-1.323,1.325,1.325,0,0,0,1.322,1.323" transform="translate(-41.471 -40.913)" fill="#96bb55" fill-rule="evenodd"/>
        <path id="Trazado_883970" data-name="Trazado 883970" d="M191.541,182.734a.661.661,0,1,0-.661-.661.663.663,0,0,0,.661.661" transform="translate(-43.005 -40.872)" fill="#96bb55" fill-rule="evenodd"/>
        <path id="Trazado_883971" data-name="Trazado 883971" d="M202.666,186.972a.661.661,0,1,0-.661-.662.663.663,0,0,0,.661.662" transform="translate(-45.511 -41.827)" fill="#96bb55" fill-rule="evenodd"/>
        <path id="Trazado_883972" data-name="Trazado 883972" d="M221.948,201.275a.66.66,0,1,0-.662-.66.662.662,0,0,0,.662.66" transform="translate(-49.855 -45.049)" fill="#96bb55" fill-rule="evenodd"/>
        <path id="Trazado_883973" data-name="Trazado 883973" d="M176.815,183.794a.661.661,0,1,0-.66-.662.663.663,0,0,0,.66.662" transform="translate(-39.688 -41.111)" fill="#96bb55" fill-rule="evenodd"/>
        <path id="Trazado_883974" data-name="Trazado 883974" d="M168.764,197.356a.661.661,0,1,0-.661-.662.663.663,0,0,0,.661.662" transform="translate(-37.873 -44.166)" fill="#96bb55" fill-rule="evenodd"/>
        <path id="Trazado_883975" data-name="Trazado 883975" d="M171.771,192.962a1.029,1.029,0,1,0-1.029-1.03,1.03,1.03,0,0,0,1.029,1.03" transform="translate(-38.468 -43.01)" fill="#96bb55" fill-rule="evenodd"/>
        <path id="Trazado_883976" data-name="Trazado 883976" d="M205.2,191.843a1.028,1.028,0,1,0-1.029-1.028,1.03,1.03,0,0,0,1.029,1.028" transform="translate(-46 -42.759)" fill="#96bb55" fill-rule="evenodd"/>
        <path id="Trazado_883977" data-name="Trazado 883977" d="M214.65,199.323a1.028,1.028,0,1,0-1.029-1.028,1.031,1.031,0,0,0,1.029,1.028" transform="translate(-48.129 -44.444)" fill="#96bb55" fill-rule="evenodd"/>
        <path id="Trazado_883978" data-name="Trazado 883978" d="M198.676,221.032h0a4.688,4.688,0,0,0,4.674-4.674v-3.682A4.688,4.688,0,0,0,198.677,208h0A4.687,4.687,0,0,0,194,212.676v3.682a4.688,4.688,0,0,0,4.673,4.674" transform="translate(-43.709 -46.863)" fill="#25020b" fill-rule="evenodd"/>
        <path id="Trazado_883979" data-name="Trazado 883979" d="M200.34,219.5h0a2.875,2.875,0,0,0,2.866-2.867v-3.9a2.866,2.866,0,0,0-5.731,0v3.9a2.874,2.874,0,0,0,2.865,2.867" transform="translate(-44.491 -47.283)" fill="#3b020d" fill-rule="evenodd"/>
        <path id="Trazado_883980" data-name="Trazado 883980" d="M190.239,219.436h0a6.663,6.663,0,0,0,6.642-6.644v-5.23a6.643,6.643,0,1,0-13.285,0v5.23a6.663,6.663,0,0,0,6.643,6.644" transform="translate(-41.364 -45.267)" fill="#25020b" fill-rule="evenodd"/>
        <path id="Trazado_883981" data-name="Trazado 883981" d="M192.6,217.257h0a4.085,4.085,0,0,0,4.073-4.073v-5.544a4.084,4.084,0,0,0-4.073-4.073h0a4.084,4.084,0,0,0-4.073,4.073v5.544a4.085,4.085,0,0,0,4.073,4.073" transform="translate(-42.476 -45.864)" fill="#3b020d" fill-rule="evenodd"/>
        <path id="Trazado_883982" data-name="Trazado 883982" d="M267.311,221.123h0a4.575,4.575,0,0,0,4.562-4.562v-3.592a4.562,4.562,0,0,0-9.124,0v3.592a4.575,4.575,0,0,0,4.561,4.562" transform="translate(-59.197 -46.954)" fill="#25020b" fill-rule="evenodd"/>
        <path id="Trazado_883983" data-name="Trazado 883983" d="M268.935,219.627h0a2.805,2.805,0,0,0,2.8-2.8v-3.807a2.8,2.8,0,0,0-2.8-2.8h0a2.8,2.8,0,0,0-2.8,2.8v3.807a2.8,2.8,0,0,0,2.8,2.8" transform="translate(-59.961 -47.364)" fill="#3b020d" fill-rule="evenodd"/>
        <path id="Trazado_883984" data-name="Trazado 883984" d="M347.077,153.423v10.85c0,4.282,3.141,7.137,4.925,8.993s2.855,4.5,2.855,12.776-.231,22.8-.231,29.8c0,18.861-35.938,18.861-35.938,0,0-6.995-.232-21.52-.232-29.8s1.071-10.921,2.856-12.776,4.925-4.711,4.925-8.993v-10.85c0-14.464,20.842-14.464,20.842,0" transform="translate(-71.748 -32.122)" fill="#32573b" fill-rule="evenodd"/>
        <path id="Trazado_883985" data-name="Trazado 883985" d="M339.62,157.51a.674.674,0,0,0-1.348,0v15.419L335.1,171.1a.4.4,0,0,0-.4.7l3.578,2.064v22.054l-9.4-5.429a.4.4,0,0,0-.4.7l9.805,5.66v21.148l-9.4-5.428a.4.4,0,1,0-.4.7l9.805,5.661v24.314a.674.674,0,0,0,1.348,0V224.55l8.053-4.648a.4.4,0,0,0-.4-.7l-7.65,4.416V205.942l8.053-4.648a.4.4,0,1,0-.4-.7l-7.65,4.415V187.334l8.053-4.648a.4.4,0,1,0-.4-.7l-7.65,4.417V168.726l5.245-3.028a.4.4,0,1,0-.4-.7l-4.843,2.8Z" transform="translate(-73.958 -35.335)" fill="#022524" fill-rule="evenodd"/>
        <path id="Trazado_883986" data-name="Trazado 883986" d="M371.021,93.431h0a6.839,6.839,0,0,1,6.819,6.818v29.24c.431,10.909,11.817,11.466,11.817,31.064V201a8.813,8.813,0,0,1-8.788,8.788h-19.7A8.814,8.814,0,0,1,352.383,201V127.22c0-10.3,2.364-11,7.2-13.788a9.34,9.34,0,0,0,4.622-7.813v-5.369a6.838,6.838,0,0,1,6.819-6.818" transform="translate(-79.392 -21.05)" fill="#70853b" fill-rule="evenodd"/>
        <path id="Trazado_883987" data-name="Trazado 883987" d="M372.429,119.719a.827.827,0,0,1,1.655,0v18.909l3.894-2.247a.494.494,0,0,1,.493.857l-4.386,2.532v27.048l11.532-6.657a.493.493,0,1,1,.491.856l-12.023,6.944V193.9l11.532-6.659a.493.493,0,1,1,.491.856l-12.023,6.944v37.189a.827.827,0,0,1-1.655,0V201.939l-9.875-5.7a.495.495,0,0,1,.492-.858l9.383,5.417v-21.68l-9.875-5.7a.495.495,0,0,1,.492-.858l9.383,5.418V156.3l-9.875-5.7a.494.494,0,0,1,.492-.856l9.383,5.417V133.474l-9.875-5.7a.494.494,0,0,1,.492-.858l9.383,5.417Z" transform="translate(-81.627 -26.786)" fill="#10210d" fill-rule="evenodd"/>
        <path id="Trazado_883988" data-name="Trazado 883988" d="M125.7,287.905h76.984c-10.953-35.68,41.259-14.938,62.067-25.541l40.5-20.636a12.525,12.525,0,0,1-12.489-12.489,12.523,12.523,0,0,0-12.487-12.487H125.7a19.7,19.7,0,0,0-11.689,35.577A19.7,19.7,0,0,0,125.7,287.905" transform="translate(-23.878 -48.834)" fill="#25020b" fill-rule="evenodd"/>
        <path id="Trazado_883989" data-name="Trazado 883989" d="M151.831,292.434h55.916c-10.953-35.68,41.259-14.938,62.068-25.541l6.518-3.321,2.137-7.913c-5.171,0,19.277-4.231,19.277-9.4a9.431,9.431,0,0,0-9.4-9.4H143.286a14.836,14.836,0,0,0-8.8,26.787,14.849,14.849,0,0,0-6.046,11.938c0,8.165,6.9,12.979,14.847,14.847Z" transform="translate(-28.937 -53.363)" fill="#3b020d" fill-rule="evenodd"/>
        <path id="Trazado_883990" data-name="Trazado 883990" d="M340.177,251.181h0a4.576,4.576,0,0,0,4.563-4.561v-3.592a4.563,4.563,0,1,0-9.125,0v3.592a4.574,4.574,0,0,0,4.562,4.561" transform="translate(-75.614 -53.726)" fill="#803520" fill-rule="evenodd"/>
        <path id="Trazado_883991" data-name="Trazado 883991" d="M341.8,249.686h0a2.806,2.806,0,0,0,2.8-2.8v-3.806a2.806,2.806,0,0,0-2.8-2.8h0a2.8,2.8,0,0,0-2.8,2.8v3.806a2.8,2.8,0,0,0,2.8,2.8" transform="translate(-76.377 -54.136)" fill="#924324" fill-rule="evenodd"/>
        <path id="Trazado_883992" data-name="Trazado 883992" d="M381.527,298.7l-65.661,26.013c-25.887,10.254-39.6-28.236-15.264-37.88,3.052-.967,27.833-7.009,58.219-13.544,10.976-2.361,31.075-10.937,39.325-10.7,12.147.354,25.53,4.486,19.822,15.21-4.248,7.981-27.172,17.225-36.44,20.9" transform="translate(-64.864 -59.161)" fill="#ec797d" fill-rule="evenodd"/>
        <path id="Trazado_883993" data-name="Trazado 883993" d="M230.357,295.169h20a24,24,0,0,0,10.159,2.25h81.541a24.213,24.213,0,1,0,0-48.427h-77.5A35.859,35.859,0,0,0,228.8,284.745a35.466,35.466,0,0,0,1.561,10.424" transform="translate(-51.547 -56.098)" fill="#671b1b" fill-rule="evenodd"/>
        <path id="Trazado_883994" data-name="Trazado 883994" d="M297.394,301.889h55.658a16.527,16.527,0,1,0,0-33.055h-52.9a24.388,24.388,0,0,0-23.339,31.519H290.46a16.377,16.377,0,0,0,6.934,1.535" transform="translate(-62.125 -60.568)" fill="#803520" fill-rule="evenodd"/>
        <path id="Trazado_883995" data-name="Trazado 883995" d="M380.568,318.761l-59.893,26.014c-23.611,10.255-36.124-28.238-13.923-37.881,8.613-3.12,35.958-12.181,57.494-19.833,10.356-3.681,63.133-25.073,64.22,1.705.06,1.505-.6,2.982-2.629,4.394a281.752,281.752,0,0,1-45.27,25.6" transform="translate(-66.501 -62.067)" fill="#f4b4b6" fill-rule="evenodd"/>
        <path id="Trazado_883996" data-name="Trazado 883996" d="M304.605,352.969,237.738,375.7c-26.362,8.959-38.155-30.165-13.369-38.59l66.867-22.731c26.362-8.96,38.156,30.166,13.369,38.59" transform="translate(-47.482 -70.531)" fill="#f4b4b6" fill-rule="evenodd"/>
        <path id="Trazado_883997" data-name="Trazado 883997" d="M248.207,364.238,237.74,367.8c-26.362,8.959-38.154-30.165-13.369-38.59,22.769-7.74,123.378-44.637,151.68-51.231.2-.046-22.391,9.208-43.472,19.217-17.9,8.5-35.345,17.2-34.808,18.877,2.385,7.458,2.949,15.507-2.752,20.314-14.5,12.224-46.282,8.483-46.811,27.854" transform="translate(-47.482 -62.628)" fill="#f0969b" fill-rule="evenodd"/>
        <path id="Trazado_883998" data-name="Trazado 883998" d="M190.384,369.749,77.034,328.8c-28.645-10.348,9.792-58.9,53.355-37.641l75.238,36.708c20.161,9.837,9.016,50.645-15.243,41.881" transform="translate(-15.128 -64.398)" fill="#f7c9d7" fill-rule="evenodd"/>
        <path id="Trazado_883999" data-name="Trazado 883999" d="M283.289,241.729V225.621a8.9,8.9,0,0,0-8.87-8.868h26.057a8.9,8.9,0,0,1,8.871,8.868v16.108Z" transform="translate(-61.826 -48.834)" fill="#62bcbe" fill-rule="evenodd"/>
        <path id="Trazado_884000" data-name="Trazado 884000" d="M283.289,230.085v-4.465a8.9,8.9,0,0,0-8.87-8.869h26.057a8.9,8.9,0,0,1,8.871,8.869v.837a1.987,1.987,0,0,0-1.979-1.955h0a1.986,1.986,0,0,0-1.98,1.98v4.883a1.465,1.465,0,0,1-2.929,0V229.3a1.817,1.817,0,0,0-1.808-1.762,1.812,1.812,0,0,1-1.809-1.808v-1.274a1.216,1.216,0,0,0-2.431,0V226.2a1.984,1.984,0,0,1-1.979,1.979h0a1.985,1.985,0,0,1-1.98-1.979v-1.355a2.465,2.465,0,0,0-2.457-2.458h0a2.464,2.464,0,0,0-2.458,2.458v1a2.128,2.128,0,0,1-2.121,2.121,2.127,2.127,0,0,0-2.121,2.12m13.12,1.1v-.107a1.985,1.985,0,0,0-1.979-1.979h0a1.986,1.986,0,0,0-1.98,1.979v.107a1.986,1.986,0,0,0,1.98,1.98h0a1.986,1.986,0,0,0,1.979-1.98" transform="translate(-61.826 -48.834)" fill="#a4d8db" fill-rule="evenodd"/>
        <path id="Trazado_884001" data-name="Trazado 884001" d="M309.207,242.552a2.935,2.935,0,0,0-1.166.239,2.045,2.045,0,0,0-1.85-1.175,2.184,2.184,0,0,0-.357.031,3.273,3.273,0,0,0-4.315-2.546,4.729,4.729,0,0,0-8.578,3.626,1.884,1.884,0,0,0-.318-.026,2.035,2.035,0,0,0-1.552.716,2.635,2.635,0,0,0-3.826,1.006,1.809,1.809,0,0,0-.261-.019,1.782,1.782,0,0,0-1.783,1.781c0,.032,0,.061,0,.092h26.84a2.944,2.944,0,0,0-2.838-3.725" transform="translate(-64.255 -53.382)" fill="#fff" fill-rule="evenodd"/>
        <path id="Trazado_884002" data-name="Trazado 884002" d="M289.321,240.479a.9.9,0,1,0-.9-.9.9.9,0,0,0,.9.9" transform="translate(-64.982 -53.775)" fill="#fff" fill-rule="evenodd"/>
        <path id="Trazado_884003" data-name="Trazado 884003" d="M291.75,238.1a.623.623,0,1,0-.624-.624.624.624,0,0,0,.624.624" transform="translate(-65.59 -53.362)" fill="#fff" fill-rule="evenodd"/>
        <path id="Trazado_884004" data-name="Trazado 884004" d="M298.377,232.211a.9.9,0,1,0-.9-.9.9.9,0,0,0,.9.9" transform="translate(-67.022 -51.913)" fill="#fff" fill-rule="evenodd"/>
        <path id="Trazado_884005" data-name="Trazado 884005" d="M307.633,233.016a.9.9,0,1,0-.9-.9.9.9,0,0,0,.9.9" transform="translate(-69.108 -52.094)" fill="#fff" fill-rule="evenodd"/>
        <path id="Trazado_884006" data-name="Trazado 884006" d="M317.467,237.71a.9.9,0,1,0-.9-.9.9.9,0,0,0,.9.9" transform="translate(-71.323 -53.152)" fill="#fff" fill-rule="evenodd"/>
        <path id="Trazado_884007" data-name="Trazado 884007" d="M318.831,241.064a.743.743,0,1,0-.744-.742.745.745,0,0,0,.744.742" transform="translate(-71.665 -53.977)" fill="#fff" fill-rule="evenodd"/>
        <path id="Trazado_884008" data-name="Trazado 884008" d="M310.65,234.766a.656.656,0,1,0-.656-.657.659.659,0,0,0,.656.657" transform="translate(-69.841 -52.597)" fill="#fff" fill-rule="evenodd"/>
        <path id="Trazado_884009" data-name="Trazado 884009" d="M300.478,235.271a.558.558,0,1,0-.558-.559.561.561,0,0,0,.558.559" transform="translate(-67.572 -52.755)" fill="#fff" fill-rule="evenodd"/>
        <path id="Trazado_884010" data-name="Trazado 884010" d="M303.071,234.634a.279.279,0,1,0-.278-.278.279.279,0,0,0,.278.278" transform="translate(-68.219 -52.737)" fill="#fff" fill-rule="evenodd"/>
        <path id="Trazado_884011" data-name="Trazado 884011" d="M307.768,236.423a.279.279,0,1,0-.28-.279.28.28,0,0,0,.28.279" transform="translate(-69.277 -53.14)" fill="#fff" fill-rule="evenodd"/>
        <path id="Trazado_884012" data-name="Trazado 884012" d="M315.9,242.459a.279.279,0,1,0-.278-.278.279.279,0,0,0,.278.278" transform="translate(-71.11 -54.5)" fill="#fff" fill-rule="evenodd"/>
        <path id="Trazado_884013" data-name="Trazado 884013" d="M296.857,235.082a.279.279,0,1,0-.279-.278.279.279,0,0,0,.279.278" transform="translate(-66.819 -52.838)" fill="#fff" fill-rule="evenodd"/>
        <path id="Trazado_884014" data-name="Trazado 884014" d="M293.459,240.8a.279.279,0,1,0-.278-.28.28.28,0,0,0,.278.28" transform="translate(-66.053 -54.127)" fill="#fff" fill-rule="evenodd"/>
        <path id="Trazado_884015" data-name="Trazado 884015" d="M294.421,238.482a.434.434,0,1,0-.434-.435.434.434,0,0,0,.434.435" transform="translate(-66.235 -53.534)" fill="#fff" fill-rule="evenodd"/>
        <path id="Trazado_884016" data-name="Trazado 884016" d="M310.024,238.031a.434.434,0,1,0-.434-.435.435.435,0,0,0,.434.435" transform="translate(-69.75 -53.433)" fill="#fff" fill-rule="evenodd"/>
        <path id="Trazado_884017" data-name="Trazado 884017" d="M315.077,240.4a.434.434,0,1,0-.434-.435.435.435,0,0,0,.434.435" transform="translate(-70.889 -53.967)" fill="#fff" fill-rule="evenodd"/>
        <path id="Trazado_884018" data-name="Trazado 884018" d="M314.273,234.766a.434.434,0,1,0-.435-.435.435.435,0,0,0,.435.435" transform="translate(-70.707 -52.697)" fill="#fff" fill-rule="evenodd"/>
        <path id="Trazado_884019" data-name="Trazado 884019" d="M300.239,218.162H287.911a1.122,1.122,0,0,0,0,2.244h12.329a1.122,1.122,0,1,0,0-2.244" transform="translate(-64.613 -49.152)" fill="#fff" fill-rule="evenodd"/>
        <path id="Trazado_884020" data-name="Trazado 884020" d="M308.055,218.162h0a1.075,1.075,0,0,1,1.071,1.072v.1a1.075,1.075,0,0,1-1.071,1.071h0a1.075,1.075,0,0,1-1.071-1.071v-.1a1.075,1.075,0,0,1,1.071-1.072" transform="translate(-69.163 -49.152)" fill="#fff" fill-rule="evenodd"/>
        <path id="Trazado_884021" data-name="Trazado 884021" d="M301.185,292.254v-27.9a15.408,15.408,0,0,1,15.364-15.364H271.411a15.41,15.41,0,0,0-15.365,15.364v27.9Z" transform="translate(-57.687 -56.097)" fill="#62bcbe" fill-rule="evenodd"/>
        <path id="Trazado_884022" data-name="Trazado 884022" d="M301.185,272.088v-7.732a15.408,15.408,0,0,1,15.364-15.364H271.411a15.41,15.41,0,0,0-15.365,15.364V265.8a3.442,3.442,0,0,1,3.43-3.385h0a3.439,3.439,0,0,1,3.431,3.429v8.458a2.544,2.544,0,0,0,2.536,2.537h0a2.544,2.544,0,0,0,2.537-2.537v-3.574a3.144,3.144,0,0,1,3.132-3.053,3.143,3.143,0,0,0,3.134-3.133v-2.206a2.1,2.1,0,0,1,4.209,0v3.014a3.439,3.439,0,0,0,3.43,3.43h0a3.441,3.441,0,0,0,3.43-3.43V263a4.271,4.271,0,0,1,4.259-4.258h0A4.271,4.271,0,0,1,293.837,263v1.737a3.685,3.685,0,0,0,3.674,3.675,3.684,3.684,0,0,1,3.674,3.671" transform="translate(-57.687 -56.098)" fill="#a4d8db" fill-rule="evenodd"/>
        <path id="Trazado_884023" data-name="Trazado 884023" d="M296.76,293.509a5.052,5.052,0,0,0-2.015.414,3.544,3.544,0,0,0-3.206-2.034,3.6,3.6,0,0,0-.617.055,5.67,5.67,0,0,0-7.475-4.413,8.192,8.192,0,0,0-14.862,6.28,3.577,3.577,0,0,0-.55-.042,3.528,3.528,0,0,0-2.688,1.238,4.563,4.563,0,0,0-6.625,1.743,3.039,3.039,0,0,0-.453-.034,3.09,3.09,0,0,0-3.09,3.09c0,.052,0,.1,0,.155h46.5a5.1,5.1,0,0,0-4.919-6.45" transform="translate(-57.492 -63.937)" fill="#fff" fill-rule="evenodd"/>
        <path id="Trazado_884024" data-name="Trazado 884024" d="M262.316,289.916a1.554,1.554,0,1,0-1.555-1.552,1.554,1.554,0,0,0,1.555,1.552" transform="translate(-58.749 -64.618)" fill="#fff" fill-rule="evenodd"/>
        <path id="Trazado_884025" data-name="Trazado 884025" d="M266.523,285.793a1.08,1.08,0,1,0-1.081-1.079,1.081,1.081,0,0,0,1.081,1.079" transform="translate(-59.804 -63.902)" fill="#fff" fill-rule="evenodd"/>
        <path id="Trazado_884026" data-name="Trazado 884026" d="M278,275.6a1.554,1.554,0,1,0-1.555-1.556A1.557,1.557,0,0,0,278,275.6" transform="translate(-62.283 -61.391)" fill="#fff" fill-rule="evenodd"/>
        <path id="Trazado_884027" data-name="Trazado 884027" d="M294.033,276.991a1.554,1.554,0,1,0-1.552-1.553,1.558,1.558,0,0,0,1.552,1.553" transform="translate(-65.896 -61.705)" fill="#fff" fill-rule="evenodd"/>
        <path id="Trazado_884028" data-name="Trazado 884028" d="M311.075,285.123a1.554,1.554,0,1,0-1.556-1.554,1.557,1.557,0,0,0,1.556,1.554" transform="translate(-69.734 -63.538)" fill="#fff" fill-rule="evenodd"/>
        <path id="Trazado_884029" data-name="Trazado 884029" d="M313.434,290.933a1.287,1.287,0,1,0-1.288-1.288,1.29,1.29,0,0,0,1.288,1.288" transform="translate(-70.326 -64.967)" fill="#fff" fill-rule="evenodd"/>
        <path id="Trazado_884030" data-name="Trazado 884030" d="M299.263,280.022a1.137,1.137,0,1,0-1.137-1.137,1.14,1.14,0,0,0,1.137,1.137" transform="translate(-67.167 -62.576)" fill="#fff" fill-rule="evenodd"/>
        <path id="Trazado_884031" data-name="Trazado 884031" d="M281.642,280.894a.966.966,0,1,0-.965-.966.968.968,0,0,0,.965.966" transform="translate(-63.236 -62.85)" fill="#fff" fill-rule="evenodd"/>
        <path id="Trazado_884032" data-name="Trazado 884032" d="M286.136,279.795a.483.483,0,1,0-.483-.483.485.485,0,0,0,.483.483" transform="translate(-64.357 -62.82)" fill="#fff" fill-rule="evenodd"/>
        <path id="Trazado_884033" data-name="Trazado 884033" d="M294.269,282.893a.484.484,0,1,0-.483-.483.484.484,0,0,0,.483.483" transform="translate(-66.19 -63.517)" fill="#fff" fill-rule="evenodd"/>
        <path id="Trazado_884034" data-name="Trazado 884034" d="M308.365,293.347a.483.483,0,1,0-.482-.482.483.483,0,0,0,.482.482" transform="translate(-69.366 -65.873)" fill="#fff" fill-rule="evenodd"/>
        <path id="Trazado_884035" data-name="Trazado 884035" d="M275.371,280.569a.483.483,0,1,0-.482-.483.485.485,0,0,0,.482.483" transform="translate(-61.932 -62.994)" fill="#fff" fill-rule="evenodd"/>
        <path id="Trazado_884036" data-name="Trazado 884036" d="M269.484,290.483A.484.484,0,1,0,269,290a.485.485,0,0,0,.482.484" transform="translate(-60.606 -65.227)" fill="#fff" fill-rule="evenodd"/>
        <path id="Trazado_884037" data-name="Trazado 884037" d="M271.151,286.458a.752.752,0,1,0-.752-.753.754.754,0,0,0,.752.753" transform="translate(-60.921 -64.2)" fill="#fff" fill-rule="evenodd"/>
        <path id="Trazado_884038" data-name="Trazado 884038" d="M298.179,285.678a.751.751,0,1,0-.751-.751.753.753,0,0,0,.751.751" transform="translate(-67.01 -64.024)" fill="#fff" fill-rule="evenodd"/>
        <path id="Trazado_884039" data-name="Trazado 884039" d="M306.932,289.783a.752.752,0,1,0-.752-.752.754.754,0,0,0,.752.752" transform="translate(-68.982 -64.949)" fill="#fff" fill-rule="evenodd"/>
        <path id="Trazado_884040" data-name="Trazado 884040" d="M305.537,280.024a.752.752,0,1,0-.751-.752.755.755,0,0,0,.751.752" transform="translate(-68.668 -62.75)" fill="#fff" fill-rule="evenodd"/>
        <path id="Trazado_884041" data-name="Trazado 884041" d="M282.077,251.433h21.356a1.944,1.944,0,1,1,0,3.887H282.077a1.944,1.944,0,1,1,0-3.887" transform="translate(-63.113 -56.648)" fill="#fff" fill-rule="evenodd"/>
        <path id="Trazado_884042" data-name="Trazado 884042" d="M274.8,251.433h0a1.863,1.863,0,0,0-1.856,1.858v.173a1.857,1.857,0,0,0,3.714,0v-.173a1.863,1.863,0,0,0-1.858-1.858" transform="translate(-61.493 -56.648)" fill="#fff" fill-rule="evenodd"/>
        <path id="Trazado_884043" data-name="Trazado 884043" d="M344.536,242.531a8.15,8.15,0,0,0-8.151,8.151c0,.188.005.376.019.561a7.231,7.231,0,0,0-5.884,5.27,4,4,0,0,0-2.09.818,5.1,5.1,0,0,0-8.379,5.579h44.094a7.245,7.245,0,0,0-7.814-9.287,4.556,4.556,0,0,0-3.645-2.773c0-.055,0-.109,0-.167a8.15,8.15,0,0,0-8.15-8.151" transform="translate(-72.004 -54.642)" fill="#96bb55" fill-rule="evenodd"/>
        <path id="Trazado_884044" data-name="Trazado 884044" d="M360.785,260.455a3.836,3.836,0,0,0-1.515.311,2.659,2.659,0,0,0-2.407-1.528,2.489,2.489,0,0,0-.465.041,4.26,4.26,0,0,0-5.614-3.316,6.155,6.155,0,0,0-11.165,4.719,2.692,2.692,0,0,0-.414-.033,2.653,2.653,0,0,0-2.02.93,3.427,3.427,0,0,0-4.978,1.308,2.449,2.449,0,0,0-.339-.025,2.319,2.319,0,0,0-2.319,2.32c0,.039,0,.078,0,.118H364.48a3.838,3.838,0,0,0-3.7-4.846" transform="translate(-74.247 -57.035)" fill="#bfd867" fill-rule="evenodd"/>
        <path id="Trazado_884045" data-name="Trazado 884045" d="M324.365,264.923a1.168,1.168,0,1,0-1.167-1.168,1.17,1.17,0,0,0,1.167,1.168" transform="translate(-72.816 -59.161)" fill="#bfd867" fill-rule="evenodd"/>
        <path id="Trazado_884046" data-name="Trazado 884046" d="M336.9,261.621a.811.811,0,1,0-.811-.811.813.813,0,0,0,.811.811" transform="translate(-75.721 -58.577)" fill="#bfd867" fill-rule="evenodd"/>
        <path id="Trazado_884047" data-name="Trazado 884047" d="M350.975,246.869a1.167,1.167,0,1,0-1.169-1.167,1.171,1.171,0,0,0,1.169,1.167" transform="translate(-78.811 -55.093)" fill="#bfd867" fill-rule="evenodd"/>
        <path id="Trazado_884048" data-name="Trazado 884048" d="M357.015,250.176a1.167,1.167,0,1,0-1.169-1.167,1.171,1.171,0,0,0,1.169,1.167" transform="translate(-80.172 -55.838)" fill="#bfd867" fill-rule="evenodd"/>
        <path id="Trazado_884049" data-name="Trazado 884049" d="M372.963,261.763A.968.968,0,1,0,372,260.8a.97.97,0,0,0,.966.968" transform="translate(-83.81 -58.539)" fill="#bfd867" fill-rule="evenodd"/>
        <path id="Trazado_884050" data-name="Trazado 884050" d="M349.429,250.979a.726.726,0,1,0-.727-.725.728.728,0,0,0,.727.725" transform="translate(-78.562 -56.218)" fill="#bfd867" fill-rule="evenodd"/>
        <path id="Trazado_884051" data-name="Trazado 884051" d="M352.8,250.152a.363.363,0,1,0-.364-.363.363.363,0,0,0,.364.363" transform="translate(-79.404 -56.196)" fill="#bfd867" fill-rule="evenodd"/>
        <path id="Trazado_884052" data-name="Trazado 884052" d="M358.914,252.479a.363.363,0,1,0-.363-.362.364.364,0,0,0,.363.362" transform="translate(-80.781 -56.72)" fill="#bfd867" fill-rule="evenodd"/>
        <path id="Trazado_884053" data-name="Trazado 884053" d="M369.5,260.334a.363.363,0,1,0-.362-.363.364.364,0,0,0,.362.363" transform="translate(-83.167 -58.489)" fill="#bfd867" fill-rule="evenodd"/>
        <path id="Trazado_884054" data-name="Trazado 884054" d="M344.716,250.734a.363.363,0,1,0-.363-.363.364.364,0,0,0,.363.363" transform="translate(-77.582 -56.327)" fill="#bfd867" fill-rule="evenodd"/>
        <path id="Trazado_884055" data-name="Trazado 884055" d="M340.293,258.181a.364.364,0,1,0-.363-.363.365.365,0,0,0,.363.363" transform="translate(-76.586 -58.004)" fill="#bfd867" fill-rule="evenodd"/>
        <path id="Trazado_884056" data-name="Trazado 884056" d="M341.945,255.768a.565.565,0,1,0-.566-.565.566.566,0,0,0,.566.565" transform="translate(-76.912 -57.37)" fill="#bfd867" fill-rule="evenodd"/>
        <path id="Trazado_884057" data-name="Trazado 884057" d="M360.3,255.155a.565.565,0,1,0-.565-.566.567.567,0,0,0,.565.566" transform="translate(-81.049 -57.232)" fill="#bfd867" fill-rule="evenodd"/>
        <path id="Trazado_884058" data-name="Trazado 884058" d="M365.494,259.263a.565.565,0,1,0-.566-.566.567.567,0,0,0,.566.566" transform="translate(-82.218 -58.157)" fill="#bfd867" fill-rule="evenodd"/>
        <path id="Trazado_884059" data-name="Trazado 884059" d="M182.9,246.092h39.466a3.592,3.592,0,1,1,0,7.185H182.9a3.592,3.592,0,0,1,0-7.185" transform="translate(-40.397 -55.444)" fill="#25020b" fill-rule="evenodd"/>
        <path id="Trazado_884060" data-name="Trazado 884060" d="M169.448,246.092h0a3.442,3.442,0,0,0-3.432,3.432v.321a3.442,3.442,0,0,0,3.432,3.432h0a3.442,3.442,0,0,0,3.432-3.432v-.321a3.442,3.442,0,0,0-3.432-3.432" transform="translate(-37.403 -55.444)" fill="#25020b" fill-rule="evenodd"/>
        <path id="Trazado_884061" data-name="Trazado 884061" d="M151.015,222.717H242.67a2.814,2.814,0,0,1,0,5.628H151.015a2.814,2.814,0,0,1,0-5.628" transform="translate(-33.39 -50.178)" fill="#2e000b" fill-rule="evenodd"/>
        <path id="Trazado_884062" data-name="Trazado 884062" d="M342.07,275.309h20.387a5.091,5.091,0,1,1,0,10.181H342.07a5.091,5.091,0,0,1,0-10.181" transform="translate(-75.921 -62.027)" fill="#903e23" fill-rule="evenodd"/>
        <path id="Trazado_884063" data-name="Trazado 884063" d="M323.54,275.309h0a5.054,5.054,0,0,0-5.039,5.039v.1a5.054,5.054,0,0,0,5.039,5.039h0a5.054,5.054,0,0,0,5.04-5.039v-.1a5.055,5.055,0,0,0-5.04-5.039" transform="translate(-71.758 -62.027)" fill="#903e23" fill-rule="evenodd"/>
        <path id="Trazado_884064" data-name="Trazado 884064" d="M261.054,90.614a9.578,9.578,0,0,1-10.721,3.138,13.833,13.833,0,0,1-23.37-.227L238.03,79.712c3.93-4.9,10.33-4.937,14.225-.078Z" transform="translate(-51.135 -17.125)" fill="#fff" fill-rule="evenodd"/>
        <path id="Trazado_884065" data-name="Trazado 884065" d="M234.054,124.619a2.624,2.624,0,1,1,2.625-2.625,2.625,2.625,0,0,1-2.625,2.625" transform="translate(-52.141 -26.894)" fill="#fff" fill-rule="evenodd"/>
        <path id="Trazado_884066" data-name="Trazado 884066" d="M261.125,122.264a2.624,2.624,0,1,1,2.624-2.623,2.624,2.624,0,0,1-2.624,2.623" transform="translate(-58.24 -26.364)" fill="#fff" fill-rule="evenodd"/>
        <path id="Trazado_884067" data-name="Trazado 884067" d="M269.955,116.149a1.92,1.92,0,1,1,1.92-1.919,1.919,1.919,0,0,1-1.92,1.919" transform="translate(-60.388 -25.303)" fill="#fff" fill-rule="evenodd"/>
        <path id="Trazado_884068" data-name="Trazado 884068" d="M240.2,114.267a1.632,1.632,0,1,1,1.632-1.633,1.632,1.632,0,0,1-1.632,1.633" transform="translate(-53.749 -25.009)" fill="#fff" fill-rule="evenodd"/>
        <path id="Trazado_884069" data-name="Trazado 884069" d="M247.787,114.966a.815.815,0,1,1,.817-.815.815.815,0,0,1-.817.815" transform="translate(-55.643 -25.534)" fill="#fff" fill-rule="evenodd"/>
        <path id="Trazado_884070" data-name="Trazado 884070" d="M261.52,109.736a.816.816,0,1,1,.817-.817.816.816,0,0,1-.817.817" transform="translate(-58.736 -24.356)" fill="#fff" fill-rule="evenodd"/>
        <path id="Trazado_884071" data-name="Trazado 884071" d="M229.611,113.658a.816.816,0,1,1,.816-.817.815.815,0,0,1-.816.817" transform="translate(-51.547 -25.239)" fill="#fff" fill-rule="evenodd"/>
        <path id="Trazado_884072" data-name="Trazado 884072" d="M222.657,104.467a1.259,1.259,0,0,1-.68-.2l1.578-1.969a1.27,1.27,0,0,1-.9,2.168" transform="translate(-50.011 -23.048)" fill="#fff" fill-rule="evenodd"/>
        <path id="Trazado_884073" data-name="Trazado 884073" d="M268.123,105.674a1.27,1.27,0,1,1,1.271-1.269,1.27,1.27,0,0,1-1.271,1.269" transform="translate(-60.122 -23.236)" fill="#fff" fill-rule="evenodd"/>
        <path id="Trazado_884074" data-name="Trazado 884074" d="M280.546,115.222a1.269,1.269,0,1,1,1.271-1.27,1.27,1.27,0,0,1-1.271,1.27" transform="translate(-62.921 -25.387)" fill="#fff" fill-rule="evenodd"/>
        <path id="Trazado_884075" data-name="Trazado 884075" d="M325.137,101.49l-12.724-7.736a.438.438,0,0,0-.523.7l12.954,11.755a.438.438,0,0,0,.59,0l12.951-11.755a.438.438,0,0,0-.523-.7Z" transform="translate(-70.236 -21.108)" fill="#fff" fill-rule="evenodd"/>
        <path id="Trazado_884076" data-name="Trazado 884076" d="M336.1,122.537l-6.875-4.18a.237.237,0,0,0-.281.379l7,6.351a.237.237,0,0,0,.318,0l7-6.351a.238.238,0,0,0-.283-.379Z" transform="translate(-74.093 -26.658)" fill="#fff" fill-rule="evenodd"/>
        <path id="Trazado_884077" data-name="Trazado 884077" d="M309.067,119.063l-10.442-6.347a.359.359,0,0,0-.427.574l10.627,9.645a.359.359,0,0,0,.483,0l10.627-9.645a.36.36,0,0,0-.428-.574Z" transform="translate(-67.157 -25.383)" fill="#fff" fill-rule="evenodd"/>
        <path id="Trazado_884078" data-name="Trazado 884078" d="M321.207,136.7l-6.327-3.846a.218.218,0,0,0-.26.347l6.44,5.846a.22.22,0,0,0,.293,0l6.441-5.846a.218.218,0,0,0-.26-.347Z" transform="translate(-70.867 -29.924)" fill="#fff" fill-rule="evenodd"/>
        <path id="Trazado_884079" data-name="Trazado 884079" d="M282.743,71.911a6.88,6.88,0,0,1,2.4.429,1.841,1.841,0,0,1,2.08-.462,3.078,3.078,0,0,1,4.94-2.209,1.825,1.825,0,0,1,1.477-.754,2,2,0,0,1,.3.024,3.975,3.975,0,0,1,4.828-5.359,1.8,1.8,0,0,1,1.635-1.04h.052c-.008-.143-.013-.288-.013-.433a7.142,7.142,0,1,1,14.283,0c0,.055,0,.111,0,.165a4.415,4.415,0,0,1,1.078-.134,4.359,4.359,0,0,1,2.045.507A5.722,5.722,0,0,1,327.9,67.8c.057,0,.115-.006.174-.006a2.817,2.817,0,0,1,2.816,2.817,2.891,2.891,0,0,1-.05.535h.059a1.625,1.625,0,0,1,1.625,1.569,4.141,4.141,0,0,1,.752-.07,3.829,3.829,0,0,1,2.65,1c1.831,1.731-.167,2.18-2.092,2.18h-53.2c-2.007,0-4.874.329-2.883-1.769a6.873,6.873,0,0,1,5-2.147" transform="translate(-62.424 -12.384)" fill="#fff" fill-rule="evenodd"/>
        <path id="Trazado_884080" data-name="Trazado 884080" d="M413.97,156.964a.407.407,0,1,0-.814,0v.507h-.507a.407.407,0,1,0,0,.815h.507v.507a.407.407,0,0,0,.814,0v-.507h.508a.407.407,0,0,0,0-.815h-.508Z" transform="translate(-92.877 -35.272)" fill="#fff" fill-rule="evenodd"/>
        <path id="Trazado_884081" data-name="Trazado 884081" d="M298.527,167.791a.407.407,0,0,0-.813,0v.509h-.507a.407.407,0,0,0,0,.813h.507v.507a.407.407,0,1,0,.813,0v-.507h.508a.407.407,0,1,0,0-.813h-.508Z" transform="translate(-66.868 -37.712)" fill="#fff" fill-rule="evenodd"/>
        <path id="Trazado_884082" data-name="Trazado 884082" d="M252.861,50.858a.407.407,0,1,0-.815,0v.508h-.507a.407.407,0,0,0,0,.814h.507v.507a.407.407,0,0,0,.815,0v-.507h.507a.407.407,0,1,0,0-.814h-.507Z" transform="translate(-56.58 -11.367)" fill="#fff" fill-rule="evenodd"/>
        <path id="Trazado_884083" data-name="Trazado 884083" d="M158.069,61.928a.407.407,0,1,0-.814,0v.508h-.508a.407.407,0,0,0,0,.814h.508v.508a.407.407,0,0,0,.814,0v-.508h.507a.407.407,0,1,0,0-.814h-.507Z" transform="translate(-35.223 -13.861)" fill="#fff" fill-rule="evenodd"/>
        <path id="Trazado_884084" data-name="Trazado 884084" d="M78.5,202.386a.407.407,0,0,0-.814,0v.509h-.509a.407.407,0,0,0,0,.813h.509v.508a.407.407,0,1,0,.814,0v-.508h.507a.407.407,0,1,0,0-.813H78.5Z" transform="translate(-17.296 -45.506)" fill="#fff" fill-rule="evenodd"/>
        <path id="Trazado_884085" data-name="Trazado 884085" d="M414.768,227.295a.407.407,0,0,0-.814,0v.508h-.508a.407.407,0,0,0,0,.815h.508v.507a.407.407,0,1,0,.814,0v-.507h.507a.407.407,0,0,0,0-.815h-.507Z" transform="translate(-93.057 -51.118)" fill="#fff" fill-rule="evenodd"/>
        <path id="Trazado_884086" data-name="Trazado 884086" d="M238.33,182.322a.407.407,0,0,0-.814,0v.508h-.507a.407.407,0,1,0,0,.814h.507v.507a.407.407,0,1,0,.814,0v-.507h.507a.407.407,0,1,0,0-.814h-.507Z" transform="translate(-53.306 -40.985)" fill="#fff" fill-rule="evenodd"/>
        <path id="Trazado_884087" data-name="Trazado 884087" d="M277.77,130.428a.407.407,0,0,0-.815,0v.509h-.507a.407.407,0,0,0,0,.813h.507v.507a.407.407,0,1,0,.815,0v-.507h.507a.407.407,0,1,0,0-.813h-.507Z" transform="translate(-62.192 -29.294)" fill="#fff" fill-rule="evenodd"/>
        <path id="Trazado_884088" data-name="Trazado 884088" d="M299.22,42.555a.407.407,0,0,0-.813,0v.509H297.9a.407.407,0,0,0,0,.813h.508v.508a.407.407,0,0,0,.813,0v-.508h.507a.407.407,0,1,0,0-.813h-.507Z" transform="translate(-67.025 -9.496)" fill="#fff" fill-rule="evenodd"/>
        <path id="Trazado_884089" data-name="Trazado 884089" d="M429.99,86.146a.407.407,0,0,0-.814,0v.508h-.507a.407.407,0,1,0,0,.814h.507v.507a.407.407,0,0,0,.814,0v-.507h.507a.407.407,0,1,0,0-.814h-.507Z" transform="translate(-96.487 -19.317)" fill="#a4d8db" fill-rule="evenodd"/>
        <path id="Trazado_884090" data-name="Trazado 884090" d="M129.7,22.157a.407.407,0,0,0-.815,0v.507h-.507a.407.407,0,1,0,0,.813h.507v.508a.407.407,0,1,0,.815,0v-.508h.507a.407.407,0,1,0,0-.813H129.7Z" transform="translate(-28.832 -4.9)" fill="#a4d8db" fill-rule="evenodd"/>
        <path id="Trazado_884091" data-name="Trazado 884091" d="M30.065,231.806a.407.407,0,0,0-.815,0v.507h-.507a.407.407,0,0,0,0,.814h.507v.507a.407.407,0,1,0,.815,0v-.507h.507a.407.407,0,0,0,0-.814h-.507Z" transform="translate(-6.384 -52.134)" fill="#a4d8db" fill-rule="evenodd"/>
        <path id="Trazado_884092" data-name="Trazado 884092" d="M443.828,277.472a.407.407,0,1,0-.813,0v.507h-.507a.407.407,0,1,0,0,.813h.507v.509a.407.407,0,1,0,.813,0v-.509h.507a.407.407,0,1,0,0-.813h-.507Z" transform="translate(-99.604 -62.422)" fill="#a4d8db" fill-rule="evenodd"/>
        <path id="Trazado_884093" data-name="Trazado 884093" d="M324.819,9.7a.407.407,0,1,0-.814,0v.507H323.5a.407.407,0,1,0,0,.813H324v.508a.407.407,0,1,0,.814,0v-.508h.507a.407.407,0,1,0,0-.813h-.507Z" transform="translate(-72.792 -2.094)" fill="#a4d8db" fill-rule="evenodd"/>
        <path id="Trazado_884094" data-name="Trazado 884094" d="M459.742,177.837a.407.407,0,1,0-.813,0v.508h-.509a.407.407,0,0,0,0,.813h.509v.507a.407.407,0,1,0,.813,0v-.507h.507a.407.407,0,1,0,0-.813h-.507Z" transform="translate(-103.19 -39.975)" fill="#a4d8db" fill-rule="evenodd"/>
        <path id="Trazado_884095" data-name="Trazado 884095" d="M418.68,86.925a2.412,2.412,0,0,0-1.71.709l0,0a2.416,2.416,0,0,0,0,3.42l0,0a2.415,2.415,0,0,0,3.42,0l0,0a2.418,2.418,0,0,0,0-3.42l0,0a2.411,2.411,0,0,0-1.709-.709M417.5,88.171a1.664,1.664,0,1,1-.486,1.175,1.659,1.659,0,0,1,.486-1.175" transform="translate(-93.783 -19.584)" fill="#a4d8db" fill-rule="evenodd"/>
        <path id="Trazado_884096" data-name="Trazado 884096" d="M157.623,0a2.416,2.416,0,0,0-1.71.709l0,0a2.418,2.418,0,0,0,0,3.421l0,0a2.416,2.416,0,0,0,3.42,0l0,0a2.417,2.417,0,0,0,0-3.42l0,0A2.414,2.414,0,0,0,157.623,0m-1.174,1.245a1.664,1.664,0,1,1-.487,1.175,1.659,1.659,0,0,1,.487-1.175" transform="translate(-34.967)" fill="#a4d8db" fill-rule="evenodd"/>
        <path id="Trazado_884097" data-name="Trazado 884097" d="M45.534,138.383a2.413,2.413,0,0,0-1.71.709l0,0a2.416,2.416,0,0,0,0,3.419l0,0a2.415,2.415,0,0,0,3.42,0l0,0a2.415,2.415,0,0,0,0-3.419l0,0a2.41,2.41,0,0,0-1.709-.708m-1.175,1.245a1.665,1.665,0,1,1-.487,1.176,1.657,1.657,0,0,1,.487-1.176" transform="translate(-9.713 -31.178)" fill="#a4d8db" fill-rule="evenodd"/>
        <path id="Trazado_884098" data-name="Trazado 884098" d="M463.45,235.25a2.413,2.413,0,0,0-1.711.71l0,0a2.418,2.418,0,0,0,0,3.42l0,0a2.416,2.416,0,0,0,3.42,0l0,0a2.419,2.419,0,0,0,0-3.42h0a2.411,2.411,0,0,0-1.708-.71m-1.176,1.246a1.666,1.666,0,1,1-.486,1.176,1.656,1.656,0,0,1,.486-1.176" transform="translate(-103.869 -53.002)" fill="#a4d8db" fill-rule="evenodd"/>
        <path id="Trazado_884099" data-name="Trazado 884099" d="M128.564,384.7a2.41,2.41,0,0,0-1.711.709l0,0a2.417,2.417,0,0,0,0,3.419l0,0a2.415,2.415,0,0,0,3.419,0l0,0a2.416,2.416,0,0,0,0-3.42l0,0a2.412,2.412,0,0,0-1.709-.709m-1.175,1.246a1.663,1.663,0,1,1-.487,1.176,1.656,1.656,0,0,1,.487-1.176" transform="translate(-28.42 -86.673)" fill="#a4d8db" fill-rule="evenodd"/>
        <path id="Trazado_884100" data-name="Trazado 884100" d="M307.077,185.433a2.413,2.413,0,0,0-1.71.709l0,0a2.42,2.42,0,0,0,0,3.42l0,0a2.414,2.414,0,0,0,3.419,0l0,0a2.417,2.417,0,0,0,0-3.42l0,0a2.417,2.417,0,0,0-1.709-.709m-1.174,1.245a1.662,1.662,0,1,1-.488,1.177,1.652,1.652,0,0,1,.488-1.177" transform="translate(-68.639 -41.778)" fill="#fff" fill-rule="evenodd"/>
        <path id="Trazado_884101" data-name="Trazado 884101" d="M292.2,91.679a2.416,2.416,0,0,0-1.712.71l0,0a2.415,2.415,0,0,0,0,3.419l0,0a2.42,2.42,0,0,0,3.421,0l0,0a2.417,2.417,0,0,0,0-3.419l0,0a2.41,2.41,0,0,0-1.707-.709m-1.177,1.246a1.665,1.665,0,1,1-.486,1.175,1.657,1.657,0,0,1,.486-1.175" transform="translate(-65.287 -20.655)" fill="#fff" fill-rule="evenodd"/>
        <path id="Trazado_884102" data-name="Trazado 884102" d="M398.063,137.345a2.412,2.412,0,0,0-1.71.71l0,0a2.42,2.42,0,0,0,0,3.42l0,0a2.42,2.42,0,0,0,3.422,0v0a2.414,2.414,0,0,0,0-3.42l0,0a2.418,2.418,0,0,0-1.711-.709m-1.174,1.246a1.664,1.664,0,1,1-.487,1.176,1.652,1.652,0,0,1,.487-1.176" transform="translate(-89.138 -30.944)" fill="#fff" fill-rule="evenodd"/>
        <path id="Trazado_884103" data-name="Trazado 884103" d="M111.613,116.588a2.416,2.416,0,0,0-1.711.71l0,0a2.416,2.416,0,0,0,0,3.42l0,0a2.418,2.418,0,0,0,3.42,0l0,0a2.418,2.418,0,0,0,0-3.42l0,0a2.413,2.413,0,0,0-1.709-.709m-1.176,1.246a1.664,1.664,0,1,1-.486,1.175,1.656,1.656,0,0,1,.486-1.175" transform="translate(-24.601 -26.267)" fill="#fff" fill-rule="evenodd"/>
        <path id="Trazado_884104" data-name="Trazado 884104" d="M106.078,209.3a2.412,2.412,0,0,0-1.711.71l0,0a2.42,2.42,0,0,0,0,3.421l0,0a2.416,2.416,0,0,0,3.419,0l0,0a2.42,2.42,0,0,0,0-3.421l0,0a2.413,2.413,0,0,0-1.708-.708M104.9,210.55a1.664,1.664,0,1,1-.487,1.176,1.657,1.657,0,0,1,.487-1.176" transform="translate(-23.354 -47.156)" fill="#fff" fill-rule="evenodd"/>
        <path id="Trazado_884105" data-name="Trazado 884105" d="M150.159,139.29l2.275-11.276a.392.392,0,0,0-.013-.219l-2.275-6.911a.43.43,0,0,0-.839.134v18.188a.43.43,0,0,0,.852.084" transform="translate(-33.639 -27.168)" fill="#fff" fill-rule="evenodd"/>
        <path id="Trazado_884106" data-name="Trazado 884106" d="M150.159,139.29l.548-2.722a1.2,1.2,0,0,1-.645-1.127v-6.25c0-2.764.215-4.239.829-4.193a1.088,1.088,0,0,1,.845.719l-1.591-4.833a.43.43,0,0,0-.839.134v18.188a.43.43,0,0,0,.852.084" transform="translate(-33.639 -27.168)" fill="#dff0f4" fill-rule="evenodd"/>
        <path id="Trazado_884107" data-name="Trazado 884107" d="M145.019,144.087l-10.9,3.667a.419.419,0,0,0-.184.121l-4.847,5.427a.43.43,0,0,0,.536.659l15.75-9.093a.43.43,0,0,0-.352-.78" transform="translate(-29.058 -32.458)" fill="#fff" fill-rule="evenodd"/>
        <path id="Trazado_884108" data-name="Trazado 884108" d="M145.019,144.087l-2.632.885a1.2,1.2,0,0,1-.655,1.121l-5.414,3.126c-2.393,1.383-3.778,1.933-4.046,1.379a1.085,1.085,0,0,1,.2-1.092l-3.389,3.8a.43.43,0,0,0,.536.659l15.75-9.093a.43.43,0,0,0-.352-.78" transform="translate(-29.058 -32.458)" fill="#dff0f4" fill-rule="evenodd"/>
        <path id="Trazado_884109" data-name="Trazado 884109" d="M149.452,144.817l8.627,7.609a.424.424,0,0,0,.2.1l7.124,1.484a.43.43,0,0,0,.3-.793l-15.751-9.093a.43.43,0,0,0-.5.695" transform="translate(-33.638 -32.457)" fill="#fff" fill-rule="evenodd"/>
        <path id="Trazado_884110" data-name="Trazado 884110" d="M149.452,144.817l2.082,1.837a1.2,1.2,0,0,1,1.3.006l5.413,3.124c2.394,1.383,3.564,2.306,3.217,2.814a1.084,1.084,0,0,1-1.047.372l4.982,1.038a.43.43,0,0,0,.3-.793l-15.751-9.093a.43.43,0,0,0-.5.695" transform="translate(-33.638 -32.457)" fill="#dff0f4" fill-rule="evenodd"/>
        <path id="Trazado_884111" data-name="Trazado 884111" d="M149.122,199.06a.578.578,0,0,0,1.146,0V144.534a.578.578,0,0,0-1.146,0Z" transform="translate(-33.597 -32.451)" fill="#fff" fill-rule="evenodd"/>
        <path id="Trazado_884112" data-name="Trazado 884112" d="M149.531,145.425a1.138,1.138,0,1,0-1.139-1.136,1.14,1.14,0,0,0,1.139,1.136" transform="translate(-33.433 -32.252)" fill="#fff" fill-rule="evenodd"/>
        <path id="Trazado_884113" data-name="Trazado 884113" d="M149.658,145.117a.7.7,0,1,0-.7-.7.7.7,0,0,0,.7.7" transform="translate(-33.56 -32.379)" fill="#a4d8db" fill-rule="evenodd"/>
        <path id="Trazado_884114" data-name="Trazado 884114" d="M151.887,214.663h-6.373a.809.809,0,0,0,0,1.618h6.373a.809.809,0,1,0,0-1.618" transform="translate(-32.602 -48.363)" fill="#fff" fill-rule="evenodd"/>
        <path id="Trazado_884115" data-name="Trazado 884115" d="M152.809,215.708h-8.644a.4.4,0,0,0,0,.809h8.644a.4.4,0,1,0,0-.809" transform="translate(-32.389 -48.599)" fill="#dff0f4" fill-rule="evenodd"/>
        <path id="Trazado_884116" data-name="Trazado 884116" d="M195.757,139.29l2.275-11.276a.406.406,0,0,0-.013-.219l-2.275-6.911a.43.43,0,0,0-.839.134v18.188a.43.43,0,0,0,.852.084" transform="translate(-43.912 -27.168)" fill="#fff" fill-rule="evenodd"/>
        <path id="Trazado_884117" data-name="Trazado 884117" d="M195.757,139.29l.548-2.722a1.2,1.2,0,0,1-.645-1.127v-6.25c0-2.764.215-4.239.829-4.193a1.083,1.083,0,0,1,.845.719l-1.591-4.833a.43.43,0,0,0-.839.134v18.188a.43.43,0,0,0,.852.084" transform="translate(-43.912 -27.168)" fill="#dff0f4" fill-rule="evenodd"/>
        <path id="Trazado_884118" data-name="Trazado 884118" d="M190.618,144.087l-10.9,3.667a.419.419,0,0,0-.184.121l-4.847,5.427a.43.43,0,0,0,.536.659l15.75-9.093a.43.43,0,0,0-.352-.78" transform="translate(-39.331 -32.458)" fill="#fff" fill-rule="evenodd"/>
        <path id="Trazado_884119" data-name="Trazado 884119" d="M190.618,144.087l-2.632.885a1.2,1.2,0,0,1-.655,1.121l-5.413,3.126c-2.394,1.383-3.778,1.933-4.045,1.379a1.085,1.085,0,0,1,.2-1.092l-3.39,3.8a.43.43,0,0,0,.536.659l15.75-9.093a.43.43,0,0,0-.352-.78" transform="translate(-39.331 -32.458)" fill="#dff0f4" fill-rule="evenodd"/>
        <path id="Trazado_884120" data-name="Trazado 884120" d="M195.051,144.817l8.626,7.609a.433.433,0,0,0,.2.1L211,154.009a.43.43,0,0,0,.3-.793l-15.75-9.093a.43.43,0,0,0-.5.695" transform="translate(-43.912 -32.457)" fill="#fff" fill-rule="evenodd"/>
        <path id="Trazado_884121" data-name="Trazado 884121" d="M195.051,144.817l2.082,1.837a1.2,1.2,0,0,1,1.3.006l5.413,3.124c2.394,1.383,3.564,2.306,3.216,2.814a1.081,1.081,0,0,1-1.044.372L211,154.009a.43.43,0,0,0,.3-.793l-15.75-9.093a.43.43,0,0,0-.5.695" transform="translate(-43.912 -32.457)" fill="#dff0f4" fill-rule="evenodd"/>
        <path id="Trazado_884122" data-name="Trazado 884122" d="M194.722,199.06a.579.579,0,0,0,1.147,0V144.534a.579.579,0,0,0-1.147,0Z" transform="translate(-43.871 -32.451)" fill="#fff" fill-rule="evenodd"/>
        <path id="Trazado_884123" data-name="Trazado 884123" d="M195.13,145.425a1.138,1.138,0,1,0-1.137-1.136,1.139,1.139,0,0,0,1.137,1.136" transform="translate(-43.706 -32.252)" fill="#fff" fill-rule="evenodd"/>
        <path id="Trazado_884124" data-name="Trazado 884124" d="M195.257,145.117a.7.7,0,1,0-.7-.7.7.7,0,0,0,.7.7" transform="translate(-43.833 -32.379)" fill="#a4d8db" fill-rule="evenodd"/>
        <path id="Trazado_884125" data-name="Trazado 884125" d="M197.486,214.663h-6.373a.809.809,0,0,0,0,1.618h6.373a.809.809,0,0,0,0-1.618" transform="translate(-42.875 -48.363)" fill="#fff" fill-rule="evenodd"/>
        <path id="Trazado_884126" data-name="Trazado 884126" d="M198.408,215.708h-8.643a.4.4,0,0,0,0,.809h8.643a.4.4,0,1,0,0-.809" transform="translate(-42.663 -48.599)" fill="#dff0f4" fill-rule="evenodd"/>
        <path id="Trazado_884127" data-name="Trazado 884127" d="M369.849,171.53l2.275-11.277a.419.419,0,0,0-.012-.218l-2.277-6.913a.43.43,0,0,0-.839.134v18.188a.431.431,0,0,0,.853.086" transform="translate(-83.134 -34.432)" fill="#fff" fill-rule="evenodd"/>
        <path id="Trazado_884128" data-name="Trazado 884128" d="M369.849,171.53l.548-2.723a1.2,1.2,0,0,1-.645-1.128v-6.25c0-2.763.215-4.239.827-4.193a1.08,1.08,0,0,1,.846.72l-1.591-4.833a.43.43,0,0,0-.839.134v18.188a.431.431,0,0,0,.853.086" transform="translate(-83.134 -34.432)" fill="#dff0f4" fill-rule="evenodd"/>
        <path id="Trazado_884129" data-name="Trazado 884129" d="M364.709,176.326l-10.9,3.667a.418.418,0,0,0-.185.12l-4.846,5.426a.43.43,0,0,0,.536.659l15.75-9.093a.43.43,0,0,0-.352-.779" transform="translate(-78.554 -39.721)" fill="#fff" fill-rule="evenodd"/>
        <path id="Trazado_884130" data-name="Trazado 884130" d="M364.709,176.326l-2.632.885a1.2,1.2,0,0,1-.654,1.122l-5.414,3.126c-2.394,1.382-3.777,1.934-4.044,1.378a1.08,1.08,0,0,1,.2-1.091l-3.39,3.794a.43.43,0,0,0,.536.659l15.75-9.093a.43.43,0,0,0-.352-.779" transform="translate(-78.554 -39.721)" fill="#dff0f4" fill-rule="evenodd"/>
        <path id="Trazado_884131" data-name="Trazado 884131" d="M369.142,177.055l8.629,7.609a.405.405,0,0,0,.2.1l7.123,1.484a.43.43,0,0,0,.3-.793l-15.75-9.094a.431.431,0,0,0-.5.7" transform="translate(-83.134 -39.721)" fill="#fff" fill-rule="evenodd"/>
        <path id="Trazado_884132" data-name="Trazado 884132" d="M369.142,177.055l2.084,1.838a1.2,1.2,0,0,1,1.3,0c1.5.865,3.019,1.742,5.412,3.126s3.564,2.3,3.217,2.813a1.083,1.083,0,0,1-1.045.373l4.981,1.038a.43.43,0,0,0,.3-.793l-15.75-9.094a.431.431,0,0,0-.5.7" transform="translate(-83.134 -39.721)" fill="#dff0f4" fill-rule="evenodd"/>
        <path id="Trazado_884133" data-name="Trazado 884133" d="M368.811,231.3a.579.579,0,0,0,1.148,0V176.772a.58.58,0,0,0-1.148,0Z" transform="translate(-83.093 -39.714)" fill="#fff" fill-rule="evenodd"/>
        <path id="Trazado_884134" data-name="Trazado 884134" d="M369.22,177.665a1.138,1.138,0,1,0-1.136-1.138,1.141,1.141,0,0,0,1.136,1.138" transform="translate(-82.929 -39.515)" fill="#fff" fill-rule="evenodd"/>
        <path id="Trazado_884135" data-name="Trazado 884135" d="M369.348,177.356a.7.7,0,1,0-.7-.7.7.7,0,0,0,.7.7" transform="translate(-83.056 -39.642)" fill="#a4d8db" fill-rule="evenodd"/>
        <path id="Trazado_884136" data-name="Trazado 884136" d="M371.576,246.9H365.2a.81.81,0,0,0,0,1.619h6.374a.81.81,0,1,0,0-1.619" transform="translate(-82.098 -55.627)" fill="#fff" fill-rule="evenodd"/>
        <path id="Trazado_884137" data-name="Trazado 884137" d="M372.5,247.948h-8.643a.4.4,0,1,0,0,.809H372.5a.4.4,0,1,0,0-.809" transform="translate(-81.885 -55.862)" fill="#dff0f4" fill-rule="evenodd"/>
        <path id="Trazado_884138" data-name="Trazado 884138" d="M77.617,199.8a.76.76,0,1,1,1.519,0v1.317h1.319a.76.76,0,0,1,0,1.519H79.136v1.317a.76.76,0,0,1-1.519,0V202.64H76.3a.76.76,0,1,1,0-1.519h1.317Z" transform="translate(-17.019 -44.844)" fill="#a4d8db" fill-rule="evenodd"/>
        <path id="Trazado_884139" data-name="Trazado 884139" d="M412.858,206.471a.76.76,0,0,1,1.521,0v1.316H415.7a.76.76,0,1,1,0,1.52h-1.316v1.318a.76.76,0,0,1-1.521,0v-1.318h-1.316a.76.76,0,1,1,0-1.52h1.316Z" transform="translate(-92.549 -46.346)" fill="#a4d8db" fill-rule="evenodd"/>
        <path id="Trazado_884140" data-name="Trazado 884140" d="M451.4,297.118c-5.211,3.49-11.442,8.772-20.083,13.516-1.4-6.71-.914-15.255,15.318-22.194,1.845,3.1,3.649,6.577,4.764,8.678" transform="translate(-97.062 -64.985)" fill="#f19da3" fill-rule="evenodd"/>
        <path id="Trazado_884141" data-name="Trazado 884141" d="M195.038,371.381,87.8,332.641c9.465-12.954,14.209-24.7,6.475-35.228-5.229-7.12,20.427-4.515,52.219.965L210.281,329.5c20.161,9.837,9.016,50.645-15.243,41.881" transform="translate(-19.781 -66.03)" fill="#f0969b" fill-rule="evenodd"/>
        <path id="Trazado_884142" data-name="Trazado 884142" d="M78.339,298.178,90.6,333.152,33.082,407.466H0V312.154l57.169-53.012Z" transform="translate(0 -58.384)" fill="#f4b4b6" fill-rule="evenodd"/>
        <path id="Trazado_884143" data-name="Trazado 884143" d="M78.339,309.434,90.6,344.408,33.082,418.722H0V397.151c14.993-5.773,32.168-18.219,46.487-35.02,17.035-19.987,34.355-37.664,31.576-53.032Z" transform="translate(0 -69.64)" fill="#f0969b" fill-rule="evenodd"/>
        <path id="Trazado_884144" data-name="Trazado 884144" d="M171.2,323.659l-62.948-11.772c-18.144-3.393-23.785-.021-33.692,10.54-5.074-8.908-13.766-23.58-18.841-32.488C40.931,263.991,90.143,229.318,131.4,249.3c31.746,17.338,42.172,30.162,77.4,35.078,12.343,1.724,30.279,3.506,39.655,12.7,7.292,7.15,7.781,18.262,5.066,23.664-3.428,6.817-12.541,7.02-25.912,6.339l-45.353-2.312a25.625,25.625,0,0,1-11.06-1.1" transform="translate(-11.948 -54.827)" fill="#f4b4b6" fill-rule="evenodd"/>
        <path id="Trazado_884145" data-name="Trazado 884145" d="M290.934,322.891l-.758,20.893c-4.2.69-9.444.548-15.584.2l-12.759-.73c-.048-.235-.09-.474-.121-.724-1.655-13.491,11.8-20.541,29.223-19.637" transform="translate(-58.932 -72.729)" fill="#f0969b" fill-rule="evenodd"/>
        <path id="Trazado_884146" data-name="Trazado 884146" d="M290.934,327.142l-.758,18.621c-4.2.614-9.444.487-15.584.176l-12.759-.651c-.048-.209-.09-.422-.121-.645-1.655-12.023,11.8-18.307,29.223-17.5" transform="translate(-58.932 -73.689)" fill="#f7c8ca" fill-rule="evenodd"/>
        <path id="Trazado_884147" data-name="Trazado 884147" d="M452.422,299.4c-5.21,3.491-12.165,7.89-20.8,12.632-.762-4.7-.191-14.37,16.042-21.31,1.845,3.1,3.647,6.579,4.763,8.678" transform="translate(-97.197 -65.499)" fill="#f7c8ca" fill-rule="evenodd"/>
      </g>
    </g>
  </g>
</svg>
