<svg xmlns="http://www.w3.org/2000/svg" xmlns:xlink="http://www.w3.org/1999/xlink" width="85.8" height="87.398" viewBox="0 0 85.8 87.398">
  <defs>
    <clipPath id="clip-path">
      <rect id="Rectángulo_404014" data-name="Rectángulo 404014" width="85.8" height="76.796" fill="none"/>
    </clipPath>
  </defs>
  <g id="Grupo_1202856" data-name="Grupo 1202856" transform="translate(-431.182 -898.254)">
    <g id="Grupo_1102559" data-name="Grupo 1102559" transform="translate(434.581 898.254)">
      <path id="Rectángulo_403909" data-name="Rectángulo 403909" d="M26.5,0h0A26.5,26.5,0,0,1,53,26.5V86a0,0,0,0,1,0,0H0a0,0,0,0,1,0,0V26.5A26.5,26.5,0,0,1,26.5,0Z" transform="translate(13.001)" fill="#6fa150"/>
      <g id="Grupo_1102804" data-name="Grupo 1102804" transform="translate(-3.399 10.602)">
        <g id="Grupo_1102803" data-name="Grupo 1102803" clip-path="url(#clip-path)">
          <path id="Trazado_881158" data-name="Trazado 881158" d="M73.175,44.541v53.4H51.2v-53.4A1,1,0,0,1,52.2,43.535H72.169a1.006,1.006,0,0,1,1.006,1.006" transform="translate(-26.348 -22.405)" fill="#b2e5ff"/>
          <path id="Trazado_881159" data-name="Trazado 881159" d="M90.323,43.536H86.469a1,1,0,0,1,1.005,1.006v53.4h3.855v-53.4a1.006,1.006,0,0,0-1.006-1.006" transform="translate(-44.502 -22.406)" fill="#b2e5ff"/>
          <path id="Trazado_881160" data-name="Trazado 881160" d="M31.369,67.2l1.994,37.585H24.868L26.863,67.2Z" transform="translate(-12.799 -34.586)" fill="#b2e5ff"/>
          <path id="Trazado_881161" data-name="Trazado 881161" d="M34.885,67.2H31.7L33.7,104.788h3.184Z" transform="translate(-16.315 -34.586)" fill="#b2e5ff"/>
          <path id="Trazado_881162" data-name="Trazado 881162" d="M33.173,149.317v-4.009a.665.665,0,0,0-.665-.665H19.077a.665.665,0,0,0-.665.665v4.009a.665.665,0,0,0,.665.665H32.508a.665.665,0,0,0,.665-.665" transform="translate(-9.476 -74.441)" fill="#b2e5ff"/>
          <path id="Trazado_881163" data-name="Trazado 881163" d="M43.191,144.643H39.169a.665.665,0,0,1,.665.665v4.009a.665.665,0,0,1-.665.665h4.022a.665.665,0,0,0,.665-.665v-4.009a.665.665,0,0,0-.665-.665" transform="translate(-20.159 -74.441)" fill="#94d8e6"/>
          <path id="Trazado_881164" data-name="Trazado 881164" d="M31.07,31.942l2.282,9.7a1.276,1.276,0,0,1-.191,1.014l-2.65,3.855H28.535l-2.65-3.855a1.276,1.276,0,0,1-.19-1.014l2.282-9.7a1.589,1.589,0,0,1,3.093,0" transform="translate(-13.207 -15.809)" fill="#ffd737"/>
          <path id="Trazado_881165" data-name="Trazado 881165" d="M47.347,74.754,37.807,71.88a1.275,1.275,0,0,1-.783-.672l-2.014-4.223L36,65.274l4.664-.367a1.274,1.274,0,0,1,.973.342l7.259,6.826a1.589,1.589,0,0,1-1.547,2.679Z" transform="translate(-18.018 -33.403)" fill="#ffd737"/>
          <path id="Trazado_881166" data-name="Trazado 881166" d="M3.09,72.075l7.259-6.826a1.273,1.273,0,0,1,.973-.342l4.664.367.989,1.712-2.014,4.222a1.275,1.275,0,0,1-.783.672L4.637,74.754A1.589,1.589,0,0,1,3.09,72.075" transform="translate(-1.333 -33.402)" fill="#ffd737"/>
          <path id="Trazado_881167" data-name="Trazado 881167" d="M29.8,60.545a3.239,3.239,0,1,1-2.837,3.6,3.239,3.239,0,0,1,2.837-3.6" transform="translate(-13.863 -31.148)" fill="#00a8ff"/>
          <path id="Trazado_881168" data-name="Trazado 881168" d="M74.286,69.738v35.226h26.151V58.106a.934.934,0,0,0-1.327-.847L75.151,68.382A1.5,1.5,0,0,0,74.286,69.738Z" transform="translate(-38.232 -29.423)" fill="#00a8ff"/>
          <path id="Trazado_881169" data-name="Trazado 881169" d="M122.078,57.259l-3.165,1.469a.932.932,0,0,1,.638.886v45.349h3.855V58.106A.934.934,0,0,0,122.078,57.259Z" transform="translate(-61.199 -29.423)" fill="#00a8ff"/>
          <path id="Trazado_881170" data-name="Trazado 881170" d="M85.69,89.152v3.6a.838.838,0,0,0,.838.838h3.6a.838.838,0,0,0,.838-.838v-3.6a.838.838,0,0,0-.838-.838h-3.6a.838.838,0,0,0-.838.838" transform="translate(-44.101 -45.451)" fill="#dff8fd"/>
          <path id="Trazado_881171" data-name="Trazado 881171" d="M105.9,89.152v3.6a.838.838,0,0,0,.838.838h3.6a.838.838,0,0,0,.838-.838v-3.6a.838.838,0,0,0-.838-.838h-3.6a.838.838,0,0,0-.838.838" transform="translate(-54.501 -45.451)" fill="#dff8fd"/>
          <path id="Trazado_881172" data-name="Trazado 881172" d="M85.69,110.389v3.6a.838.838,0,0,0,.838.838h3.6a.838.838,0,0,0,.838-.838v-3.6a.838.838,0,0,0-.838-.838h-3.6a.838.838,0,0,0-.838.838" transform="translate(-44.101 -56.381)" fill="#dff8fd"/>
          <path id="Trazado_881173" data-name="Trazado 881173" d="M105.9,110.389v3.6a.838.838,0,0,0,.838.838h3.6a.838.838,0,0,0,.838-.838v-3.6a.838.838,0,0,0-.838-.838h-3.6a.838.838,0,0,0-.838.838" transform="translate(-54.501 -56.381)" fill="#dff8fd"/>
          <path id="Trazado_881174" data-name="Trazado 881174" d="M85.69,131.626v3.6a.838.838,0,0,0,.838.838h3.6a.838.838,0,0,0,.838-.838v-3.6a.838.838,0,0,0-.838-.838h-3.6a.838.838,0,0,0-.838.838" transform="translate(-44.101 -67.311)" fill="#dff8fd"/>
          <path id="Trazado_881175" data-name="Trazado 881175" d="M105.9,131.626v3.6a.838.838,0,0,0,.838.838h3.6a.838.838,0,0,0,.838-.838v-3.6a.838.838,0,0,0-.838-.838h-3.6a.838.838,0,0,0-.838.838" transform="translate(-54.501 -67.311)" fill="#dff8fd"/>
          <path id="Trazado_881176" data-name="Trazado 881176" d="M136,18.454a6.119,6.119,0,1,1,0,8.654,6.119,6.119,0,0,1,0-8.654" transform="translate(-69.073 -8.575)" fill="#ffd737"/>
          <path id="Trazado_881177" data-name="Trazado 881177" d="M60.608,143.779v-1.392a5.235,5.235,0,0,0-5.235-5.235H51.6a.9.9,0,0,1-.855-.638,5.563,5.563,0,0,0-10.7.258,1.046,1.046,0,0,1-.651.714,5.237,5.237,0,0,0-3.393,4.9v1.393Z" transform="translate(-18.527 -68.239)" fill="#22a53c"/>
          <path id="Trazado_881178" data-name="Trazado 881178" d="M55.366,136.513a.9.9,0,0,0,.855.638h3.519a.9.9,0,0,1-.855-.638,5.562,5.562,0,0,0-7.073-3.636A5.575,5.575,0,0,1,55.366,136.513Z" transform="translate(-26.665 -68.239)" fill="#22a53c"/>
          <path id="Trazado_881179" data-name="Trazado 881179" d="M72.185,141.986H68.666a5.235,5.235,0,0,1,5.235,5.235v1.392h3.519v-1.392a5.235,5.235,0,0,0-5.235-5.235" transform="translate(-35.339 -73.074)" fill="#22a53c"/>
          <rect id="Rectángulo_404013" data-name="Rectángulo 404013" width="5.514" height="8.686" transform="translate(69.917 66.855)" fill="#ddebfd"/>
          <path id="Trazado_881180" data-name="Trazado 881180" d="M129.22,108.22l-3.459,14.644a.838.838,0,0,0,.815,1.03H148.2a.838.838,0,0,0,.815-1.03l-3.459-14.644a.838.838,0,0,0-.815-.646h-14.7A.838.838,0,0,0,129.22,108.22Z" transform="translate(-64.712 -55.363)" fill="#0075b2"/>
          <path id="Trazado_881181" data-name="Trazado 881181" d="M61.488,60.454h10.7a1.257,1.257,0,1,0,0-2.514h-10.7a1.257,1.257,0,1,0,0,2.514" transform="translate(-30.998 -29.819)"/>
          <path id="Trazado_881182" data-name="Trazado 881182" d="M84.543,88.759H76.689v-4.5h6.8a2.094,2.094,0,0,0,2.038-2.576L82.065,67.043a2.087,2.087,0,0,0-2.039-1.613h-14.7a2.085,2.085,0,0,0-1.86,1.131V60.271a1.257,1.257,0,0,0-2.514,0V76.93l-1.124,4.756a2.1,2.1,0,0,0,1.124,2.367v4.705H43.34v-.136a6.461,6.461,0,0,0-1.6-4.257,2.082,2.082,0,0,0,.685.117h3.6a2.1,2.1,0,0,0,2.095-2.095v-3.6A2.1,2.1,0,0,0,46.026,76.7h-3.6a2.1,2.1,0,0,0-2.095,2.095v3.6a2.077,2.077,0,0,0,.205.9,6.452,6.452,0,0,0-3.226-1.137V54.791a.238.238,0,0,1,.137-.216l23.5-10.91v10.74a1.257,1.257,0,1,0,2.514,0V43.16a2.191,2.191,0,0,0-3.113-1.988l-12.267,5.7V36.613a2.264,2.264,0,0,0-2.262-2.262H25.856a2.264,2.264,0,0,0-2.262,2.262v8.255a2.549,2.549,0,0,0-1.047-.141l-2.3.181a4.508,4.508,0,0,0-.631-.868l1.378-2a2.54,2.54,0,0,0,.379-2.014l-2.283-9.7a2.846,2.846,0,0,0-5.54,0l-2.283,9.7a2.527,2.527,0,0,0,.379,2.012l1.377,2.006a4.533,4.533,0,0,0-.629.867l-2.307-.181a2.545,2.545,0,0,0-1.929.681L.9,52.232a2.846,2.846,0,0,0,1.943,4.921,2.878,2.878,0,0,0,.826-.121L12.42,54.4,10.88,83.421H9.6a1.923,1.923,0,0,0-1.921,1.921v3.417H1.26a1.257,1.257,0,0,0,0,2.514H84.543a1.257,1.257,0,0,0,0-2.514Zm-41.7-9.549h2.76v2.76h-2.76ZM74.185,67.944l.231,2.926h-3.48l.231-2.926Zm.429,5.439.23,2.926H70.507l.23-2.926Zm7.057,2.926H77.365l-.23-2.926h3.845Zm-6.4,5.44H70.079l.231-2.927h4.732Zm-7.286-5.44H63.68l.691-2.926h3.844Zm-5.59,5.44.691-2.927h4.7l-.231,2.927Zm8.779,2.514h3v4.5h-3Zm6.619-2.514-.231-2.927h4.7l.691,2.927Zm2.592-10.879H76.936l-.231-2.926h2.989ZM65.656,67.944h2.988l-.23,2.926H64.965ZM63.464,84.263h5.2v4.5h-5.2Zm-22.638,4.36v.136H18.732v-.136A4,4,0,0,1,21.311,84.9a2.306,2.306,0,0,0,1.426-1.578,4.306,4.306,0,0,1,8.284-.2,2.144,2.144,0,0,0,2.056,1.524h3.77A3.983,3.983,0,0,1,40.826,88.623ZM29.8,57.154a2.849,2.849,0,0,0,2.642-3.9H35.27a2.749,2.749,0,0,0-.47,1.533v4.1h-4.31a1.257,1.257,0,1,0,0,2.514H34.8v5.633h-4.31a1.257,1.257,0,1,0,0,2.514H34.8v5.632h-4.31a1.257,1.257,0,0,0,0,2.514H34.8v4.434H33.341a6.814,6.814,0,0,0-7.234-4.511V56.17C28.865,56.965,29.087,57.154,29.8,57.154ZM45.571,36.865V48.034l-5.838,2.711H30.489a1.238,1.238,0,0,0-.3.036l-4.087-3.842V36.865ZM22.739,47.234a.025.025,0,0,1,.019.005l7.26,6.826a.33.33,0,0,1,.06.407.338.338,0,0,1-.384.152l-9.54-2.874a.027.027,0,0,1-.012-.01l-.683-1.432a4.468,4.468,0,0,0,1.346-2.925Zm-8.389.091a1.982,1.982,0,1,1,2.2,1.737,1.985,1.985,0,0,1-2.2-1.737M16,30.9a.332.332,0,0,1,.647,0l2.279,9.713-1.466,2.133a4.466,4.466,0,0,0-2.272,0L13.714,40.6ZM2.948,54.624a.334.334,0,0,1-.387-.151.33.33,0,0,1,.061-.408l7.255-6.823a.026.026,0,0,1,.017-.008l1.939.152a4.468,4.468,0,0,0,1.343,2.923l-.692,1.443Zm12.1-2.405.347-.727a4.408,4.408,0,0,0,1.839,0l.348.729.58,10.925a1.257,1.257,0,0,0,1.254,1.191l.067,0a1.257,1.257,0,0,0,1.189-1.322L20.219,54.4l3.375,1.017V78.431a6.828,6.828,0,0,0-2.011,1.7l-.6-11.252a1.257,1.257,0,0,0-2.51.133l.749,14.137q-.2.13-.4.275H13.4ZM10.2,85.935h6.611a6.452,6.452,0,0,0-.59,2.688v.136H10.2Z" transform="translate(0 -14.477)"/>
          <path id="Trazado_881183" data-name="Trazado 881183" d="M90.891,87.819A2.1,2.1,0,0,0,88.8,85.724H85.2A2.1,2.1,0,0,0,83.1,87.819v3.6A2.1,2.1,0,0,0,85.2,93.511h3.6a2.1,2.1,0,0,0,2.095-2.095ZM88.377,91h-2.76v-2.76h2.76Z" transform="translate(-42.77 -44.118)"/>
          <path id="Trazado_881184" data-name="Trazado 881184" d="M111.1,87.819A2.1,2.1,0,0,0,109,85.724h-3.6a2.1,2.1,0,0,0-2.095,2.095v3.6a2.1,2.1,0,0,0,2.095,2.095H109a2.1,2.1,0,0,0,2.095-2.095ZM108.585,91h-2.76v-2.76h2.76Z" transform="translate(-53.17 -44.118)"/>
          <path id="Trazado_881185" data-name="Trazado 881185" d="M88.8,106.96H85.2a2.1,2.1,0,0,0-2.095,2.095v3.6a2.1,2.1,0,0,0,2.095,2.095h3.6a2.1,2.1,0,0,0,2.095-2.095v-3.6A2.1,2.1,0,0,0,88.8,106.96m-.419,5.274h-2.76v-2.76h2.76Z" transform="translate(-42.77 -55.047)"/>
          <path id="Trazado_881186" data-name="Trazado 881186" d="M111.1,109.055A2.1,2.1,0,0,0,109,106.96h-3.6a2.1,2.1,0,0,0-2.095,2.095v3.6a2.1,2.1,0,0,0,2.095,2.095H109a2.1,2.1,0,0,0,2.095-2.095Zm-2.514,3.179h-2.76v-2.76h2.76Z" transform="translate(-53.17 -55.047)"/>
          <path id="Trazado_881187" data-name="Trazado 881187" d="M109,128.2h-3.6a2.1,2.1,0,0,0-2.095,2.095v3.6a2.1,2.1,0,0,0,2.095,2.095H109a2.1,2.1,0,0,0,2.095-2.095v-3.6A2.1,2.1,0,0,0,109,128.2m-.419,5.274h-2.76v-2.76h2.76Z" transform="translate(-53.17 -65.977)"/>
          <path id="Trazado_881188" data-name="Trazado 881188" d="M135.327,27.828a7.377,7.377,0,1,0-3.437-4.479A7.334,7.334,0,0,0,135.327,27.828Zm-.523-8.82a4.863,4.863,0,1,1-.486,3.69,4.86,4.86,0,0,1,.486-3.69" transform="translate(-67.747 -7.239)"/>
          <path id="Trazado_881189" data-name="Trazado 881189" d="M121.78,15.681c.946.5,1.183.8,1.721.8a1.257,1.257,0,0,0,.629-2.345l-1.093-.631a1.257,1.257,0,1,0-1.257,2.177Z" transform="translate(-62.351 -6.863)"/>
          <path id="Trazado_881190" data-name="Trazado 881190" d="M123.038,41.683l1.093-.631a1.257,1.257,0,1,0-1.257-2.177l-1.093.631a1.257,1.257,0,0,0,1.257,2.177" transform="translate(-62.352 -19.921)"/>
          <path id="Trazado_881191" data-name="Trazado 881191" d="M144.251,52v1.263a1.257,1.257,0,0,0,2.514,0V52a1.257,1.257,0,1,0-2.514,0" transform="translate(-74.239 -26.115)"/>
          <path id="Trazado_881192" data-name="Trazado 881192" d="M165.724,41.052l1.093.631a1.257,1.257,0,0,0,1.257-2.177l-1.093-.631a1.257,1.257,0,1,0-1.257,2.177" transform="translate(-84.967 -19.921)"/>
          <path id="Trazado_881193" data-name="Trazado 881193" d="M166.982,16.312l1.093-.631a1.257,1.257,0,1,0-1.257-2.177l-1.093.631a1.257,1.257,0,0,0,1.257,2.177" transform="translate(-84.968 -6.863)"/>
          <path id="Trazado_881194" data-name="Trazado 881194" d="M145.508,3.775a1.257,1.257,0,0,0,1.257-1.257V1.256a1.257,1.257,0,1,0-2.514,0V2.518a1.257,1.257,0,0,0,1.257,1.257" transform="translate(-74.239 0.001)"/>
        </g>
      </g>
    </g>
  </g>
</svg>
