<svg xmlns="http://www.w3.org/2000/svg" xmlns:xlink="http://www.w3.org/1999/xlink" width="72" height="72" viewBox="0 0 72 72">
  <defs>
    <clipPath id="clip-path">
      <rect id="Rectángulo_403952" data-name="Rectángulo 403952" width="52" height="52" transform="translate(0)" fill="none"/>
    </clipPath>
    <clipPath id="clip-path-3">
      <rect id="Rectángulo_403950" data-name="Rectángulo 403950" width="24" height="23" transform="translate(-0.31 0.345)" fill="none"/>
    </clipPath>
  </defs>
  <g id="Grupo_1202858" data-name="Grupo 1202858" transform="translate(-220.24 -551.264)">
    <rect id="Rectángulo_402033" data-name="Rectángulo 402033" width="72" height="72" rx="5" transform="translate(220.24 551.264)" fill="#99dcff"/>
    <g id="Grupo_1102658" data-name="Grupo 1102658" transform="translate(228.888 561)">
      <g id="Grupo_1102657" data-name="Grupo 1102657" transform="translate(-0.317)" clip-path="url(#clip-path)">
        <g id="Grupo_1102656" data-name="Grupo 1102656">
          <g id="Grupo_1102655" data-name="Grupo 1102655" clip-path="url(#clip-path)">
            <path id="Trazado_879394" data-name="Trazado 879394" d="M75.792,312.008v2.527a5.9,5.9,0,0,1-11.792,0v-2.527Z" transform="translate(-57.054 -279.158)" fill="#dff8fd"/>
            <path id="Trazado_879395" data-name="Trazado 879395" d="M61.477,280.008a1.69,1.69,0,0,1,1.685,1.685,1.7,1.7,0,0,1-1.685,1.685H49.685A1.69,1.69,0,0,1,48,281.693a1.7,1.7,0,0,1,1.685-1.685H61.477Z" transform="translate(-42.739 -250.527)" fill="#dff8fd"/>
            <path id="Trazado_879396" data-name="Trazado 879396" d="M147.369,216.968v6.637H144v-5.323a11.938,11.938,0,0,0,3.369-1.314" transform="translate(-128.631 -194.124)" fill="#dff8fd"/>
            <path id="Trazado_879397" data-name="Trazado 879397" d="M67.369,218.282v5.323H64v-6.637a11.938,11.938,0,0,0,3.369,1.314" transform="translate(-57.054 -194.124)" fill="#dff8fd"/>
            <path id="Trazado_879398" data-name="Trazado 879398" d="M347.792,302.746l-6.385,12.761a1.286,1.286,0,0,1-2.384-.943l2.03-6.764H336l3.369-11.792h5.9l-1.685,6.738Z" transform="translate(-300.416 -264.843)" fill="#ffd737"/>
            <path id="Trazado_879399" data-name="Trazado 879399" d="M320.423,205.062h-3.369A5.058,5.058,0,0,1,312,200.008h3.369a5.058,5.058,0,0,1,5.054,5.054" transform="translate(-278.943 -178.95)" fill="#6fa150"/>
            <path id="Trazado_879400" data-name="Trazado 879400" d="M398.738,200.008h3.369a6.729,6.729,0,0,1-6.738,6.738H392a6.729,6.729,0,0,1,6.738-6.738" transform="translate(-350.52 -178.95)" fill="#6fa150"/>
            <path id="Trazado_879401" data-name="Trazado 879401" d="M398.738,88.008h3.369a6.729,6.729,0,0,1-6.738,6.738H392a6.729,6.729,0,0,1,6.738-6.738" transform="translate(-350.52 -78.742)" fill="#6fa150"/>
            <path id="Trazado_879402" data-name="Trazado 879402" d="M315.369,104.008a5.058,5.058,0,0,1,5.054,5.054h-3.369A5.058,5.058,0,0,1,312,104.008Z" transform="translate(-278.943 -93.057)" fill="#6fa150"/>
            <g id="Grupo_1102654" data-name="Grupo 1102654" transform="translate(1.311 0.655)" opacity="0.4" style="isolation: isolate">
              <g id="Grupo_1102653" data-name="Grupo 1102653" transform="translate(0 0)">
                <g id="Grupo_1102652" data-name="Grupo 1102652" clip-path="url(#clip-path-3)">
                  <path id="Trazado_879403" data-name="Trazado 879403" d="M19.792,8.008A11.792,11.792,0,1,1,8,19.8,11.792,11.792,0,0,1,19.792,8.008" transform="translate(-8.261 -7.82)" fill="#00a8ff"/>
                </g>
              </g>
            </g>
            <path id="Trazado_879404" data-name="Trazado 879404" d="M124.516,46.746h-4.936a1.7,1.7,0,0,1-1.685-1.685,1.69,1.69,0,0,0-1.685-1.685h-2.527A1.7,1.7,0,0,1,112,41.693a1.69,1.69,0,0,1,1.685-1.685h7.4a11.748,11.748,0,0,1,3.428,6.738" transform="translate(-100 -35.796)" fill="#6fa150"/>
            <path id="Trazado_879405" data-name="Trazado 879405" d="M22.664,111.243a1.647,1.647,0,0,1,.5,1.188,1.69,1.69,0,0,1-1.685,1.685H11.546A11.734,11.734,0,0,1,8,105.693a1.9,1.9,0,0,1,.008-.219,1.685,1.685,0,0,1,1.676-1.466h6.738a1.7,1.7,0,0,1,1.685,1.685,1.69,1.69,0,0,1-1.685,1.685H14.738a1.7,1.7,0,0,0-1.685,1.685,1.69,1.69,0,0,0,1.685,1.685h6.738a1.647,1.647,0,0,1,1.188.5" transform="translate(-6.95 -93.057)" fill="#6fa150"/>
            <path id="Trazado_879406" data-name="Trazado 879406" d="M44.641,16.847a7.589,7.589,0,0,0,7.581-7.581V8.424H48.01a7.568,7.568,0,0,0-5.9,2.826V7.581a7.581,7.581,0,1,0-15.161,0V44.642a5.9,5.9,0,0,1-5.9,5.9H19.373a5.9,5.9,0,0,1-5.9-5.9V42.057a6.745,6.745,0,0,0,5.9-6.68v-1.84a2.512,2.512,0,0,0,0-4.744V23.3A12.634,12.634,0,1,0,5.9,23.3v5.49a2.511,2.511,0,0,0,0,4.743v1.84a6.745,6.745,0,0,0,5.9,6.68v2.585a7.589,7.589,0,0,0,7.581,7.581h1.685a7.589,7.589,0,0,0,7.581-7.581V7.581a5.9,5.9,0,1,1,11.792,0v4.3a5.874,5.874,0,0,0-4.211-1.778H32.007v.842a5.9,5.9,0,0,0,5.9,5.9H40.43v5.147a5.874,5.874,0,0,0-4.211-1.778H32.007v.842a5.9,5.9,0,0,0,5.9,5.9H40.43v3.369H38.11L34.259,43.8H39.3l-1.7,5.68a2.131,2.131,0,0,0,3.946,1.567l6.991-13.984h-4.5l1.685-6.738H42.114V28.639h2.527a7.589,7.589,0,0,0,7.581-7.581v-.842H48.01a7.568,7.568,0,0,0-5.9,2.826v-6.2ZM17.688,28.639H16V24.8a12.62,12.62,0,0,0,1.685-.592Zm-5.054-3.369a12.625,12.625,0,0,0,1.685-.126v3.495H10.95V25.144a12.625,12.625,0,0,0,1.685.126M23.278,10.108H19.373a.843.843,0,0,1-.842-.842A2.53,2.53,0,0,0,16,6.739H13.477a.842.842,0,0,1,0-1.685h7.041a10.943,10.943,0,0,1,2.761,5.054M12.634,1.685A10.866,10.866,0,0,1,18.443,3.37H13.477a2.527,2.527,0,0,0,0,5.054H16a.843.843,0,0,1,.842.842,2.53,2.53,0,0,0,2.527,2.527h4.168c.022.279.043.558.043.842A10.929,10.929,0,0,1,6.826,21.9h7.493a2.527,2.527,0,1,0,0-5.054H7.581a.842.842,0,1,1,0-1.685H9.265a2.527,2.527,0,1,0,0-5.054H2.528a2.55,2.55,0,0,0-.553.065,10.961,10.961,0,0,1,10.66-8.488M1.685,12.635c0-.02,0-.04,0-.06a.823.823,0,0,1,.84-.782H9.265a.842.842,0,1,1,0,1.685H7.581a2.527,2.527,0,1,0,0,5.054h6.738a.842.842,0,0,1,0,1.685H4.751a10.9,10.9,0,0,1-3.067-7.581M9.265,24.8v3.839H7.581V24.207a12.62,12.62,0,0,0,1.685.592M6.738,30.323H18.53a.842.842,0,1,1,0,1.685H6.738a.842.842,0,1,1,0-1.685m.842,5.054V33.692H17.688v1.685a5.054,5.054,0,1,1-10.107,0M37.9,15.162a4.218,4.218,0,0,1-4.126-3.369h2.442a4.218,4.218,0,0,1,4.126,3.369Zm0,10.107A4.218,4.218,0,0,1,33.777,21.9h2.442a4.218,4.218,0,0,1,4.126,3.369Zm7.9,13.477L40.032,50.292a.448.448,0,0,1-.4.246.445.445,0,0,1-.426-.574l2.354-7.848H36.493L39.38,32.008h4.182l-1.685,6.738ZM48.01,21.9h2.467a5.9,5.9,0,0,1-5.836,5.054H42.174A5.905,5.905,0,0,1,48.01,21.9m0-11.792h2.467a5.9,5.9,0,0,1-5.836,5.054H42.174a5.905,5.905,0,0,1,5.836-5.054" transform="translate(0.208)"/>
          </g>
        </g>
      </g>
    </g>
  </g>
</svg>
