<svg xmlns="http://www.w3.org/2000/svg" xmlns:xlink="http://www.w3.org/1999/xlink" width="610" height="345.176" viewBox="0 0 610 345.176">
  <defs>
    <clipPath id="clip-path">
      <rect id="Rectángulo_404033" data-name="Rectángulo 404033" width="287.784" height="323.561" fill="none"/>
    </clipPath>
    <clipPath id="clip-path-3">
      <rect id="Rectángulo_403977" data-name="Rectángulo 403977" width="53.953" height="53.952" fill="none"/>
    </clipPath>
    <clipPath id="clip-path-4">
      <rect id="Rectángulo_403973" data-name="Rectángulo 403973" width="1.546" height="1.545" fill="none"/>
    </clipPath>
    <clipPath id="clip-path-6">
      <rect id="Rectángulo_403982" data-name="Rectángulo 403982" width="53.952" height="53.951" fill="none"/>
    </clipPath>
    <clipPath id="clip-path-7">
      <rect id="Rectángulo_403983" data-name="Rectángulo 403983" width="53.953" height="53.953" fill="none"/>
    </clipPath>
    <clipPath id="clip-path-8">
      <rect id="Rectángulo_403984" data-name="Rectángulo 403984" width="53.953" height="53.951" fill="none"/>
    </clipPath>
    <clipPath id="clip-path-9">
      <rect id="Rectángulo_403985" data-name="Rectángulo 403985" width="53.95" height="53.951" fill="none"/>
    </clipPath>
    <clipPath id="clip-path-10">
      <rect id="Rectángulo_403989" data-name="Rectángulo 403989" width="83.774" height="2.631" fill="none"/>
    </clipPath>
    <clipPath id="clip-path-11">
      <rect id="Rectángulo_403990" data-name="Rectángulo 403990" width="90.407" height="25.561" fill="none"/>
    </clipPath>
    <clipPath id="clip-path-13">
      <rect id="Rectángulo_403994" data-name="Rectángulo 403994" width="36.535" height="23.022" fill="none"/>
    </clipPath>
    <clipPath id="clip-path-14">
      <rect id="Rectángulo_404011" data-name="Rectángulo 404011" width="70.187" height="35.234" fill="none"/>
    </clipPath>
    <clipPath id="clip-path-15">
      <rect id="Rectángulo_404014" data-name="Rectángulo 404014" width="33.084" height="49.338" fill="none"/>
    </clipPath>
    <clipPath id="clip-path-16">
      <rect id="Rectángulo_404017" data-name="Rectángulo 404017" width="14.579" height="28.691" fill="none"/>
    </clipPath>
    <clipPath id="clip-path-18">
      <rect id="Rectángulo_404023" data-name="Rectángulo 404023" width="43.792" height="63.802" fill="none"/>
    </clipPath>
    <clipPath id="clip-path-19">
      <rect id="Rectángulo_404024" data-name="Rectángulo 404024" width="33.114" height="44.749" fill="none"/>
    </clipPath>
    <clipPath id="clip-path-20">
      <rect id="Rectángulo_404025" data-name="Rectángulo 404025" width="68.94" height="63.189" fill="none"/>
    </clipPath>
    <clipPath id="clip-path-21">
      <rect id="Rectángulo_404026" data-name="Rectángulo 404026" width="48.175" height="39.947" fill="none"/>
    </clipPath>
    <clipPath id="clip-path-22">
      <rect id="Rectángulo_404027" data-name="Rectángulo 404027" width="9.719" height="3.909" fill="none"/>
    </clipPath>
    <clipPath id="clip-path-23">
      <rect id="Rectángulo_404028" data-name="Rectángulo 404028" width="153.056" height="101.078" fill="none"/>
    </clipPath>
    <clipPath id="clip-path-24">
      <rect id="Rectángulo_404029" data-name="Rectángulo 404029" width="91.504" height="96.03" fill="none"/>
    </clipPath>
    <clipPath id="clip-path-25">
      <rect id="Rectángulo_404030" data-name="Rectángulo 404030" width="46.191" height="81.138" fill="none"/>
    </clipPath>
    <clipPath id="clip-path-26">
      <rect id="Rectángulo_404031" data-name="Rectángulo 404031" width="31.809" height="57.571" fill="none"/>
    </clipPath>
  </defs>
  <g id="Grupo_1202862" data-name="Grupo 1202862" transform="translate(-809.711 -1644.615)">
    <rect id="Rectángulo_35929" data-name="Rectángulo 35929" width="610" height="345" rx="16" transform="translate(809.711 1644.615)" fill="#99dcff"/>
    <g id="Grupo_1102771" data-name="Grupo 1102771" transform="translate(970.711 1666.229)">
      <g id="Grupo_1102770" data-name="Grupo 1102770" clip-path="url(#clip-path)">
        <g id="Grupo_1102769" data-name="Grupo 1102769">
          <g id="Grupo_1102768" data-name="Grupo 1102768" clip-path="url(#clip-path)">
            <path id="Trazado_879449" data-name="Trazado 879449" d="M323.429,68.372a4.315,4.315,0,1,1-4.316-4.314A4.316,4.316,0,0,1,323.429,68.372Z" transform="translate(-66.31 -13.493)" fill="none" stroke="#0a211d" stroke-miterlimit="10" stroke-width="1.948"/>
            <path id="Trazado_879450" data-name="Trazado 879450" d="M14.17,178.781a4.314,4.314,0,1,1-4.314-4.316A4.313,4.313,0,0,1,14.17,178.781Z" transform="translate(-1.167 -36.75)" fill="none" stroke="#0a211d" stroke-miterlimit="10" stroke-width="1.948"/>
            <path id="Trazado_879451" data-name="Trazado 879451" d="M32.449,27.918A4.315,4.315,0,1,1,28.134,23.6,4.316,4.316,0,0,1,32.449,27.918Z" transform="translate(-5.017 -4.972)" fill="none" stroke="#0a211d" stroke-miterlimit="10" stroke-width="1.948"/>
            <path id="Trazado_879452" data-name="Trazado 879452" d="M298.033,14.9a2.9,2.9,0,1,1-2.9-2.9A2.9,2.9,0,0,1,298.033,14.9Z" transform="translate(-61.558 -2.528)" fill="none" stroke="#0a211d" stroke-miterlimit="10" stroke-width="1.948"/>
            <path id="Trazado_879453" data-name="Trazado 879453" d="M6.769,90.289a2.9,2.9,0,1,1-2.9-2.9A2.9,2.9,0,0,1,6.769,90.289Z" transform="translate(-0.205 -18.408)" fill="none" stroke="#0a211d" stroke-miterlimit="10" stroke-width="1.948"/>
            <path id="Trazado_879454" data-name="Trazado 879454" d="M171.544,95.5a2.9,2.9,0,1,1-2.9-2.9A2.9,2.9,0,0,1,171.544,95.5Z" transform="translate(-34.914 -19.506)" fill="none" stroke="#0a211d" stroke-miterlimit="10" stroke-width="1.948"/>
            <path id="Trazado_879455" data-name="Trazado 879455" d="M133.188,7.867a2.9,2.9,0,1,1-2.9-2.9A2.9,2.9,0,0,1,133.188,7.867Z" transform="translate(-26.834 -1.047)" fill="none" stroke="#0a211d" stroke-miterlimit="10" stroke-width="1.948"/>
            <path id="Trazado_879456" data-name="Trazado 879456" d="M362.834,90.675a1.449,1.449,0,1,1-1.449-1.449A1.449,1.449,0,0,1,362.834,90.675Z" transform="translate(-75.818 -18.795)" fill="none" stroke="#0a211d" stroke-miterlimit="10" stroke-width="1.948"/>
            <path id="Trazado_879457" data-name="Trazado 879457" d="M57.2,92.948A1.449,1.449,0,1,1,55.748,91.5,1.449,1.449,0,0,1,57.2,92.948Z" transform="translate(-11.438 -19.274)" fill="none" stroke="#0a211d" stroke-miterlimit="10" stroke-width="1.948"/>
            <path id="Trazado_879458" data-name="Trazado 879458" d="M220.586,168.89a1.449,1.449,0,1,1-1.449-1.449A1.447,1.447,0,0,1,220.586,168.89Z" transform="translate(-45.855 -35.27)" fill="none" stroke="#0a211d" stroke-miterlimit="10" stroke-width="1.948"/>
            <path id="Trazado_879459" data-name="Trazado 879459" d="M26.271,66.544A1.448,1.448,0,1,1,24.822,65.1,1.449,1.449,0,0,1,26.271,66.544Z" transform="translate(-4.924 -13.712)" fill="none" stroke="#0a211d" stroke-miterlimit="10" stroke-width="1.948"/>
            <path id="Trazado_879460" data-name="Trazado 879460" d="M269.912,148.468a1.449,1.449,0,1,1-1.449-1.449A1.449,1.449,0,0,1,269.912,148.468Z" transform="translate(-56.244 -30.969)" fill="none" stroke="#0a211d" stroke-miterlimit="10" stroke-width="1.948"/>
            <path id="Trazado_879461" data-name="Trazado 879461" d="M124.3,126.4a1.448,1.448,0,1,1-1.448-1.449A1.449,1.449,0,0,1,124.3,126.4Z" transform="translate(-25.573 -26.319)" fill="none" stroke="#0a211d" stroke-miterlimit="10" stroke-width="1.948"/>
            <path id="Trazado_879462" data-name="Trazado 879462" d="M226.015,27.967a1.449,1.449,0,1,1-1.449-1.449A1.449,1.449,0,0,1,226.015,27.967Z" transform="translate(-46.998 -5.586)" fill="none" stroke="#0a211d" stroke-miterlimit="10" stroke-width="1.948"/>
            <line id="Línea_4283" data-name="Línea 4283" x2="33.84" transform="translate(117.59 110.655)" fill="none" stroke="#0a211d" stroke-linecap="round" stroke-linejoin="round" stroke-width="1.948"/>
            <line id="Línea_4284" data-name="Línea 4284" x2="33.839" transform="translate(126.16 115.518)" fill="none" stroke="#0a211d" stroke-linecap="round" stroke-linejoin="round" stroke-width="1.948"/>
            <line id="Línea_4285" data-name="Línea 4285" x2="33.839" transform="translate(6.564 174.344)" fill="none" stroke="#0a211d" stroke-linecap="round" stroke-linejoin="round" stroke-width="1.948"/>
            <line id="Línea_4286" data-name="Línea 4286" x2="33.839" transform="translate(15.134 179.208)" fill="none" stroke="#0a211d" stroke-linecap="round" stroke-linejoin="round" stroke-width="1.948"/>
            <line id="Línea_4287" data-name="Línea 4287" x2="33.839" transform="translate(244.234 139.654)" fill="none" stroke="#0a211d" stroke-linecap="round" stroke-linejoin="round" stroke-width="1.948"/>
            <line id="Línea_4288" data-name="Línea 4288" x2="33.839" transform="translate(252.804 144.518)" fill="none" stroke="#0a211d" stroke-linecap="round" stroke-linejoin="round" stroke-width="1.948"/>
            <line id="Línea_4289" data-name="Línea 4289" x2="33.839" transform="translate(156.363 79.779)" fill="none" stroke="#0a211d" stroke-linecap="round" stroke-linejoin="round" stroke-width="1.948"/>
            <line id="Línea_4290" data-name="Línea 4290" x2="33.84" transform="translate(164.932 84.642)" fill="none" stroke="#0a211d" stroke-linecap="round" stroke-linejoin="round" stroke-width="1.948"/>
            <g id="Grupo_1102704" data-name="Grupo 1102704" transform="translate(112.535)" style="mix-blend-mode: multiply;isolation: isolate">
              <g id="Grupo_1102703" data-name="Grupo 1102703">
                <g id="Grupo_1102702" data-name="Grupo 1102702" clip-path="url(#clip-path-3)">
                  <path id="Trazado_879463" data-name="Trazado 879463" d="M167.865,8.341c-.208.006-.448.007-.726.007-.577,0-1.042.332-1.042.741V22.24c0,.41.465.742,1.042.742a4.019,4.019,0,0,0,.726-.088Z" transform="translate(-147.522 -1.757)" fill="#fff"/>
                  <path id="Trazado_879464" data-name="Trazado 879464" d="M167.865,8.341c-.208.006-.448.007-.726.007-.577,0-1.042.332-1.042.741V22.24c0,.41.465.742,1.042.742a4.019,4.019,0,0,0,.726-.088Z" transform="translate(-147.522 -1.757)" fill="none" stroke="#22421d" stroke-miterlimit="10" stroke-width="0.875"/>
                  <path id="Trazado_879465" data-name="Trazado 879465" d="M178.214,8.341c.208.006.445.007.725.007.577,0,1.044.332,1.044.741V22.24c0,.41-.467.742-1.044.742a4.019,4.019,0,0,1-.725-.088Z" transform="translate(-150.074 -1.757)" fill="#fff"/>
                  <path id="Trazado_879466" data-name="Trazado 879466" d="M178.214,8.341c.208.006.445.007.725.007.577,0,1.044.332,1.044.741V22.24c0,.41-.467.742-1.044.742a4.019,4.019,0,0,1-.725-.088Z" transform="translate(-150.074 -1.757)" fill="none" stroke="#22421d" stroke-miterlimit="10" stroke-width="0.875"/>
                  <path id="Trazado_879467" data-name="Trazado 879467" d="M180.958,29.714v-9.27H161.043v9.27a3.886,3.886,0,0,0,2.921,4.266s2.231.663,2.06,3.864h9.956c-.172-3.2,2.061-3.864,2.061-3.864a3.884,3.884,0,0,0,2.917-4.266" transform="translate(-146.451 -4.306)" fill="#fff"/>
                  <path id="Trazado_879468" data-name="Trazado 879468" d="M180.958,29.714v-9.27H161.043v9.27a3.886,3.886,0,0,0,2.921,4.266s2.231.663,2.06,3.864h9.956c-.172-3.2,2.061-3.864,2.061-3.864A3.884,3.884,0,0,0,180.958,29.714Z" transform="translate(-146.451 -4.306)" fill="none" stroke="#22421d" stroke-miterlimit="10" stroke-width="0.875"/>
                  <rect id="Rectángulo_403971" data-name="Rectángulo 403971" width="19.915" height="2.06" transform="translate(14.591 16.138)" fill="#fff"/>
                  <rect id="Rectángulo_403972" data-name="Rectángulo 403972" width="19.915" height="2.06" transform="translate(14.591 16.138)" fill="none" stroke="#22421d" stroke-miterlimit="10" stroke-width="0.875"/>
                  <path id="Trazado_879469" data-name="Trazado 879469" d="M183.19,23.054c.009,1.062,0,2.123,0,3.184a40.58,40.58,0,0,1-.008,4.1,2.948,2.948,0,0,1-.977,1.957c-.686.581-1.636.622-2.411,1.031-1.321.7-1.67,2.7-1.667,4.045" transform="translate(-150.055 -4.856)" fill="#fff"/>
                  <path id="Trazado_879470" data-name="Trazado 879470" d="M183.18,23.054s.1,1.045.195,2.614c.033.781.116,1.7.151,2.677,0,.5-.007,1.015-.011,1.538l-.009.395a2.516,2.516,0,0,1-.059.416,3.776,3.776,0,0,1-.252.826,3.12,3.12,0,0,1-.493.727c-.111.112-.182.2-.326.328a3.47,3.47,0,0,1-.332.225,6.8,6.8,0,0,1-1.5.542c-.215.058-.465.169-.6.215a3.023,3.023,0,0,0-.541.388,3.415,3.415,0,0,0-.651.942,5.853,5.853,0,0,0-.362.973,6.417,6.417,0,0,0-.174.8c-.076.448-.1.712-.1.712s0-.066-.013-.189a4.423,4.423,0,0,1-.019-.535,6.668,6.668,0,0,1,.056-.836,4.567,4.567,0,0,1,.248-1.074,2.749,2.749,0,0,1,.26-.59,2.544,2.544,0,0,1,.426-.6,3.42,3.42,0,0,1,.545-.459,4.349,4.349,0,0,1,.736-.328,8.29,8.29,0,0,0,1.322-.52,3.131,3.131,0,0,0,.306-.214l.213-.233a2.526,2.526,0,0,0,.375-.568,2.919,2.919,0,0,0,.212-.664,1.886,1.886,0,0,0,.056-.354l.013-.38c.024-.505.047-1,.069-1.483.014-.979,0-1.893.06-2.681.093-1.569.2-2.615.2-2.615" transform="translate(-150.046 -4.856)" fill="#22421d"/>
                  <path id="Trazado_879471" data-name="Trazado 879471" d="M168.139,26.2a1.063,1.063,0,1,1-1.062-1.063,1.062,1.062,0,0,1,1.062,1.063" transform="translate(-147.504 -5.294)" fill="#fff"/>
                  <path id="Trazado_879472" data-name="Trazado 879472" d="M168.139,26.2a1.063,1.063,0,1,1-1.062-1.063A1.062,1.062,0,0,1,168.139,26.2Z" transform="translate(-147.504 -5.294)" fill="none" stroke="#22421d" stroke-miterlimit="10" stroke-width="0.875"/>
                  <g id="Grupo_1102698" data-name="Grupo 1102698" transform="translate(18.798 20.129)" style="mix-blend-mode: multiply;isolation: isolate">
                    <g id="Grupo_1102697" data-name="Grupo 1102697">
                      <g id="Grupo_1102696" data-name="Grupo 1102696" clip-path="url(#clip-path-4)">
                        <path id="Trazado_879473" data-name="Trazado 879473" d="M167.807,26.156h-.537v-.538a.117.117,0,1,0-.234,0v.538H166.5a.118.118,0,1,0,0,.236h.537v.535a.117.117,0,1,0,.234,0v-.535h.537a.118.118,0,0,0,0-.236" transform="translate(-166.379 -25.501)" fill="#22421d"/>
                      </g>
                    </g>
                  </g>
                  <path id="Trazado_879474" data-name="Trazado 879474" d="M180.113,26.2a1.062,1.062,0,1,1-1.063-1.063,1.062,1.062,0,0,1,1.063,1.063" transform="translate(-150.027 -5.294)" fill="#fff"/>
                  <path id="Trazado_879475" data-name="Trazado 879475" d="M180.113,26.2a1.062,1.062,0,1,1-1.063-1.063A1.062,1.062,0,0,1,180.113,26.2Z" transform="translate(-150.027 -5.294)" fill="none" stroke="#22421d" stroke-miterlimit="10" stroke-width="0.875"/>
                  <g id="Grupo_1102701" data-name="Grupo 1102701" transform="translate(28.252 20.129)" style="mix-blend-mode: multiply;isolation: isolate">
                    <g id="Grupo_1102700" data-name="Grupo 1102700">
                      <g id="Grupo_1102699" data-name="Grupo 1102699" clip-path="url(#clip-path-4)">
                        <path id="Trazado_879476" data-name="Trazado 879476" d="M179.782,26.156h-.536v-.538a.118.118,0,0,0-.119-.118.117.117,0,0,0-.116.118v.538h-.537a.118.118,0,1,0,0,.236h.537v.535a.118.118,0,1,0,.235,0v-.535h.536a.118.118,0,1,0,0-.236" transform="translate(-178.356 -25.501)" fill="#22421d"/>
                      </g>
                    </g>
                  </g>
                  <rect id="Rectángulo_403975" data-name="Rectángulo 403975" width="9.973" height="2.962" transform="translate(19.573 33.538)" fill="#fff"/>
                  <rect id="Rectángulo_403976" data-name="Rectángulo 403976" width="9.973" height="2.962" transform="translate(19.573 33.538)" fill="none" stroke="#22421d" stroke-miterlimit="10" stroke-width="0.875"/>
                  <path id="Trazado_879477" data-name="Trazado 879477" d="M169.42,46.24l.526,2.961h5.537l.657-2.961Z" transform="translate(-148.222 -9.74)" fill="#fff"/>
                  <path id="Trazado_879478" data-name="Trazado 879478" d="M169.42,46.24l.526,2.961h5.537l.657-2.961Z" transform="translate(-148.222 -9.74)" fill="none" stroke="#22421d" stroke-miterlimit="10" stroke-width="0.875"/>
                  <path id="Trazado_879479" data-name="Trazado 879479" d="M173.674,47.455V54.7s-.475,3.957,3.58,3.84c0,0,4.4.557,4.285-3.667V41.812s-.174-3.891,3.715-3.862c0,0,3.247-.007,3.247,3.862V52.75" transform="translate(-149.114 -7.994)" fill="none" stroke="#22421d" stroke-miterlimit="10" stroke-width="0.875"/>
                  <path id="Trazado_879480" data-name="Trazado 879480" d="M195.906,27.2A26.143,26.143,0,1,1,169.764,1.056,26.142,26.142,0,0,1,195.906,27.2Z" transform="translate(-142.787 -0.222)" fill="none" stroke="#22421d" stroke-miterlimit="10" stroke-width="2.112" stroke-dasharray="4.161 4.161"/>
                </g>
              </g>
            </g>
            <g id="Grupo_1102707" data-name="Grupo 1102707" transform="translate(39.505 15.814)" style="mix-blend-mode: multiply;isolation: isolate">
              <g id="Grupo_1102706" data-name="Grupo 1102706">
                <g id="Grupo_1102705" data-name="Grupo 1102705" clip-path="url(#clip-path-6)">
                  <path id="Trazado_879481" data-name="Trazado 879481" d="M77.547,69.4h9.438l2.046,2.338H75.589Z" transform="translate(-55.428 -30.432)" fill="#fff"/>
                  <path id="Trazado_879482" data-name="Trazado 879482" d="M77.547,69.4h9.438l2.046,2.338H75.589Z" transform="translate(-55.428 -30.432)" fill="none" stroke="#22421d" stroke-linejoin="round" stroke-width="0.875"/>
                  <path id="Trazado_879483" data-name="Trazado 879483" d="M61.166,58.257h36.4v-23.6h-36.4Zm33.71-12.463h-6.2V37.152h6.2ZM78.721,55.768H71.338V47.126h7.384ZM71.338,37.152h7.384v8.642H71.338Zm8.67,9.974h7.384v8.642H80.008Zm0-9.974h7.384v8.642H80.008Zm-9.956,8.642h-6.2V37.152h6.2Zm-6.2,1.332h6.2v8.642h-6.2Zm24.825,0h6.2v8.642h-6.2Z" transform="translate(-52.389 -23.115)" fill="#fff"/>
                  <path id="Trazado_879484" data-name="Trazado 879484" d="M61.166,58.257h36.4v-23.6h-36.4Zm33.71-12.463h-6.2V37.152h6.2ZM78.721,55.768H71.338V47.126h7.384ZM71.338,37.152h7.384v8.642H71.338Zm8.67,9.974h7.384v8.642H80.008Zm0-9.974h7.384v8.642H80.008Zm-9.956,8.642h-6.2V37.152h6.2Zm-6.2,1.332h6.2v8.642h-6.2Zm24.825,0h6.2v8.642h-6.2Z" transform="translate(-52.389 -23.115)" fill="none" stroke="#22421d" stroke-linejoin="round" stroke-width="0.875"/>
                  <rect id="Rectángulo_403978" data-name="Rectángulo 403978" width="5.074" height="4.979" transform="translate(24.438 35.142)" fill="#fff"/>
                  <rect id="Rectángulo_403979" data-name="Rectángulo 403979" width="5.074" height="4.979" transform="translate(24.438 35.142)" fill="none" stroke="#22421d" stroke-linejoin="round" stroke-width="0.875"/>
                  <rect id="Rectángulo_403980" data-name="Rectángulo 403980" width="13.441" height="1.1" transform="translate(20.162 41.302)" fill="#fff"/>
                  <rect id="Rectángulo_403981" data-name="Rectángulo 403981" width="13.441" height="1.1" transform="translate(20.162 41.302)" fill="none" stroke="#22421d" stroke-linejoin="round" stroke-width="0.875"/>
                  <path id="Trazado_879485" data-name="Trazado 879485" d="M103.388,47.231A26.142,26.142,0,1,1,77.245,21.09,26.142,26.142,0,0,1,103.388,47.231Z" transform="translate(-50.27 -20.256)" fill="none" stroke="#22421d" stroke-miterlimit="10" stroke-width="2.112" stroke-dasharray="4.161 4.161"/>
                </g>
              </g>
            </g>
            <g id="Grupo_1102710" data-name="Grupo 1102710" transform="translate(185.564 15.813)" style="mix-blend-mode: multiply;isolation: isolate">
              <g id="Grupo_1102709" data-name="Grupo 1102709">
                <g id="Grupo_1102708" data-name="Grupo 1102708" clip-path="url(#clip-path-7)">
                  <path id="Trazado_879486" data-name="Trazado 879486" d="M274.936,50.365a12.1,12.1,0,0,0,2.706-7.667,11.444,11.444,0,1,0-22.872,0,12.1,12.1,0,0,0,2.706,7.667h0a13.23,13.23,0,0,1,2.809,6.342s-.046,2.618,1.928,2.618h7.776c1.961,0,1.929-2.618,1.929-2.618a12.236,12.236,0,0,1,2.137-5.376,11.6,11.6,0,0,0,.882-.965l0,0" transform="translate(-239.23 -22.306)" fill="#fff"/>
                  <path id="Trazado_879487" data-name="Trazado 879487" d="M274.936,50.365a12.1,12.1,0,0,0,2.706-7.667,11.444,11.444,0,1,0-22.872,0,12.1,12.1,0,0,0,2.706,7.667h0a13.23,13.23,0,0,1,2.809,6.342s-.046,2.618,1.928,2.618h7.776c1.961,0,1.929-2.618,1.929-2.618a12.236,12.236,0,0,1,2.137-5.376,11.6,11.6,0,0,0,.882-.965Z" transform="translate(-239.23 -22.306)" fill="none" stroke="#22421d" stroke-linecap="round" stroke-linejoin="round" stroke-width="0.875"/>
                  <path id="Trazado_879488" data-name="Trazado 879488" d="M272.425,68.525a.4.4,0,0,1-.384.414l-8.992-.61a.416.416,0,0,1,0-.83l8.992.611a.4.4,0,0,1,.384.414" transform="translate(-240.894 -30.032)" fill="#22421d"/>
                  <path id="Trazado_879489" data-name="Trazado 879489" d="M272.425,70.212a.4.4,0,0,1-.384.414l-8.992-.612a.416.416,0,0,1,0-.829l8.992.612a.4.4,0,0,1,.384.414" transform="translate(-240.894 -30.387)" fill="#22421d"/>
                  <path id="Trazado_879490" data-name="Trazado 879490" d="M272.425,71.9a.4.4,0,0,1-.384.414L263.05,71.7a.416.416,0,0,1,0-.829l8.992.612a.4.4,0,0,1,.384.414" transform="translate(-240.894 -30.742)" fill="#22421d"/>
                  <path id="Trazado_879491" data-name="Trazado 879491" d="M263.078,73.133l9.111.695-2.224,2.824H265.2Z" transform="translate(-240.98 -31.218)" fill="#fff"/>
                  <path id="Trazado_879492" data-name="Trazado 879492" d="M263.078,73.133l9.111.695-2.224,2.824H265.2Z" transform="translate(-240.98 -31.218)" fill="none" stroke="#22421d" stroke-linecap="round" stroke-linejoin="round" stroke-width="0.875"/>
                  <path id="Trazado_879493" data-name="Trazado 879493" d="M265.544,62.918c-.609-4.29-.989-8.639-1.857-12.886-.107-.524-.158-1.692-.584-2.052-.336-.283-.851.089-1.11.337a1.261,1.261,0,0,0-.122,1.706,3.842,3.842,0,0,0,3.07,1.22,4.494,4.494,0,0,0,3.254-2.025c.173-.282.489-.821.219-1.135-.287-.331-1.436-.168-1.718.11a1.265,1.265,0,0,0-.075,1.46c.536.981,2.06,1.163,3.061,1.194a4.893,4.893,0,0,0,2-.382c2.936-1.209.339-3.543-.573-.907-.516,1.49-.643,5.036-1.3,13.082" transform="translate(-240.667 -25.898)" fill="none" stroke="#22421d" stroke-linecap="round" stroke-linejoin="round" stroke-width="0.875"/>
                  <path id="Trazado_879494" data-name="Trazado 879494" d="M288.424,47.231a26.143,26.143,0,1,1-26.143-26.142A26.143,26.143,0,0,1,288.424,47.231Z" transform="translate(-235.305 -20.255)" fill="none" stroke="#22421d" stroke-miterlimit="10" stroke-width="2.112" stroke-dasharray="4.161 4.161"/>
                </g>
              </g>
            </g>
            <g id="Grupo_1102713" data-name="Grupo 1102713" transform="translate(0.19 77.32)" style="mix-blend-mode: multiply;isolation: isolate">
              <g id="Grupo_1102712" data-name="Grupo 1102712">
                <g id="Grupo_1102711" data-name="Grupo 1102711" clip-path="url(#clip-path-8)">
                  <path id="Trazado_879495" data-name="Trazado 879495" d="M40.532,129.484a8.985,8.985,0,1,1-8.986-8.986,8.986,8.986,0,0,1,8.986,8.986" transform="translate(-4.942 -102.702)" fill="#fff"/>
                  <path id="Trazado_879496" data-name="Trazado 879496" d="M40.532,129.484a8.985,8.985,0,1,1-8.986-8.986A8.986,8.986,0,0,1,40.532,129.484Z" transform="translate(-4.942 -102.702)" fill="none" stroke="#22421d" stroke-linejoin="round" stroke-width="0.875"/>
                  <path id="Trazado_879497" data-name="Trazado 879497" d="M39.137,129.991a7.086,7.086,0,1,1-7.085-7.086,7.086,7.086,0,0,1,7.085,7.086" transform="translate(-5.449 -103.209)" fill="#fff"/>
                  <path id="Trazado_879498" data-name="Trazado 879498" d="M39.137,129.991a7.086,7.086,0,1,1-7.085-7.086A7.086,7.086,0,0,1,39.137,129.991Z" transform="translate(-5.449 -103.209)" fill="none" stroke="#22421d" stroke-linejoin="round" stroke-width="0.875"/>
                  <path id="Trazado_879499" data-name="Trazado 879499" d="M32.184,115.484h3.524l-1.763-10.91Z" transform="translate(-6.969 -99.348)" fill="#fff"/>
                  <path id="Trazado_879500" data-name="Trazado 879500" d="M32.184,115.484h3.524l-1.763-10.91Z" transform="translate(-6.969 -99.348)" fill="none" stroke="#22421d" stroke-linejoin="round" stroke-width="0.875"/>
                  <path id="Trazado_879501" data-name="Trazado 879501" d="M35.708,145.858H32.183l1.763,10.91Z" transform="translate(-6.969 -108.044)" fill="#fff"/>
                  <path id="Trazado_879502" data-name="Trazado 879502" d="M35.708,145.858H32.183l1.763,10.91Z" transform="translate(-6.969 -108.044)" fill="none" stroke="#22421d" stroke-linejoin="round" stroke-width="0.875"/>
                  <path id="Trazado_879503" data-name="Trazado 879503" d="M48.147,129.894v3.526l10.91-1.764Z" transform="translate(-10.332 -104.681)" fill="#fff"/>
                  <path id="Trazado_879504" data-name="Trazado 879504" d="M48.147,129.894v3.526l10.91-1.764Z" transform="translate(-10.332 -104.681)" fill="none" stroke="#22421d" stroke-linejoin="round" stroke-width="0.875"/>
                  <path id="Trazado_879505" data-name="Trazado 879505" d="M17.774,133.42v-3.526l-10.91,1.763Z" transform="translate(-1.636 -104.681)" fill="#fff"/>
                  <path id="Trazado_879506" data-name="Trazado 879506" d="M17.774,133.42v-3.526l-10.91,1.763Z" transform="translate(-1.636 -104.681)" fill="none" stroke="#22421d" stroke-linejoin="round" stroke-width="0.875"/>
                  <path id="Trazado_879507" data-name="Trazado 879507" d="M39.545,116.939l3.026,1.81L46.66,108.48Z" transform="translate(-8.52 -100.17)" fill="#fff"/>
                  <path id="Trazado_879508" data-name="Trazado 879508" d="M39.545,116.939l3.026,1.81L46.66,108.48Z" transform="translate(-8.52 -100.17)" fill="none" stroke="#22421d" stroke-linejoin="round" stroke-width="0.875"/>
                  <path id="Trazado_879509" data-name="Trazado 879509" d="M27.388,144.575l-3.026-1.81-4.087,10.27Z" transform="translate(-4.461 -107.392)" fill="#fff"/>
                  <path id="Trazado_879510" data-name="Trazado 879510" d="M27.388,144.575l-3.026-1.81-4.087,10.27Z" transform="translate(-4.461 -107.392)" fill="none" stroke="#22421d" stroke-linejoin="round" stroke-width="0.875"/>
                  <path id="Trazado_879511" data-name="Trazado 879511" d="M44.905,121.852l1.859,3L55.1,117.6Z" transform="translate(-9.649 -102.09)" fill="#fff"/>
                  <path id="Trazado_879512" data-name="Trazado 879512" d="M44.905,121.852l1.859,3L55.1,117.6Z" transform="translate(-9.649 -102.09)" fill="none" stroke="#22421d" stroke-linejoin="round" stroke-width="0.875"/>
                  <path id="Trazado_879513" data-name="Trazado 879513" d="M21.205,140.467l-1.857-3-8.34,7.253Z" transform="translate(-2.509 -106.277)" fill="#fff"/>
                  <path id="Trazado_879514" data-name="Trazado 879514" d="M21.205,140.467l-1.857-3-8.34,7.253Z" transform="translate(-2.509 -106.277)" fill="none" stroke="#22421d" stroke-linejoin="round" stroke-width="0.875"/>
                  <path id="Trazado_879515" data-name="Trazado 879515" d="M46.962,137.039,45.2,140.094l10.337,3.912Z" transform="translate(-9.712 -106.186)" fill="#fff"/>
                  <path id="Trazado_879516" data-name="Trazado 879516" d="M46.962,137.039,45.2,140.094l10.337,3.912Z" transform="translate(-9.712 -106.186)" fill="none" stroke="#22421d" stroke-linejoin="round" stroke-width="0.875"/>
                  <path id="Trazado_879517" data-name="Trazado 879517" d="M19.11,125.356l1.758-3.056-10.337-3.912Z" transform="translate(-2.408 -102.258)" fill="#fff"/>
                  <path id="Trazado_879518" data-name="Trazado 879518" d="M19.11,125.356l1.758-3.056-10.337-3.912Z" transform="translate(-2.408 -102.258)" fill="none" stroke="#22421d" stroke-linejoin="round" stroke-width="0.875"/>
                  <path id="Trazado_879519" data-name="Trazado 879519" d="M42.312,142.971l-3.067,1.738,6.912,8.623Z" transform="translate(-8.457 -107.436)" fill="#fff"/>
                  <path id="Trazado_879520" data-name="Trazado 879520" d="M42.312,142.971l-3.067,1.738,6.912,8.623Z" transform="translate(-8.457 -107.436)" fill="none" stroke="#22421d" stroke-linejoin="round" stroke-width="0.875"/>
                  <path id="Trazado_879521" data-name="Trazado 879521" d="M24.676,118.518l3.066-1.738-6.912-8.623Z" transform="translate(-4.577 -100.102)" fill="#fff"/>
                  <path id="Trazado_879522" data-name="Trazado 879522" d="M24.676,118.518l3.066-1.738-6.912-8.623Z" transform="translate(-4.577 -100.102)" fill="none" stroke="#22421d" stroke-linejoin="round" stroke-width="0.875"/>
                  <path id="Trazado_879523" data-name="Trazado 879523" d="M53.582,125.152A26.143,26.143,0,1,1,27.44,99.009,26.141,26.141,0,0,1,53.582,125.152Z" transform="translate(-0.463 -98.175)" fill="none" stroke="#22421d" stroke-miterlimit="10" stroke-width="2.112" stroke-dasharray="4.161 4.161"/>
                </g>
              </g>
            </g>
            <g id="Grupo_1102716" data-name="Grupo 1102716" transform="translate(224.88 77.32)" style="mix-blend-mode: multiply;isolation: isolate">
              <g id="Grupo_1102715" data-name="Grupo 1102715">
                <g id="Grupo_1102714" data-name="Grupo 1102714" clip-path="url(#clip-path-9)">
                  <path id="Trazado_879524" data-name="Trazado 879524" d="M322.456,111.825h-2.723v-3.532a1.065,1.065,0,0,0-1.063-1.064h-5.2a1.065,1.065,0,0,0-1.065,1.064v3.532h-2.725a4.834,4.834,0,0,0-4.833,4.836V141.7a4.834,4.834,0,0,0,4.833,4.836h12.779a4.835,4.835,0,0,0,4.836-4.836v-25.04a4.834,4.834,0,0,0-4.836-4.836" transform="translate(-289.093 -99.907)" fill="#fff"/>
                  <path id="Trazado_879525" data-name="Trazado 879525" d="M322.456,111.825h-2.723v-3.532a1.065,1.065,0,0,0-1.063-1.064h-5.2a1.065,1.065,0,0,0-1.065,1.064v3.532h-2.725a4.834,4.834,0,0,0-4.833,4.836V141.7a4.834,4.834,0,0,0,4.833,4.836h12.779a4.835,4.835,0,0,0,4.836-4.836v-25.04A4.834,4.834,0,0,0,322.456,111.825Z" transform="translate(-289.093 -99.907)" fill="none" stroke="#22421d" stroke-linecap="round" stroke-linejoin="round" stroke-width="0.875"/>
                  <path id="Trazado_879526" data-name="Trazado 879526" d="M325.5,126.629v-4.854c0-.013,0-.025,0-.038H307.937c0,.013,0,.025,0,.038v4.854Z" transform="translate(-289.744 -102.963)" fill="#fff"/>
                  <path id="Trazado_879527" data-name="Trazado 879527" d="M325.5,126.629v-4.854c0-.013,0-.025,0-.038H307.937c0,.013,0,.025,0,.038v4.854Z" transform="translate(-289.744 -102.963)" fill="none" stroke="#22421d" stroke-linecap="round" stroke-linejoin="round" stroke-width="0.875"/>
                  <path id="Trazado_879528" data-name="Trazado 879528" d="M325.5,136.187v-4.854c0-.013,0-.026,0-.039H307.937c0,.013,0,.025,0,.039v4.854Z" transform="translate(-289.744 -104.976)" fill="#fff"/>
                  <path id="Trazado_879529" data-name="Trazado 879529" d="M325.5,136.187v-4.854c0-.013,0-.026,0-.039H307.937c0,.013,0,.025,0,.039v4.854Z" transform="translate(-289.744 -104.976)" fill="none" stroke="#22421d" stroke-linecap="round" stroke-linejoin="round" stroke-width="0.875"/>
                  <path id="Trazado_879530" data-name="Trazado 879530" d="M325.5,145.521v-4.854c0-.013,0-.026,0-.039H307.937c0,.013,0,.026,0,.039v4.854Z" transform="translate(-289.744 -106.942)" fill="#fff"/>
                  <path id="Trazado_879531" data-name="Trazado 879531" d="M325.5,145.521v-4.854c0-.013,0-.026,0-.039H307.937c0,.013,0,.026,0,.039v4.854Z" transform="translate(-289.744 -106.942)" fill="none" stroke="#22421d" stroke-linecap="round" stroke-linejoin="round" stroke-width="0.875"/>
                  <path id="Trazado_879532" data-name="Trazado 879532" d="M307.935,148.859v.069a4.206,4.206,0,0,0,4.206,4.206H321.3a4.206,4.206,0,0,0,4.206-4.206v-.069Z" transform="translate(-289.744 -108.676)" fill="#fff"/>
                  <path id="Trazado_879533" data-name="Trazado 879533" d="M307.935,148.859v.069a4.206,4.206,0,0,0,4.206,4.206H321.3a4.206,4.206,0,0,0,4.206-4.206v-.069Z" transform="translate(-289.744 -108.676)" fill="none" stroke="#22421d" stroke-linecap="round" stroke-linejoin="round" stroke-width="0.875"/>
                  <path id="Trazado_879534" data-name="Trazado 879534" d="M338.229,125.151a26.142,26.142,0,1,1-26.142-26.142A26.141,26.141,0,0,1,338.229,125.151Z" transform="translate(-285.112 -98.175)" fill="none" stroke="#22421d" stroke-miterlimit="10" stroke-width="2.112" stroke-dasharray="4.161 4.161"/>
                </g>
              </g>
            </g>
            <rect id="Rectángulo_403986" data-name="Rectángulo 403986" width="83.774" height="35.509" transform="translate(137.826 154.302)" fill="#f5e5d1"/>
            <rect id="Rectángulo_403987" data-name="Rectángulo 403987" width="83.774" height="3.408" transform="translate(137.826 186.255)" fill="#f2d0c3"/>
            <g id="Grupo_1102719" data-name="Grupo 1102719" transform="translate(137.826 154.301)" style="mix-blend-mode: multiply;isolation: isolate">
              <g id="Grupo_1102718" data-name="Grupo 1102718">
                <g id="Grupo_1102717" data-name="Grupo 1102717" clip-path="url(#clip-path-10)">
                  <rect id="Rectángulo_403988" data-name="Rectángulo 403988" width="83.774" height="2.631" fill="#d9d9d9"/>
                </g>
              </g>
            </g>
            <path id="Trazado_879535" data-name="Trazado 879535" d="M182.408,163.095h68.169l7.8,25.561H174.606Z" transform="translate(-36.779 -34.355)" fill="#883133"/>
            <path id="Trazado_879536" data-name="Trazado 879536" d="M179,163.095h73.213l8.6,25.561H170.4Z" transform="translate(-35.894 -34.355)" fill="#105b69"/>
            <g id="Grupo_1102722" data-name="Grupo 1102722" transform="translate(134.51 128.74)" style="mix-blend-mode: multiply;isolation: isolate">
              <g id="Grupo_1102721" data-name="Grupo 1102721">
                <g id="Grupo_1102720" data-name="Grupo 1102720" clip-path="url(#clip-path-11)">
                  <path id="Trazado_879537" data-name="Trazado 879537" d="M173.318,180l-2.914,8.662h90.407l-8.6-25.562h-14c2.138,4.847,4.45,12.7-1.631,15.453a16.141,16.141,0,0,1-5.007,1.268Z" transform="translate(-170.404 -163.095)" fill="#d9d9d9"/>
                </g>
              </g>
            </g>
            <g id="Grupo_1102725" data-name="Grupo 1102725" transform="translate(134.51 128.74)" style="mix-blend-mode: multiply;isolation: isolate">
              <g id="Grupo_1102724" data-name="Grupo 1102724">
                <g id="Grupo_1102723" data-name="Grupo 1102723" clip-path="url(#clip-path-11)">
                  <path id="Trazado_879538" data-name="Trazado 879538" d="M172.245,183.18l-1.842,5.476H260.81l-8.6-25.561h-9.171a29.431,29.431,0,0,1,1.748,5.182,20.832,20.832,0,0,1,.422,9.456,6.355,6.355,0,0,1-4.007,4.481,17.876,17.876,0,0,1-3.776.965Z" transform="translate(-170.404 -163.095)" fill="#d9d9d9"/>
                </g>
              </g>
            </g>
            <rect id="Rectángulo_403992" data-name="Rectángulo 403992" width="43.848" height="25.902" transform="translate(165.435 163.909)" fill="#3a1d10"/>
            <g id="Grupo_1102728" data-name="Grupo 1102728" transform="translate(169.092 166.79)" opacity="0.2" style="mix-blend-mode: soft-light;isolation: isolate">
              <g id="Grupo_1102727" data-name="Grupo 1102727">
                <g id="Grupo_1102726" data-name="Grupo 1102726" clip-path="url(#clip-path-13)">
                  <rect id="Rectángulo_403993" data-name="Rectángulo 403993" width="36.535" height="23.022" fill="#fff"/>
                </g>
              </g>
            </g>
            <rect id="Rectángulo_403995" data-name="Rectángulo 403995" width="36.535" height="1.486" transform="translate(169.092 168.191)" fill="#3a1d10"/>
            <rect id="Rectángulo_403996" data-name="Rectángulo 403996" width="36.535" height="1.482" transform="translate(169.092 170.431)" fill="#3a1d10"/>
            <rect id="Rectángulo_403997" data-name="Rectángulo 403997" width="36.535" height="1.485" transform="translate(169.092 172.666)" fill="#3a1d10"/>
            <rect id="Rectángulo_403998" data-name="Rectángulo 403998" width="36.535" height="1.485" transform="translate(169.092 174.903)" fill="#3a1d10"/>
            <rect id="Rectángulo_403999" data-name="Rectángulo 403999" width="36.535" height="1.485" transform="translate(169.092 177.141)" fill="#3a1d10"/>
            <rect id="Rectángulo_404000" data-name="Rectángulo 404000" width="36.535" height="1.486" transform="translate(169.092 179.377)" fill="#3a1d10"/>
            <rect id="Rectángulo_404001" data-name="Rectángulo 404001" width="36.535" height="1.485" transform="translate(169.092 181.616)" fill="#3a1d10"/>
            <rect id="Rectángulo_404002" data-name="Rectángulo 404002" width="36.535" height="1.484" transform="translate(169.092 183.852)" fill="#3a1d10"/>
            <rect id="Rectángulo_404003" data-name="Rectángulo 404003" width="36.535" height="1.485" transform="translate(169.092 186.09)" fill="#3a1d10"/>
            <rect id="Rectángulo_404004" data-name="Rectángulo 404004" width="36.535" height="1.483" transform="translate(169.092 188.328)" fill="#3a1d10"/>
            <path id="Trazado_879539" data-name="Trazado 879539" d="M99.4,222.588h70.045V179.855l-35.021-35.234L99.4,179.855Z" transform="translate(-20.938 -30.463)" fill="#f6f1e7"/>
            <rect id="Rectángulo_404005" data-name="Rectángulo 404005" width="30.514" height="30.515" transform="translate(98.23 152.574)" fill="#3a1d10"/>
            <rect id="Rectángulo_404006" data-name="Rectángulo 404006" width="25.426" height="25.426" transform="translate(100.774 155.118)" fill="#fff"/>
            <rect id="Rectángulo_404007" data-name="Rectángulo 404007" width="25.426" height="25.426" transform="translate(100.774 155.118)" fill="#6ebdbf"/>
            <path id="Trazado_879540" data-name="Trazado 879540" d="M151.874,196.513h-1.25l-11.178,25.426H140.9Z" transform="translate(-29.373 -41.394)" fill="#fff"/>
            <path id="Trazado_879541" data-name="Trazado 879541" d="M148.365,196.513h-1.248l-11.18,25.426H137.4Z" transform="translate(-28.634 -41.394)" fill="#fff"/>
            <rect id="Rectángulo_404008" data-name="Rectángulo 404008" width="2.706" height="25.426" transform="translate(112.134 155.118)" fill="#3a1d10"/>
            <rect id="Rectángulo_404009" data-name="Rectángulo 404009" width="25.425" height="2.707" transform="translate(100.774 166.477)" fill="#3a1d10"/>
            <rect id="Rectángulo_404010" data-name="Rectángulo 404010" width="70.045" height="4.101" transform="translate(78.464 187.845)" fill="#f2d0c3"/>
            <path id="Trazado_879542" data-name="Trazado 879542" d="M132.252,132.616l43.169,44.711h-8.075l-35.094-35.234L97.158,177.327H89.083Z" transform="translate(-18.765 -27.935)" fill="#197383"/>
            <g id="Grupo_1102731" data-name="Grupo 1102731" transform="translate(78.393 114.158)" style="mix-blend-mode: multiply;isolation: isolate">
              <g id="Grupo_1102730" data-name="Grupo 1102730">
                <g id="Grupo_1102729" data-name="Grupo 1102729" clip-path="url(#clip-path-14)">
                  <path id="Trazado_879543" data-name="Trazado 879543" d="M169.5,179.855h-4.132l-30.962-31.8-30.707,31.8H99.313l35.093-35.234Z" transform="translate(-99.313 -144.621)" fill="#d9d9d9"/>
                </g>
              </g>
            </g>
            <path id="Trazado_879544" data-name="Trazado 879544" d="M127.306,177.215l12.843-14.525,12.841,14.525Z" transform="translate(-26.816 -34.269)" fill="#6ebdbf"/>
            <path id="Trazado_879545" data-name="Trazado 879545" d="M152.087,175.975,139.246,161.45,126.4,175.975H123.02l16.226-19.169,16.534,19.169Z" transform="translate(-25.913 -33.03)" fill="#3a1d10"/>
            <rect id="Rectángulo_404012" data-name="Rectángulo 404012" width="32.76" height="2.962" transform="translate(97.107 142.945)" fill="#3a1d10"/>
            <path id="Trazado_879546" data-name="Trazado 879546" d="M150.522,172.708l-.82-.928-5.93,7.35h1.483Z" transform="translate(-30.285 -36.184)" fill="#fff"/>
            <path id="Trazado_879547" data-name="Trazado 879547" d="M147.472,169.874l-.819-.925-7.852,9.584h1.483Z" transform="translate(-29.237 -35.588)" fill="#fff"/>
            <g id="Grupo_1102734" data-name="Grupo 1102734" transform="translate(133.244 142.786)" style="mix-blend-mode: multiply;isolation: isolate">
              <g id="Grupo_1102733" data-name="Grupo 1102733">
                <g id="Grupo_1102732" data-name="Grupo 1102732" clip-path="url(#clip-path-15)">
                  <rect id="Rectángulo_404013" data-name="Rectángulo 404013" width="33.084" height="49.338" transform="translate(0 0)" fill="#d9d9d9"/>
                </g>
              </g>
            </g>
            <path id="Trazado_879548" data-name="Trazado 879548" d="M169.785,174.7l15.7-17.757,15.7,17.757h3.925l-19.626-23.184-20,23.184Z" transform="translate(-34.859 -31.916)" fill="#197383"/>
            <path id="Trazado_879549" data-name="Trazado 879549" d="M186.633,158.395l-15.7,17.757v49.337h31.4V176.151Z" transform="translate(-36.006 -33.365)" fill="#e9dcd1"/>
            <rect id="Rectángulo_404015" data-name="Rectángulo 404015" width="18.319" height="30.58" transform="translate(141.469 161.544)" fill="#3a1d10"/>
            <g id="Grupo_1102737" data-name="Grupo 1102737" transform="translate(143.338 163.433)" opacity="0.2" style="mix-blend-mode: soft-light;isolation: isolate">
              <g id="Grupo_1102736" data-name="Grupo 1102736">
                <g id="Grupo_1102735" data-name="Grupo 1102735" clip-path="url(#clip-path-16)">
                  <rect id="Rectángulo_404016" data-name="Rectángulo 404016" width="14.579" height="28.692" transform="translate(0 -0.001)" fill="#fff"/>
                </g>
              </g>
            </g>
            <g id="Grupo_1102740" data-name="Grupo 1102740" transform="translate(143.338 163.433)" opacity="0.2" style="mix-blend-mode: soft-light;isolation: isolate">
              <g id="Grupo_1102739" data-name="Grupo 1102739">
                <g id="Grupo_1102738" data-name="Grupo 1102738" clip-path="url(#clip-path-16)">
                  <path id="Trazado_879550" data-name="Trazado 879550" d="M193.573,232.2a14.14,14.14,0,0,1-7.777-6.234,19.709,19.709,0,0,1-3.357-11.064,25.723,25.723,0,0,1,1.073-7.855h-1.924v28.691h14.579V232.7a14.569,14.569,0,0,1-2.594-.505" transform="translate(-181.588 -207.046)" fill="#fff"/>
                </g>
              </g>
            </g>
            <rect id="Rectángulo_404019" data-name="Rectángulo 404019" width="14.579" height="1.369" transform="translate(143.338 167.832)" fill="#3a1d10"/>
            <rect id="Rectángulo_404020" data-name="Rectángulo 404020" width="14.579" height="1.37" transform="translate(143.338 176.148)" fill="#3a1d10"/>
            <rect id="Rectángulo_404021" data-name="Rectángulo 404021" width="14.579" height="1.372" transform="translate(143.338 184.466)" fill="#3a1d10"/>
            <path id="Trazado_879551" data-name="Trazado 879551" d="M198.087,223.841a1.188,1.188,0,1,1-1.189-1.189,1.189,1.189,0,0,1,1.189,1.189" transform="translate(-41.225 -46.9)" fill="#31170a"/>
            <path id="Trazado_879552" data-name="Trazado 879552" d="M197.849,223.927a.865.865,0,1,1-.865-.865.867.867,0,0,1,.865.865" transform="translate(-41.311 -46.987)" fill="#442317"/>
            <path id="Trazado_879553" data-name="Trazado 879553" d="M197.776,181.358l-9.292-10.508-9.289,10.508Z" transform="translate(-37.746 -35.988)" fill="#6ebdbf"/>
            <path id="Trazado_879554" data-name="Trazado 879554" d="M178.481,180.461l9.289-10.508,9.292,10.508h2.449l-11.741-13.867-11.961,13.867Z" transform="translate(-37.033 -35.092)" fill="#3a1d10"/>
            <rect id="Rectángulo_404022" data-name="Rectángulo 404022" width="23.702" height="2.143" transform="translate(138.776 145.37)" fill="#3a1d10"/>
            <path id="Trazado_879555" data-name="Trazado 879555" d="M184.635,178.1l.592-.67,4.292,5.315h-1.073Z" transform="translate(-38.892 -37.374)" fill="#fff"/>
            <path id="Trazado_879556" data-name="Trazado 879556" d="M186.471,176.048l.593-.671,5.682,6.934h-1.073Z" transform="translate(-39.279 -36.942)" fill="#fff"/>
            <path id="Trazado_879557" data-name="Trazado 879557" d="M81.184,144.76l-2.149,79.181H86.12L83.972,144.76Z" transform="translate(-16.648 -30.493)" fill="#fff"/>
            <path id="Trazado_879558" data-name="Trazado 879558" d="M81.184,144.76l-2.149,79.181H86.12L83.972,144.76Z" transform="translate(-16.648 -30.493)" fill="none" stroke="#e7e7e7" stroke-miterlimit="10" stroke-width="0.761"/>
            <path id="Trazado_879559" data-name="Trazado 879559" d="M81.4,220.536l1.431-75.777H81.184l-2.149,79.18h7.084l-.092-3.4Z" transform="translate(-16.648 -30.493)" fill="#e7e7e7"/>
            <path id="Trazado_879560" data-name="Trazado 879560" d="M82.644,87.653v41.673h1.831v-5l4.281-1.388-5-35.283Z" transform="translate(-17.408 -18.463)" fill="#fff"/>
            <path id="Trazado_879561" data-name="Trazado 879561" d="M82.644,87.653v41.673h1.831v-5l4.281-1.388-5-35.283Z" transform="translate(-17.408 -18.463)" fill="none" stroke="#e7e7e7" stroke-miterlimit="10" stroke-width="0.761"/>
            <path id="Trazado_879562" data-name="Trazado 879562" d="M84.31,121.547,83.147,87.653h-.5v41.673h1.831v-5l4.281-1.389-.284-2.6Z" transform="translate(-17.408 -18.464)" fill="#e7e7e7"/>
            <path id="Trazado_879563" data-name="Trazado 879563" d="M118.692,165.434,84.575,141.5,83.523,143l4.094,2.872-1.322,4.3,31.758,16.168Z" transform="translate(-17.593 -29.806)" fill="#fff"/>
            <path id="Trazado_879564" data-name="Trazado 879564" d="M118.692,165.434,84.575,141.5,83.523,143l4.094,2.872-1.322,4.3,31.758,16.168Z" transform="translate(-17.593 -29.806)" fill="none" stroke="#e7e7e7" stroke-miterlimit="10" stroke-width="0.761"/>
            <path id="Trazado_879565" data-name="Trazado 879565" d="M89.985,147.334,118.4,165.846l.29-.411L84.574,141.5,83.523,143l4.094,2.872-1.322,4.3,2.294,1.261Z" transform="translate(-17.594 -29.806)" fill="#e7e7e7"/>
            <path id="Trazado_879566" data-name="Trazado 879566" d="M37.762,162.21l36.321-20.429-.9-1.6-4.358,2.453-3.31-3.05-28.3,21.656Z" transform="translate(-7.84 -29.403)" fill="#fff"/>
            <path id="Trazado_879567" data-name="Trazado 879567" d="M37.762,162.21l36.321-20.429-.9-1.6-4.358,2.453-3.31-3.05-28.3,21.656Z" transform="translate(-7.84 -29.403)" fill="none" stroke="#e7e7e7" stroke-miterlimit="10" stroke-width="0.761"/>
            <path id="Trazado_879568" data-name="Trazado 879568" d="M66.566,144.14,37.594,161.771l.247.439,36.321-20.43-.9-1.6-4.358,2.452-3.311-3.05-2.129,1.525Z" transform="translate(-7.919 -29.403)" fill="#e7e7e7"/>
            <path id="Trazado_879569" data-name="Trazado 879569" d="M85.764,140.686a3.056,3.056,0,1,1-3.056-3.056,3.056,3.056,0,0,1,3.056,3.056" transform="translate(-16.778 -28.991)" fill="#fff"/>
            <path id="Trazado_879570" data-name="Trazado 879570" d="M272.227,144.76l-2.149,79.181h7.085l-2.149-79.181Z" transform="translate(-56.89 -30.493)" fill="#fff"/>
            <path id="Trazado_879571" data-name="Trazado 879571" d="M272.227,144.76l-2.149,79.181h7.085l-2.149-79.181Z" transform="translate(-56.89 -30.493)" fill="none" stroke="#e7e7e7" stroke-miterlimit="10" stroke-width="0.761"/>
            <path id="Trazado_879572" data-name="Trazado 879572" d="M272.441,220.536l1.429-75.777h-1.643l-2.149,79.18h7.085l-.092-3.4Z" transform="translate(-56.89 -30.493)" fill="#e7e7e7"/>
            <path id="Trazado_879573" data-name="Trazado 879573" d="M273.687,87.653v41.673h1.831v-5l4.282-1.388-5-35.283Z" transform="translate(-57.65 -18.463)" fill="#fff"/>
            <path id="Trazado_879574" data-name="Trazado 879574" d="M273.687,87.653v41.673h1.831v-5l4.282-1.388-5-35.283Z" transform="translate(-57.65 -18.463)" fill="none" stroke="#e7e7e7" stroke-miterlimit="10" stroke-width="0.761"/>
            <path id="Trazado_879575" data-name="Trazado 879575" d="M275.355,121.547l-1.164-33.894h-.5v41.673h1.831v-5l4.281-1.389-.284-2.6Z" transform="translate(-57.65 -18.464)" fill="#e7e7e7"/>
            <path id="Trazado_879576" data-name="Trazado 879576" d="M309.735,165.434,275.619,141.5l-1.053,1.5,4.1,2.872-1.322,4.3L309.1,166.344Z" transform="translate(-57.835 -29.806)" fill="#fff"/>
            <path id="Trazado_879577" data-name="Trazado 879577" d="M309.735,165.434,275.619,141.5l-1.053,1.5,4.1,2.872-1.322,4.3L309.1,166.344Z" transform="translate(-57.835 -29.806)" fill="none" stroke="#e7e7e7" stroke-miterlimit="10" stroke-width="0.761"/>
            <path id="Trazado_879578" data-name="Trazado 879578" d="M281.029,147.334l28.418,18.511.288-.411L275.618,141.5l-1.053,1.5,4.1,2.872-1.321,4.3,2.295,1.261Z" transform="translate(-57.835 -29.806)" fill="#e7e7e7"/>
            <path id="Trazado_879579" data-name="Trazado 879579" d="M228.805,162.21l36.322-20.429-.9-1.6-4.359,2.453-3.311-3.05-28.3,21.656Z" transform="translate(-48.082 -29.403)" fill="#fff"/>
            <path id="Trazado_879580" data-name="Trazado 879580" d="M228.805,162.21l36.322-20.429-.9-1.6-4.359,2.453-3.311-3.05-28.3,21.656Z" transform="translate(-48.082 -29.403)" fill="none" stroke="#e7e7e7" stroke-miterlimit="10" stroke-width="0.761"/>
            <path id="Trazado_879581" data-name="Trazado 879581" d="M257.61,144.14l-28.97,17.631.245.439,36.322-20.43-.9-1.6-4.359,2.452-3.311-3.05-2.13,1.525Z" transform="translate(-48.161 -29.403)" fill="#e7e7e7"/>
            <path id="Trazado_879582" data-name="Trazado 879582" d="M276.809,140.686a3.056,3.056,0,1,1-3.059-3.056,3.056,3.056,0,0,1,3.059,3.056" transform="translate(-57.02 -28.991)" fill="#fff"/>
            <path id="Trazado_879583" data-name="Trazado 879583" d="M64.241,240.042a93.651,93.651,0,1,0,186.6,11.47,94.542,94.542,0,0,0-.7-11.47Z" transform="translate(-13.384 -50.563)" fill="#61b9d9"/>
            <path id="Trazado_879584" data-name="Trazado 879584" d="M276.055,306.346c-.362-.509-1.249.381-1.329-.647a4.206,4.206,0,0,1,.675-2.368,23.3,23.3,0,0,0,2.395-4.521,7.749,7.749,0,0,1,3.283-4.582,21.269,21.269,0,0,0,3.962-3.516c.567-.647,1.264-1.85,1.967-2.045a12.72,12.72,0,0,1-.263,2.737c-.077.513-.913,3.127-1.32,2.019a19.163,19.163,0,0,1-1.4,3.889,34.8,34.8,0,0,1-2.447,3.476c-.765.979-4.643,6.759-5.561,5.648.014-.036.02-.054.036-.09" transform="translate(-57.868 -60.806)" fill="#6d7f36"/>
            <path id="Trazado_879585" data-name="Trazado 879585" d="M280.535,240.042c.324.787.8.975,1.511,1.628,1.21,1.118,2.681,2.576,2.937,4.089.257,1.554-.567,3.973,1.846,3.952,1.578-.012,3.384-1.208,4.855-1.617,2.08-.577,2.755-1.845,4.167-3.213.144-.141.29-.274.433-.406-.132-1.784-.252-3.115-.414-4.434Z" transform="translate(-59.093 -50.563)" fill="#6d7f36"/>
            <path id="Trazado_879586" data-name="Trazado 879586" d="M272.883,250.617a3.188,3.188,0,0,0-2.344.384c-1.462.729-3.069,1.751-4.815,1.66-1.91-.1-2.817-1.7-3.217-3.433-.769-.435-.9-1.16-1.462-1.813-.538-.632-1.357-.948-1.839-1.651s-.534-1.623-1.023-2.3c-.709-.969-1.184-1.018-1.449-2.217-.095-.426-.132-.822-.193-1.209H190.184a5.885,5.885,0,0,1-.466,2.445c-.471,1.123-.328,2.3-.8,3.356-.548,1.217-1.051,1.587-.848,3.133.342,2.614,3.284,3.919,4.982,5.634,1.791,1.809,4.251,2.52,5.118,4.987.679,1.928.328,2.65,2.515,2.5,1.241-.086,2.483-.56,3.716-.582,1.132-.022,2.031.383,3.153.365a11.947,11.947,0,0,0,4.584-1.157c2.117-.938,4.487-2.163,6.211-.206.943,1.071,1.341,1.861,2.757,2.122,1.239.227,1.722.1,2.4,1.221,1.326,2.183-.635,4.373-.173,6.654.381,1.881,2.469,3.4,3.349,4.931.577,1.012.146,1.917.264,3.056.112,1.116.784,1.988,1.021,3.009.519,2.256-1.29,4.09-1.868,6.232a28.406,28.406,0,0,0-1.059,3.985,16.128,16.128,0,0,0,.239,3.021,7.852,7.852,0,0,0,.516,3c.4.771,1.247,1.239,1.335,2.186.162,1.774-.694,3.893-.373,5.529.158.811.736,1.054,1.084,1.628a8.74,8.74,0,0,1,.591,1.979c.383,1.288-.9,3.634.566,3.832.095.413.145.616.237,1.025a7.613,7.613,0,0,0,2.364-1.191,6.864,6.864,0,0,1,2.409-.888c1.679-.564,3.438-2.263,4.952-3.545a32.765,32.765,0,0,0,4.622-4.485,8.089,8.089,0,0,0,1.37-2.464c.214-.733-.087-1.347.608-2.154a.361.361,0,0,1,.068-.193c1.4-.993,3.759-1.973,4.071-3.952.135-.849-.592-1.073-.244-2.068a10.068,10.068,0,0,1,1.953-2.635,22.2,22.2,0,0,1,2.779-2.884,13.127,13.127,0,0,0,2.573-2.01c1.516-1.887,1.313-3.551,1.969-5.45.469-1.359.255-1.229-.178-2.31a2.614,2.614,0,0,1,.013-2.2c.226-.444.622-.387.727-1.018.071-.442-.38-.511-.4-.887-.04-.891.615-1.614,1.02-2.425a10.248,10.248,0,0,1,1.335-2.411,23.778,23.778,0,0,1,2.334-2.25c1.687-1.54,3-3.3,4.726-4.637,2.793-2.168,4.082-6.218,4.7-9.244.171-.834.739-1.642-.128-2.007" transform="translate(-39.605 -50.563)" fill="#6d7f36"/>
            <path id="Trazado_879587" data-name="Trazado 879587" d="M136.894,277.313a9.461,9.461,0,0,0-4.93-3.262c-2.2-.615-4.075-.806-5.869-2.408-1.813-1.617-3.823-.762-5.66-1.913a7.146,7.146,0,0,1-2.239-2.1,25.428,25.428,0,0,0-1.006-2.584c-.986-1.689-1.583-3.762-3.5-4.555-1.654-.684-4.3,0-5.236-1.548a7.267,7.267,0,0,0-1.433-2.2c-.635-.581-1.451-.944-2.022-1.508-.69-.683-.9-1.514-1.73-2a3.954,3.954,0,0,0-2.643-.293,7.3,7.3,0,0,1-2.9.238,14.262,14.262,0,0,1-2.263-1.275c-1-.515-1.591-.878-2.4,0-.571.615-.275,2.145-1.237,1.935.051-.652.241-1.5-.478-1.807-.159-1.073.878-1.118.782-2.013a43.5,43.5,0,0,1-4.287,1.639,2.527,2.527,0,0,0-1.612,1.67c-.2.62-.134,1.033-.52,1.542-.27.356-.683.49-.919.877-.283-.329-.421-.493-.7-.824-.637-1.965-2.866-.069-4.068-.5a3.665,3.665,0,0,1-2.108-3.529c.07-1.3.684-3.835-.377-4.552-1.044-.707-3.3.042-4.529-.3-.142-1.194,1.209-2.157,1.793-3.065.328-.508.47-1.13.739-1.653.174-.338.58-.864.793-1.276h-3.94a12.4,12.4,0,0,0-.627,1.741c-.009.087-.011.128-.017.212-1.061,1.007-4.16,1.917-5.2,1.07-.564-.457-.294-1.8-.348-2.47-.017-.189-.036-.373-.058-.553h-1.98c-.185,2.054-.336,4.2-.455,6.46a7.482,7.482,0,0,0,3.735.588c1.662-.14,2.386,1.439,3.944,2.01,1.636.6,2.626.935,3.624,2.6.469.784.369,1.538.9,2.3a7.859,7.859,0,0,0,2.132,1.726,10.623,10.623,0,0,0,2.284,1.261c1.058.324,1.1-.186,1.9-.591,2.175-1.1,2.313,2.2,2.385,3.585a4.036,4.036,0,0,1-.534,2.467c-.354.791-.526,1.183-.864,1.963.188.126.339.106.242.448-1.5.342-1.141,1.013-1.514,2.322-.365,1.276.088,1.853.234,3.165.117,1.062-.712.949-.833,1.745-.1.636.9,1.758,1.289,2.371a17.867,17.867,0,0,0,1.724,2.633,15.474,15.474,0,0,1,2.42,2.58c1.056,1.663,1.688,3.906,3.12,5.4,1.264,1.317,3.085,2.226,4.479,3.3a15.106,15.106,0,0,1,4.511,6.106c.785,2.733,1.164,5.208,1.714,7.8.627,2.947,2.215,5.756,2.954,8.565a31.492,31.492,0,0,0,3,7.142c1.106,2.043,2.919,3.382,4.188,5.552,1.288,2.205,2.6,4.449,4.1,6.642,1.173,1.713,2.7,4.379,4.409,5.039,1.077.414.811.181,1.787,1.51.788,1.07,1.347,1.16,2.092,1.9-.072-.031-.108-.043-.18-.073.546.215,2.01,1.074,2.33.875.589-.362-.738-1.284-1.347-1.771a20.029,20.029,0,0,1-3.932-4.2c-1.322-1.875.776-1.993-.315-3.628-.6-.907-3.924-2.009-3.312-3.176.161-.308.854-.088,1.03-.454-.186-.281-.279-.418-.466-.7.161-1.142-.4-1.292-1.231-2.524a3.409,3.409,0,0,1-.613-1.477c.1-.549.655-.075,1.086-.155.74-.143.561-1.017,1.179-1.36.65-.362,2.21.253,2.541-.554.631-1.521-4.361-4.7-1.385-4.216.964.156,1.917.576,2.853.8,1.238.289,1.217-.149,1.494-1.1a13.465,13.465,0,0,0,.568-2.51,2.062,2.062,0,0,1,.425-1.366c.23-.3.66-.354.9-.666a5.079,5.079,0,0,0,.821-2.45c-.011-.9-.74-1.894-.589-2.82a4.2,4.2,0,0,1,3.644-2.97c.96-.033,2.112.478,2.839-.2.6-.557.664-1.623,1.291-2.258.771-.778,1.4-1,1.515-2.224a17.786,17.786,0,0,0-.332-3.206,11.4,11.4,0,0,1,.922-5.915,11.735,11.735,0,0,1,1.036-2.953c.559-.806,1.5-1.391,2.032-2.239.569-.909.336-2.09.3-3.2-.043-1.485-.381-1.561-1.348-2.624" transform="translate(-13.419 -50.563)" fill="#6d7f36"/>
            <path id="Trazado_879588" data-name="Trazado 879588" d="M91.727,240.042c.174.841.459.516,1.525.394.553-.062,1.935.167,2.354-.3a.8.8,0,0,0,.065-.1Z" transform="translate(-19.322 -50.563)" fill="#6d7f36"/>
            <path id="Trazado_879589" data-name="Trazado 879589" d="M102.329,240.042h-3.7c-.1.905.195,1.041-1.008,1.489-.393.145-.856-.072-.876.509-.012.351.652.607.918.672a8.021,8.021,0,0,0,3.217-.149c.377-.219.41-.391.936-.514.711-.164,1.887.283,2.015-.688.079-.609-.656-1.019-1.5-1.319" transform="translate(-20.379 -50.563)" fill="#6d7f36"/>
            <g id="Grupo_1102743" data-name="Grupo 1102743" transform="translate(73.786 205.791)" opacity="0.3" style="mix-blend-mode: soft-light;isolation: isolate">
              <g id="Grupo_1102742" data-name="Grupo 1102742">
                <g id="Grupo_1102741" data-name="Grupo 1102741" clip-path="url(#clip-path-18)">
                  <path id="Trazado_879590" data-name="Trazado 879590" d="M94.3,262.642c1.355,4.81-3.056,10.616.792,15.937,3.241,4.485,7.941,7.9,11.068,12.857,6.1,9.666,7.87,22.46,12.652,33.072,2.12-3.414-.347-6.684,3.4-9.574,1.815-1.4,2.576.094,4.188-2.135.9-1.251.384-3.936.883-5.424,1.105-3.3,3.961-6.083,4.979-9.49.5-1.677-.155-3.749.52-5.421.819-2.025,3.812-3.386,4.338-5.427,1.805-6.992-13.781-7.912-17.995-11.169-3.291-2.544-4.828-6.406-8.463-8.818a83.1,83.1,0,0,0-8.658-4.862c-2.915-1.459-4.917-2.787-6.8.9" transform="translate(-93.477 -260.707)" fill="#fff"/>
                </g>
              </g>
            </g>
            <g id="Grupo_1102746" data-name="Grupo 1102746" transform="translate(79.867 212.434)" opacity="0.3" style="mix-blend-mode: soft-light;isolation: isolate">
              <g id="Grupo_1102745" data-name="Grupo 1102745">
                <g id="Grupo_1102744" data-name="Grupo 1102744" clip-path="url(#clip-path-19)">
                  <path id="Trazado_879591" data-name="Trazado 879591" d="M101.8,270.482c1.025,3.374-2.31,7.446.6,11.178,2.451,3.146,6,5.541,8.369,9.018,4.611,6.777,5.952,15.749,9.567,23.194,1.6-2.4-.264-4.687,2.574-6.713,1.371-.984,1.947.065,3.167-1.5.685-.877.29-2.761.667-3.8.837-2.316,3-4.266,3.766-6.658.377-1.175-.117-2.63.392-3.8.618-1.419,2.884-2.372,3.281-3.8,1.363-4.909-10.422-5.55-13.609-7.838-2.488-1.781-3.651-4.491-6.4-6.182a64.486,64.486,0,0,0-6.548-3.409c-2.2-1.024-3.718-1.955-5.143.635" transform="translate(-101.18 -269.123)" fill="#fff"/>
                </g>
              </g>
            </g>
            <g id="Grupo_1102749" data-name="Grupo 1102749" transform="translate(154.722 189.479)" opacity="0.3" style="mix-blend-mode: soft-light;isolation: isolate">
              <g id="Grupo_1102748" data-name="Grupo 1102748">
                <g id="Grupo_1102747" data-name="Grupo 1102747" clip-path="url(#clip-path-20)">
                  <path id="Trazado_879592" data-name="Trazado 879592" d="M250.586,240.78c-.091-.244-.172-.492-.257-.739h-53.2c-.366.885-.734,1.77-1.119,2.655v.419c.945,6.779,8.838,11.683,15.143,12.22,6.526.558,14.461-.769,18.821,5.562,1.732,2.518,1.964,5.828,2.629,8.719.731,3.189,2.254,5.029,3.273,8.082,2.48,7.435-1.651,13.181-1.591,20.518.06,7.234,4.305,5.855,7.572.83,2.886-4.438,6.8-9,8.957-13.768,2.265-4.993,2.164-10.822,4.81-15.662,2.472-4.522,6.6-7.136,9.325-10.934a37.985,37.985,0,0,1-14.364-17.9" transform="translate(-196.01 -240.042)" fill="#fff"/>
                </g>
              </g>
            </g>
            <g id="Grupo_1102752" data-name="Grupo 1102752" transform="translate(163.417 189.479)" opacity="0.3" style="mix-blend-mode: soft-light;isolation: isolate">
              <g id="Grupo_1102751" data-name="Grupo 1102751">
                <g id="Grupo_1102750" data-name="Grupo 1102750" clip-path="url(#clip-path-21)">
                  <path id="Trazado_879593" data-name="Trazado 879593" d="M247.636,249a55.359,55.359,0,0,1-4.423-8.962H207.446a6.573,6.573,0,0,0-.29,3.492c1.723,5.9,10.95,4.887,15.57,5.881,5.664,1.217,11.608,1.7,14.3,7.581v.841c5.065,4.595,6.566,11.04,7.972,17.665.893,4.22,2.708,6.73,4.75,1.684,1.374-3.393,1.265-7.209,2.934-10.516,2.278-4.516,3.942-3.675.728-7.991-2.31-3.106-3.64-6.42-5.774-9.675" transform="translate(-207.025 -240.042)" fill="#fff"/>
                </g>
              </g>
            </g>
            <g id="Grupo_1102755" data-name="Grupo 1102755" transform="translate(225.708 189.479)" opacity="0.3" style="mix-blend-mode: soft-light;isolation: isolate">
              <g id="Grupo_1102754" data-name="Grupo 1102754">
                <g id="Grupo_1102753" data-name="Grupo 1102753" clip-path="url(#clip-path-22)">
                  <path id="Trazado_879594" data-name="Trazado 879594" d="M292.773,240.042h-6.834c2.186,2.6,4.982,4.247,9.71,3.851.137-1.388-1.171-2.627-2.876-3.851" transform="translate(-285.939 -240.042)" fill="#fff"/>
                </g>
              </g>
            </g>
            <g id="Grupo_1102758" data-name="Grupo 1102758" transform="translate(65.025 189.479)" opacity="0.3" style="mix-blend-mode: soft-light;isolation: isolate">
              <g id="Grupo_1102757" data-name="Grupo 1102757">
                <g id="Grupo_1102756" data-name="Grupo 1102756" clip-path="url(#clip-path-23)">
                  <path id="Trazado_879595" data-name="Trazado 879595" d="M229.8,300.319c-5.087,2.912-10.05,8.738-13.868,13.451-1.926,2.378-4.875,6.249-8.107,6.318-5.093.111-4.825-3.879-5.047-7.571-.238-3.917-2.258-6.4-2.954-10.1-.637-3.37-.154-7.562-.433-10.936-.325-3.9-1.282-7.576-1.67-11.358-.381-3.706,1.343-7.817-.086-11.261-2.342-5.653-13.019-4.72-18.412-4.72-4.059,0-6.717.2-9.66-2.548-2.009-1.873-5.347-4.65-6.335-7.118a44.861,44.861,0,0,1-2.342-14.441H103.476c.377,2.393-1.57,5.1-3.42,5.9-5.132,2.228-13.637-7.328-17.066-4.446-1.714,1.437.519,8.058,2.417,8.786,2.211.85,4.742-3.427,7.591-3.711s6.26,1.89,9.255,1.917c4.663.039,5.563-.132,9.558,2.721,2.545,1.819,6.128,3.592,8.119,5.866,2.681,3.068,3.29,5.194,7.045,7.187,3.005,1.6,6.4,4.118,9.768,5.357,2.749,1.014,6.548.552,8.094,3.676,2.925,5.919-3.544,13.753-3.467,19.872.039,3,1.293,6.993-.505,9.672-2.174,3.24-5.937,2.284-7.508,5.889-.648,1.486.021,3.492-.7,5.068-.658,1.427-2.185,2.3-3.078,3.356-2.451,2.9-3.022,4.913-2.072,8.823.977,4.028,9.187,15.894,13.869,13.461l2.1,1.682c5.369-2.187,14.864-1.109,21.545-1.7,8.423-.749,16.029-1.617,23.985-4.522,15.486-5.657,28.656-12.579,40.192-24.172,1.72-1.73,5.4-4.716,5.993-7.017,1.221-4.786-2.337-5.13-5.385-3.386" transform="translate(-82.377 -240.042)" fill="#fff"/>
                </g>
              </g>
            </g>
            <g id="Grupo_1102761" data-name="Grupo 1102761" transform="translate(90.774 189.479)" opacity="0.3" style="mix-blend-mode: soft-light;isolation: isolate">
              <g id="Grupo_1102760" data-name="Grupo 1102760">
                <g id="Grupo_1102759" data-name="Grupo 1102759" clip-path="url(#clip-path-24)">
                  <path id="Trazado_879596" data-name="Trazado 879596" d="M199.649,295.262c-1-7.547,1.91-17.608-6.4-21.429-6.371-2.926-13.746-3-20.2-6.414-7.927-4.2-9.762-10.783-11.441-19.161a20.581,20.581,0,0,1-.126-8.215H115c.011.038.026.071.036.108,1.554,5.578,1.306,2.92,5.878,5.152,7.587,3.707,12.2,11.353,20.5,14.531,7.6,2.915,16.4,7.674,17.36,16.511.824,7.615-.523,17.578-2.43,24.817-1.941,7.367-9.034,11.771-10.629,18.926-1.929,8.668,2.981,10.779,8,15.564l1.681.42c8.455-3.308,19.25-1.973,28.6-4.523,5.307-1.443,9.765-3.94,15.142-4.727,6.886-1.011,8.322-3.165,6.834-10.108-1.516-7.077-5.337-14.021-6.32-21.452" transform="translate(-114.998 -240.042)" fill="#fff"/>
                </g>
              </g>
            </g>
            <g id="Grupo_1102764" data-name="Grupo 1102764" transform="translate(52.512 200.963)" opacity="0.3" style="mix-blend-mode: soft-light;isolation: isolate">
              <g id="Grupo_1102763" data-name="Grupo 1102763">
                <g id="Grupo_1102762" data-name="Grupo 1102762" clip-path="url(#clip-path-25)">
                  <path id="Trazado_879597" data-name="Trazado 879597" d="M66.525,254.591c1.1,12.019,3.65,26.5,9.674,38.277,6.664,13.031,16.432,23.87,25.963,35.019,2.524,2.951,6.644,7.361,10.554,7.843-2.445-7.493-9.716-14.751-13.288-22.25-3.437-7.212-5.314-13.6-10.293-20.1-4.468-5.825-8.548-10.442-9.981-17.759-.67-3.427.251-6.8-1.156-9.676-1.452-2.966-4.565-3.264-6.539-5.784-1.092-1.394-2.28-3-.727-3.888" transform="translate(-66.525 -254.591)" fill="#fff"/>
                </g>
              </g>
            </g>
            <g id="Grupo_1102767" data-name="Grupo 1102767" transform="translate(55.036 210.218)" opacity="0.3" style="mix-blend-mode: soft-light;isolation: isolate">
              <g id="Grupo_1102766" data-name="Grupo 1102766">
                <g id="Grupo_1102765" data-name="Grupo 1102765" clip-path="url(#clip-path-26)">
                  <path id="Trazado_879598" data-name="Trazado 879598" d="M69.723,266.315c2.1.93,4.266,12.108,5.468,15.564,1.794,5.168,2.927,10.779,6.413,15.029,3.778,4.605,7.178,9.559,10.74,14.413,2.395,3.264,6.066,11.007,9.188,12.565-5.81-10.041-9.614-21.058-16.259-30.661-2.924-4.225-6.148-7.19-7.653-12.189-1.295-4.305-1.15-11.213-6.635-12.618" transform="translate(-69.723 -266.315)" fill="#fff"/>
                </g>
              </g>
            </g>
            <path id="Trazado_879599" data-name="Trazado 879599" d="M235.244,347.889s-3.171-29.437,0-34.419,28.08-24.91,31.7-26.269,14.495,9.059,8.153,14.947-12.229,15.336-12.229,15.336.907,4.924,5.436,0,20.833-22.131,21.739-27.565-.454-34.874,0-43.026,15.4-14.945,16.3,0,3.624,53.9,0,62.5-27.174,35.78-28.081,38.5.453,25.816.453,25.816H231.167Z" transform="translate(-48.694 -50.144)" fill="#f8ba8c"/>
            <path id="Trazado_879600" data-name="Trazado 879600" d="M108.788,347.889s3.169-29.437,0-34.419-28.081-24.91-31.7-26.269-14.493,9.059-8.151,14.947,12.229,15.336,12.229,15.336-.907,4.924-5.436,0-20.833-22.131-21.739-27.565.454-34.874,0-43.026-15.4-14.945-16.3,0-3.624,53.9,0,62.5,27.174,35.78,28.081,38.5-.455,25.816-.455,25.816h47.554Z" transform="translate(-7.552 -50.144)" fill="#f8ba8c"/>
          </g>
        </g>
      </g>
    </g>
  </g>
</svg>
