<svg xmlns="http://www.w3.org/2000/svg" xmlns:xlink="http://www.w3.org/1999/xlink" width="72" height="72" viewBox="0 0 72 72">
  <defs>
    <clipPath id="clip-path">
      <rect id="Rectángulo_404195" data-name="Rectángulo 404195" width="47.688" height="47.688" fill="none"/>
    </clipPath>
  </defs>
  <g id="Grupo_1202864" data-name="Grupo 1202864" transform="translate(-640 -3255.264)">
    <rect id="Rectángulo_402033" data-name="Rectángulo 402033" width="72" height="72" rx="5" transform="translate(640 3255.264)" fill="#99dcff"/>
    <g id="Grupo_1103108" data-name="Grupo 1103108" transform="translate(650.711 3267.473)">
      <g id="Grupo_1103107" data-name="Grupo 1103107" clip-path="url(#clip-path)">
        <rect id="Rectángulo_404191" data-name="Rectángulo 404191" width="43.218" height="29.805" rx="9.91" transform="translate(3.726 0.745)" fill="#549ad4"/>
        <path id="Trazado_883843" data-name="Trazado 883843" d="M62.358,3.3c2.292,28.394-37.51,29.06-37.51,29.06l-.46.7a2.253,2.253,0,0,0,.46.048H63.595a2.231,2.231,0,0,0,2.235-2.235V5.538A2.231,2.231,0,0,0,63.595,3.3Z" transform="translate(-18.887 -2.558)" fill="#3588cb"/>
        <rect id="Rectángulo_404192" data-name="Rectángulo 404192" width="37.257" height="23.639" rx="7.86" transform="translate(6.706 3.828)" fill="#dff8fd"/>
        <path id="Trazado_883844" data-name="Trazado 883844" d="M65.629,16.975c-.83,17.859-23.6,21.853-34.847,22.74a1.762,1.762,0,0,0,1.535.9H66.029A1.769,1.769,0,0,0,67.8,38.84V18.748a1.769,1.769,0,0,0-1.773-1.773Z" transform="translate(-23.838 -13.146)" fill="#cef"/>
        <path id="Trazado_883845" data-name="Trazado 883845" d="M135.606,97.586l-5.5-11.011a1.9,1.9,0,0,1,.682-2.545,1.859,1.859,0,0,1,2.545.682l2.27,3.932V77.467a1.49,1.49,0,0,1,2.98,0v6.706a1.49,1.49,0,0,1,2.981,0v.745a1.49,1.49,0,0,1,2.98,0v.745a1.49,1.49,0,1,1,2.98,0V92.37c0,2.235-1.49,3.726-1.49,5.216Z" transform="translate(-100.585 -58.839)" fill="#ffd1b5"/>
        <path id="Trazado_883846" data-name="Trazado 883846" d="M172.334,112.358c.279,11.085-7.681,13.191-8.626,13.4h8.525c0-1.49,1.49-2.981,1.49-5.216v-6.706a1.482,1.482,0,0,0-1.39-1.48" transform="translate(-126.78 -87.013)" fill="#ffb98d"/>
        <path id="Trazado_883847" data-name="Trazado 883847" d="M6.255,70.8A3.733,3.733,0,0,0,3.3,74.694v6.339c0,2.113,2.235,6.584,2.235,8.074v2.98H16.849c0-1.486,1.588-3.715,1.6-6.706h-5.5c-.371-3.08-2.932-3.832-2.932-5.216v-3.2c-.08-2.643-1.917-3.778-2.981-3.421V71.726Z" transform="translate(-2.559 -54.831)" fill="#ffd1b5"/>
        <path id="Trazado_883848" data-name="Trazado 883848" d="M24.451,135.436c-2.571,5.172-11.237,6.706-11.237,6.706H24.523c0-1.486,1.588-3.715,1.6-6.706Z" transform="translate(-10.233 -104.886)" fill="#ffb98d"/>
        <path id="Rectángulo_404193" data-name="Rectángulo 404193" d="M4.1,0H9.315a4.1,4.1,0,0,1,4.1,4.1v0a4.1,4.1,0,0,1-4.1,4.1H4.1A4.1,4.1,0,0,1,0,4.1v0A4.1,4.1,0,0,1,4.1,0Z" transform="translate(33.531 38.747)" fill="#549ad4"/>
        <path id="Trazado_883849" data-name="Trazado 883849" d="M161.373,172.27c-1.373,5.5-8.762,7.021-12.42,7.021a1.482,1.482,0,0,0,1.422,1.064h10.432a1.487,1.487,0,0,0,1.49-1.49v-5.216A1.486,1.486,0,0,0,161.373,172.27Z" transform="translate(-115.354 -133.411)" fill="#3588cb"/>
        <path id="Rectángulo_404194" data-name="Rectángulo 404194" d="M4.843,0H8.57a4.843,4.843,0,0,1,4.843,4.843v0A4.843,4.843,0,0,1,8.57,9.687H4.843A4.843,4.843,0,0,1,0,4.843v0A4.843,4.843,0,0,1,4.843,0Z" transform="translate(2.235 37.257)" fill="#549ad4"/>
        <path id="Trazado_883850" data-name="Trazado 883850" d="M22.633,165.663c-1.373,5.5-9.126,7.775-12.42,8.511a1.482,1.482,0,0,0,1.422,1.064H22.067a1.487,1.487,0,0,0,1.49-1.49v-6.706A1.486,1.486,0,0,0,22.633,165.663Z" transform="translate(-7.909 -128.294)" fill="#3588cb"/>
        <path id="Trazado_883851" data-name="Trazado 883851" d="M58.34,135.436c-.009,2.991-1.6,5.22-1.6,6.706h1.49c0-1.486,1.588-3.715,1.6-6.706Z" transform="translate(-43.943 -104.886)" fill="#ffb98d"/>
        <path id="Trazado_883852" data-name="Trazado 883852" d="M18.752,86.179V90.12c0,1.385,2.561,2.136,2.932,5.216h1.49c-.371-3.08-2.932-4.577-2.932-5.961v-3.2c-.08-2.643-1.917-3.778-3.726-3.421.319-.357,2.156.779,2.235,3.421" transform="translate(-12.791 -64.04)" fill="#ffb98d"/>
        <path id="Trazado_883853" data-name="Trazado 883853" d="M42.943,47.091a7.451,7.451,0,0,1,14.9,0v2.98h-14.9Z" transform="translate(-33.256 -30.698)" fill="#22a53c"/>
        <path id="Trazado_883854" data-name="Trazado 883854" d="M66.067,75.654v-.745a2.235,2.235,0,1,1,4.471,0v.745Z" transform="translate(-51.164 -56.281)" fill="#ffca28"/>
        <path id="Trazado_883855" data-name="Trazado 883855" d="M156.746,29.73a1.487,1.487,0,0,0-1.49,1.49v1.49a1.49,1.49,0,1,0,2.981,0V31.22a1.487,1.487,0,0,0-1.49-1.49" transform="translate(-120.235 -23.024)" fill="#ffca28"/>
        <path id="Trazado_883856" data-name="Trazado 883856" d="M130.319,52.853a1.487,1.487,0,0,1,1.49,1.49v1.49a1.49,1.49,0,0,1-2.981,0v-1.49a1.487,1.487,0,0,1,1.49-1.49" transform="translate(-99.769 -40.931)" fill="#ffca28"/>
        <path id="Trazado_883857" data-name="Trazado 883857" d="M70.86,39.64a7.479,7.479,0,0,0-1.491.15,7.453,7.453,0,0,1,5.961,7.3v2.981h2.98V47.091A7.451,7.451,0,0,0,70.86,39.64" transform="translate(-53.721 -30.698)" fill="#18732a"/>
        <path id="Trazado_883858" data-name="Trazado 883858" d="M50.4,39.64a7.451,7.451,0,0,0-7.451,7.451v2.981h1.49V47.091a7.454,7.454,0,0,1,6.706-7.415q-.368-.037-.745-.036" transform="translate(-33.257 -30.698)" fill="#f5f9fb"/>
        <path id="Trazado_883859" data-name="Trazado 883859" d="M5.962,0a2.992,2.992,0,0,0-2.98,2.982V15.393A4.168,4.168,0,0,0,.72,17.177,5.186,5.186,0,0,0,0,19.862V26.2a15.126,15.126,0,0,0,1.16,4.516c.281.788.558,1.551.76,2.189a6.365,6.365,0,0,1,.313,1.364v2.816a2.23,2.23,0,0,0-.742,1.656v6.7a2.25,2.25,0,0,0,2.234,2.24H14.159a2.249,2.249,0,0,0,2.232-2.24v-6.7a2.244,2.244,0,0,0-1.276-2.014c.127-.509.387-1.209.677-2.023A13.264,13.264,0,0,0,16.6,31.3H30.466l3.487,6.978a2.242,2.242,0,0,0-1.166,1.959v5.215a2.248,2.248,0,0,0,2.232,2.24H45.449a2.255,2.255,0,0,0,2.24-2.24V40.234A2.248,2.248,0,0,0,46.3,38.169a12.745,12.745,0,0,1,.584-1.45,7.668,7.668,0,0,0,.809-3.19V2.982A2.993,2.993,0,0,0,44.706,0Zm0,1.49H44.706A1.472,1.472,0,0,1,46.2,2.982V24.717a2.068,2.068,0,0,0-.748-.131,1.95,1.95,0,0,0-.742.135V5.215a2.242,2.242,0,0,0-2.232-2.233H8.195A2.242,2.242,0,0,0,5.962,5.215V18.157c-.046-.02-.091-.041-.137-.06a2.4,2.4,0,0,0-1.354-.16V2.982A1.472,1.472,0,0,1,5.962,1.49Zm1.49,18.021V5.215a.723.723,0,0,1,.742-.742H42.474a.723.723,0,0,1,.742.742V23.978a1.977,1.977,0,0,0-.742-.134,2.153,2.153,0,0,0-1.1.287A2.215,2.215,0,0,0,39.492,23.1a2.37,2.37,0,0,0-.748.129v-3.1h2.228a.746.746,0,0,0,0-1.492H38.744a2.236,2.236,0,1,0-4.472,0h-6.7a.746.746,0,0,0,0,1.492h6.7v6.9L33.393,25.5a2.617,2.617,0,0,0-3.56-.958,2.583,2.583,0,0,0-1.275,2.282H9.352c-.343-.376-.654-.682-.859-.93-.232-.282-.3-.434-.3-.559V22.127A5.138,5.138,0,0,0,7.453,19.512ZM36.511,5.962a2.248,2.248,0,0,0-2.24,2.232h-6.7a.746.746,0,0,0,0,1.492h6.7a2.236,2.236,0,0,0,4.472,0h2.238a.746.746,0,0,0,0-1.492H38.744a2.242,2.242,0,0,0-2.232-2.232m0,1.49a.723.723,0,0,1,.742.742V9.687a.746.746,0,1,1-1.492,0V8.195a.729.729,0,0,1,.75-.742M17.14,8.195a8.207,8.207,0,0,0-8.195,8.2v2.981a.745.745,0,0,0,.742.749h14.9a.745.745,0,0,0,.749-.749V16.391A8.207,8.207,0,0,0,17.14,8.195Zm-.748,1.533v.707a.745.745,0,0,0,1.49,0V9.727a6.672,6.672,0,0,1,3.445,1.42l-.5.5a.747.747,0,1,0,1.057,1.057l.5-.5A6.666,6.666,0,0,1,23.8,15.649h-.7a.745.745,0,1,0,0,1.49h.741v1.49H20.122a2.966,2.966,0,0,0-.731-1.947l1.253-1.253a.743.743,0,1,0-1.051-1.051l-1.452,1.445a2.952,2.952,0,0,0-1-.175,2.992,2.992,0,0,0-2.98,2.98H10.435V17.14h.742a.745.745,0,0,0,0-1.49h-.7A6.67,6.67,0,0,1,11.9,12.2l.5.5a.745.745,0,1,0,1.051-1.057l-.5-.5a6.671,6.671,0,0,1,3.442-1.423m14.156,1.45a2.242,2.242,0,0,0-2.232,2.232h-.748a.746.746,0,0,0,0,1.492h.748a2.236,2.236,0,1,0,4.472,0h8.195a.746.746,0,0,0,0-1.492H32.787a2.248,2.248,0,0,0-2.24-2.232m0,1.49a.729.729,0,0,1,.749.742V14.9a.746.746,0,1,1-1.492,0V13.409a.723.723,0,0,1,.742-.742M2.982,17v8.34a.745.745,0,0,0,1.49,0V19.9c0-.358.081-.409.176-.462a.77.77,0,0,1,.616.038A2.8,2.8,0,0,1,6.7,22.16v3.174a2.388,2.388,0,0,0,.639,1.512c.325.395.694.739,1.039,1.128a4.541,4.541,0,0,1,1.3,3.323.745.745,0,0,0,1.49,0H15.1a12.066,12.066,0,0,1-.716,2.909,15.247,15.247,0,0,0-.637,2.305H3.724v-2.24a6.142,6.142,0,0,0-.38-1.815c-.217-.686-.5-1.452-.781-2.232A16.628,16.628,0,0,1,1.49,26.2V19.862a3.825,3.825,0,0,1,.5-1.914A2.515,2.515,0,0,1,2.982,17Zm14.157.141a1.479,1.479,0,0,1,1.49,1.49H15.649a1.479,1.479,0,0,1,1.49-1.49m20.114,1.49v9.685a.745.745,0,0,0,1.49,0v-2.98a.745.745,0,1,1,1.49,0v2.98a.745.745,0,0,0,1.49,0V26.077a.746.746,0,0,1,1.492,0v2.238a.745.745,0,0,0,1.49,0v-1.49a.745.745,0,1,1,1.49,0v6.7a6.24,6.24,0,0,1-.681,2.585A9.68,9.68,0,0,0,44.788,38H35.481l-5.29-10.6a1.134,1.134,0,0,1,.384-1.569,1.1,1.1,0,0,1,1.53.407l2.272,3.932a.745.745,0,0,0,1.385-.368c0-3.724,0-7.456,0-11.176a.746.746,0,1,1,1.492,0ZM10.441,28.315H28.977l.744,1.49H11.007a5.989,5.989,0,0,0-.566-1.49M3.724,38H14.159a.723.723,0,0,1,.742.742v6.7a.728.728,0,0,1-.742.748H3.724a.728.728,0,0,1-.742-.748v-6.7A.723.723,0,0,1,3.724,38m31.3,1.49H45.449a.728.728,0,0,1,.748.742v5.215a.733.733,0,0,1-.748.748H35.02a.733.733,0,0,1-.748-.748V40.234A.728.728,0,0,1,35.02,39.492Z"/>
      </g>
    </g>
  </g>
</svg>
